<svg xmlns="http://www.w3.org/2000/svg" viewBox="0 0 16 16">
    <path d="m8.39474,12.52631l-1,0l0,-7l1,0l0,7zm0,-8l-1,0l0,-1l1,0l0,1z" fill="#7F8183" />
    <path d="m6.39474,11.52631l3,0l0,1l-3,0l0,-1z" fill="#7F8183" />
    <path
        d="m7.89474,0.52631c-4.134,0 -7.5,3.364 -7.5,7.5s3.365,7.5 7.5,7.5c4.136,0 7.5,-3.364 7.5,-7.5s-3.364,-7.5 -7.5,-7.5zm0.001,14c-3.585,0 -6.501,-2.916 -6.501,-6.5s2.916,-6.5 6.501,-6.5c3.584,0 6.499,2.916 6.499,6.5s-2.915,6.5 -6.499,6.5z"
        fill="#7F8183" />
</svg>