<?xml version="1.0" encoding="UTF-8"?>
<svg width="20px" height="20px" viewBox="0 0 20 20" version="1.1" xmlns="http://www.w3.org/2000/svg" xmlns:xlink="http://www.w3.org/1999/xlink">
    <!-- Generator: Sketch 59.1 (86144) - https://sketch.com -->
    <title>widget-image</title>
    <desc>Created with Sketch.</desc>
    <g stroke="none" stroke-width="1" fill="none" fill-rule="evenodd">
        <g transform="translate(-120.000000, -1139.000000)" fill="#000000" fill-rule="nonzero">
            <path d="M138,1139 C139.104569,1139 140,1139.89543 140,1141 L140,1157 C140,1158.10457 139.104569,1159 138,1159 L122,1159 C120.895431,1159 120,1158.10457 120,1157 L120,1141 C120,1139.89543 120.895431,1139 122,1139 L138,1139 Z M138,1140 L122,1140 C121.447715,1140 121,1140.44772 121,1141 L121,1157 C121,1157.55228 121.447715,1158 122,1158 L123.502,1158 L123.5,1158 L134,1147 L139,1151.999 L139,1141 C139,1140.44772 138.552285,1140 138,1140 Z M134,1148.5 L124.974,1158 L138,1158 C138.552285,1158 139,1157.55228 139,1157 L139,1153.5 L134,1148.5 Z M126.5,1142 C128.432997,1142 130,1143.567 130,1145.5 C130,1147.433 128.432997,1149 126.5,1149 C124.567003,1149 123,1147.433 123,1145.5 C123,1143.567 124.567003,1142 126.5,1142 Z M126.5,1143 C125.119288,1143 124,1144.11929 124,1145.5 C124,1146.88071 125.119288,1148 126.5,1148 C127.880712,1148 129,1146.88071 129,1145.5 C129,1144.11929 127.880712,1143 126.5,1143 Z"></path>
        </g>
    </g>
</svg>