<svg width="16" height="16" viewBox="0 0 16 16" fill="none" xmlns="http://www.w3.org/2000/svg">
<path d="M0 0 C1.32 0 2.64 0 4 0 C4 5.28 4 10.56 4 16 C-1.28 16 -6.56 16 -12 16 C-12 14.68 -12 13.36 -12 12 C-8.04 12 -4.08 12 0 12 C0 8.04 0 4.08 0 0 Z " fill="#000000" transform="translate(12,0)"/>
<path d="M0 0 C0.66 0 1.32 0 2 0 C2 4.62 2 9.24 2 14 C-2.62 14 -7.24 14 -12 14 C-12 13.34 -12 12.68 -12 12 C-8.04 12 -4.08 12 0 12 C0 8.04 0 4.08 0 0 Z " fill="#FFFFFF" transform="translate(13,1)"/>
</svg>
