<svg xmlns="http://www.w3.org/2000/svg" width="16" height="16" viewBox="0 0 16 16" fill="none">
  <path fill-rule="evenodd" clip-rule="evenodd" d="M15.98 8H13.73C13.4936 5.48105 11.4989 3.48641 8.97998 3.25V1H7.97998V3.25C5.46103 3.48641 3.46639 5.48105 3.22998 8H0.97998V9H3.22998C3.46639 11.5189 5.46103 13.5136 7.97998 13.75V16H8.97998V13.75C11.4989 13.5136 13.4936 11.5189 13.73 9H15.98V8ZM8.47998 12.8C6.10516 12.8 4.17998 10.8748 4.17998 8.5C4.17998 6.12518 6.10516 4.2 8.47998 4.2C10.8548 4.2 12.78 6.12518 12.78 8.5C12.7778 10.8739 10.8539 12.7978 8.47998 12.8Z" fill="black"/>
</svg>