<svg xmlns="http://www.w3.org/2000/svg" width="16" height="16" viewBox="0 0 16 16" fill="none">
  <g clip-path="url(#clip0_1523_214)">
    <path fill-rule="evenodd" clip-rule="evenodd" d="M8.00001 2.49995L4.00001 11.5L8.00001 9.49995L12 11.5L8.00001 2.49995ZM8.00001 8.49995C7.84488 8.49981 7.69185 8.53575 7.55301 8.60495L6.04601 9.35895L8.00001 4.96195L9.95401 9.35895L8.44701 8.60495C8.30817 8.53575 8.15514 8.49981 8.00001 8.49995ZM8.00001 0.199951C3.69219 0.199951 0.200012 3.69213 0.200012 7.99995C0.200012 12.3078 3.69219 15.8 8.00001 15.8C12.3078 15.8 15.8 12.3078 15.8 7.99995C15.7951 3.69419 12.3058 0.204911 8.00001 0.199951ZM8.00001 14.8C4.24448 14.8 1.20001 11.7555 1.20001 7.99995C1.20001 4.24442 4.24448 1.19995 8.00001 1.19995C11.7555 1.19995 14.8 4.24442 14.8 7.99995C14.7956 11.7537 11.7537 14.7955 8.00001 14.8Z" fill="black"/>
  </g>
  <defs>
    <clipPath id="clip0_1523_214">
      <rect width="16" height="16" fill="white"/>
    </clipPath>
  </defs>
</svg>