<svg xmlns="http://www.w3.org/2000/svg" width="16" height="16" viewBox="0 0 16 16" fill="none">
  <g clip-path="url(#clip0_1523_227)">
    <path fill-rule="evenodd" clip-rule="evenodd" d="M7.99995 2.49995L3.99995 11.5L7.99995 9.49995L12 11.5L7.99995 2.49995ZM7.99995 0.199951C3.69213 0.199951 0.199951 3.69213 0.199951 7.99995C0.199951 12.3078 3.69213 15.8 7.99995 15.8C12.3078 15.8 15.8 12.3078 15.8 7.99995C15.795 3.69419 12.3057 0.204911 7.99995 0.199951ZM7.99995 14.8C4.24442 14.8 1.19995 11.7555 1.19995 7.99995C1.19995 4.24442 4.24442 1.19995 7.99995 1.19995C11.7555 1.19995 14.8 4.24442 14.8 7.99995C14.7955 11.7537 11.7537 14.7955 7.99995 14.8Z" fill="black"/>
  </g>
  <defs>
    <clipPath id="clip0_1523_227">
      <rect width="16" height="16" fill="white"/>
    </clipPath>
  </defs>
</svg>