<svg xmlns="http://www.w3.org/2000/svg" xmlns:xlink="http://www.w3.org/1999/xlink" width="108px" height="108px" viewBox="0 0 108 108" version="1.1">
    <g stroke="none" stroke-width="1" fill="none" fill-rule="evenodd">
        <g transform="translate(-1196.000000, -746.000000)">
            <g transform="translate(1196.000000, 517.000000)">
                <g transform="translate(0.000000, 229.000000)">
                    <rect fill="#181818" fill-rule="nonzero" x="0" y="0" width="108" height="108"/>
                    <rect fill="#363636" fill-rule="nonzero" x="23" y="0" width="62" height="108"/>
                    <path d="M76.5031319,-2.13162821e-14 C76.3678738,0.494690427 76.0009986,0.909796423 75.500259,1.13471429 C73.1179767,2.16367857 70.8440635,3.42932143 70.8440635,4.83260714 C70.8440635,5.77932143 71.6963218,6.21239286 71.6963218,7.16414286 C71.6963218,8.50196429 69.9220082,8.85446429 69.5124099,9.96735714 C69.45618,10.1204529 69.4276418,10.2809033 69.4279188,10.4423929 C69.4279188,11.3958214 70.5630387,13.3798929 67.9180992,13.2053214 C67.2807422,13.1667143 66.0923562,14.2745714 66.2135826,14.8486429 C66.5001177,16.1428214 67.1595158,18.5582857 64.8911129,19.68125 C63.0433288,20.5943929 63.1204728,23.13575 61.0192154,23.13575 C59.7445015,23.13575 59.2706165,21.9271786 57.9977394,21.9271786 C57.0659305,21.987261 56.354539,22.7124263 56.3905713,23.5654643 C56.3905713,24.7975357 55.2572882,26.8470714 53.4609335,26.8470714 C52.5492241,26.9344729 51.6648822,26.5303841 51.1943673,25.8113929 C50.6268073,24.8831429 50.10884,23.9985357 48.9259643,23.9985357 C47.6747681,24.0493671 46.7041029,25.0152336 46.7549098,26.1588571 C46.7549098,26.9981429 47.1314463,27.4731786 47.1314463,28.3158214 C47.1314463,29.6116786 46,30.2142857 46,31.5118214 C46.086916,32.2463681 46.7997864,32.7830516 47.6053313,32.7203929 C48.9039231,32.7203929 49.2400509,32.0791786 50.5312956,32.2000357 C51.4551877,32.2856429 51.7619272,33.3884643 51.7619272,33.9289643 C51.7619272,36.1094286 47.7155371,36.8110714 49.2088259,39.53875 C49.8131211,40.6365357 53.6501201,40.1212143 53.6501201,41.9575714 C53.6405589,42.597556 53.5081391,43.2310386 53.2588895,43.8291786 C52.8762043,44.6298292 52.6570813,45.4877222 52.6123487,46.3604643 C52.6123487,46.4729286 52.6307163,46.7079286 52.6601046,47 C53.5777822,48.7784831 55.0305176,49.6677246 57.0183105,49.6677246 C59.0061035,49.6677246 60.4762712,48.7784831 61.4288136,47 C61.8237178,45.7343571 62.9588377,44.4317857 62.9588377,43.71 L62.9588377,43.6126429 C61.1220741,42.9999643 62.1708661,42.6206071 62.1708661,41.9810714 C62.1708661,40.0372857 65.4476522,40.2957857 65.4476522,38.3553571 C65.4476522,37.7712143 64.7717233,37.5546786 64.7717233,36.9738929 C64.7717233,35.5471071 66.6323647,35.2667857 66.6323647,33.8433571 L66.6323647,32.1580714 C66.6323647,31.5118214 67.5580935,31.067 68.2670843,31.067 C69.0679132,31.067 69.6630245,31.5588214 70.467527,31.5588214 C72.2400038,31.5588214 72.377761,29.0745357 74.1520746,29.0745357 C75.4745443,29.0745357 75.4525032,30.5013214 76.4204776,31.2801786 C77.402535,31.869147 78.5955917,32.0886511 79.7505298,31.8928571 L82.0648519,31.8928571 C82.4450619,31.8928571 83.8391655,31.2801786 85,30.9864286 L85,-2.13162821e-14 L76.5031319,-2.13162821e-14 Z" fill="#444444" fill-rule="nonzero"/>
                    <rect fill="#6A6A6A" x="27" y="4" width="44" height="6"/>
                    <rect fill="#6A6A6A" x="75" y="4" width="6" height="6"/>
                    <rect fill="#6A6A6A" x="75" y="12" width="6" height="6"/>
                    <rect fill="#6A6A6A" x="75" y="20" width="6" height="6"/>
                    <rect fill="#6A6A6A" x="75" y="28" width="6" height="6"/>
                    <rect fill="#6A6A6A" x="75" y="85" width="6" height="12"/>
                    <rect fill="#6A6A6A" x="75" y="99" width="6" height="6"/>
                    <rect fill="#6A6A6A" x="27" y="99" width="6" height="6" rx="3"/>
                    <rect fill="#6A6A6A" x="75" y="36" width="6" height="11"/>
                </g>
            </g>
        </g>
    </g>
</svg>