<svg width="108" height="80" viewBox="0 0 108 80" fill="none" xmlns="http://www.w3.org/2000/svg">
  <g clip-path="url(#clip0_1635_5116)">
    <rect width="108" height="82" fill="#181818"/>
    <path d="M93.4028 0C93.1705 0.842026 92.5402 1.54859 91.6799 1.93143C87.5873 3.68286 83.6808 5.83714 83.6808 8.22571C83.6808 9.83714 85.145 10.5743 85.145 12.1943C85.145 14.4714 82.0968 15.0714 81.3931 16.9657C81.2965 17.2263 81.2475 17.4994 81.248 17.7743C81.248 19.3971 83.198 22.7743 78.6542 22.4771C77.5592 22.4114 75.5176 24.2971 75.7259 25.2743C76.2182 27.4771 77.351 31.5886 73.454 33.5C70.2796 35.0543 70.4121 39.38 66.8022 39.38C64.6123 39.38 63.7982 37.3229 61.6115 37.3229C60.0107 37.4251 58.7886 38.6594 58.8505 40.1114C58.8505 42.2086 56.9035 45.6971 53.8175 45.6971C52.2512 45.8459 50.732 45.1581 49.9237 43.9343C48.9486 42.3543 48.0588 40.8486 46.0267 40.8486C43.8772 40.9351 42.2096 42.5791 42.2969 44.5257C42.2969 45.9543 42.9438 46.7629 42.9438 48.1971C42.9438 50.4029 41 51.4286 41 53.6371C41.1493 54.8874 42.374 55.8009 43.7579 55.6943C45.9888 55.6943 46.5662 54.6029 48.7845 54.8086C50.3717 54.9543 50.8987 56.8314 50.8987 57.7514C50.8987 61.4629 43.9472 62.6571 46.5126 67.3C47.5507 69.1686 54.1425 68.2914 54.1425 71.4171C54.1261 72.5065 53.8986 73.5847 53.4704 74.6029C52.813 75.9657 52.4365 77.4259 52.3597 78.9114C52.3597 79.1029 52.3912 79.5029 52.4417 80H67.5059C68.1843 77.8457 70.1344 75.6286 70.1344 74.4V74.2343C66.9789 73.1914 68.7807 72.5457 68.7807 71.4571C68.7807 68.1486 74.4101 68.5886 74.4101 65.2857C74.4101 64.2914 73.2489 63.9229 73.2489 62.9343C73.2489 60.5057 76.4453 60.0286 76.4453 57.6057V54.7371C76.4453 53.6371 78.0357 52.88 79.2537 52.88C80.6295 52.88 81.6519 53.7171 83.034 53.7171C86.079 53.7171 86.3156 49.4886 89.3638 49.4886C91.6358 49.4886 91.5979 51.9171 93.2608 53.2429C94.9479 54.2453 96.9976 54.619 98.9817 54.2857H102.958C103.611 54.2857 106.006 53.2429 108 52.7429V0H93.4028Z" fill="#363636"/>
    <g clip-path="url(#clip1_1635_5116)">
      <rect x="68" y="50" width="38" height="28" stroke="#979797" stroke-width="2"/>
      <rect x="82" y="60" width="10" height="8" fill="#93CFD5" fill-opacity="0.73"/>
    </g>
  </g>
  <defs>
    <clipPath id="clip0_1635_5116">
      <rect width="108" height="80" fill="white"/>
    </clipPath>
    <clipPath id="clip1_1635_5116">
      <rect width="40" height="30" fill="white" transform="translate(67 49)"/>
    </clipPath>
  </defs>
</svg>
