<svg xmlns="http://www.w3.org/2000/svg" xmlns:xlink="http://www.w3.org/1999/xlink" width="108px" height="108px" viewBox="0 0 108 108" version="1.1">
    <g stroke="none" stroke-width="1" fill="none" fill-rule="evenodd">
        <g transform="translate(-1316.000000, -586.000000)">
            <g transform="translate(1196.000000, 517.000000)">
                <g transform="translate(120.000000, 69.000000)">
                    <rect fill="#181818" fill-rule="nonzero" x="0" y="0" width="108" height="108"/>
                    <rect fill="#6A6A6A" x="98" y="84" width="6" height="12"/>
                    <rect fill="#6A6A6A" x="4" y="4" width="6" height="6"/>
                    <rect fill="#6A6A6A" x="12" y="4" width="6" height="6"/>
                    <rect fill="#6A6A6A" x="20" y="4" width="6" height="6"/>
                    <rect fill="#6A6A6A" x="28" y="4" width="6" height="6"/>
                    <rect fill="#6A6A6A" x="36" y="4" width="12" height="6"/>
                    <rect fill="#6A6A6A" x="98" y="98" width="6" height="6"/>
                    <path d="M88.1739745,0 C87.8583721,1.13673545 87.00233,2.09059604 85.8339377,2.60742857 C80.275279,4.97185714 74.9694815,7.88014286 74.9694815,11.1047143 C74.9694815,13.2801429 76.9580841,14.2752857 76.9580841,16.4622857 C76.9580841,19.5364286 72.8180191,20.3464286 71.8622898,22.9037143 C71.7310866,23.2555088 71.6644976,23.6242033 71.6651439,23.9952857 C71.6651439,26.1861429 74.3137569,30.7452857 68.1422314,30.3441429 C66.6550652,30.2554286 63.8821646,32.8011429 64.1650261,34.1202857 C64.8336081,37.0941429 66.3722036,42.6445714 61.0792634,45.225 C56.7677672,47.3232857 56.94777,53.163 52.0448359,53.163 C49.0705035,53.163 47.9647718,50.3858571 44.9947252,50.3858571 C42.8205045,50.5239189 41.1605911,52.1902561 41.2446663,54.1504286 C41.2446663,56.9815714 38.6003391,61.6911429 34.4088447,61.6911429 C32.281523,61.8919802 30.2180585,60.9634357 29.1201903,59.3112857 C27.7958838,57.1782857 26.5872934,55.1455714 23.82725,55.1455714 C20.9077922,55.2623755 18.6429067,57.4818135 18.7614562,60.1097143 C18.7614562,62.0382857 19.6400414,63.1298571 19.6400414,65.0661429 C19.6400414,68.0438571 17,69.4285714 17,72.4101429 C17.202804,74.0980374 18.8661682,75.3312675 20.7457731,75.1872857 C23.7758207,75.1872857 24.5601187,73.7138571 27.5730231,73.9915714 C29.7287713,74.1882857 30.4444968,76.7224286 30.4444968,77.9644286 C30.4444968,82.9748571 21.00292,84.5871429 24.4872604,90.855 C25.8972825,93.3775714 34.8502802,92.1934286 34.8502802,96.4131429 C34.8279708,97.8837456 34.5189913,99.3394077 33.9374088,100.713857 C33.0444766,102.55365 32.5331898,104.524979 32.4288136,106.530429 C32.4288136,106.788857 32.4716715,107.328857 32.540244,108 L53.0005652,108 C53.9220082,105.091714 56.5706212,102.098571 56.5706212,100.44 L56.5706212,100.216286 C52.2848396,98.8084286 54.7320209,97.9367143 54.7320209,96.4671429 C54.7320209,92.0005714 62.3778552,92.5945714 62.3778552,88.1357143 C62.3778552,86.7934286 60.8006876,86.2958571 60.8006876,84.9612857 C60.8006876,81.6827143 65.1421843,81.0385714 65.1421843,77.7677143 L65.1421843,73.8951429 C65.1421843,72.4101429 67.3022182,71.388 68.9565299,71.388 C70.8251307,71.388 72.2137239,72.5181429 74.0908962,72.5181429 C78.2266755,72.5181429 78.5481091,66.8095714 82.6881741,66.8095714 C85.7739368,66.8095714 85.7225074,70.0881429 87.9811143,71.8778571 C90.2725816,73.2312314 93.0563805,73.7356239 95.7512363,73.2857143 L101.151321,73.2857143 C102.038478,73.2857143 105.291386,71.8778571 108,71.2028571 L108,0 L88.1739745,0 Z" fill="#363636" fill-rule="nonzero"/>
                    <rect fill="#6A6A6A" x="4" y="94" width="10" height="10"/>
                    <rect fill="#6A6A6A" x="99" y="4" width="6" height="6"/>
                    <rect fill="#6A6A6A" x="98" y="70" width="6" height="12"/>
                    <rect fill="#6A6A6A" x="98" y="62" width="6" height="6" rx="3"/>
                </g>
            </g>
        </g>
    </g>
</svg>