<svg xmlns="http://www.w3.org/2000/svg" xmlns:xlink="http://www.w3.org/1999/xlink" width="108px" height="108px" viewBox="0 0 108 108" version="1.1">
    <g stroke="none" stroke-width="1" fill="none" fill-rule="evenodd">
        <g transform="translate(-1196.000000, -586.000000)">
            <g transform="translate(1196.000000, 517.000000)">
                <g transform="translate(0.000000, 69.000000)">
                    <rect fill="#181818" fill-rule="nonzero" x="0" y="0" width="108" height="108"/>
                    <path d="M88.3918429,0 C88.0797087,1.13673545 87.2330736,2.09059604 86.0775208,2.60742857 C80.5799463,4.97185714 75.3324542,7.88014286 75.3324542,11.1047143 C75.3324542,13.2801429 77.2992041,14.2752857 77.2992041,16.4622857 C77.2992041,19.5364286 73.2046343,20.3464286 72.2594075,22.9037143 C72.1296461,23.2555088 72.0637889,23.6242033 72.064428,23.9952857 C72.064428,26.1861429 74.6839354,30.7452857 68.5802289,30.3441429 C67.1094052,30.2554286 64.3669759,32.8011429 64.6467291,34.1202857 C65.307964,37.0941429 66.829652,42.6445714 61.5948759,45.225 C57.3307587,47.3232857 57.5087835,53.163 52.6597278,53.163 C49.7180803,53.163 48.6244996,50.3858571 45.6870908,50.3858571 C43.5367627,50.5239189 41.8950901,52.1902561 41.9782414,54.1504286 C41.9782414,56.9815714 39.3629727,61.6911429 35.2175387,61.6911429 C33.1135941,61.8919802 31.0728051,60.9634357 29.9870014,59.3112857 C28.6772477,57.1782857 27.4819385,55.1455714 24.7522253,55.1455714 C21.8648494,55.2623755 19.6248528,57.4818135 19.7420996,60.1097143 C19.7420996,62.0382857 20.61103,63.1298571 20.61103,65.0661429 C20.61103,68.0438571 18,69.4285714 18,72.4101429 C18.2005754,74.0980374 19.8456609,75.3312675 21.7046107,75.1872857 C24.7013611,75.1872857 25.4770405,73.7138571 28.4568361,73.9915714 C30.5888946,74.1882857 31.2967551,76.7224286 31.2967551,77.9644286 C31.2967551,82.9748571 21.9589319,84.5871429 25.4049828,90.855 C26.7995102,93.3775714 35.6541233,92.1934286 35.6541233,96.4131429 C35.632059,97.8837456 35.3264749,99.3394077 34.7512834,100.713857 C33.8681637,102.55365 33.3624954,104.524979 33.2592662,106.530429 C33.2592662,106.788857 33.3016531,107.328857 33.369472,108 L53.6049546,108 C54.5162718,105.091714 57.1357792,102.098571 57.1357792,100.44 L57.1357792,100.216286 C52.8970941,98.8084286 55.3173833,97.9367143 55.3173833,96.4671429 C55.3173833,92.0005714 62.8791975,92.5945714 62.8791975,88.1357143 C62.8791975,86.7934286 61.3193614,86.2958571 61.3193614,84.9612857 C61.3193614,81.6827143 65.6131493,81.0385714 65.6131493,77.7677143 L65.6131493,73.8951429 C65.6131493,72.4101429 67.7494466,71.388 69.3855791,71.388 C71.2336457,71.388 72.6069797,72.5181429 74.4635238,72.5181429 C78.5538548,72.5181429 78.8717562,66.8095714 82.966326,66.8095714 C86.0181792,66.8095714 85.967315,70.0881429 88.2011021,71.8778571 C90.4673884,73.2312314 93.2205961,73.7356239 95.8858381,73.2857143 L101.226581,73.2857143 C102.103989,73.2857143 105.321151,71.8778571 108,71.2028571 L108,0 L88.3918429,0 Z" fill="#363636" fill-rule="nonzero"/>
                    <rect fill="#6A6A6A" x="4" y="4" width="6" height="12"/>
                    <rect fill="#6A6A6A" x="4" y="26" width="6" height="12"/>
                    <rect fill="#6A6A6A" x="98" y="4" width="6" height="6"/>
                    <rect fill="#6A6A6A" x="98" y="12" width="6" height="6"/>
                    <rect fill="#6A6A6A" x="98" y="20" width="6" height="6"/>
                    <rect fill="#6A6A6A" x="98" y="28" width="6" height="6"/>
                    <rect fill="#6A6A6A" x="4" y="18" width="6" height="6"/>
                    <rect fill="#6A6A6A" x="4" y="40" width="6" height="6" rx="3"/>
                    <rect fill="#6A6A6A" x="12" y="4" width="12" height="6"/>
                    <rect fill="#6A6A6A" x="4" y="94" width="10" height="10"/>
                    <rect fill="#6A6A6A" x="98" y="98" width="6" height="6"/>
                </g>
            </g>
        </g>
    </g>
</svg>