<!-- Generated by IcoMoon.io -->
<svg version="1.1" xmlns="http://www.w3.org/2000/svg" width="32" height="32" viewBox="0 0 32 32">
<title>image</title>
<path d="M2.122 1.371c0.313 0 0.522 0 0.835 0 8.868 0 17.735 0 26.603 0 0.417 0 0.73 0.208 0.939 0.521s0.104 0.729 0.104 1.041c0 8.85 0 17.7 0 26.55 0.104 0.625-0.522 1.145-1.043 1.145-9.076 0-18.153 0-27.125 0-0.626 0-1.148-0.521-1.043-1.041 0-9.058 0-18.117 0-27.175-0.104-0.521 0.209-0.937 0.73-1.041zM3.374 3.35c0 7.184 0 14.264 0 21.448 0.835-1.77 2.191-3.332 3.86-4.165 1.982-1.041 4.173-1.354 6.364-1.145 1.878 0.208 3.651 0.729 5.112 1.978 0.626-1.354 1.565-2.603 2.817-3.54 1.982-1.458 4.59-2.186 6.99-2.395 0-4.061 0-8.017 0-12.078-8.242-0.104-16.796-0.104-25.142-0.104zM23.091 19.176c-1.356 0.833-2.399 2.186-2.712 3.748 1.252 1.666 1.878 3.54 2.087 5.622 2.087 0 4.069 0 6.155 0 0-3.748 0-7.392 0-11.141-1.982 0.208-3.964 0.625-5.529 1.77zM6.921 23.236c-1.461 1.354-2.295 3.332-2.608 5.31 5.425 0 10.745 0 16.17 0-0.313-2.186-1.252-4.373-3.025-5.726-1.669-1.249-3.756-1.562-5.738-1.458-1.774 0-3.547 0.625-4.799 1.874zM10.155 5.953c0.939-0.208 1.982 0 2.817 0.416 1.043 0.521 1.774 1.562 2.086 2.707 0.209 1.041 0.104 2.082-0.417 3.019s-1.252 1.666-2.295 1.978c-1.043 0.416-2.191 0.312-3.13-0.104s-1.774-1.249-2.191-2.291c-0.417-1.145-0.417-2.395 0.104-3.436 0.626-1.145 1.774-1.978 3.025-2.291zM10.572 7.827c-0.939 0.208-1.774 1.041-1.774 2.082-0.104 1.041 0.73 2.082 1.774 2.186 0.939 0.208 1.982-0.312 2.399-1.249 0.417-0.729 0.313-1.666-0.209-2.291-0.522-0.416-1.461-0.729-2.191-0.729z"></path>
</svg>
