<svg xmlns="http://www.w3.org/2000/svg" width="32" height="16" viewBox="0 7 32 16"><path fill="#6F6F6F" d="M4.5 11h14.233A7.31 7.31 0 0124.5 8.175c4.039 0 7.325 3.286 7.325 7.325s-3.286 7.325-7.325 7.325A7.31 7.31 0 0118.733 20H4.5a4.5 4.5 0 110-9zm20 11c3.584 0 6.5-2.916 6.5-6.5S28.084 9 24.5 9 18 11.916 18 15.5s2.916 6.5 6.5 6.5zm-20-3h13.568a7.3 7.3 0 01-.352-.748c-.028-.07-.052-.143-.078-.214a7.246 7.246 0 01-.257-.842 7.243 7.243 0 01-.112-.584c-.013-.085-.03-.17-.04-.256-.032-.281-.054-.566-.054-.856s.022-.575.054-.856c.01-.087.027-.17.04-.256a7.243 7.243 0 01.182-.854c.054-.194.117-.384.187-.572.026-.071.05-.144.078-.214a7.3 7.3 0 01.352-.748H4.5C2.57 12 1 13.57 1 15.5S2.57 19 4.5 19z"/></svg>