<svg xmlns="http://www.w3.org/2000/svg" width="32" height="16" viewBox="0 7.5 32 16"><path fill="#b3b3b3" d="M27.5 11H13.267A7.31 7.31 0 007.5 8.175C3.461 8.175.175 11.461.175 15.5s3.286 7.325 7.325 7.325A7.31 7.31 0 0013.267 20H27.5a4.5 4.5 0 100-9zm-20 11C3.916 22 1 19.084 1 15.5S3.916 9 7.5 9s6.5 2.916 6.5 6.5S11.084 22 7.5 22zm20-3H13.932c.132-.241.247-.491.352-.748.028-.07.052-.143.078-.214a7.246 7.246 0 00.187-.572 7.15 7.15 0 00.07-.27 7.243 7.243 0 00.112-.584c.013-.085.03-.17.04-.256.032-.281.054-.566.054-.856s-.021-.575-.054-.856c-.01-.087-.027-.17-.04-.256a7.243 7.243 0 00-.112-.584 7.362 7.362 0 00-.07-.27 7.246 7.246 0 00-.187-.572c-.026-.071-.05-.144-.078-.214a7.282 7.282 0 00-.352-.748H27.5c1.93 0 3.5 1.57 3.5 3.5S29.43 19 27.5 19z"/></svg>