<?xml version="1.0" encoding="UTF-8"?><svg id="Icons" xmlns="http://www.w3.org/2000/svg" viewBox="0 0 32 32"><defs><style>.cls-1{fill:#6db5e3;}</style></defs><path class="cls-1" d="M16.00001,8.99999c-3.2417,.00677-6.32507,.22382-7.54911,.65115-1.24373,.43421-2.16302,.94983-2.32524,2.22532v6.2689c.13519,1.43832,.45964,2.55098,1.75745,3.22943,1.29781,.67845,3.81232,.62418,4.70456,.62418,1.45941,0,2.33866-.68778,3.01951-1.42581,.14026-.15204,.30948-.18459,.39283-.19151,.08335,.00691,.25257,.03947,.39283,.19151,.68085,.73803,1.5601,1.42581,3.01951,1.42581,.89224,0,3.40675,.05428,4.70456-.62418,1.29781-.67845,1.62226-1.79111,1.75745-3.22943v-6.2689c-.16223-1.27549-1.08151-1.79111-2.32524-2.22532-1.22403-.42733-4.30741-.64438-7.54911-.65115Zm0,7.97311c-.84092,.04794-1.96613,1.31264-2.54562,1.52037-.47819,.17142-2.17798,.09828-3.39994,.01803-.74814-.04914-1.33338-.6599-1.35534-1.41209v-3.01081c.10135-2.23769,1.22578-2.49253,7.3009-2.47482,6.07512-.01771,7.19955,.23713,7.3009,2.47482v3.01081c-.02196,.7522-.6072,1.36296-1.35534,1.41209-1.22196,.08026-2.92175,.15339-3.39994-.01803-.57948-.20773-1.7047-1.47243-2.54562-1.52037Zm12.49085-5.70678l-.01147-.00428c-.00531-.00445-.00736-.01199-.00514-.01867,.26114-.76442,.14675-1.49698-.33974-2.17732-1.63586-2.28726-7.45443-3.6541-12.1346-3.6541s-10.49857,1.36684-12.13443,3.6541c-.48649,.68034-.60088,1.4129-.33991,2.17715,.0024,.00668,.00034,.01421-.00514,.01884l-.01935,.0024c-1.84032-.93172-2.70474-2.26688-2.37133-3.66317C1.76146,4.95458,6.68427,2.10599,15.99991,2.10599s14.23863,2.84858,14.87033,5.49527c.3334,1.39629-.53102,2.73145-2.37133,3.66317l-.00805,.00188ZM15.99995,29.81178c-9.31564,0-14.23845-2.84858-14.87016-5.49527-.3334-1.39629,.53084-2.73162,2.37116-3.66317l.01935,.0024c.00548,.00462,.00753,.01216,.00531,.01884-.25772,.75346-.14915,1.4701,.32262,2.13023,1.63689,2.28965,7.48251,3.1941,12.15172,3.1941s10.51501-.90445,12.15189-3.1941c.47177-.66013,.58033-1.37677,.32262-2.13023-.00223-.00668-.00034-.01404,.00514-.01867l.01952-.00257c1.84015,.93155,2.7044,2.26688,2.37116,3.66317-.63188,2.64669-5.55469,5.49527-14.87033,5.49527Z"/></svg>