<?xml version="1.0" encoding="UTF-8"?><svg id="Icons" xmlns="http://www.w3.org/2000/svg" viewBox="0 0 16 16"><defs><style>.cls-1{fill:none;}.cls-2{fill:#6db5e3;}</style></defs><path class="cls-2" d="M8,5c-1.64147,.00312-3.20278,.1033-3.82258,.30053-.62978,.2004-1.09527,.43838-1.17742,1.02707v2.89333c.06845,.66384,.23274,1.17737,.88991,1.49051s1.93041,.28808,2.38221,.28808c.73899,0,1.18421-.31744,1.52897-.65807,.07102-.07017,.15671-.0852,.19891-.08839,.0422,.00319,.12789,.01822,.19891,.08839,.34476,.34063,.78998,.65807,1.52897,.65807,.4518,0,1.72505,.02505,2.38221-.28808s.82145-.82667,.88991-1.49051v-2.89333c-.08215-.58869-.54764-.82667-1.17742-1.02707-.6198-.19723-2.18111-.29741-3.82258-.30053Zm0,3.67989c-.42581,.02213-.99558,.60583-1.289,.70171-.24214,.07912-1.10285,.04536-1.7216,.00832-.37883-.02268-.67517-.30457-.68629-.65173v-1.3896c.05132-1.03278,.62069-1.1504,3.6969-1.14222,3.07621-.00818,3.64558,.10945,3.6969,1.14222v1.3896c-.01112,.34717-.30747,.62906-.68629,.65173-.61875,.03704-1.47947,.07079-1.7216-.00832-.29343-.09587-.86319-.67958-1.289-.70171Zm5.8868-3.36274l-.00541-.00202-.00242-.0088c.12307-.36026,.06916-.70551-.16012-1.02615-.77096-1.07796-3.51319-1.72213-5.7189-1.72213s-4.94786,.64418-5.71882,1.72213c-.22928,.32064-.28319,.66589-.1602,1.02607l-.00242,.00888-.00912,.00113c-.86732-.43911-1.27471-1.06835-1.11758-1.72641C1.28954,2.3425,3.6096,1,7.99996,1s6.7105,1.3425,7.00822,2.58986c.15713,.65806-.25026,1.2873-1.11758,1.72641l-.00379,.00089ZM7.99997,15c-4.39036,0-6.71042-1.3425-7.00814-2.58986-.15713-.65806,.25018-1.28738,1.1175-1.72641l.00912,.00113,.0025,.00888c-.12146,.3551-.07029,.69284,.15205,1.00395,.77145,1.07909,3.52642,1.50534,5.72697,1.50534s4.9556-.42626,5.72705-1.50534c.22234-.31111,.2735-.64886,.15205-1.00395l.00242-.0088,.0092-.00121c.86724,.43903,1.27455,1.06835,1.1175,1.72641-.2978,1.24735-2.61786,2.58986-7.00822,2.58986Z"/><rect class="cls-1" width="16" height="16"/></svg>