<svg xmlns="http://www.w3.org/2000/svg" viewBox="0 0 32 32"><defs><style>.cls-1{fill:none}.cls-2{fill:#6e6e6e}.cls-3{fill:#f8f8f8}.cls-4{fill:#6db5e3}.cls-5{fill:#d3eaf9}.cls-6{fill:#9bc29c}</style></defs><title>addin32</title><g id="Icons"><path class="cls-1" d="M0 0h32v32H0z"/><path class="cls-2" d="M31 31H7V1h17.3L31 7.7V31z"/><path class="cls-3" d="M30 7.99L24.01 2H8v28h22V7.99z"/><path class="cls-2" d="M24 8V2h-1v7h8V8h-7z"/><path class="cls-3" d="M7 1h1v12H7z"/><path class="cls-2" d="M12 5H7V0H5v5H0v2h5v5h2V7h5V5z"/><path class="cls-4" d="M15 12h8v1h-8zM11.505 12.498l2.25-2.246.493.496-1.753 1.75 1.753 1.754-.494.496-2.25-2.25zM24.247 14.746zm-.494-.493l1.753-1.753-1.753-1.754.494-.493 2.248 2.247-2.247 2.246-.495-.493zM15 18h8v1h-8zM11.505 18.498l2.25-2.246.493.496-1.753 1.75 1.753 1.754-.494.496-2.25-2.25zM24.247 20.746zm-.494-.493l1.753-1.753-1.753-1.754.494-.493 2.248 2.247-2.247 2.246-.495-.493zM15 24h8v1h-8zM11.505 24.498l2.25-2.246.493.496-1.753 1.75 1.753 1.754-.494.496-2.25-2.25zM24.247 26.746zm-.494-.493l1.753-1.753-1.753-1.754.494-.493 2.248 2.247-2.247 2.246-.495-.493z"/><circle class="cls-2" cx="8" cy="24" r="8"/><circle class="cls-5" cx="8" cy="24" r="7"/><path class="cls-6" d="M3.237 29.12a.304.304 0 0 0 .103-.026c.007-.004.088-.07.094-.073a.736.736 0 0 0 .13-.202.783.783 0 0 0 .067-.275 1.634 1.634 0 0 0 0-.164c0-.048 0-.056.052-.095a1.792 1.792 0 0 1 .17-.103.54.54 0 0 0 .242-.297.522.522 0 0 0-.035-.393l-.063-.092a3.16 3.16 0 0 0-.817-.65l-.435-.28c-.108-.076-.158-.118-.17-.148a.89.89 0 0 1 .016-.154 1.384 1.384 0 0 0-.046-.643 4.69 4.69 0 0 0-.28-.664l-.045-.094a6.23 6.23 0 0 1-.23-.497 1.757 1.757 0 0 0-.157-.315c-.027-.047-.15-.234-.15-.234a.618.618 0 0 1-.134-.327.877.877 0 0 0-.15-.438.462.462 0 0 0-.266-.098c-.012.004-.024.02-.037.028a6.89 6.89 0 0 0 2.14 6.234zM2.17 20.126a.308.308 0 0 0 .056.112.277.277 0 0 0 .15.055.34.34 0 0 0 .198-.074c.056-.034.112-.072.157-.103a.998.998 0 0 0 .203-.172.554.554 0 0 1 .37-.228h.015a5.78 5.78 0 0 1 .64.027.603.603 0 0 0 .574-.445c.03-.083.05-.116.06-.116l.005.007a.78.78 0 0 1 .18.048 1.138 1.138 0 0 0 .164.04l.097.01a.494.494 0 0 0 .38-.175 11.1 11.1 0 0 0 .526-.72 1.004 1.004 0 0 0 .177-.498.528.528 0 0 0-.31-.508c-.02-.008-.037-.006-.056-.012a7.012 7.012 0 0 0-3.583 2.75zM15 24a6.988 6.988 0 0 0-3.24-5.9.235.235 0 0 0-.06.033.233.233 0 0 0-.078.154c-.043-.014-.37-.11-.37-.11a.794.794 0 0 0-.225-.038 1.024 1.024 0 0 0-.675.385 1.182 1.182 0 0 0-.09.157l-.128.28a.876.876 0 0 1-.066.11.79.79 0 0 0-.077.125.553.553 0 0 0 .123.594 3.73 3.73 0 0 0 .333.292l-.005.004a1.16 1.16 0 0 0-.153.127l-.09.084a.524.524 0 0 0-.198-.285.514.514 0 0 0-.02-.084.743.743 0 0 0-.22-.334.494.494 0 0 0-.358-.114c-.017 0-.035 0-.055.002a.493.493 0 0 0-.35.27l-.048.107a.497.497 0 0 0 .267.618.515.515 0 0 0 .196.38c.022.013.04.03.063.04a.545.545 0 0 0-.03.524c.004.013.013.037.02.064h-.004a1.282 1.282 0 0 1-.208-.045 1.133 1.133 0 0 0-.12-.014.503.503 0 0 0-.465.3 1.014 1.014 0 0 0-.064.237 3.148 3.148 0 0 0-.025.455.51.51 0 0 0 .147.377 1.235 1.235 0 0 0-.103.11l-.053.062a.665.665 0 0 1-.104.084 1.09 1.09 0 0 0-.47.546l-.083.1-.124.046a1.777 1.777 0 0 0-.82.818 1.582 1.582 0 0 0-.137.352 1.143 1.143 0 0 0-.027.28.516.516 0 0 1-.125.343.493.493 0 0 0-.156.264.827.827 0 0 0-.01.225.914.914 0 0 0 .133.39.73.73 0 0 0 .14.16l.123.116a.524.524 0 0 1 .147.2 1.345 1.345 0 0 0 .41.665 1.192 1.192 0 0 0 .754.32 2.397 2.397 0 0 0 .288-.027l.383-.055a2.887 2.887 0 0 1 .38-.03.867.867 0 0 1 .246.028 2.818 2.818 0 0 0 .357.09.926.926 0 0 1 .133.032c.074.018.09.035.096.055a.277.277 0 0 1-.008.21 1.085 1.085 0 0 0-.044.128.518.518 0 0 0 .163.527.244.244 0 0 1 .097.168.59.59 0 0 1-.15.535 1.19 1.19 0 0 0-.373.643.786.786 0 0 0-.01.236c.004.05.01.1.022.172a.294.294 0 0 0 .097.147A6.998 6.998 0 0 0 15 24zm-3.7-4.348l-.002-.035.1.07a.386.386 0 0 1-.025.323l-.05.08c-.003.002-.028.015-.153.015h-.014a.565.565 0 0 0 .144-.453zm1.55 3.776a.556.556 0 0 1-.106-.043.563.563 0 0 0-.19-.07h-.014a.495.495 0 0 0-.12-.02.49.49 0 0 0-.463.338 1.24 1.24 0 0 1-.62-.37.526.526 0 0 0-.414-.55 1.895 1.895 0 0 0-.425-.043 4.298 4.298 0 0 0-.495.03.948.948 0 0 0-.11.017.494.494 0 0 0 .042-.07c.025-.042.045-.08.035-.094a.59.59 0 0 0 .084-.125.744.744 0 0 0 .28-.252l-.102-.186.18.088a.272.272 0 0 1 .16-.053.393.393 0 0 1 .065.006 1.705 1.705 0 0 1 .156.117.504.504 0 0 0 .302.095.427.427 0 0 0 .216-.05.503.503 0 0 0 .152-.102l.044.037a2.3 2.3 0 0 1 .188.19c.04.05.056.074.056.074a.754.754 0 0 0 .12.31.467.467 0 0 0 .434.214.5.5 0 0 0 .257-.086.582.582 0 0 0 .485.197h.003a.65.65 0 0 1 .185.03 1.152 1.152 0 0 1 .078.252c-.106.033-.178.06-.27.097a.32.32 0 0 1-.135.026l-.054-.002zM7.495 17.026a.462.462 0 0 0-.087.103 2.62 2.62 0 0 0-.12.186.787.787 0 0 1-.11.092l-.107.08a1.844 1.844 0 0 0-.287.24.995.995 0 0 0-.358.663.493.493 0 0 0 .244.444.487.487 0 0 0 .486-.002 2.21 2.21 0 0 1 .704-.277l.465.023a1.195 1.195 0 0 0 .17-.012.554.554 0 0 0 .332-.18l.1-.13.086-.14a1.18 1.18 0 0 1 .163-.216 1.982 1.982 0 0 1 .17-.138.475.475 0 0 0 .195-.358.426.426 0 0 0-.073-.248A7.02 7.02 0 0 0 8 17c-.17 0-.338.014-.505.026z"/></g></svg>