<svg id="Icons" xmlns="http://www.w3.org/2000/svg" viewBox="0 0 16 16"><defs><style>.cls-1{fill:#6e6e6e;}.cls-2{fill:#f8f8f8;}.cls-3{fill:none;}.cls-4{fill:#49b0f2;}</style></defs><polygon class="cls-1" points="16 16 3 16 3 0 12.4 0 16 3.6 16 16"/><polygon class="cls-2" points="12.31 1 4 1 4 15 15 15 15 3.69 12.31 1"/><polygon class="cls-1" points="12 4 12 1 11 1 11 4 11 5 12 5 16 5 16 4 12 4"/><rect class="cls-3" width="16" height="16"/><polygon class="cls-2" points="9.293 5.444 9.292 5.445 8.597 5.074 8.599 5.073 5.932 3.655 3 5.264 3 12.449 3.447 12.894 5.562 15 6.403 15 13.674 7.778 11.153 6.437 9.293 5.444"/><polygon class="cls-4" points="8.395 6.1 7.629 5.692 3.89 8.08 4.736 8.769 8.395 6.1"/><polygon class="cls-4" points="8.323 8.698 7.36 8.093 3.138 11.175 4.182 12.215 8.323 8.698"/><polygon class="cls-4" points="1.539 9.582 2.42 10.46 3.901 9.378 3.003 8.647 1.539 9.582"/><polygon class="cls-4" points="6.617 5.153 5.94 4.792 0 8.05 0.814 8.86 6.617 5.153"/><polygon class="cls-4" points="11.18 7.583 4.893 12.923 5.983 14.008 12.008 8.024 11.18 7.583"/><polygon class="cls-4" points="10.231 7.078 9.376 6.622 8.231 7.458 9.123 8.019 10.231 7.078"/></svg>