<svg id="Icons" xmlns="http://www.w3.org/2000/svg" viewBox="0 0 32 32"><defs><style>.cls-1{fill:#6e6e6e;}.cls-2{fill:none;}.cls-3{fill:#f8f8f8;}.cls-4{fill:#49b0f2;}</style></defs><polygon class="cls-1" points="31 31 7 31 7 1 24.3 1 31 7.699 31 31"/><rect class="cls-2" width="32" height="32"/><polygon class="cls-3" points="24.01 2 8 2 8 12 8 29 8 30 30 30 30 7.99 24.01 2"/><polygon class="cls-1" points="24 8 24 2 23 2 23 8 23 9 24 9 31 9 31 8 24 8"/><polygon class="cls-3" points="16.892 10.465 13.032 8.406 12.32 8.082 7 11.006 7 22.841 12.451 28.275 25.665 15.153 20.75 12.526 16.892 10.465"/><path class="cls-4" d="M10.6891,25.10561,22.47831,14.58405,24,15.39755,12.45284,26.86436ZM8.21267,22.63617l6.46306-5.19041,1.42287.8684-6.513,5.69148Zm-2.1645-2.157,2.712-1.96337,1.44783.9702-2.8707,2.27779ZM4.14369,18.57867l9.0393-5.86816,1.01462.58991L5.20723,19.63971Zm5.67052-.80651,8.07408-5.63958,1.03759.554-7.69179,6.03485Zm-7.36489-.88237,6.01439-3.48157,1.0251.521L3.35066,17.78813Zm13.12076-.18865,4.35745-3.47957,1.17433.62684-4.1698,3.72112ZM1,15.44446,12.3625,9.2l.25453.11678.49858.26651-11.45184,6.524Zm8.53124-2.63413,4.56456-2.704.80152.4282L10.45,13.31939Zm4.574-.68673,1.73031-1.088.92778.49608L15.08348,12.6636Z"/></svg>