<svg id="Icons" xmlns="http://www.w3.org/2000/svg" viewBox="0 0 32 32"><defs><style>.cls-1{fill:#6d6e71}.cls-2{fill:#f8f8f8}.cls-3{fill:#939598}.cls-4{fill:none}.cls-5{fill:#a7a9ac}</style></defs><title>appsGray_32</title><rect class="cls-1" x="1" y="4" width="30" height="25" rx="2" ry="2"/><rect class="cls-2" x="2" y="5" width="28" height="23" rx="1" ry="1"/><path class="cls-1" d="M29 27H3V6h26v21z"/><path class="cls-2" d="M28 26H4V7h24v19z"/><path class="cls-3" d="M4 7h24v3H4z"/><path class="cls-4" d="M0 0h32v32H0z"/><path class="cls-3" d="M8 10h1v16H8z"/><path class="cls-2" d="M9 10h19v16H9z"/><path class="cls-5" d="M28 26v-6.09c-.34.093-.69.29-.803.29h-.68a1.338 1.338 0 0 1-.98-.197c-.284-.25-.278-.71-.666-.71-.52 0-.56.8-1.083.8-.236 0-.41-.158-.646-.158-.208 0-.48.143-.48.35v.543c0 .457-.547.55-.547 1.007 0 .187.198.257.198.444 0 .623-.96.54-.96 1.166 0 .205-.31 1.327.23 1.525v.032c0 .232-.334.592-.45.998zM14.538 25.855a2.296 2.296 0 0 1 .19-.815 13.15 13.15 0 0 0 .115-1.602c0-.59-1.128-.424-1.305-.778-.44-.878.75-1.103.75-1.804 0-.174-.09-.53-.36-.556-.38-.04-.48.166-.862.166a.437.437 0 0 1-.472-.388c0-.418.333-.61.333-1.03 0-.27-.11-.422-.11-.692a.668.668 0 0 1 .637-.696c.35 0 .5.285.667.584a.693.693 0 0 0 .668.333c.528 0 .86-.66.86-1.056a.51.51 0 0 1 .473-.526c.376 0 .515.39.89.39.617 0 .596-.818 1.138-1.112.667-.36.473-1.138.39-1.555-.036-.184.313-.54.5-.528.777.054.444-.584.444-.89a.49.49 0 0 1 .025-.153c.12-.358.64-.47.64-.902 0-.305-.25-.445-.25-.75 0-.452.67-.858 1.37-1.19a.463.463 0 0 0 .296-.305H9v16h5.552c-.01-.094-.014-.11-.014-.145z"/></svg>