<?xml version="1.0" encoding="utf-8"?>
<!-- Generator: Adobe Illustrator 21.1.0, SVG Export Plug-In . SVG Version: 6.00 Build 0)  -->
<svg version="1.1" id="Icons" xmlns="http://www.w3.org/2000/svg" xmlns:xlink="http://www.w3.org/1999/xlink" x="0px" y="0px"
	 width="32px" height="32px" viewBox="0 0 32 32" style="enable-background:new 0 0 32 32;" xml:space="preserve">
<style type="text/css">
	.st0{fill:#6E6E6E;}
	.st1{fill:#F8F8F8;}
	.st2{fill:#D2EAFA;}
	.st3{fill:#A9A9A9;}
	.st4{fill:#9182BD;}
	.st5{fill:#C5BCDE;}
	.st6{fill-rule:evenodd;clip-rule:evenodd;fill:#F8F8F8;}
	.st7{fill:none;}
	.st8{fill:#828282;}
	.st9{fill:#6AB4E5;}
	.st10{fill:#DAC540;}
	.st11{fill-rule:evenodd;clip-rule:evenodd;fill:#DAC540;}
	.st12{fill-rule:evenodd;clip-rule:evenodd;fill:#6E6E6E;}
	.st13{fill:#B98C51;}
	.st14{fill:#F0E593;}
	.st15{fill:#53A5DB;}
	.st16{fill-rule:evenodd;clip-rule:evenodd;fill:#D2EAFA;}
	.st17{fill:#66AB64;}
	.st18{fill-rule:evenodd;clip-rule:evenodd;fill:#DDEEDA;}
	.st19{fill:#6E6F72;}
	.st20{fill-rule:evenodd;clip-rule:evenodd;fill:#53A5DB;}
	.st21{fill:#F4EFC6;}
	.st22{fill:#FF631E;}
	.st23{fill:#E12600;}
	.st24{fill:#BCDBEF;}
	.st25{fill:#DDEEDA;}
</style>
<polygon class="st4" points="10,4 14,0 27,0 31,4 "/>
<polygon class="st5" points="12.6999998,3 14.5800781,1 26.4199219,1 28.2999992,3 "/>
<path class="st4" d="M11,9c-0.5527344,0-1-0.4472656-1-1V4c0-0.5527344,0.4472656-1,1-1h19c0.5527344,0,1,0.4472656,1,1v4
	c0,0.5527344-0.4472656,1-1,1H11z"/>
<rect x="11" y="4" class="st1" width="19" height="4"/>
<path class="st4" d="M11,14c-0.5527344,0-1-0.4472656-1-1V9c0-0.5527344,0.4472656-1,1-1h19c0.5527344,0,1,0.4472656,1,1v4
	c0,0.5527344-0.4472656,1-1,1H11z"/>
<rect x="11" y="9" class="st1" width="19" height="4"/>
<path class="st4" d="M11,19c-0.5527344,0-1-0.4472656-1-1v-4c0-0.5527344,0.4472656-1,1-1h19c0.5527344,0,1,0.4472656,1,1v4
	c0,0.5527344-0.4472656,1-1,1H11z"/>
<rect x="11" y="14" class="st1" width="19" height="4"/>
<path class="st0" d="M14.2892628,7h-0.5785255C13.3182077,7,13,6.6817918,13,6.2892623V5.7107377
	C13,5.3182082,13.3182077,5,13.7107372,5h0.5785255C14.6817923,5,15,5.3182082,15,5.7107377v0.5785246
	C15,6.6817918,14.6817923,7,14.2892628,7z"/>
<path class="st0" d="M14.2892628,12h-0.5785255C13.3182077,12,13,11.6817923,13,11.2892628v-0.5785255
	C13,10.3182077,13.3182077,10,13.7107372,10h0.5785255C14.6817923,10,15,10.3182077,15,10.7107372v0.5785255
	C15,11.6817923,14.6817923,12,14.2892628,12z"/>
<path class="st0" d="M14.2892628,17h-0.5785255C13.3182077,17,13,16.6817913,13,16.2892628v-0.5785255
	C13,15.3182077,13.3182077,15,13.7107372,15h0.5785255C14.6817923,15,15,15.3182077,15,15.7107372v0.5785255
	C15,16.6817913,14.6817923,17,14.2892628,17z"/>
<path class="st0" d="M27.0000019,7h-8.0000038C18.4477139,7,18,6.5522852,18,6.000001V5.999999
	C18,5.4477148,18.4477139,5,18.9999981,5h8.0000038C27.5522861,5,28,5.4477148,28,5.999999V6.000001
	C28,6.5522852,27.5522861,7,27.0000019,7z"/>
<path class="st0" d="M27.0000019,12h-8.0000038C18.4477139,12,18,11.5522852,18,11.000001V10.999999
	C18,10.4477148,18.4477139,10,18.9999981,10h8.0000038C27.5522861,10,28,10.4477148,28,10.999999v0.0000019
	C28,11.5522852,27.5522861,12,27.0000019,12z"/>
<path class="st0" d="M27.0000019,17h-8.0000038C18.4477139,17,18,16.5522861,18,16.0000019V15.999999
	C18,15.4477148,18.4477139,15,18.9999981,15h8.0000038C27.5522861,15,28,15.4477148,28,15.999999v0.0000029
	C28,16.5522861,27.5522861,17,27.0000019,17z"/>
<g>
	<g>
		<path class="st1" d="M11.5,18c-0.5092773,0-0.9907227,0.1036377-1.4474487,0.2605591C10.1691895,18.6834717,10.5397339,19,11,19
			h3.2922974C13.5264282,18.3806152,12.5618286,18,11.5,18z"/>
		<path class="st1" d="M16.8422241,19h7.3239746c-0.5665283-0.6110229-1.3688965-1-2.2658081-1h-2.8007812
			C18.2040405,18,17.4064331,18.3898926,16.8422241,19z"/>
	</g>
	<rect x="12.4999971" y="22" class="st12" width="6" height="1.0000001"/>
	
		<rect x="6.7963319" y="14.6932526" transform="matrix(0.7070677 -0.7071458 0.7071458 0.7070677 -10.5975771 10.4371033)" class="st12" width="1.005188" height="6.6334147"/>
	
		<rect x="3.9483936" y="25.567543" transform="matrix(0.7071066 -0.707107 0.707107 0.7071066 -16.2732315 12.7871599)" class="st12" width="6.7009029" height="0.939115"/>
	<path class="st15" d="M5.2004437,18H2.7995439C1.8063937,18,1,17.1951008,1,16.2004509v-2.4009008
		C1,12.8064003,1.8063937,12,2.7995439,12h2.4008999C6.1950936,12,7,12.8064003,7,13.7995501v2.4009008
		C7,17.1951008,6.1950936,18,5.2004437,18L5.2004437,18z"/>
	<path class="st24" d="M2.9329278,17C2.4185944,17,2,16.5813999,2,16.0670662v-2.1341324C2,13.4186001,2.4185944,13,2.9329278,13
		h2.1341331C5.5813942,13,6,13.4186001,6,13.9329338v2.1341324C6,16.5813999,5.5813942,17,5.0670609,17H2.9329278z"/>
	<path class="st17" d="M21.9005165,26h-2.8010483C17.9407921,26,17,25.0609493,17,23.9005241v-2.8010483
		C17,19.9407997,17.9407921,19,19.0994682,19h2.8010483C23.0609417,19,24,19.9407997,24,21.0994759v2.8010483
		C24,25.0609493,23.0609417,26,21.9005165,26L21.9005165,26z"/>
	<path class="st25" d="M19.1661587,25C18.523243,25,18,24.4767494,18,23.8338337v-2.6676674
		C18,20.5232506,18.523243,20,19.1661587,20h2.6676674C22.4767418,20,23,20.5232506,23,21.1661663v2.6676674
		C23,24.4767494,22.4767418,25,21.8338261,25H19.1661587z"/>
	<path class="st15" d="M5.2004437,32H2.7995439C1.8063937,32,1,31.1951008,1,30.2004509v-2.4009018
		C1,26.8064003,1.8063937,26,2.7995439,26h2.4008999C6.1950936,26,7,26.8064003,7,27.7995491v2.4009018
		C7,31.1951008,6.1950936,32,5.2004437,32L5.2004437,32z"/>
	<path class="st24" d="M2.9329278,31C2.4185944,31,2,30.5813999,2,30.0670662v-2.1341324C2,27.4186001,2.4185944,27,2.9329278,27
		h2.1341331C5.5813942,27,6,27.4186001,6,27.9329338v2.1341324C6,30.5813999,5.5813942,31,5.0670609,31H2.9329278z"/>
	<circle class="st13" cx="11.5" cy="22.5" r="3.5"/>
	<circle class="st14" cx="11.4999914" cy="22.4999962" r="2.5000043"/>
</g>
</svg>
