<svg id="Icons" xmlns="http://www.w3.org/2000/svg" viewBox="0 0 32 32"><defs><style>.cls-1{fill:#7c6da8}.cls-2{fill:#9182bd}.cls-3{fill:#f8f8f8}.cls-4{fill:#c5bddd}.cls-5{fill:none}</style></defs><title>catalog32</title><path class="cls-1" d="M32 16H0L6 4h20l6 12z"/><path class="cls-2" d="M1.118 16l5.5-11h18.764l5.5 11H1.118z"/><path class="cls-3" d="M8 6h16v2H8zM6 9h20v3H6zM4 13h24v9H4z"/><path class="cls-1" d="M22.614 16a.993.993 0 0 0-.89.55l-1.45 2.9a.993.993 0 0 1-.888.55h-6.772a.993.993 0 0 1-.89-.55l-1.45-2.9a.993.993 0 0 0-.888-.55H0v13.007A.993.993 0 0 0 .993 30H32V16z"/><path class="cls-4" d="M.993 29L1 17h8.386l1.445 2.898A1.983 1.983 0 0 0 12.615 21h6.772a1.983 1.983 0 0 0 1.783-1.102l1.45-2.902L31 17v12z"/><path class="cls-5" d="M0 0h32v32H0z"/></svg>