<svg id="Icons" xmlns="http://www.w3.org/2000/svg" viewBox="0 0 16 16"><defs><style>.cls-1{fill:#7c6da8}.cls-2{fill:#9182bd}.cls-3{fill:#f8f8f8}.cls-4{fill:#c5bddd}.cls-5{fill:none}</style></defs><title>catalog16</title><path class="cls-1" d="M16 8H0l3-6h10l3 6z"/><path class="cls-2" d="M1.517 8L3.66 3h8.68l2.143 5L15 12H1l.517-4z"/><path class="cls-3" d="M5 3h6v1H5zM4 5h8v1H4zM3 7h10v4H3z"/><path class="cls-1" d="M11.307 8a.497.497 0 0 0-.444.275l-.726 1.45a.497.497 0 0 1-.444.275H6.307a.497.497 0 0 1-.444-.275l-.726-1.45A.497.497 0 0 0 4.693 8H0v6.503A.497.497 0 0 0 .497 15H16V8z"/><path class="cls-4" d="M1 14V9h3.382l.586 1.172a1.493 1.493 0 0 0 1.34.828h3.385a1.492 1.492 0 0 0 1.337-.823L11.618 9H15v5z"/><path class="cls-5" d="M0 0h16v16H0z"/></svg>