<svg id="Icons" xmlns="http://www.w3.org/2000/svg" viewBox="0 0 32 32"><polygon points="28 31 4 31 4 1 21.3 1 28 7.7 28 31" style="fill:#6e6e6e"/><polygon points="27 7.99 21.01 2 5 2 5 30 27 30 27 7.99" style="fill:#f8f8f8"/><polygon points="21 8 21 2 20 2 20 8 20 9 21 9 28 9 28 8 21 8" style="fill:#6e6e6e"/><path d="M8,15h5v1H9v2h3v1H9v2h4v1H8Z" style="fill:#3b8fc4"/><path d="M13.07,18.48c0-3.18,3.51-4.19,5.55-2.82A1.94,1.94,0,0,1,19,16l-.7.56a2.61,2.61,0,1,0,.07,3.81l.63.52A3.41,3.41,0,0,1,13.07,18.48Z" style="fill:#3b8fc4"/><path d="M22,22a2.55,2.55,0,0,1-1.05-.23,2.19,2.19,0,0,1-.86-.78L20,20.88l.76-.61.08.14a1.27,1.27,0,0,0,1.17.71,1.34,1.34,0,0,0,.39-.07,1.1,1.1,0,0,0,.35-.2,1.2,1.2,0,0,0,.25-.33.93.93,0,0,0,.1-.42,1,1,0,0,0-.11-.48,1,1,0,0,0-.29-.33,1.83,1.83,0,0,0-.44-.23l-.53-.2a5.48,5.48,0,0,1-.56-.23,2.1,2.1,0,0,1-.5-.34,1.7,1.7,0,0,1-.36-.54,2,2,0,0,1-.14-.79,2.14,2.14,0,0,1,.17-.87,1.81,1.81,0,0,1,1.1-1,2.45,2.45,0,0,1,.71-.11,2.39,2.39,0,0,1,.94.18,2.12,2.12,0,0,1,.78.65l.09.11-.73.64-.09-.14a1.09,1.09,0,0,0-1-.56,1.39,1.39,0,0,0-.4.06,1.19,1.19,0,0,0-.35.19.93.93,0,0,0-.23.31,1.06,1.06,0,0,0-.1.45.84.84,0,0,0,.18.58,1.88,1.88,0,0,0,.5.36,5.51,5.51,0,0,0,.69.27,3.28,3.28,0,0,1,.74.33,2.13,2.13,0,0,1,.58.58A1.83,1.83,0,0,1,24,20a1.92,1.92,0,0,1-.18.84,2,2,0,0,1-.47.63,1.86,1.86,0,0,1-.65.38A2,2,0,0,1,22,22Z" style="fill:#3b8fc4"/></svg>