<svg xmlns="http://www.w3.org/2000/svg" viewBox="0 0 16 16"><path fill="#6e6e6e" d="M15 16H2V0h9.4L15 3.6V16z"/><path fill="none" d="M0 0h16v16H0z"/><path fill="#f8f8f8" d="M11.31 1H3v14h11V3.69L11.31 1z"/><path fill="#6e6e6e" d="M10 1h1v4h-1z"/><path fill="#6e6e6e" d="M10 4h5v1h-5z"/><path d="M5.41 13a.985.985 0 0 0 .951-.762 3.487 3.487 0 0 0 .85.5A3.897 3.897 0 0 0 8.647 13a3.557 3.557 0 0 0 1.544-.325c.02-.01.037-.025.057-.036A.984.984 0 0 0 11 13h1.263a4.471 4.471 0 0 0 1.255-.184 3.705 3.705 0 0 0 1.211-.612 3.198 3.198 0 0 0 .271-.261v-4.89a3.016 3.016 0 0 0-.286-.269 3.514 3.514 0 0 0-1.229-.583 4.924 4.924 0 0 0-1.222-.157H11a.976.976 0 0 0-.571.201 3.506 3.506 0 0 0-.376-.196 3.545 3.545 0 0 0-.695-.196 3.97 3.97 0 0 0-.67-.061 4.055 4.055 0 0 0-1.415.245 3.541 3.541 0 0 0-1.065.635.996.996 0 0 0-.925-.628H2V13z" fill="#f8f8f8"/><path d="M2 7h3v1H3v1h2v1H3v1h2v1H2zM9.663 8.237a1.085 1.085 0 0 0-.49-.374 1.653 1.653 0 0 0-1.264.017 1.58 1.58 0 0 0-.52.37 1.643 1.643 0 0 0-.337.551 1.963 1.963 0 0 0-.117.685 2.104 2.104 0 0 0 .114.713 1.613 1.613 0 0 0 .325.554 1.472 1.472 0 0 0 .508.36 1.662 1.662 0 0 0 .665.128 1.477 1.477 0 0 0 .68-.151 1.333 1.333 0 0 0 .476-.4l.68.476a2.173 2.173 0 0 1-.773.615A2.458 2.458 0 0 1 8.54 12a2.767 2.767 0 0 1-1.024-.185 2.315 2.315 0 0 1-1.328-1.31A2.661 2.661 0 0 1 6 9.486a2.58 2.58 0 0 1 .199-1.03 2.297 2.297 0 0 1 .544-.784 2.433 2.433 0 0 1 .816-.498A2.92 2.92 0 0 1 8.581 7a2.772 2.772 0 0 1 .477.044 2.398 2.398 0 0 1 .478.134 2.347 2.347 0 0 1 .43.225 1.386 1.386 0 0 1 .342.323zM11 7.044h1.263a3.902 3.902 0 0 1 .973.126 2.515 2.515 0 0 1 .882.417 2.175 2.175 0 0 1 .637.763A2.531 2.531 0 0 1 15 9.522a2.39 2.39 0 0 1-.245 1.12 2.295 2.295 0 0 1-.637.77 2.68 2.68 0 0 1-.882.444 3.453 3.453 0 0 1-.973.144H11z" fill="#007ac2"/><path d="M12 11V8h.267a2.975 2.975 0 0 1 .735.096 1.532 1.532 0 0 1 .543.255 1.196 1.196 0 0 1 .349.425 1.618 1.618 0 0 1 .136.724 1.436 1.436 0 0 1-.134.666 1.305 1.305 0 0 1-.367.448 1.68 1.68 0 0 1-.56.281 2.512 2.512 0 0 1-.702.105z" fill="#f8f8f8"/></svg>