<svg id="Icons" xmlns="http://www.w3.org/2000/svg" viewBox="0 0 16 16"><polygon points="15 16 2 16 2 0 11.4 0 15 3.6 15 16" style="fill:#6e6e6e"/><rect width="16" height="16" style="fill:none"/><path d="M5,13.5a1.5,1.5,0,0,0,1.25-.66,4,4,0,0,0,2.29.66,3.8,3.8,0,0,0,1.71-.37c.09,0,.16-.1.25-.15a2.46,2.46,0,0,0,1.5.52h1a2.48,2.48,0,0,0,2-1v-6a2.47,2.47,0,0,0-2-1H12a2.5,2.5,0,0,0-1.49.5c-.14-.07-.27-.16-.42-.22a4,4,0,0,0-.77-.21,3.85,3.85,0,0,0-.74-.07A4.47,4.47,0,0,0,7,5.77a4.09,4.09,0,0,0-.78.4A1.51,1.51,0,0,0,5,5.5H2v8Z" style="fill:#f8f8f8"/><polygon points="11.31 1 3 1 3 15 14 15 14 3.69 11.31 1" style="fill:#f8f8f8"/><polygon points="11 4 11 1 10 1 10 4 10 5 11 5 15 5 15 4 11 4" style="fill:#6e6e6e"/><polygon points="2 7 5 7 5 8 3 8 3 9 5 9 5 10 3 10 3 11 5 11 5 12 2 12 2 7" style="fill:#3b8fc4"/><path d="M9.66,8.24a1.09,1.09,0,0,0-.49-.38,1.8,1.8,0,0,0-.59-.11,1.6,1.6,0,0,0-.67.13,1.5,1.5,0,0,0-.52.37,1.64,1.64,0,0,0-.34.55,1.92,1.92,0,0,0-.12.69,2,2,0,0,0,.12.71,1.66,1.66,0,0,0,.32.55,1.4,1.4,0,0,0,.51.36,1.6,1.6,0,0,0,.67.13,1.51,1.51,0,0,0,.68-.15,1.31,1.31,0,0,0,.47-.4l.68.48a2.17,2.17,0,0,1-.77.61A2.41,2.41,0,0,1,8.54,12a2.8,2.8,0,0,1-1-.18,2.51,2.51,0,0,1-.81-.52,2.31,2.31,0,0,1-.52-.8,2.53,2.53,0,0,1-.19-1,2.59,2.59,0,0,1,.2-1,2.31,2.31,0,0,1,.54-.79,2.62,2.62,0,0,1,.82-.5,3,3,0,0,1,1-.17,4.23,4.23,0,0,1,.48,0,2.9,2.9,0,0,1,.48.14A2.49,2.49,0,0,1,10,7.4a1.52,1.52,0,0,1,.34.33Z" style="fill:#3b8fc4"/><path d="M13,8h1a1,1,0,0,0-1-1H12a1,1,0,0,0-1,1V9a1,1,0,0,0,1,1h1v1H11a1,1,0,0,0,1,1h1a1,1,0,0,0,1-1V10a1,1,0,0,0-1-1H12V8Z" style="fill:#3b8fc4"/></svg>