<svg xmlns="http://www.w3.org/2000/svg" viewBox="0 0 32 32"><path fill="#6e6e6e" d="M28 31H4V1h17.3L28 7.699V31z"/><path fill="#f8f8f8" d="M27 7.99L21.01 2H5v28h22V7.99z"/><path fill="#6e6e6e" d="M20 2h1v7h-1z"/><path fill="#6e6e6e" d="M20 8h8v1h-8z"/><path d="M25.8 16.298a4.296 4.296 0 0 0-1.187-1.51 4.526 4.526 0 0 0-1.612-.816 6.153 6.153 0 0 0-1.614-.222h-2.32a1.231 1.231 0 0 0-1.052.615 4.526 4.526 0 0 0-.53-.278 4.666 4.666 0 0 0-.917-.259 5.191 5.191 0 0 0-.882-.078 5.357 5.357 0 0 0-1.875.323 4.848 4.848 0 0 0-.72.35A1.237 1.237 0 0 0 12 13.75H7A1.25 1.25 0 0 0 5.75 15v7A1.25 1.25 0 0 0 7 23.25h5a1.237 1.237 0 0 0 1.09-.672 4.822 4.822 0 0 0 .639.328 5.19 5.19 0 0 0 1.897.344 4.715 4.715 0 0 0 2.035-.425c.122-.058.228-.14.343-.208a1.233 1.233 0 0 0 1.063.633h2.32a5.53 5.53 0 0 0 1.656-.26 4.73 4.73 0 0 0 1.588-.855 4.455 4.455 0 0 0 1.167-1.504 4.803 4.803 0 0 0 .452-2.131 5.02 5.02 0 0 0-.45-2.202z" fill="#f8f8f8"/><path d="M7 15h5v1H8v2h3v1H8v2h4v1H7zM12.068 18.48c0-3.175 3.508-4.19 5.556-2.817a1.922 1.922 0 0 1 .37.32l-.703.555a2.601 2.601 0 0 0-4.366 1.942 2.575 2.575 0 0 0 4.432 1.869l.736.516a3.476 3.476 0 0 1-6.025-2.385zM19 15h2.5a3.4 3.4 0 0 1 3.4 3.4v.1a3.5 3.5 0 0 1-3.5 3.5H19v-7z" fill="#007ac2"/><path d="M20 21v-5h1.5a2.5 2.5 0 0 1 0 5z" fill="#f8f8f8"/></svg>