<svg xmlns="http://www.w3.org/2000/svg" viewBox="0 0 32 32"><defs><style>.cls-1{fill:#9182bd}.cls-2{fill:none}.cls-3{fill:#c5bddd}.cls-4{fill:#f8f8f8}.cls-5{fill:#6e6e6e}</style></defs><title>datastorecollection32</title><g id="Icons"><path class="cls-1" d="M29 9a.983.983 0 0 0-.474-.83L25 2H7L3.474 8.17A.983.983 0 0 0 3 9v6a.972.972 0 0 0 .153.5A.972.972 0 0 0 3 16v6a.972.972 0 0 0 .153.5A.972.972 0 0 0 3 23v6a1 1 0 0 0 1 1h24a1 1 0 0 0 1-1v-6a.972.972 0 0 0-.153-.5A.972.972 0 0 0 29 22v-6a.972.972 0 0 0-.153-.5A.972.972 0 0 0 29 15z"/><path class="cls-2" d="M0 0h32v32H0z"/><path class="cls-3" d="M4.724 8L7.58 3h16.84l2.856 5H4.724z"/><path class="cls-4" d="M4 9h24v6H4zM4 16h24v6H4zM4 23h24v6H4z"/><rect class="cls-5" x="6" y="11" width="2" height="2" rx=".711" ry=".711"/><rect class="cls-5" x="6" y="18" width="2" height="2" rx=".711" ry=".711"/><rect class="cls-5" x="6" y="25" width="2" height="2" rx=".711" ry=".711"/><rect class="cls-5" x="14" y="11" width="12" height="2" rx="1" ry="1"/><rect class="cls-5" x="14" y="18" width="12" height="2" rx="1" ry="1"/><rect class="cls-5" x="14" y="25" width="12" height="2" rx="1" ry="1"/></g></svg>