<svg xmlns="http://www.w3.org/2000/svg" viewBox="0 0 32 32"><path d="M0 0h32v32H0z" style="fill:none"/><path d="m31.938 15.812-4.64-3.76c-.116-.118-.298-.022-.298.159V14h-4v4h4v1.79c0 .18.182.276.298.158l4.64-3.818a.235.235 0 0 0 0-.318ZM8 14H1.163a.163.163 0 0 0-.163.163v3.674c0 .09.073.163.163.163H8v-4ZM21 15.574c-1.392.766-3.29 1.209-5.5 1.209s-4.108-.443-5.5-1.21v3.985h.001v.005C10 20.91 12.461 22 15.5 22s5.5-1.09 5.5-2.437l-.001-.005H21v-3.984ZM15.5 14.8c2.982 0 5.4-1.03 5.4-2.3s-2.418-2.3-5.4-2.3-5.4 1.03-5.4 2.3 2.418 2.3 5.4 2.3ZM6.582 9.69c1.817-2.94 5.063-4.907 8.766-4.907 3.702 0 6.948 1.967 8.765 4.907.119.192.33.31.555.31h2.486c-2.005-4.53-6.533-7.696-11.806-7.696S5.548 5.47 3.542 10h2.496a.64.64 0 0 0 .544-.31ZM23.793 22.465c-1.9 2.846-5.025 4.537-8.445 4.537-3.403 0-6.509-1.675-8.51-4.547a.654.654 0 0 0-.535-.28H3.398l.024.052C5.513 26.95 10.194 30 15.348 30s9.835-3.05 11.926-7.773l.023-.052h-2.961a.653.653 0 0 0-.543.29Z" style="fill:#5463ff"/></svg>