<svg width="32" height="32" viewBox="0 0 32 32" fill="none" xmlns="http://www.w3.org/2000/svg">
<g opacity="0.75">
<path d="M23 25H24V24V7H28V31H7C5.34315 31 4 29.6569 4 28C4 26.3431 5.34315 25 7 25H23Z" fill="#92B3E4" stroke="#0052CC" stroke-width="2"/>
<path fill-rule="evenodd" clip-rule="evenodd" d="M7 2H23V24H5V22V4C5 2.89543 5.89543 2 7 2ZM3 22V4C3 1.79086 4.79086 0 7 0H25V26H5V28H3V26V22Z" fill="#0052CC"/>
<path d="M8.24263 19.7291C9.35775 20.2618 10.7338 20.0664 11.6575 19.1427C12.5811 18.2191 12.7766 16.843 12.2439 15.7279L13.4252 14.5466L12.011 13.1324L10.8296 14.3137C9.71451 13.781 8.33845 13.9764 7.41481 14.9001C6.49118 15.8237 6.29571 17.1998 6.82841 18.3149L8.94987 16.1934L10.3641 17.6077L8.24263 19.7291Z" fill="#0052CC"/>
<path d="M19.3148 5.82853C18.1997 5.29583 16.8236 5.4913 15.9 6.41493C14.9763 7.33857 14.7809 8.71463 15.3136 9.82976L14.1323 11.011L15.5465 12.4253L16.7278 11.244C17.8429 11.7767 19.219 11.5812 20.1426 10.6576C21.0662 9.73394 21.2617 8.35788 20.729 7.24275L18.8491 9.12269L17.4348 7.70848L19.3148 5.82853Z" fill="#0052CC"/>
<path d="M8.85148 7.97855C8.68295 8.14708 8.6568 8.41114 8.78901 8.60945L9.82742 10.1671C9.92015 10.3062 10.0763 10.3897 10.2434 10.3897H10.6828L15.3395 15.0465L15.1455 15.2406C14.8978 15.4882 14.9749 15.9071 15.2945 16.0504L15.8092 16.2811C15.8782 16.312 15.9393 16.3582 15.9879 16.4161L19.2315 20.285C19.42 20.5099 19.7607 20.5248 19.9682 20.3173L21.3175 18.968C21.525 18.7605 21.51 18.4198 21.2852 18.2313L17.4163 14.9877C17.3584 14.9391 17.3122 14.8781 17.2813 14.8091L17.0505 14.2943C16.9073 13.9747 16.4884 13.8977 16.2407 14.1453L16.0466 14.3394L11.39 9.6827L11.3901 9.24309C11.3901 9.07591 11.3065 8.9198 11.1674 8.82707L9.6098 7.78866C9.41149 7.65645 9.14743 7.6826 8.9789 7.85113L8.85148 7.97855Z" fill="#0052CC"/>
</g>
</svg>
