<svg id="Icons" xmlns="http://www.w3.org/2000/svg" viewBox="0 0 32 32"><defs><style>.cls-1{fill:none;}.cls-2,.cls-6{fill:#6e6e6e;}.cls-3{fill:#f4f4f4;}.cls-4{fill:#e0e0e0;}.cls-5{fill:#f8f8f8;}.cls-5,.cls-6,.cls-7{fill-rule:evenodd;}.cls-7{fill:#ccc;}</style></defs><title>datastore32</title><rect class="cls-1" width="32" height="32"/><path class="cls-2" d="M2,7.88V24.12C2,26.82,8,29,15.5,29S29,26.82,29,24.12V7.88Z"/><path class="cls-3" d="M15.5,28C7.87,28,3,25.71,3,24.12V8.88H28V24.12C28,25.71,23.13,28,15.5,28Z"/><path class="cls-4" d="M20,8.88V27.71c5-.67,8-2.34,8-3.59V8.88Z"/><ellipse class="cls-2" cx="15.5" cy="7.96" rx="13.5" ry="4.96"/><path class="cls-3" d="M15.5,12C7.87,12,3,9.63,3,8S7.87,4,15.5,4,28,6.37,28,8,23.13,12,15.5,12Z"/><path class="cls-5" d="M16.15,29C23.3,28.87,29,26.74,29,24.12v-8H29a1.53,1.53,0,0,0-.92.32l-1.33,1-.21-1.68A1.51,1.51,0,0,0,25,14.5H23a1.51,1.51,0,0,0-1.49,1.31l-.21,1.68-1.33-1a1.52,1.52,0,0,0-.92-.31,1.46,1.46,0,0,0-1.06.44L16.57,18a1.51,1.51,0,0,0-.12,2l1,1.33-1.68.21A1.51,1.51,0,0,0,14.5,23v2a1.51,1.51,0,0,0,1.31,1.49l1.68.21-1,1.33A1.46,1.46,0,0,0,16.15,29Z"/><path class="cls-6" d="M32,25V23l-2.67-.33a5.22,5.22,0,0,0-.62-1.5l1.65-2.12L29,17.63l-2.13,1.66a5,5,0,0,0-1.49-.62L25,16H23l-.33,2.67a5.22,5.22,0,0,0-1.5.62l-2.12-1.65-1.42,1.41,1.66,2.12a5.22,5.22,0,0,0-.62,1.5L16,23v2l2.67.33a5.22,5.22,0,0,0,.62,1.5L17.64,29l1.41,1.41,2.12-1.65a5.22,5.22,0,0,0,1.5.62L23,32h2l.33-2.67a5.22,5.22,0,0,0,1.5-.62L29,30.36,30.36,29l-1.65-2.12a5.22,5.22,0,0,0,.62-1.5Zm-8,1a2,2,0,1,1,2-2A2,2,0,0,1,24,26Z"/><path class="cls-7" d="M24.12,31h-.24l-.22-1.79a1,1,0,0,0-.75-.85,4.26,4.26,0,0,1-1.22-.51,1.07,1.07,0,0,0-.52-.14,1,1,0,0,0-.61.21L19.13,29,19,28.87l1.11-1.43a1,1,0,0,0,.06-1.13,4.82,4.82,0,0,1-.5-1.22,1,1,0,0,0-.85-.75L17,24.12v-.24l1.79-.22a1,1,0,0,0,.85-.75,4.82,4.82,0,0,1,.5-1.22,1,1,0,0,0-.06-1.13L19,19.13l.17-.16,1.43,1.11a1,1,0,0,0,.61.21,1.07,1.07,0,0,0,.52-.14,4.26,4.26,0,0,1,1.22-.51,1,1,0,0,0,.75-.85L23.88,17h.24l.22,1.79a1,1,0,0,0,.75.85,4.38,4.38,0,0,1,1.22.51,1.06,1.06,0,0,0,.51.14,1,1,0,0,0,.62-.21L28.87,19l.16.16-1.11,1.43a1,1,0,0,0-.07,1.13,4.51,4.51,0,0,1,.51,1.22,1,1,0,0,0,.85.75l1.79.22v.24l-1.79.22a1,1,0,0,0-.85.75,4.51,4.51,0,0,1-.51,1.22,1,1,0,0,0,.07,1.13L29,28.87l-.16.16-1.43-1.11a1,1,0,0,0-.62-.21,1.06,1.06,0,0,0-.51.14,4.51,4.51,0,0,1-1.22.51,1,1,0,0,0-.75.85L24.12,31ZM24,21a3,3,0,1,0,3,3,3,3,0,0,0-3-3Z"/></svg>