<svg width="16" height="16" viewBox="0 0 16 16" fill="none" xmlns="http://www.w3.org/2000/svg">
<path d="M11.5 12.5H12V12V3.5H14V15.5H3.5C2.67157 15.5 2 14.8284 2 14C2 13.1716 2.67157 12.5 3.5 12.5H11.5Z" fill="#92B3E4" stroke="#0052CC"/>
<path fill-rule="evenodd" clip-rule="evenodd" d="M3.5 1H11.5V12H2.5V11V2C2.5 1.44772 2.94772 1 3.5 1ZM1.5 11V2C1.5 0.89543 2.39543 0 3.5 0H11.5H12.5V1V12V13H11.5H2.5V14H1.5V13V12V11Z" fill="#0052CC"/>
<path fill-rule="evenodd" clip-rule="evenodd" d="M8.00998 3.26734C8.47176 2.80556 9.15973 2.70781 9.71727 2.97409L8.77727 3.91409L9.48437 4.6212L10.4244 3.68113C10.6909 4.23872 10.5931 4.92681 10.1313 5.38866C9.66948 5.85048 8.98145 5.94821 8.42388 5.68186L7.83331 6.27243L7.12621 5.56533L7.71678 4.97476C7.45043 4.41719 7.54816 3.72916 8.00998 3.26734ZM5.88927 9.63134C5.42742 10.0932 4.73933 10.1909 4.18174 9.92448L5.24254 8.86368L4.53544 8.15657L3.4747 9.21731C3.20842 8.65977 3.30617 7.9718 3.76795 7.51002C4.22965 7.04832 4.91744 6.95052 5.47493 7.21661L6.06555 6.62599L6.77265 7.33309L6.18226 7.92348C6.44888 8.48113 6.35121 9.1694 5.88927 9.63134ZM4.47912 4.40197C4.39848 4.28102 4.41443 4.11997 4.51722 4.01718C4.62001 3.91439 4.78106 3.89845 4.90201 3.97908L5.532 4.39908C5.6711 4.49181 5.75465 4.64793 5.75465 4.8151L5.75465 4.90107L5.7546 4.90113L8.09251 7.23905C8.29968 7.1173 8.58 7.19596 8.68456 7.42922C8.7104 7.48686 8.74898 7.5379 8.79739 7.57848L10.4931 9.00016C10.718 9.18867 10.7329 9.52938 10.5254 9.73687L10.2368 10.0255C10.0293 10.233 9.68858 10.2181 9.50007 9.99321L8.07839 8.29748C8.03781 8.24907 7.98677 8.21049 7.92913 8.18465C7.69587 8.08009 7.61721 7.79976 7.73896 7.5926L5.40098 5.25462H5.31514C5.14796 5.25462 4.99185 5.17107 4.89911 5.03197L4.47912 4.40197Z" fill="#0052CC"/>
</svg>
