<svg id="Icons" xmlns="http://www.w3.org/2000/svg" viewBox="0 0 16 16"><defs><style>.cls-1{fill:#6e6e6e;}.cls-2{fill:#f4f4f4;}.cls-3{fill:#e0e0e0;}.cls-4{fill:none;}.cls-5{fill:#f8f8f8;}.cls-5,.cls-6,.cls-7{fill-rule:evenodd;}.cls-6,.cls-8{fill:#6d6e71;}.cls-7{fill:#ccc;}.cls-9{fill:#fff;}</style></defs><title>datastore16</title><path class="cls-1" d="M14,4.5H2v7H2C2,12.88,4.69,14,8,14s6-1.12,6-2.5h0Z"/><path class="cls-2" d="M8,13c-3.28,0-5-1.11-5-1.5v-6H13v6C13,11.88,11.28,13,8,13Z"/><path class="cls-3" d="M10,12.84c2-.32,3-1,3-1.34v-6H10Z"/><ellipse class="cls-1" cx="8" cy="4.5" rx="6" ry="2.5"/><ellipse class="cls-2" cx="8" cy="4.5" rx="5" ry="1.5"/><rect class="cls-4" width="16" height="16"/><path class="cls-5" d="M14,11.5V8.89h0A1,1,0,0,0,13,8H12a1,1,0,0,0-1,.89,1.07,1.07,0,0,0-.63-.22A1,1,0,0,0,9.67,9L9,9.67A1,1,0,0,0,8.89,11,1,1,0,0,0,8,12v1a1,1,0,0,0,.82,1C11.75,13.81,14,12.76,14,11.5Z"/><path class="cls-6" d="M9,13V12h.53a.69.69,0,0,0,.65-.44l0,0a.71.71,0,0,0-.15-.77l-.38-.38.71-.71.38.38a.71.71,0,0,0,.77.15l0,0A.69.69,0,0,0,12,9.53V9h1v.53a.69.69,0,0,0,.44.65l0,0a.71.71,0,0,0,.77-.15l.38-.38.71.71-.75.74a2.7,2.7,0,0,1,.24.44.69.69,0,0,0,.65.44H16v1h-.53a.69.69,0,0,0-.65.44l0,0a.71.71,0,0,0,.15.77l.38.38-.71.71L14.24,15a.71.71,0,0,0-.77-.15l0,0a.69.69,0,0,0-.44.65V16H12v-.53a.69.69,0,0,0-.44-.65l0,0a.71.71,0,0,0-.77.15l-.38.38-.71-.71.38-.38a.71.71,0,0,0,.15-.77l0,0A.69.69,0,0,0,9.53,13Z"/><path class="cls-7" d="M12.5,14.5a1.16,1.16,0,0,1,.6-.51,1.2,1.2,0,0,1,.51-.11,1.45,1.45,0,0,1,.3,0,1.33,1.33,0,0,1,.59-1.41,1.16,1.16,0,0,1-.51-.6,1.2,1.2,0,0,1-.07-.81,1.55,1.55,0,0,1-.31,0,1.19,1.19,0,0,1-.49-.1,1.28,1.28,0,0,1-.62-.52,1.16,1.16,0,0,1-.6.51,1.2,1.2,0,0,1-.51.11,1.39,1.39,0,0,1-.3,0,1.33,1.33,0,0,1-.59,1.41,1.16,1.16,0,0,1,.51.6,1.2,1.2,0,0,1,.07.81,1.55,1.55,0,0,1,.31,0,1.19,1.19,0,0,1,.49.1A1.28,1.28,0,0,1,12.5,14.5Z"/><circle class="cls-8" cx="12.5" cy="12.5" r="1"/><rect class="cls-9" x="12" y="12" width="1" height="1" transform="translate(25 25) rotate(-180)"/></svg>