<svg xmlns="http://www.w3.org/2000/svg" viewBox="0 0 16 16"><path d="M0 0h16v16H0z" style="fill:none" transform="rotate(180 8 8)"/><path d="M11 8.01c-.76.404-1.794.637-3 .637s-2.24-.233-3-.637V10.507c0 .71 1.343 1.285 3 1.285s3-.575 3-1.285V8.01ZM8 4.194c-1.657 0-3 .585-3 1.306s1.343 1.306 3 1.306 3-.585 3-1.306-1.343-1.306-3-1.306ZM4 7H.2a.2.2 0 0 0-.2.2v1.6c0 .11.09.2.2.2H4V7ZM14.134 6.026c-.052-.06-.134-.01-.134.08V7h-2v2h2v.895c0 .09.082.138.134.079l1.838-1.91a.127.127 0 0 0 0-.158l-1.838-1.88Z" style="fill:#5463ff"/><path d="M3.101 4.91C4.131 3.285 5.938 2.2 8 2.2s3.87 1.085 4.899 2.71c.035.056.095.09.161.09h1.257C13.193 2.637 10.791 1 8 1S2.807 2.637 1.683 5H2.94a.191.191 0 0 0 .161-.09ZM12.899 11.09C11.869 12.715 10.062 13.8 8 13.8s-3.87-1.085-4.899-2.71A.191.191 0 0 0 2.94 11H1.683C2.807 13.363 5.209 15 8 15s5.193-1.637 6.317-4H13.06a.191.191 0 0 0-.161.09Z" style="fill:#5463ff"/></svg>