<svg id="Icons" xmlns="http://www.w3.org/2000/svg" viewBox="0 0 32 32"><defs><style>.cls-1{fill:none}.cls-2{fill:#6d6e71}.cls-3{fill:#f8f8f8}.cls-4{fill:#57a6d9}</style></defs><title>file_32</title><path class="cls-1" d="M0 0h32v32H0z"/><path class="cls-2" d="M28 31H4V1h17.3L28 7.7V31z"/><path class="cls-3" d="M27 7.99L21.01 2H5v28h22V7.99z"/><path class="cls-2" d="M20 2h1v7h-1z"/><path class="cls-2" d="M20 8h8v1h-8z"/><path class="cls-4" d="M7 20h18v1H7zM7 23h18v1H7zM7 26h18v1H7zM7 8h12v1H7zM7 11h18v1H7zM7 14h18v1H7zM7 17h18v1H7z"/></svg>