<svg id="Icons" xmlns="http://www.w3.org/2000/svg" viewBox="0 0 16 16"><rect y="2" width="15" height="11" style="fill:#57a6d9"/><rect x="1" y="3" width="13" height="9" style="fill:#bddbee"/><rect x="1" y="3" width="13" height="2" style="fill:#f8f8f8"/><rect x="4" width="1" height="3" style="fill:#57a6d9"/><rect x="10" width="1" height="3" style="fill:#57a6d9"/><rect x="4" width="7" height="1" style="fill:#57a6d9"/><rect x="1" y="5" width="14" height="1" style="fill:#57a6d9"/><path d="M6,11a.99943.99943,0,0,0-1,1v1H15V10.03082A2.26954,2.26954,0,0,0,14.69531,10H12.99023L10,7.00977V6A.99943.99943,0,0,0,9,5H6A.99943.99943,0,0,0,5,6V9a.99943.99943,0,0,0,1,1Z" style="fill:#f8f8f8"/><rect x="11" y="11" width="5" height="5" rx="1.30449" style="fill:#9182bd"/><rect x="10.09258" y="5.55705" width="0.81483" height="7.8859" transform="translate(-3.64214 10.20711) rotate(-45)" style="fill:#9182bd"/><rect x="8.0482" y="13" width="2.9518" height="1" style="fill:#9182bd"/><rect x="7" y="8.2953" width="1" height="4" style="fill:#9182bd"/><rect x="6" y="6" width="3" height="3" transform="translate(15 0) rotate(90)" style="fill:#e8912e"/><rect x="6" y="12" width="3" height="3" transform="translate(21 6) rotate(90)" style="fill:#e8912e"/><rect x="7" y="13" width="1" height="1" transform="translate(21 6) rotate(90)" style="fill:#f7cb93"/><rect x="7" y="7" width="1" height="1" transform="translate(15 0) rotate(90)" style="fill:#f7cb93"/><rect x="12" y="12" width="3" height="3" rx="0.30469" transform="translate(27) rotate(90)" style="fill:#e6e2f0"/><rect x="13" y="13" width="1" height="1" transform="translate(27) rotate(90)" style="fill:#9182bd"/></svg>