<svg id="Icons" xmlns="http://www.w3.org/2000/svg" viewBox="0 0 16 16"><defs><style>.cls-1{fill:#7c6da8;}.cls-2{fill:none;}.cls-3{fill:#e6e2f0;}.cls-4{fill:#e8912e;}.cls-5{fill:#f7cb93;}.cls-6{fill:#57a6d9;}.cls-7{fill:#d3eaf9;}</style></defs><title>DeepLearningModelPackage16</title><polygon class="cls-1" points="9.1 14.6 1.22 4.05 0.92 4.55 8.6 14.79 9.1 14.6"/><polygon class="cls-1" points="8.45 8.63 2.12 3.25 1.82 3.75 7.95 9.02 8.45 8.63"/><polygon class="cls-1" points="9 2.1 1.5 4.6 1 4.21 8.51 1.7 9 2.1"/><rect class="cls-2" x="-1" y="5" width="12" height="10" transform="translate(15 5) rotate(90)"/><polygon class="cls-1" points="9.1 2.4 1.22 12.95 0.92 12.45 8.6 2.21 9.1 2.4"/><polygon class="cls-1" points="8.75 8.07 2.22 13.75 1.92 13.25 8.25 7.68 8.75 8.07"/><polygon class="cls-1" points="9 14.9 1.5 12.4 1 12.79 8.51 15.3 9 14.9"/><rect class="cls-1" x="7" y="5.15" width="9" height="0.7" transform="translate(7.26 -6.52) rotate(45)"/><rect class="cls-1" x="7" y="11.15" width="9" height="0.7" transform="translate(-4.76 11.5) rotate(-45)"/><rect class="cls-1" x="9" y="8" width="5" height="1"/><rect class="cls-1" x="11" y="6" width="5" height="5" rx="1.63" ry="1.63"/><rect class="cls-3" x="12" y="7" width="3" height="3" rx="1.05" ry="1.05"/><rect class="cls-4" x="7" y="1" width="3" height="3"/><rect class="cls-5" x="8" y="2" width="1" height="1"/><rect class="cls-6" y="3" width="3" height="3"/><rect class="cls-7" x="1" y="4" width="1" height="1"/><rect class="cls-6" y="11" width="3" height="3"/><rect class="cls-7" x="1" y="12" width="1" height="1"/><rect class="cls-4" x="7" y="7" width="3" height="3"/><rect class="cls-5" x="8" y="8" width="1" height="1"/><rect class="cls-4" x="7" y="13" width="3" height="3"/><rect class="cls-5" x="8" y="14" width="1" height="1"/><rect class="cls-1" x="13" y="8" width="1" height="1"/></svg>