<svg id="Icons" xmlns="http://www.w3.org/2000/svg" viewBox="0 0 32 32"><defs><style>.cls-1{fill:#7c6da8;}.cls-2{fill:none;}.cls-3{fill:#e6e2f0;}.cls-4{fill:#e8912e;}.cls-5{fill:#f7cb93;}.cls-6{fill:#57a6d9;}.cls-7{fill:#d3eaf9;}</style></defs><title>DeepLearningModelPackage32</title><polygon class="cls-1" points="11.96 25.07 4.5 21.9 4 22.39 11.67 25.65 11.96 25.07"/><polygon class="cls-1" points="12.01 7.2 4 10.61 4.5 11.1 12.16 7.83 12.01 7.2"/><polygon class="cls-1" points="28 16.5 28 16.5 27.99 16.48 28 16.5"/><polygon class="cls-1" points="23.07 20.43 15.51 28 16 28.5 23.5 21 23.07 20.43"/><polygon class="cls-1" points="23.5 12 16 4.5 15.51 5 22.9 12.4 23.5 12"/><polygon class="cls-1" points="17.5 5.5 5.39 22.1 4.9 21.61 17 5 17.5 5.5"/><rect class="cls-2" width="32" height="32"/><rect class="cls-1" x="19" y="16" width="6" height="1"/><polygon class="cls-1" points="17 17 5.39 23 4.9 22.5 16.5 16.5 17 17"/><polygon class="cls-1" points="17 15.51 5.39 10 4.9 10.49 16.5 16 17 15.51"/><polygon class="cls-1" points="17.5 27.5 5.39 10.9 4.9 11.39 17 28 17.5 27.5"/><circle class="cls-1" cx="27.5" cy="16.5" r="4.5"/><circle class="cls-3" cx="27.5" cy="16.5" r="3.5"/><circle class="cls-4" cx="17.5" cy="5.5" r="3.5"/><circle class="cls-5" cx="17.5" cy="5.5" r="2.5"/><circle class="cls-4" cx="17.5" cy="16.5" r="3.5"/><circle class="cls-5" cx="17.5" cy="16.5" r="2.5"/><circle class="cls-6" cx="4" cy="11" r="3"/><circle class="cls-7" cx="4" cy="11" r="2"/><circle class="cls-6" cx="4" cy="22" r="3"/><circle class="cls-7" cx="4" cy="22" r="2"/><circle class="cls-4" cx="17.5" cy="27.5" r="3.5"/><circle class="cls-5" cx="17.5" cy="27.5" r="2.5"/><rect class="cls-2" width="32" height="32"/><circle class="cls-1" cx="27.5" cy="16.5" r="2.3"/><polygon class="cls-1" points="23 10 23 12 21 12 21 13 24 13 24 10 23 10"/><polygon class="cls-1" points="9.84 6.94 11.72 7.61 11.06 9.49 12 9.83 13 7 10.17 6 9.84 6.94"/><polygon class="cls-1" points="21 21 23 21 23 23 24 23 24 20 21 20 21 21"/><rect class="cls-2" x="8" y="5" width="6" height="6"/><polygon class="cls-1" points="9.84 26.06 11.72 25.39 11.06 23.5 12 23.17 13 26 10.17 27 9.84 26.06"/><rect class="cls-2" x="8" y="22" width="6" height="6"/></svg>