<svg id="Icons" xmlns="http://www.w3.org/2000/svg" viewBox="0 0 32 32"><path d="M21,4V2H10V4H2V25H29V4Z" style="fill:#57a6d9"/><rect x="11" y="3" width="9" height="1" style="fill:#f8f8f8"/><rect x="3" y="10" width="25" height="14" style="fill:#bddbee"/><path d="M28,9H3V5H28Z" style="fill:#f8f8f8"/><path d="M12.26715,25H29V21.60736a5.42362,5.42362,0,0,0-4-.394V18H22.12109l-1.30316-1.30316A4.44032,4.44032,0,0,0,21,15.5a4.5,4.5,0,1,0-6,4.22357v2.55286A4.523,4.523,0,0,0,12.26715,25Z" style="fill:#f8f8f8"/><polygon points="21 21 21 22 24 22 24 19 23 19 23 20.293 19.533 16.826 18.614 17.321 22.293 21 21 21" style="fill:#9182bd"/><rect x="16" y="18.34472" width="1" height="5.2935" style="fill:#9182bd"/><circle cx="26.5" cy="26.5" r="4.45" style="fill:#9182bd"/><circle cx="26.5" cy="26.5" r="3.5" style="fill:#e6e2f0"/><circle cx="26.5" cy="26.5" r="3.45" style="fill:#e6e2f0"/><circle cx="26.5" cy="26.5" r="2.45" style="fill:#9182bd"/><rect x="19.51441" y="26" width="3.0524" height="1" style="fill:#9182bd"/><circle cx="16.5" cy="15.5" r="3.45" style="fill:#e8912e"/><circle cx="16.5" cy="15.5" r="2.45" style="fill:#f7cb93"/><circle cx="16.5" cy="26.5" r="3.45" style="fill:#e8912e"/><circle cx="16.5" cy="26.5" r="2.45" style="fill:#f7cb93"/></svg>