<svg xmlns="http://www.w3.org/2000/svg" viewBox="0 0 32 32"><defs><style>.cls-1{fill:#6e6e6e}.cls-2{fill:#efefef}.cls-3{fill:#9bc29c}.cls-4{fill:#57a6d9}.cls-5{fill:#c96b4b}.cls-6{fill:#f8f8f8}.cls-7{fill:#a67a47}.cls-8{fill:none}</style></defs><title>filesstylxfile32</title><g id="Icons"><path class="cls-1" d="M15.246 24.803c-5.13 0-9.842-1.657-12.605-4.432a7.872 7.872 0 0 1-2.49-5.61C.17 9.014 7.19 4.233 15.797 4.103h.228c2.014 0 3.265.417 3.936 1.316.844 1.13.42 2.564.08 3.717-.375 1.26-.405 1.642-.144 1.776 1.193.61 3.19.706 5.12.8 2.75.133 5.346.26 6.266 1.95a4.436 4.436 0 0 1-.12 4.54c-2.065 3.558-8.83 6.455-15.4 6.595-.173.004-.345.005-.516.005z"/><path class="cls-2" d="M30.405 14.14c-1.184-2.177-7.887-.766-10.96-2.337-2.71-1.384 3.652-6.808-3.633-6.698C7.734 5.227 1.17 9.6 1.15 14.763s6.514 9.207 14.592 9.035 17.246-4.907 14.663-9.658z"/><ellipse class="cls-3" cx="12.5" cy="9.5" rx="2.337" ry="2.263" transform="rotate(-44.992 12.5 9.5)"/><ellipse class="cls-4" cx="6.5" cy="12.5" rx="2.337" ry="2.263" transform="rotate(-44.992 6.5 12.5)"/><ellipse class="cls-5" cx="8.5" cy="18.5" rx="2.337" ry="2.263" transform="rotate(-44.992 8.5 18.5)"/><path class="cls-6" d="M29.628 12.34a16.3 16.3 0 0 0-4.61-.628c-.335-.016-.67-.033-1.004-.052l-4.497 3.24-8.56 6.974a1 1 0 0 0-.272.35h-.002a3.31 3.31 0 0 0-2.804 1.332 21.708 21.708 0 0 0 7.366 1.247l7.46-6.08z"/><path class="cls-7" d="M12.65 25.542l-1.917-2.317s-2.312-.096-2.32 1.92C8.4 27.14 6 28.43 6 28.43l.005.005h.002a5.02 5.02 0 0 0 4.472.086 3.92 3.92 0 0 0 2.17-2.978z"/><path class="cls-1" d="M31.225 8.56a.73.73 0 0 0-1.048-.11l-10.03 7.227-8.557 6.973 1.88 2.31 8.56-6.97 9.087-8.38a.724.724 0 0 0 .108-1.05z"/><path class="cls-8" d="M0 0h32v32H0z"/></g></svg>