<svg id="Icons" xmlns="http://www.w3.org/2000/svg" viewBox="0 0 32 32"><defs><style>.cls-1{fill:none}.cls-2{fill:#e5d255}.cls-3{fill:#f0e498}.cls-4{fill:#e89d48}.cls-5{fill:#c7552e}.cls-6{fill:#f8f8f8}.cls-7{fill:#5b945a}.cls-8{fill:#a67a47}</style></defs><title>elevationlayer32</title><path class="cls-1" d="M0 0h32v32H0z"/><path class="cls-2" d="M32 28.8s-6.4-3.202-16 0c-9.6 3.2-16 0-16 0L4.266 3.2S10.668 5.33 16 3.2s11.734 0 11.734 0z"/><path class="cls-3" d="M30.567 20.198A.975.975 0 0 0 30 20h-1.454L19.84 6.46A1 1 0 0 0 19 6h-.017a1.002 1.002 0 0 0-.84.485L12.8 15.388l-3.094-3.095A1 1 0 0 0 9 12a.886.886 0 0 0-.114.007 1 1 0 0 0-.735.463L3.446 20H2a.975.975 0 0 0-.567.198l-.36 2.163A.995.995 0 0 0 2 23h28a.995.995 0 0 0 .927-.64z"/><path class="cls-4" d="M28 21L19 7l-6 10-4-4-5 8h24z"/><path class="cls-5" d="M22.857 13H15.4L13 17h12.428l-2.57-4zM13 17l-4-4-2.5 4H13z"/><path class="cls-6" d="M22.857 13L19 7l-3.6 6h7.457z"/><path class="cls-7" d="M2 21h28v1H2z"/><path class="cls-8" d="M19 7.6L27.613 21H28L19 7l-6 10h.36L19 7.6zM9 13.6l3.4 3.4h.6l-4-4-5 8h.375L9 13.6z"/></svg>