<svg id="Icons" xmlns="http://www.w3.org/2000/svg" viewBox="0 0 16 16"><defs><style>.cls-1{fill:#57a6d9;}.cls-2{fill:#bddbee;}.cls-3{fill:#f8f8f8;}.cls-4{fill:none;}.cls-5{fill:#6e6e6e;}.cls-6{fill:#f4eec8;}.cls-7{fill:#6db5e3;}.cls-8{fill:#d3eaf9;}.cls-9{fill:#9bc29c;}</style></defs><title>ImageryProject16</title><rect class="cls-1" y="3" width="15" height="11"/><rect class="cls-2" x="1" y="4" width="13" height="9"/><rect class="cls-3" x="1" y="4" width="13" height="2"/><rect class="cls-4" width="16" height="16"/><rect class="cls-1" x="4" y="1" width="1" height="3"/><rect class="cls-1" x="10" y="1" width="1" height="3"/><rect class="cls-1" x="4" y="1" width="7" height="1"/><rect class="cls-1" x="1" y="6" width="14" height="1"/><polygon class="cls-5" points="15.104 8 6.896 8 6.117 16 15.883 16 15.104 8"/><rect class="cls-2" x="10" y="9" width="2" height="1"/><polygon class="cls-6" points="9 10 9 9 7.803 9 7.705 10 9 10"/><rect class="cls-7" x="10" y="11" width="2" height="1"/><polygon class="cls-6" points="14.392 11 13 11 13 12 14.489 12 14.392 11"/><polygon class="cls-8" points="14.295 10 14.197 9 13 9 13 10 14.295 10"/><rect class="cls-9" x="10" y="13" width="2" height="2"/><polygon class="cls-8" points="7.511 12 9 12 9 11 7.608 11 7.511 12"/><polygon class="cls-9" points="13 13 13 15 14.781 15 14.587 13 13 13"/><polygon class="cls-7" points="7.413 13 7.219 15 9 15 9 13 7.413 13"/></svg>