<svg id="Icons" xmlns="http://www.w3.org/2000/svg" viewBox="0 0 32 32"><defs><style>.cls-1{fill:none;}.cls-2{fill:#57a6d9;}.cls-3{fill:#bddbee;}.cls-4{fill:#f8f8f8;}.cls-5{fill:#6e6e6e;}.cls-6{fill:#9bc29c;}.cls-7{fill:#6db5e3;}.cls-8{fill:#f4eec8;}</style></defs><title>ImageryProject32</title><rect class="cls-1" width="32" height="32"/><rect class="cls-1" width="32" height="32"/><rect class="cls-2" x="1" y="6" width="30" height="22"/><rect class="cls-3" x="2" y="7" width="28" height="20"/><rect class="cls-4" x="2" y="7" width="28" height="3"/><rect class="cls-2" x="11" y="4" width="1" height="3"/><rect class="cls-2" x="20" y="4" width="1" height="3"/><rect class="cls-2" x="11" y="4" width="10" height="1"/><rect class="cls-2" x="2" y="10" width="28" height="1"/><polygon class="cls-5" points="27.315 14 9.549 14 7.864 32 29 32 27.315 14"/><polygon class="cls-6" points="21.812 31 21.603 26 15.418 26 15.209 31 21.812 31"/><polygon class="cls-3" points="15.709 19 21.312 19 21.145 15 15.876 15 15.709 19"/><polygon class="cls-7" points="15.459 25 21.562 25 21.353 20 15.668 20 15.459 25"/><polygon class="cls-3" points="14.666 20 9.992 20 9.524 25 14.457 25 14.666 20"/><polygon class="cls-3" points="22.313 19 26.779 19 26.404 15 22.147 15 22.313 19"/><polygon class="cls-7" points="14.416 26 9.43 26 8.962 31 14.207 31 14.416 26"/><polygon class="cls-6" points="22.605 26 22.813 31 27.902 31 27.434 26 22.605 26"/><polygon class="cls-8" points="26.872 20 22.355 20 22.563 25 27.341 25 26.872 20"/><polygon class="cls-8" points="14.707 19 14.874 15 10.46 15 10.085 19 14.707 19"/></svg>