<svg xmlns="http://www.w3.org/2000/svg" viewBox="0 0 16 16"><rect x="1" y="8" width="6" height="6" rx="1.486" style="fill:#a9a9a9"/><path d="M9.486 1h3.028A1.486 1.486 0 0 1 14 2.486v3.028A1.486 1.486 0 0 1 12.514 7H9.486A1.486 1.486 0 0 1 8 5.514V2.486A1.486 1.486 0 0 1 9.486 1Z" style="fill:#a9a9a9"/><path d="M-121.707 9.707A.997.997 0 0 1-122 9a.997.997 0 0 1 .293-.707A.997.997 0 0 1-121 8a.996.996 0 0 1 .692.278A.997.997 0 0 1-120 9a.997.997 0 0 1-.27.684.997.997 0 0 1-.73.316.997.997 0 0 1-.707-.293Zm9.566.23-.017-.021h-.027l-.77.357a.031.031 0 0 0-.017.034 3.799 3.799 0 0 1 .072.693 3.978 3.978 0 0 1-.362 1.629l.754.42.024.003.02-.016A4.853 4.853 0 0 0-112 11a4.59 4.59 0 0 0-.141-1.063Zm-1.215 4.407a.031.031 0 0 1 .015.022.031.031 0 0 1-.008.026A4.968 4.968 0 0 1-117 16a5 5 0 0 1-5-4.951.031.031 0 0 1 .014-.027.031.031 0 0 1 .03-.002 2.219 2.219 0 0 0 .874.184h.003a4.1 4.1 0 0 0 .395 1.56l1.82-1.052A1.986 1.986 0 0 1-119 11a2 2 0 0 1 2-2V6.931a.031.031 0 0 0-.01-.022.031.031 0 0 0-.021-.009 4.079 4.079 0 0 0-2.273.71 2.289 2.289 0 0 0-.642-.575.031.031 0 0 1-.015-.025.031.031 0 0 1 .013-.027A4.951 4.951 0 0 1-117 6a4.977 4.977 0 0 1 4.289 2.47.031.031 0 0 1 .003.025.031.031 0 0 1-.016.02l-.754.36a.031.031 0 0 1-.04-.012 4.11 4.11 0 0 0-2.443-1.824.031.031 0 0 0-.027.005.031.031 0 0 0-.012.025v2.208A1.991 1.991 0 0 1-115 11a1.99 1.99 0 0 1-.985 1.714.031.031 0 0 0-.015.026v2.221a4.09 4.09 0 0 0 1.76-.931.243.243 0 0 1 .286-.031ZM-117 13.03a.031.031 0 0 0-.03-.031 1.991 1.991 0 0 1-1.36-.566l-1.838 1.062A4.057 4.057 0 0 0-117 15.1Zm.93-1.186a1.251 1.251 0 0 0 .326-.845 1.252 1.252 0 0 0-.382-.902 1.252 1.252 0 0 0-.874-.354A1.256 1.256 0 0 0-118.256 11a1.252 1.252 0 0 0 .372.893 1.252 1.252 0 0 0 .884.363 1.253 1.253 0 0 0 .93-.411Z" style="fill:#8129ff"/><path d="M9.486 2h3.029a.485.485 0 0 1 .485.485v3.03a.486.486 0 0 1-.486.485H9.485A.485.485 0 0 1 9 5.515v-3.03A.486.486 0 0 1 9.486 2ZM2.486 9h3.029A.485.485 0 0 1 6 9.485v3.03a.486.486 0 0 1-.486.485H2.485A.485.485 0 0 1 2 12.515v-3.03A.486.486 0 0 1 2.486 9Z" style="fill:#f4f4f4"/><path style="fill:#d3b490" d="M9 11h7v5H9z"/><path style="fill:#d3b490;fill-rule:evenodd" d="M16 10H9l1.556-2h3.888L16 10z"/><path style="fill:#e9ded4" d="M9 10h7v1H9z"/><path style="fill:#595959;fill-rule:evenodd" d="M12.5 11.5 10 14h2v1h1v-1h2l-2.5-2.5z"/><path style="fill:#e9ded4" d="M12 8h1v2h-1z"/><path style="fill:#d3b490" d="M9 11h7v5H9z"/><path style="fill:#d3b490;fill-rule:evenodd" d="M16 10H9l1.556-2h3.888L16 10z"/><path style="fill:#e9ded4" d="M9 10h7v1H9z"/><path style="fill:#595959;fill-rule:evenodd" d="M12.5 11.5 10 14h2v1h1v-1h2l-2.5-2.5z"/><path style="fill:#e9ded4" d="M12 8h1v2h-1z"/><path d="M8.39 2.252a.976.976 0 0 0-.1-.052l-.233-.102A1.47 1.47 0 0 0 8 2.486v2.591l.777-1.063a1.017 1.017 0 0 0 .057-.087 1.226 1.226 0 0 0-.443-1.675Z" style="fill:#f8f8f8"/><path d="M7.97 3.424 7 4.75v1.773A.476.476 0 0 1 6.524 7H6V2H3V.075A.075.075 0 0 1 3.113.01l1.37.99h2.041A.476.476 0 0 1 7 1.476v1.25l.887.39a.225.225 0 0 1 .083.308Z" style="fill:#5cbfbc"/><path style="fill:#5cbfbc" d="M3 3h2v2H3z"/><path d="M5.976 8.08A1.47 1.47 0 0 0 5.514 8h-2.33l1.109.822c.028.022.058.041.089.06a1.153 1.153 0 0 0 .544.147 1.066 1.066 0 0 0 1.05-.948Z" style="fill:#f8f8f8"/><path d="M4.9 6H2V1h-.525A.474.474 0 0 0 1 1.474v1.894L.032 4.73a.234.234 0 0 0 .082.316L1 5.459v1.065A.476.476 0 0 0 1.476 7h2.038l1.373 1.02A.075.075 0 0 0 5 7.952v-1.85A.101.101 0 0 0 4.9 6Z" style="fill:#5cbfbc"/></svg>