<svg xmlns="http://www.w3.org/2000/svg" viewBox="0 0 16 16"><path d="M5 10V8H2.486A1.486 1.486 0 0 0 1 9.486v3.028A1.486 1.486 0 0 0 2.486 14h3.028A1.486 1.486 0 0 0 7 12.514V10ZM9.486 1h3.028A1.486 1.486 0 0 1 14 2.486v3.028A1.486 1.486 0 0 1 12.514 7H9.486A1.486 1.486 0 0 1 8 5.514V2.486A1.486 1.486 0 0 1 9.486 1Z" style="fill:#a9a9a9"/><path d="M-57.707 9.707A.997.997 0 0 1-58 9a.997.997 0 0 1 .293-.707A.997.997 0 0 1-57 8a.996.996 0 0 1 .692.278A.997.997 0 0 1-56 9a.997.997 0 0 1-.27.684A.997.997 0 0 1-57 10a.997.997 0 0 1-.707-.293Zm9.566.23-.017-.021h-.027l-.77.357a.031.031 0 0 0-.017.034A3.799 3.799 0 0 1-48.9 11a3.978 3.978 0 0 1-.362 1.629l.754.42.025.003.018-.016A4.853 4.853 0 0 0-48 11a4.59 4.59 0 0 0-.141-1.063Zm-1.215 4.407a.031.031 0 0 1 .015.022.031.031 0 0 1-.008.026A4.968 4.968 0 0 1-53 16a5 5 0 0 1-5-4.951.031.031 0 0 1 .014-.027.031.031 0 0 1 .03-.002 2.219 2.219 0 0 0 .874.184h.003a4.1 4.1 0 0 0 .395 1.56l1.82-1.052A1.986 1.986 0 0 1-55 11a2 2 0 0 1 2-2V6.931a.031.031 0 0 0-.01-.022.031.031 0 0 0-.021-.009 4.079 4.079 0 0 0-2.273.71 2.289 2.289 0 0 0-.642-.575.031.031 0 0 1-.015-.025.031.031 0 0 1 .013-.027A4.951 4.951 0 0 1-53 6a4.977 4.977 0 0 1 4.289 2.47.031.031 0 0 1 .003.025.031.031 0 0 1-.016.02l-.754.36a.031.031 0 0 1-.04-.012 4.11 4.11 0 0 0-2.443-1.824.031.031 0 0 0-.027.005.031.031 0 0 0-.012.025v2.208A1.991 1.991 0 0 1-51 11a1.99 1.99 0 0 1-.985 1.714.031.031 0 0 0-.015.026v2.221a4.09 4.09 0 0 0 1.76-.931.243.243 0 0 1 .286-.031ZM-53 13.03a.031.031 0 0 0-.03-.031 1.991 1.991 0 0 1-1.36-.566l-1.838 1.062A4.057 4.057 0 0 0-53 15.1Zm.93-1.186a1.251 1.251 0 0 0 .326-.845 1.252 1.252 0 0 0-.382-.902A1.252 1.252 0 0 0-53 9.744 1.256 1.256 0 0 0-54.256 11a1.252 1.252 0 0 0 .372.893 1.252 1.252 0 0 0 .884.363 1.253 1.253 0 0 0 .93-.411Z" style="fill:#8129ff"/><path d="M9.486 2h3.029a.485.485 0 0 1 .485.485v3.03a.486.486 0 0 1-.486.485H9.485A.485.485 0 0 1 9 5.515v-3.03A.486.486 0 0 1 9.486 2ZM2.486 9h3.029A.485.485 0 0 1 6 9.485v3.03a.486.486 0 0 1-.486.485H2.485A.485.485 0 0 1 2 12.515v-3.03A.486.486 0 0 1 2.486 9Z" style="fill:#f4f4f4"/><rect x="9" y="9" width="7" height="7" rx="1.733" style="fill:#5cbfbc"/><rect x="10" y="10" width="5" height="5" rx=".733" style="fill:#beebea"/><path d="M8 2.486v3.028A1.486 1.486 0 0 0 9.486 7h.814v-.722l.777-1.353a1.587 1.587 0 0 0-.582-2.162L10.3 2.65V1.594A1.868 1.868 0 0 0 10.195 1h-.71A1.486 1.486 0 0 0 8 2.486ZM5.514 8H2.486A1.486 1.486 0 0 0 1 9.486v.605a1.772 1.772 0 0 0 .594.11h2.221l1.432.844a1.39 1.39 0 0 0 .66.18A1.277 1.277 0 0 0 7 10.58V9.486A1.486 1.486 0 0 0 5.514 8Z" style="fill:#f8f8f8"/><path d="M9.95 4.275 9 5.932v2.474A.594.594 0 0 1 8.406 9H8V2H4V.094a.094.094 0 0 1 .14-.081L5.853 1h2.554A.594.594 0 0 1 9 1.594v1.81l.848.487a.281.281 0 0 1 .103.384ZM4 6h2V4H4Zm1.875 2H2V1h-.406A.593.593 0 0 0 1 1.592v2.614l-.962 1.7A.293.293 0 0 0 .14 6.3L1 6.816v1.59A.594.594 0 0 0 1.594 9h2.55l1.715 1.013A.094.094 0 0 0 6 9.929v-1.8A.127.127 0 0 0 5.875 8Z" style="fill:#5cbfbc"/></svg>