<svg xmlns="http://www.w3.org/2000/svg" viewBox="0 0 32 32"><path d="M3 26.39v-6.78A2.61 2.61 0 0 1 5.61 17h6.78a2.568 2.568 0 0 1 2.56 2.61l.05 6.78A2.61 2.61 0 0 1 12.39 29H5.61A2.61 2.61 0 0 1 3 26.39ZM17 12.39V5.61A2.61 2.61 0 0 1 19.61 3h6.78a2.568 2.568 0 0 1 2.56 2.61l.05 6.78A2.61 2.61 0 0 1 26.39 15h-6.78A2.61 2.61 0 0 1 17 12.39Z" style="fill:#a9a9a9"/><path d="M-49.707 49.707A.997.997 0 0 1-50 49a.997.997 0 0 1 .293-.707A.997.997 0 0 1-49 48a.996.996 0 0 1 .692.278A.997.997 0 0 1-48 49a.997.997 0 0 1-.27.684A.997.997 0 0 1-49 50a.997.997 0 0 1-.707-.293Zm9.566.23-.017-.021h-.027l-.77.357a.031.031 0 0 0-.017.034A3.799 3.799 0 0 1-40.9 51a3.978 3.978 0 0 1-.362 1.629l.754.42.025.003.018-.016A4.853 4.853 0 0 0-40 51a4.59 4.59 0 0 0-.141-1.063Zm-1.215 4.407a.031.031 0 0 1 .015.022.031.031 0 0 1-.008.026A4.968 4.968 0 0 1-45 56a5 5 0 0 1-5-4.951.031.031 0 0 1 .014-.027.031.031 0 0 1 .03-.002 2.219 2.219 0 0 0 .874.184h.003a4.1 4.1 0 0 0 .395 1.56l1.82-1.052A1.986 1.986 0 0 1-47 51a2 2 0 0 1 2-2v-2.069a.031.031 0 0 0-.01-.022.031.031 0 0 0-.021-.009 4.079 4.079 0 0 0-2.273.71 2.289 2.289 0 0 0-.642-.575.031.031 0 0 1-.015-.025.031.031 0 0 1 .013-.027A4.951 4.951 0 0 1-45 46a4.977 4.977 0 0 1 4.289 2.47.031.031 0 0 1 .003.025.031.031 0 0 1-.016.02l-.754.36a.031.031 0 0 1-.04-.012 4.11 4.11 0 0 0-2.443-1.824.031.031 0 0 0-.027.005.031.031 0 0 0-.012.025v2.208A1.991 1.991 0 0 1-43 51a1.99 1.99 0 0 1-.985 1.714.031.031 0 0 0-.015.026v2.221a4.09 4.09 0 0 0 1.76-.931.243.243 0 0 1 .286-.031ZM-45 53.03a.031.031 0 0 0-.03-.031 1.991 1.991 0 0 1-1.36-.566l-1.838 1.062A4.057 4.057 0 0 0-45 55.1Zm.93-1.186a1.251 1.251 0 0 0 .326-.845 1.252 1.252 0 0 0-.382-.902 1.252 1.252 0 0 0-.874-.354A1.256 1.256 0 0 0-46.256 51a1.252 1.252 0 0 0 .372.893 1.252 1.252 0 0 0 .884.363 1.253 1.253 0 0 0 .93-.411ZM-50.9 17a1.9 1.9 0 0 1 1.9-1.9 1.9 1.9 0 0 1 1.9 1.9 1.9 1.9 0 0 1-1.9 1.9 1.9 1.9 0 0 1-1.9-1.9Zm17.854.798a.063.063 0 0 0-.04-.034.063.063 0 0 0-.05.007l-1.35.825a.062.062 0 0 0-.024.079A8.155 8.155 0 0 1-33.8 22a8.119 8.119 0 0 1-.32 2.25.558.558 0 0 0 .243.628l1.042.644a.062.062 0 0 0 .053.006.063.063 0 0 0 .038-.037A9.848 9.848 0 0 0-32.1 22a9.838 9.838 0 0 0-.947-4.202Zm-2.885 9.715a.486.486 0 0 1 .615-.086l1.039.642a.062.062 0 0 1 .029.042.063.063 0 0 1-.013.05A9.873 9.873 0 0 1-42 31.9a9.9 9.9 0 0 1-9.9-9.9 9.917 9.917 0 0 1 .194-1.946.063.063 0 0 1 .041-.047.062.062 0 0 1 .061.012 3.98 3.98 0 0 0 1.498.807A8.222 8.222 0 0 0-50.2 22a8.168 8.168 0 0 0 .471 2.718l3.841-2.218a.063.063 0 0 0 .031-.062A3.306 3.306 0 0 1-45.9 22a3.89 3.89 0 0 1 2.9-3.754v-4.313a.063.063 0 0 0-.021-.047.063.063 0 0 0-.05-.015 8.184 8.184 0 0 0-2.66.833 3.981 3.981 0 0 0-1.254-1.138.062.062 0 0 1-.03-.054.062.062 0 0 1 .03-.054A9.833 9.833 0 0 1-42 12.1a9.864 9.864 0 0 1 7.362 3.297.063.063 0 0 1 .015.05.063.063 0 0 1-.029.045l-1.368.836a.062.062 0 0 1-.077-.01 8.178 8.178 0 0 0-4.832-2.442.063.063 0 0 0-.05.015.063.063 0 0 0-.021.047v4.308A3.89 3.89 0 0 1-38.1 22a3.89 3.89 0 0 1-2.854 3.742.063.063 0 0 0-.046.06v4.335a8.183 8.183 0 0 0 5.07-2.624ZM-43 25.802a.062.062 0 0 0-.046-.06 3.883 3.883 0 0 1-2.047-1.39l-3.749 2.163A8.192 8.192 0 0 0-43 30.133Zm1-1.702a2.1 2.1 0 0 0 2.1-2.1 2.1 2.1 0 0 0-2.1-2.1 2.1 2.1 0 0 0-2.1 2.1 2.1 2.1 0 0 0 2.1 2.1Z" style="fill:#8129ff"/><path d="M5.61 18h6.78A1.61 1.61 0 0 1 14 19.61v6.78A1.61 1.61 0 0 1 12.39 28H5.61A1.61 1.61 0 0 1 4 26.39v-6.78A1.61 1.61 0 0 1 5.61 18Z" style="fill:#f4f4f4"/><path d="M17 28.607v-8.214A3.393 3.393 0 0 1 20.393 17h8.214a3.35 3.35 0 0 1 3.343 3.393l.05 8.214A3.393 3.393 0 0 1 28.607 32h-8.214A3.393 3.393 0 0 1 17 28.607Z" style="fill:#5cbfbc"/><path d="M20.393 18h8.214A2.393 2.393 0 0 1 31 20.393v8.214A2.393 2.393 0 0 1 28.607 31h-8.214A2.393 2.393 0 0 1 18 28.607v-8.214A2.393 2.393 0 0 1 20.393 18Z" style="fill:#beebea"/><path d="M19.61 4h6.78A1.61 1.61 0 0 1 28 5.61v6.78A1.61 1.61 0 0 1 26.39 14h-6.78A1.61 1.61 0 0 1 18 12.39V5.61A1.61 1.61 0 0 1 19.61 4Z" style="fill:#f4f4f4"/><path d="M19.219 5.915 18 5.211V3.57a2.595 2.595 0 0 0-1 2.039v6.78a2.595 2.595 0 0 0 1 2.04v-3.27l1.79-3.11a1.564 1.564 0 0 0-.571-2.135Z" style="fill:#f8f8f8"/><path d="M18.925 7.55 17 10.89v4.922A1.188 1.188 0 0 1 15.812 17H15V4H6V.188a.188.188 0 0 1 .281-.163L9.7 2h6.113A1.188 1.188 0 0 1 17 3.188v2.6l1.719.993a.563.563 0 0 1 .206.769Z" style="fill:#5cbfbc"/><path style="fill:#5cbfbc" d="M7 7h5v4H7z"/><path d="M14.2 18.813v-1.057A2.52 2.52 0 0 0 12.39 17H5.61a2.603 2.603 0 0 0-2.191 1.2h5.559l3.14 1.814a1.598 1.598 0 0 0 .694.186 1.39 1.39 0 0 0 1.388-1.387Z" style="fill:#f8f8f8"/><path d="M12.75 14H4V2h-.813A1.187 1.187 0 0 0 2 3.187v4.458L.075 10.966a.562.562 0 0 0 .206.769L2 12.723v3.09A1.188 1.188 0 0 0 3.188 17h6.11l3.42 1.975a.188.188 0 0 0 .282-.163V14.25a.25.25 0 0 0-.25-.25Z" style="fill:#5cbfbc"/></svg>