<?xml version="1.0" encoding="UTF-8"?>
<svg width="32px" height="32px" viewBox="0 0 32 32" version="1.1" xmlns="http://www.w3.org/2000/svg" xmlns:xlink="http://www.w3.org/1999/xlink">
    <!-- Generator: Sketch 54.1 (76490) - https://sketchapp.com -->
    <title>EXB icon-32</title>
    <desc>Created with Sketch.</desc>
    <g id="Style" stroke="none" stroke-width="1" fill="none" fill-rule="evenodd">
        <g id="EXB-Icon-&amp;-Thumbnail" transform="translate(-989.000000, -917.000000)">
            <g id="EXB-icon-32" transform="translate(989.000000, 917.000000)">
                <path d="M8,4 L16,8 L16,18 L8,14 L8,4 Z M0,18 L8,22 L8,32 L0,28 L0,18 Z M16,18 L24,22 L24,32 L16,28 L16,18 Z" id="Combined-Shape" fill="#00C9DD"></path>
                <path d="M8,4 L16,0 L24,4 L16,8 L8,4 Z M0,18 L8,14 L16,18 L8,22 L0,18 Z M16,18 L24,14 L32,18 L24,22 L16,18 Z" id="Combined-Shape" fill="#70F2FF"></path>
                <path d="M16,8 L24,4 L24,14 L16,18 L16,8 Z M8,22 L16,18 L16,28 L8,32 L8,22 Z M24,22 L32,18 L32,28 L24,32 L24,22 Z" id="Combined-Shape" fill="#008197"></path>
            </g>
        </g>
    </g>
</svg>