<?xml version="1.0" encoding="UTF-8"?>
<svg width="16px" height="16px" viewBox="0 0 16 16" version="1.1" xmlns="http://www.w3.org/2000/svg" xmlns:xlink="http://www.w3.org/1999/xlink">
    <!-- Generator: Sketch 54.1 (76490) - https://sketchapp.com -->
    <title>EXB icon-16</title>
    <desc>Created with Sketch.</desc>
    <g id="Style" stroke="none" stroke-width="1" fill="none" fill-rule="evenodd">
        <g id="EXB-Icon-&amp;-Thumbnail" transform="translate(-989.000000, -792.000000)">
            <g id="EXB-icon-16" transform="translate(989.000000, 792.000000)">
                <path d="M0,9 L4,11 L4,16 L0,14 L0,9 Z M4,2 L8,4 L8,9 L4,7 L4,2 Z M8,9 L12,11 L12,16 L8,14 L8,9 Z" id="Combined-Shape" fill="#00C9DD"></path>
                <path d="M0,9 L4,7 L8,9 L4,11 L0,9 Z M4,2 L8,0 L12,2 L8,4 L4,2 Z M8,9 L12,7 L16,9 L12,11 L8,9 Z" id="Combined-Shape" fill="#70F2FF"></path>
                <path d="M4,11 L8,9 L8,14 L4,16 L4,11 Z M8,4 L12,2 L12,7 L8,9 L8,4 Z M12,11 L16,9 L16,13.6666667 L12,16 L12,11 Z" id="Combined-Shape" fill="#008197"></path>
            </g>
        </g>
    </g>
</svg>