<svg xmlns="http://www.w3.org/2000/svg" viewBox="0 0 32 32"><path d="M-113.707 49.707A.997.997 0 0 1-114 49a.997.997 0 0 1 .293-.707A.997.997 0 0 1-113 48a.996.996 0 0 1 .692.278A.997.997 0 0 1-112 49a.997.997 0 0 1-.27.684.997.997 0 0 1-.73.316.997.997 0 0 1-.707-.293Zm9.566.23-.017-.021h-.027l-.77.357a.031.031 0 0 0-.017.034 3.799 3.799 0 0 1 .072.693 3.978 3.978 0 0 1-.362 1.629l.754.42.024.003.02-.016A4.853 4.853 0 0 0-104 51a4.59 4.59 0 0 0-.141-1.063Zm-1.215 4.407a.031.031 0 0 1 .015.022.031.031 0 0 1-.008.026A4.968 4.968 0 0 1-109 56a5 5 0 0 1-5-4.951.031.031 0 0 1 .014-.027.031.031 0 0 1 .03-.002 2.219 2.219 0 0 0 .874.184h.003a4.1 4.1 0 0 0 .395 1.56l1.82-1.052A1.986 1.986 0 0 1-111 51a2 2 0 0 1 2-2v-2.069a.031.031 0 0 0-.01-.022.031.031 0 0 0-.021-.009 4.079 4.079 0 0 0-2.273.71 2.289 2.289 0 0 0-.642-.575.031.031 0 0 1-.015-.025.031.031 0 0 1 .013-.027A4.951 4.951 0 0 1-109 46a4.977 4.977 0 0 1 4.289 2.47.031.031 0 0 1 .003.025.031.031 0 0 1-.016.02l-.754.36a.031.031 0 0 1-.04-.012 4.11 4.11 0 0 0-2.443-1.824.031.031 0 0 0-.027.005.031.031 0 0 0-.012.025v2.208A1.991 1.991 0 0 1-107 51a1.99 1.99 0 0 1-.985 1.714.031.031 0 0 0-.015.026v2.221a4.09 4.09 0 0 0 1.76-.931.243.243 0 0 1 .286-.031ZM-109 53.03a.031.031 0 0 0-.03-.031 1.991 1.991 0 0 1-1.36-.566l-1.838 1.062A4.057 4.057 0 0 0-109 55.1Zm.93-1.186a1.251 1.251 0 0 0 .326-.845 1.252 1.252 0 0 0-.382-.902 1.252 1.252 0 0 0-.874-.354A1.256 1.256 0 0 0-110.256 51a1.252 1.252 0 0 0 .372.893 1.252 1.252 0 0 0 .884.363 1.253 1.253 0 0 0 .93-.411ZM-114.9 17a1.9 1.9 0 0 1 1.9-1.9 1.9 1.9 0 0 1 1.9 1.9 1.9 1.9 0 0 1-1.9 1.9 1.9 1.9 0 0 1-1.9-1.9Zm17.854.798a.063.063 0 0 0-.04-.034.063.063 0 0 0-.05.007l-1.35.825a.062.062 0 0 0-.024.079A8.155 8.155 0 0 1-97.8 22a8.119 8.119 0 0 1-.32 2.25.558.558 0 0 0 .243.628l1.042.644a.062.062 0 0 0 .053.006.063.063 0 0 0 .038-.037A9.848 9.848 0 0 0-96.1 22a9.838 9.838 0 0 0-.947-4.202Zm-2.885 9.715a.486.486 0 0 1 .615-.086l1.039.642a.062.062 0 0 1 .029.042.063.063 0 0 1-.013.05A9.873 9.873 0 0 1-106 31.9a9.9 9.9 0 0 1-9.9-9.9 9.917 9.917 0 0 1 .194-1.946.063.063 0 0 1 .041-.047.062.062 0 0 1 .061.012 3.98 3.98 0 0 0 1.498.807A8.222 8.222 0 0 0-114.2 22a8.168 8.168 0 0 0 .471 2.718l3.841-2.218a.063.063 0 0 0 .031-.062A3.306 3.306 0 0 1-109.9 22a3.89 3.89 0 0 1 2.9-3.754v-4.313a.063.063 0 0 0-.021-.047.063.063 0 0 0-.05-.015 8.184 8.184 0 0 0-2.66.833 3.981 3.981 0 0 0-1.254-1.138.062.062 0 0 1-.03-.054.062.062 0 0 1 .03-.054A9.833 9.833 0 0 1-106 12.1a9.864 9.864 0 0 1 7.362 3.297.063.063 0 0 1 .015.05.063.063 0 0 1-.029.045l-1.368.836a.062.062 0 0 1-.077-.01 8.178 8.178 0 0 0-4.832-2.442.063.063 0 0 0-.05.015.063.063 0 0 0-.021.047v4.308A3.89 3.89 0 0 1-102.1 22a3.89 3.89 0 0 1-2.854 3.742.063.063 0 0 0-.046.06v4.335a8.183 8.183 0 0 0 5.07-2.624ZM-107 25.802a.062.062 0 0 0-.046-.06 3.883 3.883 0 0 1-2.047-1.39l-3.749 2.163A8.192 8.192 0 0 0-107 30.133Zm1-1.702a2.1 2.1 0 0 0 2.1-2.1 2.1 2.1 0 0 0-2.1-2.1 2.1 2.1 0 0 0-2.1 2.1 2.1 2.1 0 0 0 2.1 2.1Z" style="fill:#8129ff"/><path style="fill:#d3b490" d="M17 22h15v10H17z"/><path style="fill:#d3b490;fill-rule:evenodd" d="M17 21h15l-3-3.998h-9L17 21z"/><path style="fill:#e9ded4" d="M17 21h15v1H17z"/><path style="fill:#595959;fill-rule:evenodd" d="m24.5 24 3.45 3H26v3h-3v-3h-1.95l3.45-3z"/><path style="fill:#e9ded4" d="M24 17.002h1V21h-1z"/><path d="M3 26.39v-6.78A2.61 2.61 0 0 1 5.61 17h6.78a2.568 2.568 0 0 1 2.56 2.61l.05 6.78A2.61 2.61 0 0 1 12.39 29H5.61A2.61 2.61 0 0 1 3 26.39Z" style="fill:#a9a9a9"/><path d="M5.61 18h6.78A1.61 1.61 0 0 1 14 19.61v6.78A1.61 1.61 0 0 1 12.39 28H5.61A1.61 1.61 0 0 1 4 26.39v-6.78A1.61 1.61 0 0 1 5.61 18Z" style="fill:#f4f4f4"/><path d="M17 12.39V5.61A2.61 2.61 0 0 1 19.61 3h6.78a2.568 2.568 0 0 1 2.56 2.61l.05 6.78A2.61 2.61 0 0 1 26.39 15h-6.78A2.61 2.61 0 0 1 17 12.39Z" style="fill:#a9a9a9"/><path d="M19.61 4h6.78A1.61 1.61 0 0 1 28 5.61v6.78A1.61 1.61 0 0 1 26.39 14h-6.78A1.61 1.61 0 0 1 18 12.39V5.61A1.61 1.61 0 0 1 19.61 4Z" style="fill:#f4f4f4"/><path style="fill:#5cbfbc" d="M6 6h4v4H6z"/><path d="M9.81 12H4V2H2.95a.95.95 0 0 0-.95.95V7L.153 9.773a.462.462 0 0 0 .157.615L2 11v2.05a.95.95 0 0 0 .95.95H7l2.786 1.98a.143.143 0 0 0 .214-.13V12.2a.195.195 0 0 0-.19-.2ZM6.19 4H12v10h1.05a.95.95 0 0 0 .95-.95V9l1.847-2.773a.462.462 0 0 0-.157-.615L14 5V2.95a.95.95 0 0 0-.95-.95H9L6.214.02A.143.143 0 0 0 6 .15V3.8a.195.195 0 0 0 .19.2Z" style="fill:#5cbfbc"/></svg>