<svg id="Icons" xmlns="http://www.w3.org/2000/svg" viewBox="0 0 32 32"><defs><style>.cls-1{fill:none}.cls-2{fill:#e5d255}.cls-3{fill:#f4eec8}.cls-4{fill:#c7552e}.cls-5{fill:#e5a894}.cls-6{fill:#c96b4b}.cls-7{fill:#f8f8f8}</style></defs><title>layerFeatures_32</title><path class="cls-1" d="M0 0h32v32H0z"/><path class="cls-2" d="M31 28s-6-3-15 0-15 0-15 0L5 4s6 2 11 0 11 0 11 0z"/><path class="cls-3" d="M16 4a15.08 15.08 0 0 1-7 .786v11.618a1.004 1.004 0 0 0 .287.7l5.5 5.597a1 1 0 0 0 1.426 0l5.5-5.594a1.004 1.004 0 0 0 .287-.702V4.124a3.736 3.736 0 0 0-.14-.993A14.24 14.24 0 0 0 16 4z"/><path class="cls-4" d="M21 4.125C21 1.793 17.968 0 15.5 0S10 1.793 10 4.125v12.28L15.5 22l5.5-5.596z"/><path class="cls-5" d="M11 15.842V4.125C11 2.708 13.7 1 15.5 1S20 2.708 20 4.125v11.717l-4.5 4.195z"/><path class="cls-6" d="M16 2.418v15.684l3-2.67V4.125c0-.545-1.648-1.502-3-1.707z"/><circle class="cls-7" cx="15.5" cy="6.499" r="2.5"/></svg>