<svg id="Icons" xmlns="http://www.w3.org/2000/svg" viewBox="0 0 32 32"><defs><style>.cls-1{fill:none}.cls-2{fill:#e5d255}.cls-3{fill:#f4eec8}.cls-4{fill:#c7552e}.cls-5{fill:#e5a894}.cls-6{fill:#c96b4b}.cls-7{fill:#f8f8f8}.cls-8{fill:#6d6e71}.cls-9{fill:#f3f4f4}.cls-10{fill:#e0e0e0}</style></defs><title>layerFeaturesHosted_32</title><path class="cls-1" d="M0 0h32v32H0z"/><path class="cls-2" d="M31 28s-6-3-15 0-15 0-15 0L5 4s6 2 11 0 11 0 11 0z"/><path class="cls-3" d="M16 4a15.075 15.075 0 0 1-7 .787v11.618a1.002 1.002 0 0 0 .287.7l5.5 5.596a1 1 0 0 0 1.426 0l5.5-5.594a1.002 1.002 0 0 0 .287-.7V4.125a3.735 3.735 0 0 0-.14-.995A14.257 14.257 0 0 0 16 4z"/><path class="cls-4" d="M21 4.125C21 1.795 17.968 0 15.5 0S10 1.794 10 4.125v12.28L15.5 22l5.5-5.595z"/><path class="cls-5" d="M11 15.842V4.125C11 2.708 13.7 1 15.5 1S20 2.708 20 4.125v11.717l-4.5 4.196z"/><path class="cls-6" d="M16 2.42v15.683l3-2.67V4.125c0-.545-1.648-1.502-3-1.706z"/><circle class="cls-7" cx="15.5" cy="6.5" r="2.5"/><path class="cls-8" d="M18 22.117v7.14C18 30.772 20.428 32 24.9 32s7.1-1.23 7.1-2.742v-7.14z"/><path class="cls-9" d="M24.898 31C20.15 31 19 29.663 19 29.258v-6.14h12v6.14C31 29.705 29.56 31 24.898 31z"/><path class="cls-10" d="M27 30.936c3.285-.264 4-1.29 4-1.678v-5.883h-4z"/><path class="cls-8" d="M32 22.117c0 1.514-2.627 2.742-7.1 2.742S18 23.63 18 22.116s2.428-2.742 6.9-2.742 7.1 1.23 7.1 2.742z"/><path class="cls-9" d="M24.898 23.86C20.15 23.86 19 22.522 19 22.116c0-.406 1.15-1.742 5.898-1.742 4.66 0 6.102 1.294 6.102 1.742 0 .447-1.44 1.742-6.102 1.742z"/></svg>