<?xml version="1.0" encoding="utf-8"?>
<!-- Generator: Adobe Illustrator 21.1.0, SVG Export Plug-In . SVG Version: 6.00 Build 0)  -->
<svg version="1.1" xmlns="http://www.w3.org/2000/svg" xmlns:xlink="http://www.w3.org/1999/xlink" x="0px" y="0px" width="32px"
	 height="32px" viewBox="0 0 32 32" style="enable-background:new 0 0 32 32;" xml:space="preserve">
<style type="text/css">
	.st0{display:none;}
	.st1{display:inline;fill:#333333;}
	.st2{display:inline;fill:none;stroke:#808080;stroke-width:0.25;stroke-miterlimit:10;}
	.st3{display:inline;fill:#C5E5F9;}
	.st4{display:inline;fill:#AADBFA;}
	.st5{display:inline;fill:#F8F8F8;}
	.st6{fill:#828282;}
	.st7{fill:#808284;}
	.st8{fill-rule:evenodd;clip-rule:evenodd;fill:none;}
	.st9{fill:#6E6E6E;}
	.st10{fill:#F8F8F8;}
	.st11{fill:#7C6DA8;}
	.st12{fill:none;}
	.st13{fill:#6DB5E3;}
	.st14{fill:#57A6D9;}
	.st15{fill:#BDDBEE;}
	.st16{fill:#E5D255;}
	.st17{fill:#F4EEC8;}
	.st18{fill:#F0E498;}
	.st19{fill:#595959;}
	.st20{fill:#68AA67;}
	.st21{fill:#C7552E;}
	.st22{fill:#E5A894;}
	.st23{fill:#9182BD;}
	.st24{fill:#C5BDDD;}
	.st25{fill:#D3EAF9;}
	.st26{fill:#EFEFEF;}
	.st27{fill:#9BC29C;}
	.st28{fill:#A67A47;}
	.st29{fill:#C96B4B;}
	.st30{fill-rule:evenodd;clip-rule:evenodd;fill:#D3B490;}
	.st31{fill-rule:evenodd;clip-rule:evenodd;fill:#F8F8F8;}
	.st32{fill-rule:evenodd;clip-rule:evenodd;fill:#E9DED4;}
	.st33{fill-rule:evenodd;clip-rule:evenodd;fill:#595959;}
	.st34{fill:#5B945A;}
	.st35{fill:#E0E0E0;}
	.st36{fill:#CCCCCC;}
	.st37{fill:#3B8FC4;}
	.st38{fill-rule:evenodd;clip-rule:evenodd;fill:#6D6E71;}
	.st39{fill-rule:evenodd;clip-rule:evenodd;fill:#CCCCCC;}
	.st40{fill-rule:evenodd;clip-rule:evenodd;fill:#FFFFFF;}
	.st41{fill-rule:evenodd;clip-rule:evenodd;fill:#6E6E6E;}
</style>
<g id="Dark_Theme_1_" class="st0">
	<rect x="-416" y="-160" class="st1" width="544" height="736"/>
	<rect x="-448" y="-192" class="st2" width="612" height="792"/>
</g>
<g id="Hover" class="st0">
	<rect x="-416" y="-160" class="st3" width="544" height="736"/>
</g>
<g id="Selected" class="st0">
	<rect x="-416" y="-160" class="st4" width="544" height="736"/>
</g>
<g id="LightTheme" class="st0">
	<rect x="-416" y="-160" class="st5" width="544" height="736"/>
	<rect x="-448" y="-192" class="st2" width="612" height="792"/>
</g>
<g id="Icon_Name">
</g>
<g id="Icons">
	<rect class="st8" width="32" height="32"/>
	<path class="st16" d="M31,28c0,0-6-3-15,0S1,28,1,28L5,4c0,0,6,2,11,0s11,0,11,0L31,28z"/>
	<path class="st17" d="M16,4c-2.3573999,0.9433999-4.931612,0.9921999-7,0.7860999v11.6182003
		c0,0.2616997,0.1035004,0.5136986,0.2870884,0.7011986l5.5,5.5957012C14.9745884,22.8915997,15.2323999,23,15.5,23
		s0.5253887-0.1084003,0.7128887-0.2987995l5.5-5.5957012C21.8964996,16.9179993,22,16.6660004,22,16.4043007V4.125
		c0-0.3436999-0.0508003-0.6738-0.1387005-0.9941001C20.0292873,3.0527,17.9413891,3.2227001,16,4z"/>
	<path class="st21" d="M21,4.125C21,1.793,17.9677887,0,15.5,0C13.0321884,0,10,1.793,10,4.125v12.2793007L15.5,22l5.5-5.5956993
		V4.125z"/>
	<path class="st22" d="M11,15.8417997V4.125C11,2.7079999,13.6991997,1,15.5,1S20,2.7079999,20,4.125v11.7167997l-4.5,4.1953001
		L11,15.8417997z"/>
	<path class="st29" d="M16,2.418v15.6845007l3-2.6709013V4.125C19,3.5801001,17.3515873,2.6229999,16,2.418z"/>
	<circle class="st10" cx="15.5" cy="6.4990001" r="2.5"/>
	<path class="st10" d="M29.7070312,25.7070312c0.390625-0.390625,0.390625-1.0234375,0-1.4140625l-4-4
		C25.515625,20.1015625,25.2597656,20,25,20c-0.1289062,0-0.2587891,0.0244141-0.3828125,0.0761719
		C24.2431641,20.2304688,24,20.5957031,24,21v2h-3c-0.1862793,0-0.350769,0.0645142-0.5,0.1530151
		C20.350769,23.0645142,20.1862793,23,20,23h-2c-0.2064209,0-0.387146,0.0773315-0.5463257,0.1842651
		C17.315918,23.112793,17.1660767,23.0625,17,23.0625h-2c-0.1862793,0-0.350769,0.0645142-0.5,0.1530151
		C14.350769,23.1270142,14.1862793,23.0625,14,23.0625h-2c-0.5527344,0-1,0.4472656-1,1V26c0,0.5527344,0.4472656,1,1,1h2
		c0.1862793,0,0.350769-0.0645752,0.5-0.1530762C14.649231,26.9354248,14.8137207,27,15,27h2
		c0.1862793,0,0.350769-0.0645752,0.5-0.1530762C17.649231,26.9354248,17.8137207,27,18,27h2
		c0.1865845,0,0.3513794-0.0648193,0.5007324-0.1535645c0.0387573,0.0229492,0.0817261,0.0379028,0.1226807,0.0568848
		c3.2401733-0.4584351,5.8566895-0.1675415,7.6567993,0.2305298L29.7070312,25.7070312z"/>
	<polygon class="st14" points="28.9999924,25 24.9999924,21 24.9999924,24 20.9999924,24 20.9999924,25.9990005 
		24.9999924,25.9990005 24.9999924,29 	"/>
	<rect x="17.9999924" y="24" class="st14" width="2" height="2"/>
	<rect x="14.9999924" y="24.0625" class="st14" width="2" height="1.9375"/>
	<rect x="11.9999924" y="24.0625" class="st14" width="2" height="1.9375"/>
	<g>
		<path class="st31" d="M11.1298828,23.453125L10.21875,23.3330078l0.609375-0.7832031
			c0.3085938-0.3974609,0.2734375-0.9638672-0.0830078-1.3203125l-0.8974609-0.8974609
			c-0.1943359-0.1943359-0.4501953-0.2929688-0.7070312-0.2929688c-0.2158203,0-0.4326172,0.0693359-0.6142578,0.2109375
			l-0.7783203,0.6054688l-0.1220703-0.9785156c-0.0625-0.5-0.4882812-0.8759766-0.9921875-0.8759766H5.3642578
			c-0.5039062,0-0.9296875,0.3759766-0.9921875,0.8759766L4.25,20.8554688L3.4716797,20.25
			c-0.1816406-0.1416016-0.3984375-0.2109375-0.6142578-0.2109375c-0.2012329,0-0.3930664,0.078186-0.5634766,0.1973877
			L1.069397,27.5834961l0.1015015,0.0229492c-0.0715332,0.0917969-0.1201172,0.1939697-0.1551514,0.2990723L1,28
			c0,0,2.5237427,1.2487793,6.7365723,1.3222656l0.0036621-0.0263672l0.0343018,0.0266724
			c0.8352661,0.0131226,1.7362671-0.0238647,2.6981201-0.1226807l0.2724609-0.2721558
			c0.3564453-0.3564453,0.3916016-0.921875,0.0830078-1.3203125l-0.6083984-0.7832031l0.9091797-0.1191406
			c0.4980469-0.0644531,0.8701172-0.4882812,0.8701172-0.9902344L12,24.4453125
			C12,23.9423828,11.6279297,23.5185547,11.1298828,23.453125z"/>
		<path class="st41" d="M10.9989996,25.7138996L11,24.4444008l-1.6172104-0.2119999
			c-0.0848999-0.3388004-0.2186995-0.6562004-0.3926001-0.9472008l1.0479002-1.3486996l-0.8975-0.8973999l-1.3485899,1.0487995
			c-0.29-0.1758003-0.6094098-0.3076-0.94631-0.392601L6.63379,20.0009995H5.3642898l-0.2119999,1.6942997
			c-0.3388,0.085001-0.6561999,0.2168007-0.9471998,0.392601l-1.3476999-1.0487995l-0.8993902,0.8973999l1.0487902,1.3486996
			C2.832,23.5762005,2.6991901,23.8936005,2.61519,24.2324009L1,24.4444008v1.2694988l1.61519,0.2119007
			c0.0840001,0.3379002,0.21681,0.6562996,0.3916001,0.9473L1.96,28.2198009L2.85549,29.1182003L4.20509,28.0694008
			c0.2909999,0.1756992,0.6083999,0.3085995,0.9471998,0.3924999l0.211,1.5370998L6.63379,30l0.2118998-1.5380993
			c0.3389001-0.0839005,0.6563101-0.2168007,0.9473104-0.3924999l1.34659,1.0487995l0.8984995-0.897501l-1.0479002-1.3485985
			c0.1758108-0.2900009,0.3077002-0.6084003,0.3926001-0.9463005L10.9989996,25.7138996z"/>
		<path class="st39" d="M6.0731897,29.5214996H5.9228902l-0.1416001-1.1376991C5.75,28.125,5.5614901,27.9120998,5.30759,27.8467007
			c-0.2772999-0.0684013-0.5370998-0.1767998-0.7763-0.3213005c-0.1006002-0.0615005-0.2139001-0.0907993-0.3262-0.0907993
			c-0.1387,0-0.2764001,0.044899-0.3916001,0.1337986L2.90819,28.2714996l-0.1034999-0.102499l0.7031-0.9053001
			c0.1610999-0.2080002,0.1787-0.4932003,0.043-0.7178001c-0.1436-0.2411995-0.2520001-0.5-0.3194001-0.7723999
			c-0.06339-0.2559013-0.2763-0.4454002-0.5379999-0.4776001l-1.1387-0.1406002l0.0019-0.1513996l1.1368001-0.1435013
			C2.95509,24.8281002,3.168,24.6406002,3.23139,24.3848c0.0674-0.2714996,0.1758001-0.5303001,0.3194001-0.7724991
			c0.1357-0.2256012,0.1180999-0.5097008-0.043-0.7168007L2.80269,21.9892998l0.1055-0.1054993l0.9072001,0.7050991
			c0.1143,0.0888996,0.2519999,0.1338005,0.3896999,0.1338005c0.1142001,0,0.2265-0.0303001,0.3280997-0.0907993
			C4.7704902,22.4883003,5.0302901,22.3799,5.30759,22.3106003c0.2539001-0.0645008,0.44241-0.2763996,0.4737-0.5370998
			l0.1416001-1.137701h0.1502995l0.1426001,1.137701c0.0322104,0.2607002,0.2197003,0.472599,0.4737,0.5370998
			c0.2763,0.0692997,0.5380001,0.1777,0.7734003,0.3213005c0.1025,0.0604992,0.2157998,0.0907993,0.3291097,0.0907993
			c0.1366901,0,0.2753897-0.0449009,0.3905897-0.1338005l0.9063005-0.7050991l0.1054001,0.1054993l-0.7060003,0.9062004
			c-0.1591997,0.2061005-0.1786995,0.4911995-0.0430002,0.7159004c0.1465006,0.2430992,0.2529001,0.5047989,0.3203001,0.7733994
			c0.0635004,0.2558002,0.2774105,0.4433002,0.5370998,0.4755993l1.1396999,0.1435013L10.44139,25.1553001l-1.1387005,0.1406002
			c-0.2596893,0.0321999-0.4735994,0.2216988-0.5370998,0.4776001c-0.0674,0.2723999-0.1757994,0.5312004-0.3203001,0.7723999
			c-0.1356993,0.2245998-0.1161995,0.5098,0.0430002,0.7167988l0.7051001,0.9033012l-0.1055002,0.1054993l-0.9042997-0.7031002
			c-0.1152-0.0888996-0.2529001-0.1337986-0.3915901-0.1337986c-0.1123099,0-0.2256098,0.0292988-0.3252101,0.0907993
			c-0.2401996,0.1445007-0.5019999,0.2528992-0.7753997,0.3213005c-0.2549,0.0634995-0.4433899,0.2772999-0.4756002,0.5370998
			L6.0731897,29.5214996L6.0731897,29.5214996z"/>
		<path class="st41" d="M5.9980001,23.1748009c-1.04881,0-1.90521,0.8534985-1.90521,1.9042988
			c0,1.0489006,0.8564,1.9043007,1.90521,1.9043007c1.0498896,0,1.9042897-0.8554001,1.9042897-1.9043007
			C7.9022899,24.0282993,7.0478897,23.1748009,5.9980001,23.1748009L5.9980001,23.1748009z"/>
		<circle class="st31" cx="5.9977698" cy="25.0791245" r="1.2697999"/>
	</g>
</g>
</svg>
