<?xml version="1.0" encoding="utf-8"?>
<!-- Generator: Adobe Illustrator 21.1.0, SVG Export Plug-In . SVG Version: 6.00 Build 0)  -->
<svg version="1.1" xmlns="http://www.w3.org/2000/svg" xmlns:xlink="http://www.w3.org/1999/xlink" x="0px" y="0px" width="16px"
	 height="16px" viewBox="0 0 16 16" style="enable-background:new 0 0 16 16;" xml:space="preserve">
<style type="text/css">
	.st0{display:none;}
	.st1{display:inline;fill:#333333;}
	.st2{display:inline;fill:none;stroke:#808080;stroke-width:0.25;stroke-miterlimit:10;}
	.st3{display:inline;fill:#C5E5F9;}
	.st4{display:inline;fill:#AADBFA;}
	.st5{display:inline;fill:#F8F8F8;}
	.st6{fill:#828282;}
	.st7{fill:#808284;}
	.st8{fill-rule:evenodd;clip-rule:evenodd;fill:none;}
	.st9{fill:#6E6E6E;}
	.st10{fill:#F8F8F8;}
	.st11{fill:#7C6DA8;}
	.st12{fill:none;}
	.st13{fill:#6DB5E3;}
	.st14{fill:#57A6D9;}
	.st15{fill:#BDDBEE;}
	.st16{fill:#E5D255;}
	.st17{fill:#F4EEC8;}
	.st18{fill:#F0E498;}
	.st19{fill:#595959;}
	.st20{fill:#68AA67;}
	.st21{fill:#C7552E;}
	.st22{fill:#E5A894;}
	.st23{fill:#9182BD;}
	.st24{fill:#C5BDDD;}
	.st25{fill:#D3EAF9;}
	.st26{fill:#EFEFEF;}
	.st27{fill:#9BC29C;}
	.st28{fill:#A67A47;}
	.st29{fill:#C96B4B;}
	.st30{fill-rule:evenodd;clip-rule:evenodd;fill:#D3B490;}
	.st31{fill-rule:evenodd;clip-rule:evenodd;fill:#F8F8F8;}
	.st32{fill-rule:evenodd;clip-rule:evenodd;fill:#E9DED4;}
	.st33{fill-rule:evenodd;clip-rule:evenodd;fill:#595959;}
	.st34{fill:#5B945A;}
	.st35{fill:#E0E0E0;}
	.st36{fill:#CCCCCC;}
	.st37{fill:#3B8FC4;}
	.st38{fill-rule:evenodd;clip-rule:evenodd;fill:#6D6E71;}
	.st39{fill-rule:evenodd;clip-rule:evenodd;fill:#CCCCCC;}
	.st40{fill-rule:evenodd;clip-rule:evenodd;fill:#FFFFFF;}
	.st41{fill-rule:evenodd;clip-rule:evenodd;fill:#6E6E6E;}
</style>
<g id="Dark_Theme_1_" class="st0">
	<rect x="-424" y="-200" class="st1" width="544" height="736"/>
	<rect x="-456" y="-232" class="st2" width="612" height="792"/>
</g>
<g id="Hover" class="st0">
	<rect x="-424" y="-200" class="st3" width="544" height="736"/>
</g>
<g id="Selected" class="st0">
	<rect x="-424" y="-200" class="st4" width="544" height="736"/>
</g>
<g id="LightTheme" class="st0">
	<rect x="-424" y="-200" class="st5" width="544" height="736"/>
	<rect x="-456" y="-232" class="st2" width="612" height="792"/>
</g>
<g id="Icon_Name">
</g>
<g id="Icons">
	<rect class="st8" width="16" height="16"/>
	<path class="st16" d="M16,14.4004002c0,0-3.2002001-1.6015997-8,0c-4.7997999,1.5995998-8,0-8,0L2.1328001,1.5996
		c0,0,3.2012,1.0663999,5.8671999,0s5.8671999,0,5.8671999,0L16,14.4004002z"/>
	<path class="st10" d="M12,2.9990001C12,2.3241999,11.835,1.709,11.5644884,1.1631C10.491188,1.0723,9.193388,1.1221,8,1.5996
		C6.6903882,2.1229999,5.2528882,2.1308999,4.1278882,2.0049C4.0526886,2.3223,4,2.6514001,4,2.9990001V7
		c0,0.2645998,0.1054883,0.5194998,0.2930002,0.7069998l3,3C7.4882998,10.9022999,7.7440882,11,8,11
		c0.255888,0,0.5116997-0.0977001,0.7069998-0.2930002l3-3C11.8944883,7.5194998,12,7.2645998,12,7V2.9990001z"/>
	<path class="st21" d="M11,2.9990001C11,1.3047,9.7948999,0,8,0S5,1.3047,5,2.9990001V7l3,3l3-3C11,7,11,3.0020001,11,2.9990001z"/>
	<path class="st22" d="M6,6.5858998V2.9990001C6,1.8027,6.8036885,1,8,1c1.1962881,0,2,0.8027,2,1.9990001v3.5868998L8,8.5859003
		L6,6.5858998z"/>
	<path class="st29" d="M8,2v5.1718998l1-1V2.9990001C9,2.3545001,8.6444883,2,8,2z"/>
	<circle class="st10" cx="8" cy="3" r="1.25"/>
	<circle class="st10" cx="8" cy="3" r="1.25"/>
	<path class="st10" d="M15.8591309,13.5549316l-0.6217651-3.7316284l-1.5303345-1.5303345C13.515625,8.1015625,13.2597656,8,13,8
		c-0.1289062,0-0.2587891,0.0244141-0.3828125,0.0761719C12.2431641,8.2304688,12,8.5957031,12,9v1h-1
		c-0.1862793,0-0.350769,0.0645142-0.5,0.1530151C10.350769,10.0645142,10.1862793,10,10,10H8c-0.5527344,0-1,0.4472656-1,1v2
		c0,0.5527344,0.4472656,1,1,1h1.4666138c2.7351685-0.6011353,4.7960205-0.1886597,5.8163452,0.1311035L15.8591309,13.5549316z"/>
	<polygon class="st14" points="16.0001202,12 13.0001202,9 13.0001202,11 11.0001202,11 11.0001202,12.9989996 
		13.0001202,12.9989996 13.0001202,15 	"/>
	<rect x="8.0001202" y="11" class="st14" width="2" height="2"/>
	<g>
		<g>
			<path class="st31" d="M8,13v-1c0-0.515625-0.390625-0.9404297-0.8925781-0.9941406
				C7.25,10.8291016,7.328125,10.6083984,7.328125,10.3789062c0-0.265625-0.1054688-0.5195312-0.2929688-0.7070312
				L6.328125,8.9648438C6.1328125,8.7695312,5.8769531,8.671875,5.6210938,8.671875
				c-0.2216797,0-0.4443359,0.0732422-0.6269531,0.2207031C4.9404297,8.390625,4.515625,8,4,8H3
				C2.484375,8,2.0595703,8.390625,2.0058594,8.8925781C1.8232422,8.7451172,1.6005859,8.671875,1.3789062,8.671875
				c-0.1542358,0-0.3032227,0.0473633-0.4441528,0.1183472L0,14.4003906c0,0,2.90448,1.4437256,7.3249512,0.2020264
				c-0.0042725-0.2225952-0.0789185-0.4364624-0.2175293-0.6082764C7.609375,13.9404297,8,13.515625,8,13z"/>
			<path class="st38" d="M0,13l0-1h0.5335671c0.2847425,0,0.5414299-0.172555,0.6488712-0.4362497
				c0.0050912-0.012495,0.010281-0.0249395,0.015568-0.0373335c0.1122212-0.2630529,0.0531756-0.5681429-0.1490504-0.7703686
				l-0.3773861-0.3773861l0.7070923-0.7070312l0.3774017,0.3774014c0.202225,0.2022257,0.5074204,0.2612696,0.7704571,0.1490135
				c0.0124006-0.0052929,0.0248528-0.0104876,0.0373552-0.015584C2.8275576,10.074975,3,9.8183813,3,9.5336342V9h1v0.5336351
				c0,0.2847052,0.1725202,0.5413666,0.4361606,0.6488409c0.0124903,0.0050926,0.02493,0.0102825,0.0373182,0.0155697
				c0.2630706,0.1122713,0.5682063,0.0532379,0.7704573-0.1490135l0.3774018-0.3774014l0.7070923,0.7070312l-0.3773994,0.3773994
				c-0.2021971,0.2021971-0.2612576,0.5073128-0.1490493,0.7703276c0.0052886,0.0123949,0.0104795,0.0248423,0.0155716,0.0373402
				C5.9250069,11.8274469,6.1816702,12,6.4664392,12H7v1H6.4664168c-0.2846975,0-0.5414066,0.1725073-0.6488504,0.4361525
				c-0.0050988,0.0125103-0.0102959,0.0249701-0.0155907,0.0373783c-0.1122556,0.2630692-0.0532203,0.5681324,0.1490259,0.7703781
				l0.3774285,0.377429l-0.7070923,0.7070312l-0.3774123-0.3774118c-0.2022181-0.202219-0.5073829-0.2612762-0.7704091-0.1490183
				c-0.0124011,0.0052919-0.0248532,0.0104876-0.0373564,0.0155849C4.172502,14.9250059,4,15.1816397,4,15.4663649V16H3v-0.5336351
				c0-0.2847052-0.1725202-0.5413666-0.4361603-0.6488409c-0.0124903-0.0050926-0.02493-0.0102825-0.0373187-0.0155697
				c-0.2630703-0.1122713-0.5682062-0.0532379-0.7704571,0.1490135l-0.3774017,0.3774014l-0.7070923-0.7070312l0.3774285-0.377429
				c0.2022122-0.2022114,0.2612629-0.5073528,0.1490259-0.7703781c-0.0052916-0.0124006-0.0104855-0.0248528-0.0155808-0.0373554
				C1.0749699,13.1724663,0.8183632,13,0.5335948,13H0z"/>
			<path class="st39" d="M3.4991298,14.5c0.1357701-0.2258482,0.3429067-0.4077463,0.5996518-0.51262
				c0.1801567-0.0761528,0.3446474-0.1096601,0.5134897-0.1096601c0.1026983,0,0.2036557,0.0121841,0.3011317,0.0361185
				c-0.0639687-0.2571802-0.0452566-0.5339432,0.0639687-0.7902527C5.0874672,12.8529158,5.2724109,12.6392517,5.5,12.5008707
				c-0.2258487-0.1357708-0.4077458-0.342907-0.5126195-0.5996523c-0.1148825-0.2711048-0.1357703-0.5548306-0.072237-0.8154917
				C4.8172326,11.110096,4.7158399,11.122715,4.6122713,11.122715c-0.1692772,0-0.3342032-0.0339422-0.4899912-0.100522
				C3.8524804,10.9120979,3.6392515,10.7275896,3.5008702,10.5c-0.1357701,0.2258482-0.3429067,0.4077463-0.5996518,0.51262
				c-0.1801567,0.0761528-0.3446474,0.1096601-0.51349,0.1096601c-0.1031332,0-0.2040906-0.0121841-0.3015666-0.0361185
				c0.0644038,0.2571802,0.045692,0.5335073-0.0635335,0.7902527C1.9125327,12.1470842,1.7275892,12.3607483,1.5,12.4991293
				c0.2258486,0.1357708,0.4077458,0.342907,0.5126197,0.5996523c0.1148825,0.2711048,0.1362054,0.5543947,0.0722368,0.8154917
				c0.0979111-0.0243692,0.1993036-0.0369883,0.3028719-0.0369883c0.1692777,0,0.3342037,0.0339422,0.4899912,0.100522
				C3.1475196,14.0879021,3.3607485,14.2724104,3.4991298,14.5z"/>
			<circle class="st38" cx="3.5" cy="12.5" r="1"/>
		</g>
		<rect x="3" y="12" transform="matrix(-1 -4.365587e-11 4.365587e-11 -1 7 25)" class="st40" width="1" height="1"/>
	</g>
</g>
</svg>
