<svg xmlns="http://www.w3.org/2000/svg" viewBox="0 0 32 32"><defs><style>.cls-1{fill:#c7552e}.cls-2{fill:#6e6e6e}.cls-3{fill:#f8f8f8}.cls-4{fill:#57a6d9}.cls-5{fill:#bddbee}.cls-6{fill:#e5a894}.cls-7{fill:#68aa67}.cls-8{fill:none}</style></defs><title>geocodeservice32</title><g id="Icons"><path class="cls-1" d="M26 10V2h-5v3L16.5.5 2 15h29l-5-5z"/><path class="cls-2" d="M4 15h25v15H4z"/><path class="cls-3" d="M5 15h23v15H5z"/><path class="cls-4" d="M10 18h13v8H10z"/><path class="cls-5" d="M11 19h11v6H11z"/><path class="cls-6" d="M25 9V3h-3v3l3 3zM4.414 14L16.5 1.914 28.586 14H4.414z"/><path class="cls-7" d="M1 30h31v1H1z"/><path class="cls-4" d="M16 19h1v6h-1z"/><path class="cls-8" d="M0 0h32v32H0z"/></g></svg>