<svg id="Icons" xmlns="http://www.w3.org/2000/svg" viewBox="0 0 16 16"><defs><style>.cls-1{fill:#6f6f6f;}.cls-2{fill:#f4f4f4;}.cls-3{fill:#e0e0e0;}.cls-4{fill:none;}</style></defs><title>GeoPackages16</title><path class="cls-1" d="M14,4.498H2v7H2V11.5C2,12.8809,4.6865,14,8,14s6-1.1191,6-2.5v-.002h0Z"/><path class="cls-2" d="M8,13c-3.2812,0-5-1.1152-5-1.5V5.498H13v6C13,11.8848,11.2813,13,8,13Z"/><path class="cls-3" d="M10,12.8418c1.9688-.3203,3-1.0469,3-1.3438v-6H10Z"/><ellipse class="cls-1" cx="8" cy="4.5" rx="6" ry="2.5"/><path class="cls-2" d="M8,6C4.7188,6,3,4.8848,3,4.5,3,4.1133,4.7188,3,8,3s5,1.1133,5,1.5C13,4.8848,11.2813,6,8,6Z"/><rect class="cls-4" width="16" height="16"/></svg>