<svg id="Icons" xmlns="http://www.w3.org/2000/svg" viewBox="0 0 32 32"><defs><style>.cls-1{fill:none;}.cls-2{fill:#6f6f6f;}.cls-3{fill:#f4f4f4;}.cls-4{fill:#e0e0e0;}</style></defs><title>GeoPackages32</title><rect class="cls-1" width="32" height="32"/><path class="cls-2" d="M2,7.875v16.25C2,26.8164,8.04492,29,15.5,29S29,26.8164,29,24.125V7.875Z"/><path class="cls-3" d="M15.5,28C7.86914,28,3,25.7051,3,24.125V9H28V24.125C28,25.7051,23.1309,28,15.5,28Z"/><path class="cls-4" d="M20,9V27.70807c4.98682-.66467,8-2.342,8-3.58307V9Z"/><ellipse class="cls-2" cx="15.5" cy="7.875" rx="13.5" ry="4.875"/><path class="cls-3" d="M15.5,11.75C7.86914,11.75,3,9.45508,3,7.875S7.86914,4,15.5,4,28,6.29492,28,7.875,23.1309,11.75,15.5,11.75Z"/></svg>