<svg xmlns="http://www.w3.org/2000/svg" viewBox="0 0 32 32"><defs><style>.cls-1{fill:none;}.cls-2{fill:#959595;}.cls-3{fill:#6e6e6e;}.cls-4{fill:#ccc;}.cls-5{fill:#f8f8f8;}.cls-6{fill:#8129ff;}</style></defs><g id="Icons"><rect class="cls-1" width="32" height="32"/><rect class="cls-2" x="3" y="13" width="26" height="16"/><rect class="cls-3" x="3" y="3" width="26" height="9"/><rect class="cls-4" x="4" y="4" width="24" height="7"/><rect class="cls-5" x="4" y="14" width="4" height="4"/><rect class="cls-5" x="9" y="14" width="4" height="4"/><rect class="cls-5" x="14" y="14" width="4" height="4"/><rect class="cls-5" x="19" y="14" width="4" height="4"/><rect class="cls-5" x="24" y="14" width="4" height="4"/><rect class="cls-5" x="4" y="19" width="4" height="4"/><rect class="cls-5" x="9" y="19" width="4" height="4"/><rect class="cls-5" x="14" y="19" width="4" height="4"/><rect class="cls-5" x="19" y="19" width="4" height="4"/><rect class="cls-5" x="24" y="19" width="4" height="4"/><rect class="cls-5" x="4" y="24" width="4" height="4"/><rect class="cls-5" x="9" y="24" width="4" height="4"/><rect class="cls-5" x="14" y="24" width="4" height="4"/><rect class="cls-5" x="19" y="24" width="4" height="4"/><rect class="cls-5" x="24" y="24" width="4" height="4"/><path class="cls-5" d="M7,3V5A.99946.99946,0,0,0,8,6H9a.99948.99948,0,0,0,1-1V3Z"/><path class="cls-5" d="M21,3V5a.99946.99946,0,0,0,1,1h1a.99948.99948,0,0,0,1-1V3Z"/><rect class="cls-3" x="22" y="1" width="1" height="4"/><rect class="cls-3" x="8" y="1" width="1" height="4"/><path class="cls-5" d="M27.666,12a11.42888,11.42888,0,0,0-11.32019,0Z"/><path class="cls-5" d="M13.96832,13.77734A3.39329,3.39329,0,0,0,11.59961,17c0,.03229.01038.06158.01129.09363A11.42275,11.42275,0,0,0,12.89044,29H29V13H14.85541A11.60947,11.60947,0,0,0,13.96832,13.77734Z"/><path class="cls-6" d="M13.1,17A1.9,1.9,0,1,1,15,18.9,1.9,1.9,0,0,1,13.1,17Zm17.8535.79751a.06262.06262,0,0,0-.08919-.02677l-1.35008.82547a.06239.06239,0,0,0-.02443.0787,8.10879,8.10879,0,0,1,.39012,5.57447.55805.55805,0,0,0,.24265.62892l1.042.64364a.06252.06252,0,0,0,.09135-.03114,9.79295,9.79295,0,0,0-.30239-7.69329Zm-2.88408,9.71586a.48563.48563,0,0,1,.61425-.08685l1.03937.64205a.06251.06251,0,0,1,.016.09219,9.89413,9.89413,0,0,1-17.445-8.10707.06252.06252,0,0,1,.10206-.03513,3.98037,3.98037,0,0,0,1.49753.807,7.86835,7.86835,0,0,0,.37744,3.89264l3.8412-2.21771a.06254.06254,0,0,0,.03072-.06235A3.30559,3.30559,0,0,1,18.1,22,3.89015,3.89015,0,0,1,21,18.24561V13.93277a.06251.06251,0,0,0-.07079-.06195,8.1845,8.1845,0,0,0-2.66108.83365,3.9813,3.9813,0,0,0-1.25273-1.13889.06246.06246,0,0,1,.00005-.10786A9.85393,9.85393,0,0,1,29.36214,15.3966a.0626.0626,0,0,1-.01387.09513l-1.36812.83653a.06239.06239,0,0,1-.07758-.01,8.17817,8.17817,0,0,0-4.83186-2.44264.06261.06261,0,0,0-.07071.062v4.308a3.88005,3.88005,0,0,1,.0457,7.49626A.0625.0625,0,0,0,23,25.802V30.1366A8.18283,8.18283,0,0,0,28.06942,27.51337ZM21,25.802a.06243.06243,0,0,0-.0457-.06016,3.883,3.883,0,0,1-2.04744-1.39073l-3.7486,2.16424A8.19175,8.19175,0,0,0,21,30.13306ZM22,24.1A2.1,2.1,0,1,0,19.9,22,2.1,2.1,0,0,0,22,24.1Z"/></g></svg>