<svg xmlns="http://www.w3.org/2000/svg" viewBox="0 0 16 16"><defs><style>.cls-1{fill:#f8f8f8;}.cls-2{fill:#6e6e6e;}.cls-3{fill:#ccc;}.cls-4{fill:#959595;}.cls-5{fill:#8129ff;}</style></defs><g id="Icons"><rect class="cls-1" y="6" width="16" height="10"/><rect class="cls-2" y="1" width="16" height="4"/><rect class="cls-3" x="1" y="2" width="14" height="2"/><rect class="cls-4" y="6" width="16" height="10"/><rect class="cls-1" x="1" y="7.0137" width="2" height="2"/><rect class="cls-1" x="4" y="7.0137" width="2" height="2"/><rect class="cls-1" x="7" y="7.0137" width="2" height="2"/><rect class="cls-1" x="10" y="7.0137" width="2" height="2"/><rect class="cls-1" x="13" y="7.0137" width="2" height="2"/><rect class="cls-1" x="1" y="10.0078" width="2" height="2"/><rect class="cls-1" x="4" y="10.0078" width="2" height="2"/><rect class="cls-1" x="7" y="10.0078" width="2" height="2"/><rect class="cls-1" x="10" y="10.0078" width="2" height="2"/><rect class="cls-1" x="13" y="10.0078" width="2" height="2"/><rect class="cls-1" x="1" y="13" width="2" height="2"/><rect class="cls-1" x="4" y="13" width="2" height="2"/><rect class="cls-1" x="7" y="13" width="2" height="2"/><rect class="cls-1" x="10" y="13" width="2" height="2"/><rect class="cls-1" x="13" y="13" width="2" height="2"/><rect class="cls-1" x="2" y="1" width="3" height="2"/><rect class="cls-1" x="11" y="1" width="3" height="2"/><rect class="cls-2" x="3" width="1" height="2"/><rect class="cls-2" x="12" width="1" height="2"/><path class="cls-1" d="M16,6H7.72906A6.00206,6.00206,0,0,0,6.46222,7.082,1.96284,1.96284,0,0,0,5.14191,9.713,6.01311,6.01311,0,0,0,5,11c0,.01379.00195.027.00208.04083-.00007.006-.00214.01178-.00208.01776.001.10279.01221.203.01837.30451.00556.09228.007.18555.01666.27673.00934.08728.02637.17224.03943.25842.0174.11518.03211.23108.05591.344.0091.04266.02252.08368.03247.1261A5.99583,5.99583,0,0,0,7.72186,16H16V6Z"/><path class="cls-5" d="M6.29291,9.70709A1,1,0,1,1,7,10,.99677.99677,0,0,1,6.29291,9.70709Zm9.566.22962-.01679-.021h-.02685l-.76959.35739a.03122.03122,0,0,0-.01752.03406A3.79886,3.79886,0,0,1,15.1,11a3.97753,3.97753,0,0,1-.36219,1.62872l.75379.42121.0249.00244.01874-.01673A4.853,4.853,0,0,0,16,11,4.58928,4.58928,0,0,0,15.859,9.93671Zm-1.21533,4.40722a.03129.03129,0,0,1,.00726.04834A4.98437,4.98437,0,0,1,6.00029,11.0487a.03127.03127,0,0,1,.04354-.029,2.21857,2.21857,0,0,0,.87457.18462l.00219-.00024a4.10088,4.10088,0,0,0,.39557,1.5592l1.82044-1.051A1.988,1.988,0,0,1,11,9V6.93133a.03126.03126,0,0,0-.03149-.03125A4.07861,4.07861,0,0,0,8.696,7.60974a2.289,2.289,0,0,0-.64186-.57458.03124.03124,0,0,1-.00254-.052A4.94181,4.94181,0,0,1,15.289,8.47006a.0313.0313,0,0,1-.0134.04413l-.75323.36037a.0312.0312,0,0,1-.04007-.01184,4.11031,4.11031,0,0,0-2.443-1.82383A.03127.03127,0,0,0,12,7.0691V9.2774a1.98353,1.98353,0,0,1,.01532,3.43619A.03134.03134,0,0,0,12,12.74048v2.221a4.08948,4.08948,0,0,0,1.76056-.93183.24274.24274,0,0,1,.285-.03094ZM11,13.031a.03124.03124,0,0,0-.03076-.03124,1.991,1.991,0,0,1-1.35895-.56538l-1.838,1.06115A4.05657,4.05657,0,0,0,11,15.1Zm.92938-1.18616A1.25612,1.25612,0,1,0,11,12.25592,1.25129,1.25129,0,0,0,11.92938,11.84485Z"/></g></svg>