<svg xmlns="http://www.w3.org/2000/svg" viewBox="0 0 16 16"><rect width="16" height="16" style="fill:#fff;opacity:0"/><path d="M5,1a.5.5,0,0,0-.5.5A.5.5,0,0,1,4,2H2V5H4a.5.5,0,0,0,.5-.5A.5.5,0,0,1,5,4H7V1Z" style="fill:#e7d455"/><path d="M4,3H3V4h.6A1.54,1.54,0,0,1,4,3.39Z" style="fill:#f3ecc7"/><path d="M5.41,2A1.47,1.47,0,0,1,5,2.61V3H6V2Z" style="fill:#f3ecc7"/><path d="M7,11H2L4.55,8.32l1.11,1L7.5,6.47l.09.13a2.16,2.16,0,0,1,.6-.44L7.5,5.09l-2,3.12-1-1L0,12H7Z" style="fill:#5a945a"/><path d="M10,9h1v1H10Z" style="fill:#5ba6d6"/><path d="M10,11h1v1H10Z" style="fill:#67aa66"/><path d="M10,13h1v1H10Z" style="fill:#e99f4b"/><path d="M15,7H9A1,1,0,0,0,8,8v7a1,1,0,0,0,1,1h6a1,1,0,0,0,1-1V8A1,1,0,0,0,15,7Zm0,8H9V8h6ZM14,9v1H12V9Zm-2,3h2V11H12Zm0,2h2V13H12Z" style="fill:#6f7070"/><path d="M7,8a1.94,1.94,0,0,1,.59-1.4L7.5,6.47,5.64,9.37l-1.11-1L2,11H7Z" style="fill:#9bc29e"/><polygon points="8 5.86 8 0 7 0 7 5.87 7.5 5.09 8 5.86" style="fill:#a67b47"/></svg>
