<svg id="Icons" xmlns="http://www.w3.org/2000/svg" viewBox="0 0 32 32"><defs><style>.cls-1{fill:#a67a47}.cls-2{fill:#e5d255}.cls-3{fill:#f4eec8}.cls-4{fill:#5b945a}.cls-5{fill:#9bc29c}.cls-6{fill:none}</style></defs><title>initiative32</title><path class="cls-1" d="M20 20h-1V0h1z"/><path class="cls-2" d="M13.993 2a.993.993 0 0 0-.993.993A1.007 1.007 0 0 1 11.993 4H7v8h5.007a.993.993 0 0 0 .993-.993v-.014a.993.993 0 0 1 .993-.993H19V2z"/><path class="cls-3" d="M8 11V5h4.006a1.996 1.996 0 0 0 1.88-1.332L14.122 3H18v6h-4.007a1.996 1.996 0 0 0-1.88 1.332l-.236.668z"/><path class="cls-2" d="M13.993 10H15V2h-1.007a.993.993 0 0 0-.993.993v8a.993.993 0 0 1 .993-.993z"/><path class="cls-4" d="M1.814 32l9.68-11.2 2.448 2.79 5.58-9.028L29.745 32H1.815z"/><path class="cls-5" d="M4 31h24l-8.5-14.5-4.694 7.596 1.976 4.247-5.282-6.02L4 31z"/><path class="cls-6" d="M0 0h32v32H0z"/></svg>