<svg xmlns="http://www.w3.org/2000/svg" viewBox="0 0 32 32"><rect width="32" height="32" style="fill:#fff;opacity:0"/><path d="M10,2A1,1,0,0,0,9,3,1,1,0,0,1,8,4H4v6H8A1,1,0,0,0,9,9a1,1,0,0,1,1-1h4V2Z" style="fill:#e7d455"/><path d="M8,6H6V8H7.19A3,3,0,0,1,8,6.78Z" style="fill:#f3ecc7"/><path d="M10.83,4A3,3,0,0,1,10,5.22V6h2V4Z" style="fill:#f3ecc7"/><path d="M14,22H4l5.1-5.36,2.22,2.1L15,12.94l.17.26a3.92,3.92,0,0,1,1.22-.88L15,10.18l-4,6.24-2-1.9L0,24H14Z" style="fill:#5a945a"/><path d="M20,18h2v2H20Z" style="fill:#5ba6d6"/><path d="M20,22h2v2H20Z" style="fill:#67aa66"/><path d="M20,26h2v2H20Z" style="fill:#e99f4b"/><path d="M30,14H18a2,2,0,0,0-2,2V30a2,2,0,0,0,2,2H30a2,2,0,0,0,2-2V16A2,2,0,0,0,30,14Zm0,16H18V16H30ZM28,18v2H24V18Zm-4,6h4V22H24Zm0,4h4V26H24Z" style="fill:#6f7070"/><path d="M14,16a4,4,0,0,1,1.17-2.8L15,12.94l-3.72,5.8-2.22-2.1L4,22H14Z" style="fill:#9bc29e"/><polygon points="16 11.72 16 0 14 0 14 11.74 15 10.18 16 11.72" style="fill:#a67b47"/></svg>
