<svg id="Icons" xmlns="http://www.w3.org/2000/svg" viewBox="0 0 32 32"><defs><style>.cls-1{fill:#57a6d9;}.cls-2{fill:#bddbee;}.cls-3{fill:#f8f8f8;}.cls-4,.cls-5{fill:none;}.cls-4{fill-rule:evenodd;}.cls-6{fill:#8129ff;}</style></defs><path class="cls-1" d="M21,6V4H11V6H1V28H31V6ZM12,5h8V6H12Z"/><rect class="cls-2" x="2" y="7" width="28" height="20"/><rect class="cls-3" x="2" y="7" width="28" height="3"/><rect class="cls-1" x="2" y="10" width="28" height="1"/><path class="cls-3" d="M31,15.68V28H12.78c-.21-.32-.4-.66-.58-1a11.014,11.014,0,0,1-.17-9.65A1.98042,1.98042,0,0,1,12,17a3.0122,3.0122,0,0,1,2.38-2.94A11.00869,11.00869,0,0,1,30,14.45,11.67813,11.67813,0,0,1,31,15.68Z"/><polygon class="cls-4" points="31 6 31 28 1 28 1 6 11 6 11 4 21 4 21 6 31 6"/><polygon class="cls-5" points="31 6 31 28 1 28 1 6 11 6 11 4 21 4 21 6 31 6"/><path class="cls-6" d="M14.29291,49.70709A1,1,0,1,1,15,50,.99677.99677,0,0,1,14.29291,49.70709Zm9.566.22962-.01679-.021h-.02685l-.76959.35739a.03122.03122,0,0,0-.01752.03406A3.79886,3.79886,0,0,1,23.1,51a3.97753,3.97753,0,0,1-.36219,1.62872l.75379.42121.0249.00244.01874-.01673A4.853,4.853,0,0,0,24,51,4.58928,4.58928,0,0,0,23.859,49.93671Zm-1.21533,4.40722a.03129.03129,0,0,1,.00726.04834,4.98437,4.98437,0,0,1-8.65059-3.34357.03127.03127,0,0,1,.04354-.029,2.21857,2.21857,0,0,0,.87457.18462l.00219-.00024a4.10088,4.10088,0,0,0,.39557,1.5592l1.82044-1.051A1.988,1.988,0,0,1,19,49V46.93133a.03126.03126,0,0,0-.03149-.03125,4.07861,4.07861,0,0,0-2.27247.70966,2.289,2.289,0,0,0-.64186-.57458.03124.03124,0,0,1-.00254-.052A4.94181,4.94181,0,0,1,23.289,48.47006a.0313.0313,0,0,1-.0134.04413l-.75323.36037a.0312.0312,0,0,1-.04007-.01184,4.11031,4.11031,0,0,0-2.443-1.82383A.03127.03127,0,0,0,20,47.0691v2.2083a1.98353,1.98353,0,0,1,.01532,3.43619A.03134.03134,0,0,0,20,52.74048v2.221a4.08948,4.08948,0,0,0,1.76056-.93183.24274.24274,0,0,1,.285-.03094ZM19,53.031a.03124.03124,0,0,0-.03076-.03124,1.991,1.991,0,0,1-1.359-.56538l-1.83795,1.06115A4.05657,4.05657,0,0,0,19,55.1Zm.92938-1.18616A1.25612,1.25612,0,1,0,19,52.25592,1.25129,1.25129,0,0,0,19.92938,51.84485Z"/><path class="cls-6" d="M13.1,17A1.9,1.9,0,1,1,15,18.9,1.9,1.9,0,0,1,13.1,17Zm17.8535.79751a.06262.06262,0,0,0-.08919-.02677l-1.35008.82547a.06239.06239,0,0,0-.02443.0787,8.10879,8.10879,0,0,1,.39012,5.57447.55805.55805,0,0,0,.24265.62892l1.042.64364a.06252.06252,0,0,0,.09135-.03114,9.79295,9.79295,0,0,0-.30239-7.69329Zm-2.88408,9.71586a.48563.48563,0,0,1,.61425-.08685l1.03937.64205a.06251.06251,0,0,1,.016.09219,9.89413,9.89413,0,0,1-17.445-8.10707.06252.06252,0,0,1,.10206-.03513,3.98037,3.98037,0,0,0,1.49753.807,7.86835,7.86835,0,0,0,.37744,3.89264l3.8412-2.21771a.06254.06254,0,0,0,.03072-.06235A3.30559,3.30559,0,0,1,18.1,22,3.89015,3.89015,0,0,1,21,18.24561V13.93277a.06251.06251,0,0,0-.07079-.06195,8.1845,8.1845,0,0,0-2.66108.83365,3.9813,3.9813,0,0,0-1.25273-1.13889.06246.06246,0,0,1,.00005-.10786A9.85393,9.85393,0,0,1,29.36214,15.3966a.0626.0626,0,0,1-.01387.09513l-1.36812.83653a.06239.06239,0,0,1-.07758-.01,8.17817,8.17817,0,0,0-4.83186-2.44264.06261.06261,0,0,0-.07071.062v4.308a3.88005,3.88005,0,0,1,.0457,7.49626A.0625.0625,0,0,0,23,25.802V30.1366A8.18283,8.18283,0,0,0,28.06942,27.51337ZM21,25.802a.06243.06243,0,0,0-.0457-.06016,3.883,3.883,0,0,1-2.04744-1.39073l-3.7486,2.16424A8.19175,8.19175,0,0,0,21,30.13306ZM22,24.1A2.1,2.1,0,1,0,19.9,22,2.1,2.1,0,0,0,22,24.1Z"/></svg>