<svg id="Icons" xmlns="http://www.w3.org/2000/svg" viewBox="0 0 16 16"><defs><style>.cls-1{fill:#57a6d9;}.cls-2{fill:#bddbee;}.cls-3{fill:#f8f8f8;}.cls-4{fill:#8129ff;}</style></defs><path class="cls-1" d="M10.9,3V1H4.1V3H0V14H15V3Zm-6-1h5.2V3H4.9Z"/><rect class="cls-2" x="1" y="4" width="13" height="9"/><rect class="cls-3" x="1" y="4" width="13" height="2"/><rect class="cls-1" x="1" y="6" width="14" height="1"/><path class="cls-3" d="M7.73,6A6.01472,6.01472,0,0,0,6.54,7a.30375.30375,0,0,0-.08.08,1.88136,1.88136,0,0,0-.87.51A1.966,1.966,0,0,0,5,9a2.08574,2.08574,0,0,0,.14.71A6.14115,6.14115,0,0,0,5,11v.06c0,.1.01.2.02.3a2.47127,2.47127,0,0,0,.02.28A2.297,2.297,0,0,0,5.07,11.9c.02.11.04.23.06.34.01.04.02.09.03.13a4.20169,4.20169,0,0,0,.19.63,5.36092,5.36092,0,0,0,.47,1H15V6Z"/><path class="cls-4" d="M6.29291,9.70709A1,1,0,1,1,7,10,.99677.99677,0,0,1,6.29291,9.70709Zm9.566.22962-.01679-.021h-.02685l-.76959.35739a.03122.03122,0,0,0-.01752.03406A3.79886,3.79886,0,0,1,15.1,11a3.97753,3.97753,0,0,1-.36219,1.62872l.75379.42121.0249.00244.01874-.01673A4.853,4.853,0,0,0,16,11,4.58928,4.58928,0,0,0,15.859,9.93671Zm-1.21533,4.40722a.03129.03129,0,0,1,.00726.04834A4.98437,4.98437,0,0,1,6.00029,11.0487a.03127.03127,0,0,1,.04354-.029,2.21857,2.21857,0,0,0,.87457.18462l.00219-.00024a4.10088,4.10088,0,0,0,.39557,1.5592l1.82044-1.051A1.988,1.988,0,0,1,11,9V6.93133a.03126.03126,0,0,0-.03149-.03125A4.07861,4.07861,0,0,0,8.696,7.60974a2.289,2.289,0,0,0-.64186-.57458.03124.03124,0,0,1-.00254-.052A4.94181,4.94181,0,0,1,15.289,8.47006a.0313.0313,0,0,1-.0134.04413l-.75323.36037a.0312.0312,0,0,1-.04007-.01184,4.11031,4.11031,0,0,0-2.443-1.82383A.03127.03127,0,0,0,12,7.0691V9.2774a1.98353,1.98353,0,0,1,.01532,3.43619A.03134.03134,0,0,0,12,12.74048v2.221a4.08948,4.08948,0,0,0,1.76056-.93183.24274.24274,0,0,1,.285-.03094ZM11,13.031a.03124.03124,0,0,0-.03076-.03124,1.991,1.991,0,0,1-1.35895-.56538l-1.838,1.06115A4.05657,4.05657,0,0,0,11,15.1Zm.92938-1.18616A1.25612,1.25612,0,1,0,11,12.25592,1.25129,1.25129,0,0,0,11.92938,11.84485Z"/></svg>