<svg id="Icons" xmlns="http://www.w3.org/2000/svg" viewBox="0 0 32 32"><defs><style>.cls-1{fill:none}.cls-2{fill:#e5d255}.cls-3{fill:#f4eec8}.cls-4{fill:#6d6e71}.cls-5{fill:#6db5e3}.cls-6{fill:#9bc29c}.cls-7{fill:#bddbee}.cls-8{fill:#d3eaf9}</style></defs><title>layerImagery_32</title><path class="cls-1" d="M0 0h32v32H0z"/><path class="cls-2" d="M31 28s-6-3-15 0-15 0-15 0L5 4s6 2 11 0 11 0 11 0z"/><path class="cls-3" d="M8.11 27.332a18.508 18.508 0 0 1-3.94-.412 1 1 0 0 1-.773-1.14L6.452 7.45a1 1 0 0 1 .985-.835 1.02 1.02 0 0 1 .153.012 22.208 22.208 0 0 0 3.336.262 15.616 15.616 0 0 0 5.816-1.034 11.68 11.68 0 0 1 4.332-.745 18.69 18.69 0 0 1 3.477.343 1 1 0 0 1 .8.818l2.912 17.466a1 1 0 0 1-.987 1.164.928.928 0 0 1-.138-.01 23.386 23.386 0 0 0-3.248-.224 26.908 26.908 0 0 0-8.52 1.437 22.993 22.993 0 0 1-7.26 1.23z"/><path class="cls-4" d="M8.11 26.332a17.515 17.515 0 0 1-3.726-.39L7.438 7.616a23.28 23.28 0 0 0 3.488.274 16.612 16.612 0 0 0 6.188-1.105 10.68 10.68 0 0 1 3.96-.674 17.85 17.85 0 0 1 3.29.326l2.91 17.464a24.338 24.338 0 0 0-3.385-.234 27.906 27.906 0 0 0-8.838 1.488 22.005 22.005 0 0 1-6.94 1.178z"/><path class="cls-5" d="M19 17.01v-4.555a30.778 30.778 0 0 0-4.265 1.082q-.87.29-1.735.504V18.6c.576-.145 1.155-.31 1.735-.504A30.493 30.493 0 0 1 19 17.01z"/><path class="cls-4" d="M25.213 17.61l-.167-1.006c-.386-.02-.77-.05-1.157-.05a27.36 27.36 0 0 0-3.89.303V12.3a27.356 27.356 0 0 1 3.89-.3c.13 0 .26.014.39.016l-.167-1.008c-.075 0-.15-.008-.224-.008a27.356 27.356 0 0 0-3.89.3V7.157c-.348.03-.68.076-1 .135v4.165a30.778 30.778 0 0 0-4.265 1.082q-.87.29-1.735.504V8.774c-.328.034-.663.053-1 .07v4.41a19.83 19.83 0 0 1-3.89.413c-.223 0-.44-.016-.663-.025l-.103.622-.062.373c.276.013.55.03.83.03A19.83 19.83 0 0 0 12 14.253v4.557a19.817 19.817 0 0 1-3.89.41c-.536 0-1.06-.034-1.58-.083l-.163.986a17.03 17.03 0 0 0 1.744.098 19.817 19.817 0 0 0 3.89-.41v5.11c.333-.067.665-.13 1-.21v-5.112c.576-.145 1.155-.31 1.735-.504A30.493 30.493 0 0 1 19 18.01v5.11c.334-.058.667-.104 1-.15v-5.113a27.36 27.36 0 0 1 3.89-.302c.443 0 .882.033 1.323.056zM19 17.01a30.493 30.493 0 0 0-4.265 1.084c-.58.193-1.16.36-1.735.504V14.04q.864-.213 1.735-.503A30.778 30.778 0 0 1 19 12.455z"/><path class="cls-1" d="M8.11 13.666c-.155 0-.307-.01-.46-.018l-.166.995c.207.01.415.023.627.023a19.83 19.83 0 0 0 3.89-.414v4.557a19.817 19.817 0 0 1-3.89.41c-.467 0-.924-.033-1.378-.072l-.165.992c.507.048 1.02.08 1.544.08a19.817 19.817 0 0 0 3.89-.41v4.906c.333-.068.665-.127 1-.212v-4.906c.576-.145 1.155-.31 1.735-.504A30.493 30.493 0 0 1 19 18.01v4.907c.334-.06.666-.103 1-.15v-4.91a27.36 27.36 0 0 1 3.89-.302c.375 0 .747.026 1.12.047l-.168-1.007c-.32-.018-.634-.04-.953-.04a27.36 27.36 0 0 0-3.89.302V12.3a27.356 27.356 0 0 1 3.89-.3c.06 0 .124.004.186.008L23.908 11h-.02a27.356 27.356 0 0 0-3.888.3V7.36a10.034 10.034 0 0 0-1 .137v3.958a30.778 30.778 0 0 0-4.265 1.082q-.87.29-1.735.504V8.977c-.328.033-.664.05-1 .068v4.208a19.83 19.83 0 0 1-3.89.414z"/><path class="cls-6" d="M20 17.857v4.91a27.64 27.64 0 0 1 3.89-.3c.648 0 1.297.023 1.942.072L25.01 17.6c-.373-.02-.745-.047-1.12-.047a27.36 27.36 0 0 0-3.89.302z"/><path class="cls-7" d="M14.735 12.537A30.778 30.778 0 0 1 19 11.455V7.497a7.686 7.686 0 0 0-1.44.402A16.81 16.81 0 0 1 13 8.975v4.065q.864-.213 1.735-.503z"/><path class="cls-3" d="M20 12.3v4.557a27.36 27.36 0 0 1 3.89-.302c.318 0 .633.022.952.04l-.766-4.587c-.062-.004-.125-.008-.187-.008a27.356 27.356 0 0 0-3.89.3z"/><path class="cls-8" d="M23.89 11h.018L23.32 7.48a15.9 15.9 0 0 0-2.246-.166c-.373 0-.728.018-1.074.047v3.94a27.356 27.356 0 0 1 3.89-.3z"/><path class="cls-3" d="M8.11 13.666a19.83 19.83 0 0 0 3.89-.414V9.044c-.356.018-.71.045-1.074.045a23.717 23.717 0 0 1-2.494-.137l-.783 4.695c.153.008.305.018.46.018z"/><path class="cls-8" d="M12 18.81V14.25a19.83 19.83 0 0 1-3.89.414c-.21 0-.42-.013-.626-.023l-.752 4.504c.454.04.91.074 1.38.074A19.817 19.817 0 0 0 12 18.81z"/><path class="cls-5" d="M12 19.81a19.817 19.817 0 0 1-3.89.41 16.33 16.33 0 0 1-1.543-.08l-.805 4.832a16.968 16.968 0 0 0 2.35.16A19.698 19.698 0 0 0 12 24.716V19.81z"/><path class="cls-6" d="M14.735 19.094c-.58.193-1.16.36-1.735.504v4.906q.834-.21 1.672-.488a30.705 30.705 0 0 1 4.328-1.1V18.01a30.493 30.493 0 0 0-4.265 1.084z"/></svg>