<?xml version="1.0" encoding="UTF-8"?>
<svg width="32px" height="32px" viewBox="0 0 32 32" version="1.1" xmlns="http://www.w3.org/2000/svg" xmlns:xlink="http://www.w3.org/1999/xlink">
    <!-- Generator: Sketch 55.2 (78181) - https://sketchapp.com -->
    <title>Icons / Scripting / 32 px Copy</title>
    <desc>Created with Sketch.</desc>
    <g id="Icons-/-Scripting-/-32-px-Copy" stroke="none" stroke-width="1" fill="none" fill-rule="evenodd">
        <g id="Group" transform="translate(2.000000, 0.000000)">
            <path d="M26,12 L16,12 L16,2 L6,2 L6,16 L4,16 L4,0 L18,0 L28,10 L28,32 L18,32 L18,30 L26,30 L26,12 Z M25.1715729,10 L18,2.82842712 L18,10 L25.1715729,10 Z" id="Combined-Shape" fill="#6E6E6E" fill-rule="nonzero"></path>
            <path d="M6,28 L14,28 L14,30 L6,30 L6,28 Z M5.65685425,22.24 L7.07106781,23.6542136 L5.65685425,25.0710678 L1.41421356,29.3110678 L0,27.8968542 L4.24132034,23.6555339 L0,19.4142136 L1.41421356,18 L5.65553391,22.2413203 L5.65685425,22.24 Z" id="Combined-Shape" fill="#E04F1D"></path>
        </g>
    </g>
</svg>