<svg id="Icons" xmlns="http://www.w3.org/2000/svg" viewBox="0 0 32 32"><defs><style>.cls-1{fill:#6d6e71}.cls-2{fill:#f8f8f8}.cls-3{fill:none}.cls-4{fill:#d76428}</style></defs><title>insightspage32</title><path class="cls-1" d="M28 31H4V1h17.3L28 7.7V31z"/><path class="cls-2" d="M27 7.99L21.01 2H5v28h22V7.99z"/><path class="cls-3" d="M0 0h32v32H0z"/><path class="cls-1" d="M20 2h1v7h-1z"/><path class="cls-1" d="M20 8h8v1h-8z"/><path class="cls-2" d="M3.51 33A1.51 1.51 0 0 1 2 31.49V27a1 1 0 0 1 .714-.958l.292-.09a11.85 11.85 0 0 1 1.84-.443A1.014 1.014 0 0 1 5 25.496a1 1 0 0 1 1 1v.2L12.685 28c1.042 0 1.298-.13 1.376-.342A1 1 0 0 1 15 27a1.012 1.012 0 0 1 .2.02 9.48 9.48 0 0 0 1.697.19l.16.01a1 1 0 0 1 .943.998v3.273A1.51 1.51 0 0 1 16.49 33zM1 27.71a1 1 0 0 1-.934-1.356A5.977 5.977 0 0 1 2 23.994V17.51A1.51 1.51 0 0 1 3.51 16H12v-3.602A1.4 1.4 0 0 1 13.398 11h9.204A1.4 1.4 0 0 1 24 12.398v5.768A4.954 4.954 0 0 1 19.022 23l-.223.002a17.035 17.035 0 0 1-4.042-.593 1 1 0 0 1-.758-.972V20H6v2.327a12.807 12.807 0 0 1 2.57-.325 20.56 20.56 0 0 1 4.783.555 19.328 19.328 0 0 0 4.37.526h.177c4.5 0 6.482-1.41 6.5-1.425a1.008 1.008 0 0 1 .597-.194 1 1 0 0 1 .858 1.513 9.185 9.185 0 0 1-7.725 4.025 21.124 21.124 0 0 1-4.745-.607 22.67 22.67 0 0 0-4.99-.64h-.172a13.06 13.06 0 0 0-6.667 1.788A1.002 1.002 0 0 1 1 27.71zM19.436 19A2.07 2.07 0 0 0 20 17.73V15h-4v1h.49A1.51 1.51 0 0 1 18 17.51V19z"/><path class="cls-4" d="M15 28a11.28 11.28 0 0 0 2 .218v3.273a.51.51 0 0 1-.51.51H3.51a.51.51 0 0 1-.51-.51v-3.188a12.936 12.936 0 0 1 2-.502V29h7.684c.936 0 1.973-.057 2.316-1zm2.716-3.917c-4.14-.033-5.062-1.08-9.146-1.08a12.65 12.65 0 0 0-3.57.642V19h10v2.438A15.743 15.743 0 0 0 19 22a3.968 3.968 0 0 0 4-3.834V12.4a.4.4 0 0 0-.4-.4h-9.2a.4.4 0 0 0-.4.4V16h2v-2h6v3.73c0 .864-.7 2.27-1.565 2.27H17v-2.49a.51.51 0 0 0-.51-.51H3.51a.51.51 0 0 0-.51.51v6.994a5.358 5.358 0 0 0-2 2.207 14.09 14.09 0 0 1 7.408-1.954c4.4.057 5.866 1.216 9.646 1.246A8.228 8.228 0 0 0 25 22.46s-2.18 1.664-7.284 1.623z"/></svg>