<svg width="33" height="33" viewBox="0 0 33 33" fill="none" xmlns="http://www.w3.org/2000/svg">
<path fill-rule="evenodd" clip-rule="evenodd" d="M3.45975 28C1.54898 28 0 26.4494 0 24.5366V3.34255C0 1.49651 1.49492 0 3.339 0H19.25V5.25558H22.75V28H3.45975ZM17.5 1.75H1.75V21H17.5V1.75Z" fill="#0079C1"/>
<path fill-rule="evenodd" clip-rule="evenodd" d="M19.2499 7.00742V22.7742H3.48244C2.52416 22.7742 1.74731 23.5518 1.74731 24.5111C1.74731 25.4704 2.52416 26.2481 3.48244 26.2481H20.9999V7.00742H19.2499Z" fill="#E2F1FB"/>
<rect x="5.25519" y="5.25" width="8.75" height="5.25" fill="#0079C1"/>
<rect x="6.78485" y="6.69666" width="5.6875" height="2.33333" fill="#AADBFA"/>
<mask id="path-5-outside-1" maskUnits="userSpaceOnUse" x="13" y="11" width="20" height="22" fill="black">
<rect fill="white" x="13" y="11" width="20" height="22"/>
<path fill-rule="evenodd" clip-rule="evenodd" d="M28 12L32 18V20V32H14V20V18L18 12H28Z"/>
</mask>
<path fill-rule="evenodd" clip-rule="evenodd" d="M28 12L32 18V20V32H14V20V18L18 12H28Z" fill="#E9DED4"/>
<path d="M32 18H33V17.6972L32.8321 17.4453L32 18ZM28 12L28.8321 11.4453L28.5352 11H28V12ZM32 32V33H33V32H32ZM14 32H13V33H14V32ZM14 18L13.1679 17.4453L13 17.6972V18H14ZM18 12V11H17.4648L17.1679 11.4453L18 12ZM32.8321 17.4453L28.8321 11.4453L27.1679 12.5547L31.1679 18.5547L32.8321 17.4453ZM33 20V18H31V20H33ZM31 20V32H33V20H31ZM32 31H14V33H32V31ZM15 32V20H13V32H15ZM13 18V20H15V18H13ZM17.1679 11.4453L13.1679 17.4453L14.8321 18.5547L18.8321 12.5547L17.1679 11.4453ZM28 11H18V13H28V11Z" fill="white" mask="url(#path-5-outside-1)"/>
<path fill-rule="evenodd" clip-rule="evenodd" d="M14 18H32L28 12H18L14 18ZM14 20H32V32H14V20Z" fill="#D3B490"/>
<path fill-rule="evenodd" clip-rule="evenodd" d="M23 21L18 26H22V30H24V26H28L23 21Z" fill="#595959"/>
<path fill-rule="evenodd" clip-rule="evenodd" d="M22 12H24V18H32V20H14V18H22V12Z" fill="#E9DED4"/>
</svg>
