<svg id="Icons" xmlns="http://www.w3.org/2000/svg" viewBox="0 0 32 32"><defs><style>.cls-1{fill:#6e6e6e}.cls-2{fill:none}.cls-3{fill:#3b8fc4}.cls-4{fill:#d3eaf9}</style></defs><title>insightsmodel32</title><path class="cls-1" d="M4 17h1v5H4zM26 18h1v5h-1zM15 10h1v4h-1z"/><path class="cls-2" d="M0 0h32v32H0z"/><path class="cls-3" d="M0 21h9v9H0z"/><path class="cls-4" d="M1 22h7v7H1z"/><path class="cls-3" d="M22 21h9v9h-9z"/><path class="cls-4" d="M23 22h7v7h-7z"/><path class="cls-3" d="M21 5.5A5.5 5.5 0 1 1 15.5 0 5.5 5.5 0 0 1 21 5.5z"/><circle class="cls-4" cx="15.5" cy="5.5" r="4.5"/><path class="cls-1" d="M4 17h23v1H4z"/><path class="cls-3" d="M10.3 17.5l5.2-5.2 5.2 5.2-5.2 5.2z"/><path class="cls-4" d="M11.8 17.5l3.7-3.7 3.7 3.7-3.7 3.7z"/></svg>