<?xml version="1.0" encoding="UTF-8"?>
<svg width="16px" height="16px" viewBox="0 0 16 16" version="1.1" xmlns="http://www.w3.org/2000/svg" xmlns:xlink="http://www.w3.org/1999/xlink">
    <!-- Generator: Sketch 55.2 (78181) - https://sketchapp.com -->
    <title>Icons / Scripting / 16 px Copy</title>
    <desc>Created with Sketch.</desc>
    <g id="Icons-/-Scripting-/-16-px-Copy" stroke="none" stroke-width="1" fill="none" fill-rule="evenodd">
        <g id="Group" transform="translate(1.000000, 0.000000)">
            <path d="M13,6 L8,6 L8,1 L3,1 L3,8 L2,8 L2,0 L9,0 L14,5 L14,16 L9,16 L9,15 L13,15 L13,6 Z M12.5857864,5 L9,1.41421356 L9,5 L12.5857864,5 Z" id="Combined-Shape" fill="#6E6E6E" fill-rule="nonzero"></path>
            <path d="M3,14 L7,14 L7,15 L3,15 L3,14 Z M2.82842712,11.12 L3.53553391,11.8271068 L2.82842712,12.5355339 L0.707106781,14.6555339 L0,13.9484271 L2.12066017,11.827767 L0,9.70710678 L0.707106781,9 L2.82776695,11.1206602 L2.82842712,11.12 Z" id="Combined-Shape" fill="#E04F1D"></path>
        </g>
    </g>
</svg>