<svg width="17" height="17" viewBox="0 0 17 17" fill="none" xmlns="http://www.w3.org/2000/svg">
<path fill-rule="evenodd" clip-rule="evenodd" d="M1.72987 14C0.774491 14 0 13.2247 0 12.2683V1.67128C0 0.748256 0.747461 0 1.6695 0H9.625V2.62779H11.375V14H1.72987ZM8.75 0.875H0.875V10.5H8.75V0.875Z" fill="#0079C1"/>
<path fill-rule="evenodd" clip-rule="evenodd" d="M9.62497 3.50369V11.3871H1.74122C1.26208 11.3871 0.873657 11.7759 0.873657 12.2556C0.873657 12.7352 1.26208 13.124 1.74122 13.124H10.5V3.50369H9.62497Z" fill="#E2F1FB"/>
<rect x="2.62762" y="2.625" width="4.375" height="2.625" fill="#0079C1"/>
<rect x="3.3924" y="3.34833" width="2.84375" height="1.16667" fill="#AADBFA"/>
<mask id="path-5-outside-1" maskUnits="userSpaceOnUse" x="6" y="5" width="11" height="12" fill="black">
<rect fill="white" x="6" y="5" width="11" height="12"/>
<path fill-rule="evenodd" clip-rule="evenodd" d="M14 6L16 9V10V16H7V10V9L9 6H14Z"/>
</mask>
<path fill-rule="evenodd" clip-rule="evenodd" d="M14 6L16 9V10V16H7V10V9L9 6H14Z" fill="#E9DED4"/>
<path d="M16 9H17V8.69722L16.8321 8.4453L16 9ZM14 6L14.8321 5.4453L14.5352 5H14V6ZM16 16V17H17V16H16ZM7 16H6V17H7V16ZM7 9L6.16795 8.4453L6 8.69722V9H7ZM9 6V5H8.46482L8.16795 5.4453L9 6ZM16.8321 8.4453L14.8321 5.4453L13.1679 6.5547L15.1679 9.5547L16.8321 8.4453ZM17 10V9H15V10H17ZM15 10V16H17V10H15ZM16 15H7V17H16V15ZM8 16V10H6V16H8ZM6 9V10H8V9H6ZM8.16795 5.4453L6.16795 8.4453L7.83205 9.5547L9.83205 6.5547L8.16795 5.4453ZM14 5H9V7H14V5Z" fill="white" mask="url(#path-5-outside-1)"/>
<path fill-rule="evenodd" clip-rule="evenodd" d="M7 9H16L14 6H9L7 9ZM7 10H16V16H7V10Z" fill="#D3B490"/>
<path fill-rule="evenodd" clip-rule="evenodd" d="M11.5 10.5L9 13H11V15H12V13H14L11.5 10.5Z" fill="#595959"/>
<path fill-rule="evenodd" clip-rule="evenodd" d="M11 6H12V9H16V10H7V9H11V6Z" fill="#E9DED4"/>
</svg>
