<?xml version="1.0" encoding="utf-8"?>
<!-- Generator: Adobe Illustrator 25.4.1, SVG Export Plug-In . SVG Version: 6.00 Build 0)  -->
<svg version="1.1" id="Layer_1" xmlns="http://www.w3.org/2000/svg" xmlns:xlink="http://www.w3.org/1999/xlink" x="0px" y="0px"
	 viewBox="0 0 32 32" style="enable-background:new 0 0 32 32;" xml:space="preserve">
<style type="text/css">
	.st0{clip-path:url(#SVGID_00000072253651758603068460000008272716296888717458_);}
	.st1{fill:url(#SVGID_00000084515080361408740550000018136644882931731100_);}
	.st2{fill:url(#SVGID_00000173881449099510510030000003318316933271115445_);}
	.st3{fill:url(#SVGID_00000068663286448670985140000000235655804153891502_);}
	.st4{fill:#FFFFFF;}
</style>
<g>
	<defs>
		<rect id="SVGID_1_" width="32" height="32"/>
	</defs>
	<clipPath id="SVGID_00000163055467547526428660000001910089225477222552_">
		<use xlink:href="#SVGID_1_"  style="overflow:visible;"/>
	</clipPath>
	<g style="clip-path:url(#SVGID_00000163055467547526428660000001910089225477222552_);">
		
			<radialGradient id="SVGID_00000041980824670969402250000013665025627291996847_" cx="-6.743" cy="40.743" r="1" gradientTransform="matrix(27.2361 0 0 -27.2361 207.2834 1130.2798)" gradientUnits="userSpaceOnUse">
			<stop  offset="2.940000e-03" style="stop-color:#9BC21C"/>
			<stop  offset="0.514" style="stop-color:#70A30C"/>
		</radialGradient>
		<path style="fill:url(#SVGID_00000041980824670969402250000013665025627291996847_);" d="M2,8.4V26l13.5,5.9
			c0.3,0.1,0.6,0.1,0.9,0L27.8,27c1.3-0.6,2.2-1.9,2.2-3.3V6L16.5,0.1c-0.3-0.1-0.6-0.1-0.9,0L4.2,5C2.9,5.6,2,6.9,2,8.4z"/>
		
			<linearGradient id="SVGID_00000129174177234604278340000003797688382741185933_" gradientUnits="userSpaceOnUse" x1="17.1989" y1="28.5141" x2="5.4138" y2="8.1018" gradientTransform="matrix(1 0 0 -1 0 34)">
			<stop  offset="7.200001e-04" style="stop-color:#92CC00"/>
			<stop  offset="1.880000e-03" style="stop-color:#92CC00;stop-opacity:0.9955"/>
			<stop  offset="7.413000e-02" style="stop-color:#92CC00;stop-opacity:0.7343"/>
			<stop  offset="0.1472" style="stop-color:#92CC00;stop-opacity:0.5094"/>
			<stop  offset="0.2198" style="stop-color:#92CC00;stop-opacity:0.3257"/>
			<stop  offset="0.2918" style="stop-color:#92CC00;stop-opacity:0.1832"/>
			<stop  offset="0.3629" style="stop-color:#92CC00;stop-opacity:8.146000e-02"/>
			<stop  offset="0.4329" style="stop-color:#92CC00;stop-opacity:2.044000e-02"/>
			<stop  offset="0.5004" style="stop-color:#92CC00;stop-opacity:0"/>
		</linearGradient>
		<path style="fill:url(#SVGID_00000129174177234604278340000003797688382741185933_);" d="M15.5,0.1L4.2,5C2.9,5.6,2,6.9,2,8.3V26
			l13.5,5.9C15.7,32,15.8,32,16,32V0C15.8,0,15.7,0,15.5,0.1z"/>
		
			<linearGradient id="SVGID_00000063607168009362052810000003193416197026590364_" gradientUnits="userSpaceOnUse" x1="16" y1="34.0024" x2="16" y2="2.0031" gradientTransform="matrix(1 0 0 -1 0 34)">
			<stop  offset="3.600000e-04" style="stop-color:#559E10;stop-opacity:0"/>
			<stop  offset="7.718000e-02" style="stop-color:#559E10;stop-opacity:2.640000e-02"/>
			<stop  offset="0.1568" style="stop-color:#559E10;stop-opacity:0.1051"/>
			<stop  offset="0.2377" style="stop-color:#559E10;stop-opacity:0.2364"/>
			<stop  offset="0.3195" style="stop-color:#559E10;stop-opacity:0.4204"/>
			<stop  offset="0.402" style="stop-color:#559E10;stop-opacity:0.6573"/>
			<stop  offset="0.484" style="stop-color:#559E10;stop-opacity:0.9431"/>
			<stop  offset="0.4988" style="stop-color:#559E10"/>
			<stop  offset="0.5993" style="stop-color:#559E10;stop-opacity:0.9736"/>
			<stop  offset="0.7033" style="stop-color:#559E10;stop-opacity:0.8949"/>
			<stop  offset="0.809" style="stop-color:#559E10;stop-opacity:0.7638"/>
			<stop  offset="0.9152" style="stop-color:#559E10;stop-opacity:0.5814"/>
			<stop  offset="1" style="stop-color:#559E10;stop-opacity:0.4"/>
		</linearGradient>
		<path style="fill:url(#SVGID_00000063607168009362052810000003193416197026590364_);" d="M15.2,31.6c0.2,0.2,0.5,0.4,0.8,0.4
			s0.6-0.1,0.8-0.4l6-6.9c0.6-0.6,0.9-1.5,0.9-2.3V3.3l-7.3-3.2c-0.3-0.1-0.6-0.1-0.9,0L8.2,3.3v19.2c0,0.9,0.3,1.7,0.9,2.3
			L15.2,31.6z"/>
		<path class="st4" d="M12.6,9.4V8.6c0-0.8,0.7-1.5,1.5-1.5h8.4c0.8,0,1.5,0.7,1.5,1.5v6.9c0,0.8-0.7,1.5-1.5,1.5h-0.8V9.9
			c0-0.1-0.1-0.3-0.1-0.4c-0.1-0.1-0.2-0.1-0.4-0.1L12.6,9.4z M25.4,23.6C25.4,23.6,25.4,23.5,25.4,23.6c0-0.1,0-0.1,0-0.2l-3.6-2.9
			c0,0-0.1,0-0.1,0c0,0-0.1,0.1-0.1,0.1v1.5l-10.8,0c-0.2,0-0.5-0.1-0.6-0.3c-0.2-0.2-0.3-0.4-0.3-0.6l0-7.3c0-0.1,0.1-0.3,0.1-0.4
			c0.1-0.1,0.2-0.1,0.4-0.1h6.2c0.1,0,0.3,0.1,0.4,0.1c0.1,0.1,0.1,0.2,0.1,0.4l0,3.7c0,0.5-0.2,0.9-0.5,1.2L16,19.4l2.8,0
			c0.4,0,0.7-0.3,0.7-0.7v-6.1c0-0.4-0.2-0.8-0.4-1.1c-0.3-0.3-0.7-0.4-1.1-0.4H8.9c-0.4,0-0.7,0.2-1,0.5c-0.3,0.3-0.4,0.7-0.3,1
			v10.8c0,0.4,0.2,0.8,0.4,1.1c0.3,0.3,0.7,0.4,1.1,0.4l12.5,0v1.6c0,0.1,0,0.1,0.1,0.1c0,0,0.1,0,0.1,0L25.4,23.6z"/>
	</g>
</g>
</svg>
