<?xml version="1.0" encoding="utf-8"?>
<!-- Generator: Adobe Illustrator 25.4.1, SVG Export Plug-In . SVG Version: 6.00 Build 0)  -->
<svg version="1.1" id="Layer_1" xmlns="http://www.w3.org/2000/svg" xmlns:xlink="http://www.w3.org/1999/xlink" x="0px" y="0px"
	 viewBox="0 0 16 16" style="enable-background:new 0 0 16 16;" xml:space="preserve">
<style type="text/css">
	.st0{clip-path:url(#SVGID_00000080915791623280846640000012354410252435902618_);}
	.st1{fill:url(#SVGID_00000053519622881602522400000014446088475593954436_);}
	.st2{fill:url(#SVGID_00000104706915963883025790000008401929106165699743_);}
	.st3{fill:url(#SVGID_00000061445982391218542170000007866877747070690979_);}
	.st4{fill:#FFFFFF;}
</style>
<g>
	<defs>
		<rect id="SVGID_1_" width="16" height="16"/>
	</defs>
	<clipPath id="SVGID_00000155118384672807128350000011515378892833880725_">
		<use xlink:href="#SVGID_1_"  style="overflow:visible;"/>
	</clipPath>
	<g style="clip-path:url(#SVGID_00000155118384672807128350000011515378892833880725_);">
		
			<radialGradient id="SVGID_00000164498068438964547250000017072095403594407056_" cx="-13.8985" cy="31.8985" r="1" gradientTransform="matrix(13.618 0 0 -13.618 201.0853 444.6936)" gradientUnits="userSpaceOnUse">
			<stop  offset="2.940000e-03" style="stop-color:#9BC21C"/>
			<stop  offset="0.514" style="stop-color:#70A30C"/>
		</radialGradient>
		<path style="fill:url(#SVGID_00000164498068438964547250000017072095403594407056_);" d="M1,4.2V13L7.8,16C7.9,16,8.1,16,8.2,16
			l5.7-2.5c0.7-0.3,1.1-0.9,1.1-1.7V3L8.2,0C8.1,0,7.9,0,7.8,0L2.1,2.5C1.4,2.8,1,3.5,1,4.2z"/>
		
			<linearGradient id="SVGID_00000050664843277077921000000016232979179137729193_" gradientUnits="userSpaceOnUse" x1="8.5994" y1="15.2571" x2="2.7069" y2="5.0509" gradientTransform="matrix(1 0 0 -1 0 18)">
			<stop  offset="7.200001e-04" style="stop-color:#92CC00"/>
			<stop  offset="1.880000e-03" style="stop-color:#92CC00;stop-opacity:0.9955"/>
			<stop  offset="7.413000e-02" style="stop-color:#92CC00;stop-opacity:0.7343"/>
			<stop  offset="0.1472" style="stop-color:#92CC00;stop-opacity:0.5094"/>
			<stop  offset="0.2198" style="stop-color:#92CC00;stop-opacity:0.3257"/>
			<stop  offset="0.2918" style="stop-color:#92CC00;stop-opacity:0.1832"/>
			<stop  offset="0.3629" style="stop-color:#92CC00;stop-opacity:8.146000e-02"/>
			<stop  offset="0.4329" style="stop-color:#92CC00;stop-opacity:2.044000e-02"/>
			<stop  offset="0.5004" style="stop-color:#92CC00;stop-opacity:0"/>
		</linearGradient>
		<path style="fill:url(#SVGID_00000050664843277077921000000016232979179137729193_);" d="M7.8,0L2.1,2.5C1.4,2.8,1,3.5,1,4.2V13
			L7.8,16c0.1,0,0.1,0,0.2,0V0C7.9,0,7.8,0,7.8,0z"/>
		
			<linearGradient id="SVGID_00000045580736590710226380000011960158987475037833_" gradientUnits="userSpaceOnUse" x1="8" y1="18.001" x2="8" y2="2.0013" gradientTransform="matrix(1 0 0 -1 0 18)">
			<stop  offset="3.600000e-04" style="stop-color:#559E10;stop-opacity:0"/>
			<stop  offset="7.718000e-02" style="stop-color:#559E10;stop-opacity:2.640000e-02"/>
			<stop  offset="0.1568" style="stop-color:#559E10;stop-opacity:0.1051"/>
			<stop  offset="0.2377" style="stop-color:#559E10;stop-opacity:0.2364"/>
			<stop  offset="0.3195" style="stop-color:#559E10;stop-opacity:0.4204"/>
			<stop  offset="0.402" style="stop-color:#559E10;stop-opacity:0.6573"/>
			<stop  offset="0.484" style="stop-color:#559E10;stop-opacity:0.9431"/>
			<stop  offset="0.4988" style="stop-color:#559E10"/>
			<stop  offset="0.5993" style="stop-color:#559E10;stop-opacity:0.9736"/>
			<stop  offset="0.7033" style="stop-color:#559E10;stop-opacity:0.8949"/>
			<stop  offset="0.809" style="stop-color:#559E10;stop-opacity:0.7638"/>
			<stop  offset="0.9152" style="stop-color:#559E10;stop-opacity:0.5814"/>
			<stop  offset="1" style="stop-color:#559E10;stop-opacity:0.4"/>
		</linearGradient>
		<path style="fill:url(#SVGID_00000045580736590710226380000011960158987475037833_);" d="M7.6,15.8C7.7,15.9,7.8,16,8,16
			c0.2,0,0.3-0.1,0.4-0.2l3-3.4c0.3-0.3,0.4-0.7,0.4-1.2V1.6L8.2,0C8.1,0,7.9,0,7.8,0L4.1,1.6v9.6c0,0.4,0.2,0.8,0.4,1.2L7.6,15.8z"
			/>
		<path class="st4" d="M6.3,4.7V4.3c0-0.4,0.3-0.7,0.7-0.7h4.2c0.4,0,0.7,0.3,0.7,0.7v3.4c0,0.4-0.3,0.7-0.7,0.7h-0.4V4.9
			c0-0.1,0-0.1-0.1-0.2c0,0-0.1-0.1-0.2-0.1L6.3,4.7z M12.7,11.8C12.7,11.8,12.7,11.8,12.7,11.8C12.7,11.7,12.7,11.7,12.7,11.8
			l-1.8-1.6c0,0-0.1,0-0.1,0s0,0,0,0.1v0.8l-5.4,0c-0.1,0-0.2,0-0.3-0.1c-0.1-0.1-0.1-0.2-0.1-0.3l0-3.6c0-0.1,0-0.1,0.1-0.2
			c0,0,0.1-0.1,0.2-0.1h3.1c0.1,0,0.1,0,0.2,0.1c0,0,0.1,0.1,0.1,0.2l0,1.9c0,0.2-0.1,0.4-0.3,0.6L8,9.7l1.4,0
			c0.2,0,0.4-0.2,0.4-0.4v-3c0-0.2-0.1-0.4-0.2-0.5C9.4,5.6,9.2,5.6,9,5.6H4.4c-0.2,0-0.4,0.1-0.5,0.2C3.8,5.9,3.8,6.1,3.8,6.3v5.4
			c0,0.2,0.1,0.4,0.2,0.5c0.1,0.1,0.3,0.2,0.5,0.2l6.2,0v0.8c0,0,0,0.1,0,0.1c0,0,0.1,0,0.1,0L12.7,11.8z"/>
	</g>
</g>
</svg>
