<svg xmlns="http://www.w3.org/2000/svg" viewBox="0 0 16 16"><title>Investigation16</title><g id="Icons"><path d="M4,2V4h7V2a1,1,0,0,0-1-1H5A1,1,0,0,0,4,2Zm6,1H5V2h5Z" style="fill:#6e6e6e"/><rect y="3" width="15" height="12" rx="1" style="fill:#a67a47"/><rect x="1.00004" y="6" width="13" height="8" style="fill:#d3b490"/><path d="M11.45862,9H3.54138A3,3,0,0,1,.5822,6.4932L.19407,4.1644A1,1,0,0,1,1.18046,3H13.81954a1,1,0,0,1,.98639,1.1644L14.4178,6.4932A3,3,0,0,1,11.45862,9Z" style="fill:#a67a47"/><path d="M3.54154,8A1.99391,1.99391,0,0,1,1.5684,6.32861L1.18021,4H13.81937l-.38769,2.3291A1.99393,1.99393,0,0,1,11.45853,8Z" style="fill:#d3b490"/><rect x="4" y="7" width="2" height="3" style="fill:#6e6e6e"/><rect x="9" y="7" width="2" height="3" style="fill:#6e6e6e"/><rect width="16" height="16" style="fill:none"/><polygon points="1.347 5 13.653 5 13.819 4 1.18 4 1.347 5" style="fill:#e9ded4"/></g></svg>