<svg xmlns="http://www.w3.org/2000/svg" viewBox="0 0 32 32"><title>Investigation32</title><g id="Icons"><path d="M20,2H12a2,2,0,0,0-2,2V8H22V4A2,2,0,0,0,20,2Zm1,5H11V4a1.0013,1.0013,0,0,1,1-1h8a1.0013,1.0013,0,0,1,1,1Z" style="fill:#6e6e6e"/><rect width="32" height="32" style="fill:none"/><rect x="1" y="5" width="30" height="24" rx="2" style="fill:#a67a47"/><rect x="2" y="6" width="28" height="22" rx="1" style="fill:#d3b490"/><path d="M23.91724,17H8.08276A6,6,0,0,1,2.1644,11.98639L1.38813,7.3288A2,2,0,0,1,3.36092,5H28.63908a2,2,0,0,1,1.97279,2.3288l-.77627,4.65759A6,6,0,0,1,23.91724,17Z" style="fill:#a67a47"/><path d="M8.08252,16a4.98418,4.98418,0,0,1-4.93164-4.17822L2.37451,7.16406A1.00015,1.00015,0,0,1,3.36084,6H28.63916a1.00015,1.00015,0,0,1,.98633,1.16406l-.77637,4.65772A4.98418,4.98418,0,0,1,23.91748,16Z" style="fill:#d3b490"/><rect x="7" y="15" width="6" height="4" transform="matrix(0, -1, 1, 0, -7, 27)" style="fill:#6e6e6e"/><rect x="9" y="15" width="2" height="4" style="fill:#ccc"/><rect x="19" y="15" width="6" height="4" transform="matrix(0, -1, 1, 0, 4.99999, 38.99999)" style="fill:#6e6e6e"/><rect x="21" y="15" width="2" height="4" style="fill:#ccc"/><path d="M28.63916,6H3.36084a1.00015,1.00015,0,0,0-.98633,1.16406L2.51385,8h26.9723l.13934-.83594A1.00015,1.00015,0,0,0,28.63916,6Z" style="fill:#e9ded4"/></g></svg>