<?xml version="1.0" encoding="UTF-8"?>
<svg width="16px" height="16px" viewBox="0 0 16 16" version="1.1" xmlns="http://www.w3.org/2000/svg" xmlns:xlink="http://www.w3.org/1999/xlink">
    <!-- Generator: Sketch 55.2 (78181) - https://sketchapp.com -->
    <title>Icons / Connection / 16 px Copy</title>
    <desc>Created with Sketch.</desc>
    <g id="Icons-/-Connection-/-16-px-Copy" stroke="none" stroke-width="1" fill="none" fill-rule="evenodd">
        <g id="Group" transform="translate(2.000000, 1.000000)">
            <rect id="Rectangle" fill="#E7E7E7" x="0" y="0" width="12" height="10" rx="2"></rect>
            <path d="M2.14965623,4.64210884 L3.59486461,3.2105442 C3.79440625,3.01288637 4.11792716,3.01288637 4.3174688,3.2105442 C4.51701044,3.40820203 4.51701044,3.72866869 4.3174688,3.92632652 L3.23356251,5 L4.3174688,6.07367348 C4.51701044,6.27133131 4.51701044,6.59179797 4.3174688,6.7894558 C4.11792716,6.98711363 3.79440625,6.98711363 3.59486461,6.7894558 L2.14965623,5.35789116 C1.95011459,5.16023333 1.95011459,4.83976667 2.14965623,4.64210884 Z M9.85034377,4.64210884 C10.0498854,4.83976667 10.0498854,5.16023333 9.85034377,5.35789116 L8.40513539,6.7894558 C8.20559375,6.98711363 7.88207284,6.98711363 7.6825312,6.7894558 C7.48298956,6.59179797 7.48298956,6.27133131 7.6825312,6.07367348 L8.76643749,5 L7.6825312,3.92632652 C7.48298956,3.72866869 7.48298956,3.40820203 7.6825312,3.2105442 C7.88207284,3.01288637 8.20559375,3.01288637 8.40513539,3.2105442 L9.85034377,4.64210884 Z M6.44363491,2.50777395 C6.72154223,2.55631389 6.9071062,2.81882481 6.85810365,3.0941085 L6.14828779,7.08167018 C6.09928523,7.35695387 5.83427241,7.540766 5.55636509,7.49222605 C5.27845777,7.44368611 5.0928938,7.18117519 5.14189635,6.9058915 L5.85171221,2.91832982 C5.90071477,2.64304613 6.16572759,2.459234 6.44363491,2.50777395 Z" id="Shape" fill="#6E6E6E"></path>
            <rect id="Rectangle" fill="#959595" x="0" y="12.5" width="12" height="1" rx="0.5"></rect>
            <rect id="Rectangle" fill="#959595" x="5.5" y="10" width="1" height="2"></rect>
            <rect id="Rectangle" fill="#E04F1D" x="4" y="12" width="4" height="2"></rect>
        </g>
    </g>
</svg>