<?xml version="1.0" encoding="UTF-8"?>
<svg width="32px" height="32px" viewBox="0 0 32 32" version="1.1" xmlns="http://www.w3.org/2000/svg" xmlns:xlink="http://www.w3.org/1999/xlink">
    <!-- Generator: Sketch 55.2 (78181) - https://sketchapp.com -->
    <title>Icons / Connection / 32 px Copy</title>
    <desc>Created with Sketch.</desc>
    <g id="Icons-/-Connection-/-32-px-Copy" stroke="none" stroke-width="1" fill="none" fill-rule="evenodd">
        <g id="Group" transform="translate(4.500000, 3.000000)">
            <rect id="Rectangle" fill="#E7E7E7" x="0" y="0" width="23" height="18.5714286" rx="3.71428571"></rect>
            <path d="M4.12017444,8.62105928 L6.89015717,5.96243923 C7.27261197,5.59536041 7.89269373,5.59536041 8.27514854,5.96243923 C8.65760334,6.32951806 8.65760334,6.92467043 8.27514854,7.29174925 L6.19766149,9.28571429 L8.27514854,11.2796793 C8.65760334,11.6467581 8.65760334,12.2419105 8.27514854,12.6089893 C7.89269373,12.9760682 7.27261197,12.9760682 6.89015717,12.6089893 L4.12017444,9.9503693 C3.73771963,9.58329047 3.73771963,8.9881381 4.12017444,8.62105928 Z M18.8798256,8.62105928 C19.2622804,8.9881381 19.2622804,9.58329047 18.8798256,9.9503693 L16.1098428,12.6089893 C15.727388,12.9760682 15.1073063,12.9760682 14.7248515,12.6089893 C14.3423967,12.2419105 14.3423967,11.6467581 14.7248515,11.2796793 L16.8023385,9.28571429 L14.7248515,7.29174925 C14.3423967,6.92467043 14.3423967,6.32951806 14.7248515,5.96243923 C15.1073063,5.59536041 15.727388,5.59536041 16.1098428,5.96243923 L18.8798256,8.62105928 Z M12.3503002,4.65729447 C12.8829559,4.74744008 13.2386202,5.23496036 13.1446987,5.74620149 L11.7842183,13.1516732 C11.6902967,13.6629143 11.1823555,14.0042797 10.6496998,13.9141341 C10.1170441,13.8239885 9.76137977,13.3364682 9.85530135,12.8252271 L11.2157817,5.41975538 C11.3097033,4.90851424 11.8176445,4.56714887 12.3503002,4.65729447 Z" id="Shape" fill="#6E6E6E"></path>
            <rect id="Rectangle" fill="#959595" x="0" y="23.2142857" width="23" height="1.85714286" rx="0.928571429"></rect>
            <rect id="Rectangle" fill="#959595" x="10.5416667" y="18.5714286" width="1.91666667" height="3.71428571"></rect>
            <rect id="Rectangle" fill="#E04F1D" x="7.66666667" y="22.2857143" width="7.66666667" height="3.71428571"></rect>
        </g>
    </g>
</svg>