<svg xmlns="http://www.w3.org/2000/svg" viewBox="0 0 16 16"><defs><style>.cls-1{fill:none}.cls-2{fill:#6e6e6e}.cls-3{fill:#f8f8f8}.cls-4{fill:#3b8fc4}</style></defs><title>kml16</title><g id="Icons"><path class="cls-1" d="M0 0h16v16H0z"/><path class="cls-2" d="M15 16H2V0h9.4L15 3.6V16z"/><path class="cls-3" d="M11.31 1H3v14h11V3.69L11.31 1z"/><path class="cls-2" d="M11 4V1h-1v4h5V4h-4z"/><path class="cls-3" d="M3 13a1 1 0 0 0 .987-.848l.555.555A1 1 0 0 0 5.25 13H6a.994.994 0 0 0 .5-.134A1 1 0 0 0 7 13h1a1 1 0 0 0 1-1v-1 1a1 1 0 0 0 1 1h1a1 1 0 0 0 .5-.134A1 1 0 0 0 12 13h2.5a.973.973 0 0 0 .5-.154v-2.692a.973.973 0 0 0-.5-.154H14V7a1 1 0 0 0-1-1h-1a1 1 0 0 0-.5.134A1 1 0 0 0 11 6h-1a1 1 0 0 0-.93.628l-.07.18-.072-.18A1 1 0 0 0 7.998 6H7a.995.995 0 0 0-.5.134A.99.99 0 0 0 6 6h-.75a1 1 0 0 0-.708.293l-.555.554A1 1 0 0 0 3 6H2v7z"/><path class="cls-4" d="M13 11V7h-1v5h2.5v-1zM9 9.5L8 7H7v5h1V9l.5 1h1l.5-1v3h1V7h-1zm-6-.25V7H2v5h1V9.75L5.25 12H6v-.5l-2-2 2-2V7h-.75z"/></g></svg>