<svg xmlns="http://www.w3.org/2000/svg" viewBox="0 0 32 32"><defs><style>.cls-1{fill:none}.cls-2{fill:#6e6e6e}.cls-3{fill:#f8f8f8}.cls-4{fill:#3b8fc4}</style></defs><title>kml32</title><g id="Icons"><path class="cls-1" d="M0 0h32v32H0z"/><path class="cls-2" d="M28 31H4V1h17.3L28 7.7V31z"/><path class="cls-3" d="M27 7.99L21.01 2H5v28h22V7.99z"/><path class="cls-2" d="M21 8V2h-1v7h8V8h-7z"/><path class="cls-4" d="M22.25 20.75V15H21v7h4v-1.25h-2.75zM16 18.75L14.25 15H13v7h1.25v-4.5l1.125 2.5h1.25l1.125-2.5V22H19v-7h-1.25L16 18.75zM12.25 15h-1.482L8.25 18v-3H7v7h1.25v-3l2.643 3h1.357l-3-3.5 3-3.5z"/></g></svg>