<svg xmlns="http://www.w3.org/2000/svg" viewBox="0 0 16 16"><defs><style>.cls-1{fill:#828282;}.cls-2{fill:#57a6d9;}.cls-3{fill:#d3eaf9;}.cls-4{fill:#9182bd;}.cls-5{fill:#c5bddd;}</style></defs><g id="Icons"><path class="cls-1" d="M6.9209,1.51367,1.57227,6.86328l1.08252,6.49805,8.65722,1.082,2.147-9.66162Zm.59247,5.99982L2.83276,6.73364,6.73328,2.83313Zm.01031-4.804L12.17212,5.0329,8.3,7.3667Zm.36225,5.955L10.30835,13.511l-6.448-.80609Zm.63812-.51227,3.88482-2.33093-1.55444,6.9928ZM2.48694,7.48706l4.68158.78L3.2674,12.16815Z"/><circle class="cls-2" cx="8" cy="8" r="2"/><circle class="cls-3" cx="8" cy="8" r="1"/><circle class="cls-4" cx="13" cy="5" r="2"/><circle class="cls-5" cx="13" cy="5" r="1"/><circle class="cls-4" cx="7" cy="2" r="2"/><circle class="cls-5" cx="7" cy="2" r="1"/><circle class="cls-2" cx="2" cy="7" r="2"/><circle class="cls-3" cx="2" cy="7" r="1"/><circle class="cls-4" cx="3" cy="13" r="2"/><circle class="cls-5" cx="3" cy="13" r="1"/><circle class="cls-2" cx="11" cy="14" r="2"/><circle class="cls-3" cx="11" cy="14" r="1"/></g></svg>