<svg xmlns="http://www.w3.org/2000/svg" viewBox="0 0 32 32"><defs><style>.cls-1{fill:#828282;}.cls-2{fill:#9182bd;}.cls-3{fill:#c5bddd;}.cls-4{fill:#57a6d9;}.cls-5{fill:#d3eaf9;}.cls-6{fill:none;}</style></defs><g id="Icons"><path class="cls-1" d="M15.96289,2.50732,2.55176,13.85547,5.67627,26.354l19.63281,3.09961,4.14307-18.645Zm.60028,13.99012-12.68341-2.718,11.77832-9.966ZM16.45544,3.75012l11.723,7.214L17.35706,16.38464Zm.45118,13.83075L24.161,28.46271,6.94379,25.7439Zm.67749-.42566,10.84326-5.42163L24.81281,27.998ZM3.54352,14.52557,16.10327,17.2168l-9.86835,8.074Z"/><circle class="cls-2" cx="28.99959" cy="10.99959" r="3"/><circle class="cls-2" cx="16" cy="3" r="3"/><circle class="cls-3" cx="16" cy="3" r="2"/><circle class="cls-4" cx="3.00001" cy="14" r="2.99999" transform="matrix(0.9557, -0.29434, 0.29434, 0.9557, -3.98793, 1.50325)"/><circle class="cls-5" cx="3.00001" cy="14" r="2"/><circle class="cls-4" cx="16.99999" cy="17" r="2.99999" transform="matrix(0.9557, -0.29434, 0.29434, 0.9557, -4.25075, 5.75697)"/><circle class="cls-5" cx="16.99999" cy="17" r="2"/><circle class="cls-4" cx="24.99999" cy="29" r="2.99999" transform="matrix(0.9557, -0.29434, 0.29434, 0.9557, -7.42848, 8.64334)"/><circle class="cls-5" cx="24.99999" cy="29" r="2"/><circle class="cls-2" cx="6" cy="26" r="3"/><circle class="cls-3" cx="6" cy="26" r="2"/><circle class="cls-3" cx="29" cy="11" r="2"/><rect class="cls-6" width="32" height="32"/></g></svg>