<svg id="Icons" xmlns="http://www.w3.org/2000/svg" viewBox="0 0 16 16"><defs><style>.cls-1{fill:none}.cls-2{fill:#e5d255}.cls-3{fill:#f4eec8}.cls-4{fill:#c7552e}.cls-5{fill:#e5a894}.cls-6{fill:#c96b4b}.cls-7{fill:#6d6e71}.cls-8{fill:#f3f4f4}.cls-9{fill:#e0e0e0}.cls-10{fill:#f8f8f8}</style></defs><title>layersFeaturesHosted_16</title><path class="cls-1" d="M0 0h16v16H0z"/><path class="cls-2" d="M15.71 10.979l-.91-.548-6.49 3.894a.738.738 0 0 1-.636 0l-6.49-3.894-.912.546a.272.272 0 0 0 0 .508l7.402 4.442a.738.738 0 0 0 .635 0l7.4-4.442a.27.27 0 0 0 0-.508z"/><path class="cls-2" d="M15.71 7.746L14.8 7.2l-6.49 3.894a.738.738 0 0 1-.636 0L1.184 7.2l-.912.546a.272.272 0 0 0 0 .508l7.402 4.44a.738.738 0 0 0 .635 0l7.4-4.44a.27.27 0 0 0 0-.508z"/><path class="cls-2" d="M15.71 4.514a.27.27 0 0 1 0 .507l-7.4 4.443a.738.738 0 0 1-.636 0L.27 5.023a.272.272 0 0 1 0-.51L7.675.074a.738.738 0 0 1 .635 0z"/><path class="cls-3" d="M7.674.072l-3.602 2.16A4.377 4.377 0 0 0 4 3v4a.976.976 0 0 0 .06.294l3.614 2.17a.738.738 0 0 0 .635 0l3.634-2.183A.983.983 0 0 0 12 7V3a4.34 4.34 0 0 0-.07-.756L8.31.072a.738.738 0 0 0-.636 0z"/><path class="cls-4" d="M11 3a2.894 2.894 0 0 0-3-3 2.894 2.894 0 0 0-3 3v4l3 3 3-3z"/><path class="cls-5" d="M6 6.586V3a1.893 1.893 0 0 1 2-2 1.893 1.893 0 0 1 2 2v3.586l-2 2z"/><path class="cls-6" d="M8 2v5.172l1-1V3a.902.902 0 0 0-1-1z"/><path class="cls-7" d="M16 10.854H9v3.29C9 15.17 10.016 16 12.5 16s3.5-.83 3.5-1.855z"/><path class="cls-8" d="M10 11.813v2.613a3.005 3.005 0 0 0 2.5.78 3.05 3.05 0 0 0 2.5-.77v-2.623z"/><path class="cls-9" d="M13 15.193a2.435 2.435 0 0 0 2-.757v-2.622h-2z"/><path class="cls-7" d="M16 10.854c0 1.024-1.016 2.024-3.5 2.024s-3.5-1-3.5-2.024S10.016 9 12.5 9s3.5.83 3.5 1.854z"/><path class="cls-8" d="M12.5 11.878c-1.718 0-2.5-.53-2.5-1.024 0-.503 1.027-.854 2.5-.854s2.5.35 2.5.854c0 .493-.782 1.024-2.5 1.024z"/><circle class="cls-10" cx="8" cy="3" r="1.25"/><circle class="cls-10" cx="8" cy="3" r="1.25"/></svg>