<svg xmlns="http://www.w3.org/2000/svg" viewBox="0 0 16 16"><path fill="#e9d133" d="m15.71 10.979-.911-.547-6.49 3.894c-.159.096-.477.096-.635 0l-6.49-3.894-.913.546c-.232.14-.232.368 0 .508l7.403 4.442c.158.095.476.095.635 0l7.402-4.442c.234-.14.234-.367 0-.508z"/><path fill="#e9d133" d="M15.71 7.746 14.8 7.2l-6.49 3.895c-.159.096-.477.096-.635 0L1.185 7.2l-.913.547c-.232.139-.232.367 0 .508l7.403 4.441c.158.096.476.096.635 0l7.402-4.441c.234-.14.234-.367 0-.508z"/><path fill="#e9d133" d="M15.71 4.514c.235.14.235.367 0 .507l-7.4 4.442c-.159.096-.477.096-.635 0L.27 5.022c-.232-.141-.232-.37 0-.508L7.674.072c.158-.095.476-.095.635 0l7.402 4.442z"/><path fill="#6e6e6e" d="M8 8h8v8H8z"/><path fill="#cdebfb" d="M9 9h6v6H9z"/><path fill="#f8f8f8" d="M12.203 12.064c.201 0 .285-.149.353-.269.043-.077.084-.15.15-.186.325-.175.25-.54.211-.718.007-.028.066-.087.126-.093.102 0 .178-.03.227-.088.075-.092.052-.214.028-.403.01-.033.049-.065.09-.1.071-.061.17-.145.17-.292a.39.39 0 0 0-.065-.203c-.022-.04-.035-.065-.035-.095 0-.044.046-.168.482-.372.07-.034.108-.103.07-.135.06 0 .11-.05.11-.11H9v6h2.336a.108.108 0 0 0-.024-.068l.019-.013c0-.094.025-.165.07-.286a.788.788 0 0 0 .05-.276c0-.222-.224-.275-.374-.31-.052-.013-.139-.033-.154-.048-.06-.12-.02-.176.108-.305.09-.089.2-.2.2-.362 0-.118-.065-.312-.288-.332a.465.465 0 0 0-.182.039.16.16 0 0 1-.065.014.442.442 0 0 1-.137-.03c0-.054.024-.097.053-.15.035-.066.08-.146.08-.258a.604.604 0 0 0-.026-.166.39.39 0 0 1-.019-.11c0-.09.065-.165.144-.165.065 0 .099.05.17.175.068.125.19.189.36.189.275 0 .451-.313.451-.53 0-.046.034-.1.078-.1.035 0 .061.02.108.056.056.042.133.1.245.1zm2.727.808a2.06 2.06 0 0 1-.272.018h-.271c-.043 0-.085.005-.219.016-.045 0-.072-.009-.097-.03a.37.37 0 0 1-.069-.099c-.043-.077-.107-.193-.268-.193-.161 0-.245.123-.305.211-.048.07-.075.106-.132.106a.178.178 0 0 1-.026-.003.75.75 0 0 0-.152-.045c-.137 0-.229.102-.229.252v.215c0 .034-.038.065-.1.113-.08.06-.189.142-.189.288 0 .06.017.1.043.175 0 .047-.14.096-.233.128-.17.06-.38.133-.416.36-.044.041-.105.096-.105.196 0 .08.059.168.184.337.022.03.042.057.06.057a.017.017 0 0 0 .01-.003.115.115 0 0 0-.004.029H15v-2.153a.11.11 0 0 0-.07.025z"/><path fill="#90c399" d="M14.658 13h-.271c-.14 0-.278.057-.389-.042-.111-.099-.11-.264-.264-.264-.207 0-.222.326-.43.326-.093 0-.091-.057-.185-.057-.082 0-.119.06-.119.143v.214c0 .182-.29.22-.29.4 0 .075.044.102.044.176 0 .25-.613.215-.613.463 0 .082-.141.13-.141.21v.011c0 .094.297.42.25.42H15v-2.043c0 .037-.299.043-.342.043zm-2.004-1.487c.264-.143.188-.452.155-.617-.014-.074.125-.214.199-.21.308.022.176-.23.176-.352a.2.2 0 0 1 .01-.061c.046-.142.253-.188.253-.358 0-.121-.1-.177-.1-.298 0-.179.266-.34.546-.472.062-.03.097-.145.117-.145H9v6h2.227a.438.438 0 0 1-.006-.081c0-.13.04-.224.076-.323a.681.681 0 0 0 .045-.239c0-.234-.448-.168-.518-.31-.174-.347.297-.438.297-.715 0-.07-.035-.21-.143-.22-.15-.015-.189.065-.341.065-.094 0-.188-.06-.188-.154 0-.166.133-.242.133-.408 0-.107-.045-.168-.045-.275 0-.147.11-.275.254-.275.139 0 .2.113.266.23.054.1.15.133.263.133.21 0 .342-.262.342-.42 0-.106.08-.21.188-.21.148 0 .203.156.353.156.244 0 .236-.325.451-.441z"/></svg>