<svg xmlns="http://www.w3.org/2000/svg" viewBox="0 0 32 32"><path fill="#e9d133" d="m31.422 21.959-3.293-1.977-11.51 6.907c-.316.191-.955.191-1.271 0L3.836 19.98.545 21.956c-.467.28-.467.736 0 1.016l14.803 8.883c.316.19.955.19 1.271 0l14.803-8.883c.469-.28.469-.733 0-1.014z"/><path fill="#e9d133" d="m31.422 15.494-3.293-1.976-11.51 6.906c-.316.191-.955.191-1.271 0L3.836 13.516.545 15.492c-.467.28-.467.736 0 1.016l14.803 8.883c.316.191.955.191 1.271 0l14.803-8.883c.469-.28.469-.733 0-1.014z"/><path fill="#e9d133" d="M31.422 9.027c.469.282.469.735 0 1.016l-14.803 8.883c-.316.191-.955.191-1.271 0L.545 10.043c-.467-.281-.467-.738 0-1.016L15.348.145c.316-.192.955-.192 1.271 0l14.803 8.882z"/><circle cx="23" cy="23" r="8.825" fill="#6e6e6e"/><circle cx="23" cy="23" r="7" fill="#cdebfb"/><path fill="#90c399" d="M25.058 29.713a.06.06 0 0 1-.025-.007.054.054 0 0 1-.021-.033 1.781 1.781 0 0 1-.022-.153.59.59 0 0 1 .01-.184c.048-.226.122-.351.326-.556.172-.171.23-.371.206-.692-.011-.147-.091-.227-.156-.293l-.043-.043a.295.295 0 0 1-.073-.298.785.785 0 0 1 .042-.119c.008-.022.017-.042.02-.059a.455.455 0 0 0-.008-.274c-.02-.084-.07-.145-.233-.189-.048-.014-.097-.023-.15-.035a2.745 2.745 0 0 1-.337-.082.987.987 0 0 0-.305-.036 2.92 2.92 0 0 0-.413.03c-.104.01-.204.026-.295.04l-.093.015c-.12.015-.206.026-.266.026-.201 0-.415-.094-.638-.28a1.17 1.17 0 0 1-.354-.581.71.71 0 0 0-.198-.282l-.131-.122a.674.674 0 0 1-.107-.121.722.722 0 0 1-.11-.32.667.667 0 0 1 .009-.165.292.292 0 0 1 .097-.165c.126-.11.193-.329.193-.492a.94.94 0 0 1 .02-.237c.015-.07.05-.156.128-.318.15-.292.471-.654.714-.732l.13-.045a.31.31 0 0 0 .089-.047c.043-.031.077-.072.11-.167.084-.212.194-.315.408-.464a.602.602 0 0 0 .13-.108l.063-.071a.669.669 0 0 1 .085-.09.303.303 0 0 1 .3-.07c.036.007.073.029.143.068.007 0 .035.02.042.024l.072.04c.049.03.08.046.111.057h.044a3.17 3.17 0 0 1 .083-.027l.05-.025a.764.764 0 0 1 .34-.12c.11-.013.298-.03.485-.03l.084.003c.114.004.216.014.302.034.147.03.298.19.276.346l-.013.082c0 .01 0 .03.003.046.002.024.008.053.045.093.135.159.678.37.867.397.035 0 .044-.012.053-.026a.394.394 0 0 0 .024-.055l.062-.048-.047-.01a.3.3 0 0 1 .291-.228c.007 0 .046.005.052.008a.5.5 0 0 1 .19.06.761.761 0 0 0 .143.059c.028.01.064.021.096.021.106-.012.153-.03.214-.05.089-.035.159-.061.262-.094.04-.013.13-.039.13-.19a.809.809 0 0 0-.088-.326c-.028-.074-.11-.124-.236-.14a1.206 1.206 0 0 0-.126-.005h-.086a.307.307 0 0 1-.289-.188.336.336 0 0 0-.056-.099c-.02-.02-.036-.03-.042-.034.005.006-.014.02-.025.04a.324.324 0 0 1-.26.167c-.131 0-.223-.042-.271-.123a.553.553 0 0 1-.094-.24c-.003-.026-.025-.075-.1-.169a3.312 3.312 0 0 0-.21-.214 1.528 1.528 0 0 0-.213-.16l-.014-.01a.341.341 0 0 1-.18.206.297.297 0 0 1-.14.03.31.31 0 0 1-.188-.06 2.415 2.415 0 0 0-.173-.124.306.306 0 0 0-.163-.045.504.504 0 0 0-.272.094.564.564 0 0 0-.076.073l-.055.076a.533.533 0 0 1-.214.193.293.293 0 0 0-.085.072c-.01.014-.018.03-.026.046l-.021.046a1.28 1.28 0 0 1-.066.137.577.577 0 0 1-.13.154.401.401 0 0 1-.283.119h-.056c-.043-.007-.08-.019-.121-.029a.52.52 0 0 1-.072-.023l-.118-.032a.31.31 0 0 1-.233-.318c0-.165.002-.307.02-.441a.98.98 0 0 1 .054-.201.322.322 0 0 1 .367-.17l.068.016a1.036 1.036 0 0 0 .232.039c.04 0 .08-.005.122-.016.024-.004.06-.014.055-.095a.792.792 0 0 0-.056-.215l-.029-.065a.303.303 0 0 1 .16-.392 1.28 1.28 0 0 0 .428-.31 2.06 2.06 0 0 1 .24-.248 1.55 1.55 0 0 1 .14-.117.33.33 0 0 1 .306-.032l.046.02a.61.61 0 0 0 .277.065c.263 0 .292-.052.372-.19a.582.582 0 0 0 .044-.475c-.022-.07-.086-.118-.152-.16 0 0-.1-.062-.113-.073a.289.289 0 0 1-.08-.083.062.062 0 0 0-.042-.02.069.069 0 0 0-.038.014.233.233 0 0 0-.062.138c0 .057.006.135.01.213l.005.07a.295.295 0 0 1-.297.32.299.299 0 0 1-.172-.054 2.97 2.97 0 0 1-.408-.344c-.09-.09-.147-.264-.09-.382a.885.885 0 0 1 .06-.094 1.18 1.18 0 0 0 .082-.137l.135-.297a.91.91 0 0 1 .071-.122c.108-.132.341-.315.53-.315.022 0 .058 0 .18.032l.22.066c.09.029.296.098.427.098 0-.002.035-.054.035-.054a.938.938 0 0 0-.033-.08l-.03-.057a.05.05 0 0 1 .01-.06.05.05 0 0 1 .032-.01c.01 0 .02.002.028.007a6.98 6.98 0 0 1 3.032 5.127.287.287 0 0 0-.035.176.078.078 0 0 0 .03.058l.025.153c.007.092.012.184.012.276 0 .479-.048.958-.146 1.427a.315.315 0 0 1-.257.15c-.156-.014-.253-.088-.287-.193a1.203 1.203 0 0 1-.06-.256c-.02-.171-.328-.82-.49-1.013.008.068.032.158.063.258.07.221.162.43.221.498.007.006.044.038.116.237.023.07.048.148.072.228l.03.11c.032.114.067.225.1.318.016.04.031.077.05.108.014.034.028.055.042.064.01.008.022.019.055.019a.13.13 0 0 1 .05-.006.4.4 0 0 1 .108.018c.012.004.024.012.029.024a.043.043 0 0 1 .005.037 6.99 6.99 0 0 1-4.627 4.66c-.006.003-.01.003-.016.003zm-6.917-1.673a.048.048 0 0 1-.028-.01A6.944 6.944 0 0 1 16 23.022c0-.281.02-.574.067-.92a.049.049 0 0 1 .037-.04l.01-.001c.016 0 .031.007.04.02a.73.73 0 0 1 .12.357c.009.179.084.302.166.423l.071.108c.025.037.05.075.075.118.04.062.097.161.145.29.071.181.154.352.24.52l.046.096c.09.178.192.398.274.647.07.226.06.399.039.569-.01.075-.02.132-.018.188a.223.223 0 0 0 .044.131c.036.046.156.128.211.168l.446.29c.431.273.662.458.777.612l.055.079c.047.085.028.188.014.24a.35.35 0 0 1-.158.19c-.071.039-.13.072-.189.116-.11.08-.132.152-.132.25.004.08.004.117.002.157a.499.499 0 0 1-.05.206.56.56 0 0 1-.098.157.435.435 0 0 1-.048.035.093.093 0 0 1-.045.012zm6.617-8.264a.336.336 0 0 1-.332-.38l.007-.055h-.004a.382.382 0 0 1-.254-.165c-.054-.102-.065-.192-.034-.262a.77.77 0 0 1 .041-.092.304.304 0 0 1 .218-.173l.059-.009a.29.29 0 0 1 .196.076.598.598 0 0 1 .168.253.342.342 0 0 1 .01.143.322.322 0 0 1 .217.285c.008.122-.077.308-.192.36a.223.223 0 0 1-.1.019zm-7.457-.687c-.01 0-.02-.001-.026-.01-.017-.015-.037-.028-.023-.047a7.049 7.049 0 0 1 2.507-2.213l.056.004c.01 0 .04-.004.09-.026.047-.02.1-.048.159-.083l.161-.106c.02-.014.038-.022.055-.031.062-.032.093-.042.127-.053l.076-.029c.007-.001.058-.014.063-.014.054 0 .105.01.165.035.126.047.198.206.193.329a.854.854 0 0 1-.144.4c-.154.228-.382.548-.526.72a.305.305 0 0 1-.235.107l-.062-.008c-.087-.016-.122-.027-.158-.038a1.063 1.063 0 0 0-.207-.053c-.019-.002-.037-.005-.053-.005-.087 0-.13.021-.212.238-.034.088-.13.327-.404.327l-.06-.002c-.212-.026-.401-.026-.603-.026-.22 0-.403.163-.52.3a.89.89 0 0 1-.165.139 2.54 2.54 0 0 1-.148.095l-.054.035a.1.1 0 0 1-.052.015zm4.595-1.414a.338.338 0 0 1-.155-.039.308.308 0 0 1-.145-.272c.007-.175.101-.342.305-.545.096-.097.18-.158.269-.221 0 0 .095-.068.118-.088a.855.855 0 0 0 .122-.107.393.393 0 0 0 .083-.105c0-.002.056-.099.063-.108a.42.42 0 0 1 .07-.086c.029-.023.058-.038.087-.055l.133-.02c.052-.004.102-.007.154-.007.42 0 .843.04 1.29.122.067.082.084.142.08.2a.29.29 0 0 1-.12.219l-.06.047a1.14 1.14 0 0 0-.131.11c-.085.083-.144.175-.197.257l-.088.138a1.92 1.92 0 0 1-.085.114.366.366 0 0 1-.218.114.746.746 0 0 1-.142.01l-.109-.003-.107-.007a1.899 1.899 0 0 0-.151-.01l-.098-.005a.648.648 0 0 0-.12.01c-.206.041-.5.18-.698.299a.313.313 0 0 1-.15.038z"/><path fill="#f8f8f8" d="M23 15.175a7.825 7.825 0 1 0 0 15.65 7.825 7.825 0 0 0 0-15.65zM23 30c-3.86 0-7-3.14-7-7s3.14-7 7-7 7 3.14 7 7-3.14 7-7 7z"/></svg>