<svg xmlns="http://www.w3.org/2000/svg" viewBox="0 0 16 16"><path fill="#e9d133" d="m15.71 10.979-.911-.547-6.49 3.894c-.159.096-.477.096-.635 0l-6.49-3.894-.913.546c-.232.14-.232.368 0 .508l7.403 4.442c.158.095.476.095.635 0l7.402-4.442c.234-.14.234-.367 0-.508z"/><path fill="#e9d133" d="M15.71 7.746 14.8 7.2l-6.49 3.895c-.159.096-.477.096-.635 0L1.185 7.2l-.913.547c-.232.139-.232.367 0 .508l7.403 4.441c.158.096.476.096.635 0l7.402-4.441c.234-.14.234-.367 0-.508z"/><path fill="#e9d133" d="M15.71 4.514c.235.14.235.367 0 .507l-7.4 4.442c-.159.096-.477.096-.635 0L.27 5.022c-.232-.141-.232-.37 0-.508L7.674.072c.158-.095.476-.095.635 0l7.402 4.442z"/><circle cx="11" cy="11" r="5" fill="#6e6e6e"/><circle cx="11" cy="11" r="4" fill="#cdebfb"/><path fill="#90c399" d="M8.678 12.967c-.061-.08-.18-.175-.42-.327l-.085-.055-.146-.093c-.029-.022-.11-.076-.135-.109a.156.156 0 0 1-.029-.087.8.8 0 0 1 .01-.108.642.642 0 0 0-.022-.297 2.704 2.704 0 0 0-.146-.351l-.018-.038c-.05-.098-.1-.196-.14-.303a.99.99 0 0 0-.077-.153 1.95 1.95 0 0 0-.063-.098l-.017-.022a.478.478 0 0 1-.095-.245.348.348 0 0 0-.074-.205.296.296 0 0 0-.109-.083.138.138 0 0 0-.059-.014c-.03.203-.053.41-.053.621a3.98 3.98 0 0 0 1.11 2.763c.018-.005.039-.011.06-.011h.073a.245.245 0 0 0 .079-.016.137.137 0 0 0 .051-.038.247.247 0 0 0 .05-.08.25.25 0 0 0 .024-.102.533.533 0 0 0 0-.085c0-.06.013-.108.083-.157a.865.865 0 0 1 .105-.064.176.176 0 0 0 .075-.089c.01-.036.015-.08-.004-.112a.276.276 0 0 1-.028-.042zm6.301-2.061a.216.216 0 0 0-.094-.084l-.053-.018c-.044-.014-.061-.03-.067-.069-.007-.047.002-.083.025-.11a.126.126 0 0 1 .128-.033c.011.003.026.008.038.008.008 0 .015-.005.023-.006a3.997 3.997 0 0 0-1.885-2.996c-.025.035-.04.078-.023.12a.44.44 0 0 0 .03.07l.027.047.027.05.018.046a.138.138 0 0 1 .005.034c-.003.02-.019.031-.048.031-.074 0-.178-.034-.24-.054l-.03-.009c-.033-.01-.065-.018-.092-.028-.062-.015-.08-.015-.09-.015-.096 0-.216.094-.269.159-.006.009-.018.025-.038.063l-.036.08c-.013.027-.023.056-.038.085a.51.51 0 0 1-.045.076.777.777 0 0 0-.032.05c-.026.052.003.137.045.177.07.072.144.135.22.186a.13.13 0 0 0 .078.025.134.134 0 0 0 .136-.147l-.002-.038a1.561 1.561 0 0 1-.005-.12c0-.033.022-.075.044-.095a.093.093 0 0 1 .048-.02c.011 0 .025.017.035.028.008.017.02.03.035.04l.06.04c.039.023.08.054.094.1a.344.344 0 0 1-.025.282c-.05.086-.075.117-.226.117a.395.395 0 0 1-.163-.036l-.025-.013a.126.126 0 0 0-.055-.012.144.144 0 0 0-.086.029 1.006 1.006 0 0 0-.203.194.733.733 0 0 1-.244.177.138.138 0 0 0-.073.178l.012.029c.01.029.034.087.036.134.004.067-.036.076-.05.078a.283.283 0 0 1-.074.01.188.188 0 0 1-.035-.003c-.033-.002-.064-.012-.098-.018l-.036-.01c-.013-.003-.023-.003-.034-.003-.057 0-.114.03-.137.079a.452.452 0 0 0-.027.108c-.011.074-.011.157-.012.235a.144.144 0 0 0 .109.149c.02.005.042.01.065.018l.023.007c.028.01.052.014.076.016a.085.085 0 0 0 .031.004.207.207 0 0 0 .136-.059c.033-.027.053-.057.067-.077.01-.02.02-.038.032-.074l.015-.027c.003-.01.01-.019.016-.028a.155.155 0 0 1 .057-.047.26.26 0 0 0 .107-.1l.03-.041a.274.274 0 0 1 .048-.045.325.325 0 0 1 .163-.056.19.19 0 0 1 .102.03c.023.014.055.038.096.07a.143.143 0 0 0 .088.025.136.136 0 0 0 .066-.013.147.147 0 0 0 .087-.127.169.169 0 0 1 .042.02.82.82 0 0 1 .12.092c.042.037.086.082.12.12a.261.261 0 0 1 .061.104.238.238 0 0 0 .047.122c.024.041.073.057.12.057h.005c.047 0 .095-.038.12-.078.012-.022.032-.038.04-.038.003 0 .017.007.039.03a.225.225 0 0 1 .035.06.14.14 0 0 0 .129.087h.052c.024 0 .047 0 .07.002.119.016.145.073.151.092.044.093.05.154.05.189 0 .102-.066.123-.089.13a1.774 1.774 0 0 0-.14.05c-.035.012-.064.023-.129.03a.153.153 0 0 1-.06-.015.461.461 0 0 1-.081-.032.393.393 0 0 0-.102-.034h-.02a.138.138 0 0 0-.132.104l-.01.035a.211.211 0 0 1-.015.035c-.01.016-.026.025-.053.025h-.001c-.104-.013-.412-.133-.491-.226a.108.108 0 0 1-.031-.065.09.09 0 0 1 0-.032l.006-.044c.01-.07-.06-.146-.131-.16-.046-.011-.1-.015-.16-.02h-.046c-.1 0-.202.009-.263.016a.402.402 0 0 0-.176.063l-.027.015-.033.015-.024.001h-.033a.412.412 0 0 1-.067-.033l-.039-.022-.022-.016a.393.393 0 0 0-.073-.033.145.145 0 0 0-.139.033c-.002.004-.011.01-.043.047l-.037.04a.445.445 0 0 1-.072.062c-.114.078-.172.129-.215.242a.2.2 0 0 1-.067.102.226.226 0 0 1-.058.03l-.072.025c-.126.041-.298.237-.375.386a.93.93 0 0 0-.068.169.52.52 0 0 0-.01.125.41.41 0 0 1-.115.288.136.136 0 0 0-.043.076.212.212 0 0 0-.005.081c.006.06.026.12.055.163a.282.282 0 0 0 .055.061l.043.04.028.029a.388.388 0 0 1 .114.167c.04.128.108.237.188.302.115.097.228.149.331.149.034 0 .082-.007.142-.014l.027-.006c.056-.01.12-.017.186-.026.07-.009.15-.016.229-.016a.67.67 0 0 1 .177.02c.062.022.125.035.18.044.029.007.056.012.084.022.085.022.128.057.144.12a.276.276 0 0 1-.007.2.504.504 0 0 0-.023.063.136.136 0 0 0 .033.134l.024.024c.035.038.088.087.093.178.015.183-.02.298-.12.4a.535.535 0 0 0-.173.292.34.34 0 0 0-.001.092c0 .025.005.056.012.1.006.04.013.087.006.134a.16.16 0 0 0 .007.051 4.02 4.02 0 0 0 1.889-1.225 2.007 2.007 0 0 1 .11-.35c.038-.08.14-.23.202-.32l.063-.094c.07-.097.137-.196.187-.274.075-.123.125-.223.15-.307.015-.045-.011-.093-.043-.13-.024-.03-.071-.045-.114-.045-.008 0-.016 0-.026.002-.025 0-.036-.007-.046-.017-.01-.005-.021-.018-.03-.039a.488.488 0 0 1-.028-.065 3.478 3.478 0 0 1-.056-.177l-.01-.035a29.336 29.336 0 0 0-.045-.147c-.036-.097-.054-.115-.058-.12a1.033 1.033 0 0 1-.127-.282.963.963 0 0 1-.036-.146c0-.007-.003-.028.012-.052.088.052.297.497.309.6a.689.689 0 0 0 .032.135c.016.05.064.078.116.087l.016.001a.148.148 0 0 0 .122-.07 1.61 1.61 0 0 0 .181-.392c.05-.16.076-.26.085-.34a.235.235 0 0 0-.017-.126zM9.74 7.462a.19.19 0 0 0-.081-.016.186.186 0 0 0-.087.021.552.552 0 0 0-.075.044l-.026.019c-.018.01-.04.026-.063.04a1.077 1.077 0 0 1-.088.047.158.158 0 0 1-.06.016c-.016 0-.05 0-.049-.098.013-.037.004-.07-.013-.102a4.006 4.006 0 0 0-1.62 1.505.11.11 0 0 0 .055.032c.01.005.021.006.031.006a.148.148 0 0 0 .11-.054c.042-.055.106-.094.155-.126.028-.016.057-.035.08-.051a.385.385 0 0 0 .084-.071c.068-.08.176-.172.306-.172.11 0 .214 0 .331.012.004.002.026.002.031.002.138 0 .18-.123.196-.161.044-.118.074-.147.14-.147l.032.002c.027.002.053.01.098.024l.08.024c.018.001.03.003.04.005h.012c.04 0 .085-.017.11-.05a5.6 5.6 0 0 0 .285-.39.448.448 0 0 0 .074-.205c.003-.06-.034-.133-.089-.156zm1.934 1.242a1.072 1.072 0 0 0-.025.055c-.016.04 0 .085.017.121a.175.175 0 0 0 .109.074c.006 0 .01 0 .016.005a.145.145 0 0 0 .023.007l-.006.036v.016a.158.158 0 0 0 .055.142c.03.021.066.036.098.036a.11.11 0 0 0 .047-.01c.05-.021.093-.114.088-.171a.153.153 0 0 0-.125-.138.137.137 0 0 0 .001-.087.285.285 0 0 0-.083-.129.137.137 0 0 0-.09-.032.111.111 0 0 0-.025.003.138.138 0 0 0-.1.072zm-1.361-1.64a3.99 3.99 0 0 0-.439.1c.016.062.07.104.134.104h.006a1.026 1.026 0 0 0 .174-.02.154.154 0 0 0 .049-.025l.028-.025a.138.138 0 0 0 .048-.135zm.086.983a.138.138 0 0 0 .067-.018 1.53 1.53 0 0 1 .39-.167c.023-.003.048-.003.073-.003h.051a.607.607 0 0 1 .084.007l.058.002.058.002c.031 0 .056-.002.076-.003a.175.175 0 0 0 .101-.054.448.448 0 0 0 .044-.061c.017-.022.03-.045.05-.075.033-.05.065-.1.112-.146a.753.753 0 0 1 .071-.06l.035-.028a.139.139 0 0 0 .057-.099c0-.04-.015-.08-.042-.108a.306.306 0 0 0-.121-.068 1.869 1.869 0 0 0-.32-.05c-.035-.002-.064-.006-.093-.006a.5.5 0 0 0-.18.03.204.204 0 0 0-.058.03l-.02.015a.28.28 0 0 0-.078.047.198.198 0 0 0-.036.043.71.71 0 0 0-.032.058.289.289 0 0 1-.05.062c-.022.024-.046.041-.067.06-.018.016-.038.027-.066.048a.886.886 0 0 0-.144.118c-.105.103-.156.194-.16.281 0 .05.023.098.066.125a.154.154 0 0 0 .074.018z"/></svg>