<svg id="Icons" xmlns="http://www.w3.org/2000/svg" viewBox="0 0 32 32"><defs><style>.cls-1{fill:none}.cls-2{fill:#e5d255}.cls-3{fill:#f4eec8}.cls-4{fill:#c7552e}.cls-5{fill:#e5a894}.cls-6{fill:#c96b4b}.cls-7{fill:#f8f8f8}.cls-8{fill:#6d6e71}.cls-9{fill:#f3f4f4}.cls-10{fill:#e0e0e0}</style></defs><title>layersFeaturesHosted_32</title><path class="cls-1" d="M0 0h32v32H0z"/><path class="cls-2" d="M31.422 21.96L28.13 19.98 16.62 26.89a1.48 1.48 0 0 1-1.272 0L3.836 19.98l-3.29 1.977a.543.543 0 0 0 0 1.016l14.802 8.883a1.48 1.48 0 0 0 1.27 0l14.804-8.883a.54.54 0 0 0 0-1.014z"/><path class="cls-2" d="M31.422 15.494l-3.293-1.976-11.51 6.906a1.48 1.48 0 0 1-1.272 0L3.836 13.516l-3.29 1.976a.543.543 0 0 0 0 1.016l14.802 8.883a1.48 1.48 0 0 0 1.27 0l14.804-8.882a.54.54 0 0 0 0-1.014z"/><path class="cls-2" d="M31.422 9.027a.543.543 0 0 1 0 1.016L16.62 18.926a1.48 1.48 0 0 1-1.272 0L.545 10.043a.543.543 0 0 1 0-1.016L15.348.145a1.48 1.48 0 0 1 1.27 0z"/><path class="cls-2" d="M31.422 9.027a.543.543 0 0 1 0 1.016L16.62 18.926a1.48 1.48 0 0 1-1.272 0L.545 10.043a.543.543 0 0 1 0-1.016L15.348.145a1.48 1.48 0 0 1 1.27 0z"/><path class="cls-3" d="M15.348.144l-6.335 3.8c-.003.062-.013.12-.013.18v10.28a.997.997 0 0 0 .287.7l.44.45 5.62 3.372a1.48 1.48 0 0 0 1.272 0l3.263-1.96 1.83-1.86a.997.997 0 0 0 .287-.702V4.124a3.718 3.718 0 0 0-.1-.81L16.62.144a1.48 1.48 0 0 0-1.272 0z"/><path class="cls-4" d="M21 4.125C21 1.795 17.968 0 15.5 0S10 1.794 10 4.125v10.28L15.5 20l5.5-5.596z"/><path class="cls-5" d="M11 13.995v-9.87C11 2.472 13.517 1 15.5 1S20 2.472 20 4.125v9.87l-4.5 4.578z"/><path class="cls-6" d="M16 2.42v13.683l3-2.67V4.125c0-.545-1.648-1.502-3-1.706z"/><circle class="cls-7" cx="15.5" cy="6.5" r="2.5"/><path class="cls-8" d="M18 22.117v7.14C18 30.772 20.428 32 24.9 32s7.1-1.23 7.1-2.742v-7.14z"/><path class="cls-9" d="M24.898 31C20.15 31 19 29.663 19 29.258v-6.14h12v6.14C31 29.705 29.56 31 24.898 31z"/><path class="cls-10" d="M27 30.936c3.285-.264 4-1.29 4-1.678v-5.883h-4z"/><path class="cls-8" d="M32 22.117c0 1.514-2.627 2.742-7.1 2.742S18 23.63 18 22.116s2.428-2.742 6.9-2.742 7.1 1.23 7.1 2.742z"/><path class="cls-9" d="M24.898 23.86C20.15 23.86 19 22.522 19 22.116c0-.406 1.15-1.742 5.898-1.742 4.66 0 6.102 1.294 6.102 1.742 0 .447-1.44 1.742-6.102 1.742z"/></svg>