<svg xmlns="http://www.w3.org/2000/svg" viewBox="0 0 32 32"><path fill="none" d="M0 0h32v32H0z"/><path fill="#e5d255" d="m31.422 21.959-3.293-1.977-11.51 6.907c-.316.191-.955.191-1.271 0L3.836 19.98.545 21.956c-.467.28-.467.736 0 1.016l14.803 8.883c.316.19.955.19 1.271 0l14.803-8.883c.469-.28.469-.733 0-1.014z"/><path fill="#e5d255" d="m31.422 15.494-3.293-1.976-11.51 6.906c-.316.191-.955.191-1.271 0L3.836 13.516.545 15.492c-.467.28-.467.736 0 1.016l14.803 8.883c.316.191.955.191 1.271 0l14.803-8.883c.469-.28.469-.733 0-1.014z"/><path fill="#e5d255" d="M31.422 9.027c.469.282.469.735 0 1.016l-14.803 8.883c-.316.191-.955.191-1.271 0L.545 10.043c-.467-.281-.467-.738 0-1.016L15.348.145c.316-.192.955-.192 1.271 0l14.803 8.882z"/></svg>