<svg xmlns="http://www.w3.org/2000/svg" viewBox="0 0 32 32"><path fill="#e9d133" d="m31.422 21.959-3.293-1.977-11.51 6.907c-.316.191-.955.191-1.271 0L3.836 19.98.545 21.956c-.467.28-.467.736 0 1.016l14.803 8.883c.316.19.955.19 1.271 0l14.803-8.883c.469-.28.469-.733 0-1.014z"/><path fill="#e9d133" d="m31.422 15.494-3.293-1.976-11.51 6.906c-.316.191-.955.191-1.271 0L3.836 13.516.545 15.492c-.467.28-.467.736 0 1.016l14.803 8.883c.316.191.955.191 1.271 0l14.803-8.883c.469-.28.469-.733 0-1.014z"/><path fill="#e9d133" d="M31.422 9.027c.469.282.469.735 0 1.016l-14.803 8.883c-.316.191-.955.191-1.271 0L.545 10.043c-.467-.281-.467-.738 0-1.016L15.348.145c.316-.192.955-.192 1.271 0l14.803 8.882z"/><path fill="#6e6e6e" d="M16 16h16v16H16z"/><path fill="#cdebfb" d="M18 18h13v13H18z"/><path fill="#90c399" d="M31 31v-4.087a3.013 3.013 0 0 1-.685.087h-.54c-.283 0-.554.111-.777-.084-.227-.197-.22-.528-.53-.528-.413 0-.445.653-.859.653-.187 0-.183-.117-.37-.117-.167 0-.239.122-.239.288v.43c0 .363-.578.435-.578.798 0 .149.087.205.087.354 0 .496-.906.43-.906.926 0 .162.05.26.055.416.002.008-.004.014-.004.024 0 .186-.062.84-.154.84H31zm-7.557-.164c0-.26.082-.444.15-.644a1.42 1.42 0 0 0 .093-.478c0-.469-.895-.336-1.036-.617-.35-.698.594-.877.594-1.434 0-.137-.07-.418-.287-.441-.3-.03-.379.132-.682.132-.187 0-.375-.12-.375-.308 0-.33.264-.484.264-.815 0-.216-.088-.337-.088-.55 0-.293.215-.553.506-.553.277 0 .397.227.53.463.11.199.302.265.529.265.42 0 .683-.523.683-.837 0-.215.16-.42.375-.42.297 0 .408.308.705.308.49 0 .473-.648.905-.88.529-.286.375-.905.308-1.235-.03-.147.248-.43.397-.42.617.045.353-.46.353-.705a.35.35 0 0 1 .02-.121c.095-.283.51-.375.51-.717 0-.24-.2-.352-.2-.594 0-.359.531-.971 1.086-1.235.127-.06.195-1 .235-1H18v13h5.453c-.006 0-.01-.135-.01-.164z"/><path fill="#f8f8f8" d="M17 17v14h14V17H17zm13 13H18V18h12v12z"/></svg>