<svg id="Icons" xmlns="http://www.w3.org/2000/svg" viewBox="0 0 32 32"><defs><style>.cls-1{fill:none}.cls-2{fill:#e5d255}.cls-3{fill:#6d6e71}.cls-4{fill:#d3eaf9}.cls-5{fill:#6db5e3}.cls-6{fill:#5b945a}.cls-7{fill:#ddeedb}.cls-8{fill:#e89d48;fill-rule:evenodd}</style></defs><title>layerMapImage_32</title><path class="cls-1" d="M0 0h32v32H0z"/><path class="cls-2" d="M31 28s-6-3-15 0-15 0-15 0L5 4s6 2 11 0 11 0 11 0z"/><path class="cls-3" d="M8.11 27.233a18.57 18.57 0 0 1-4.864-.546L6.618 6.46a22.82 22.82 0 0 0 4.308.43 15.625 15.625 0 0 0 5.817-1.033 11.658 11.658 0 0 1 4.33-.746 19.106 19.106 0 0 1 4.165.486l3.256 19.537a23.232 23.232 0 0 0-4.605-.366 26.778 26.778 0 0 0-8.523 1.336 22.785 22.785 0 0 1-7.256 1.13z"/><path class="cls-4" d="M8.11 25.934a17.36 17.36 0 0 1-3.383-.226l2.96-17.752a23.387 23.387 0 0 0 3.24.232 16.918 16.918 0 0 0 6.3-1.124 10.37 10.37 0 0 1 3.847-.653 17.23 17.23 0 0 1 3.03.28l2.81 16.863a24.635 24.635 0 0 0-3.025-.086 28.062 28.062 0 0 0-8.934 1.403 21.496 21.496 0 0 1-6.845 1.064z"/><path class="cls-5" d="M26.62 21.716l-.098-.594a6.676 6.676 0 0 1-1.82.263 6.372 6.372 0 0 1-2.057-.346 8.775 8.775 0 0 1-4.102-3.103 8.61 8.61 0 0 0-1.046-1.15c-.082-.005-.33-.006-.346-.006a5.94 5.94 0 0 1-3.407-.864 5.904 5.904 0 0 1-1.967-2.4 8.93 8.93 0 0 0-4.29 2.135 2.23 2.23 0 0 1-.297.25 1.786 1.786 0 0 1-.882.325l-.104.624a2.36 2.36 0 0 0 1.33-.46 2.764 2.764 0 0 0 .38-.317 8.515 8.515 0 0 1 3.537-1.883 6.14 6.14 0 0 0 1.96 2.224 6.474 6.474 0 0 0 3.74.967c.01 0 .058.002.117.002.238.23.563.63.813.936a9.29 9.29 0 0 0 4.372 3.29 6.99 6.99 0 0 0 2.25.376 7.23 7.23 0 0 0 1.92-.268z"/><path class="cls-6" d="M25.238 5.596a19.106 19.106 0 0 0-4.164-.485 11.658 11.658 0 0 0-4.33.747 15.625 15.625 0 0 1-5.818 1.032 22.82 22.82 0 0 1-4.308-.43L5.19 15.015c1.065-.51 2.13-1.038 2.218-1.1a9.71 9.71 0 0 1 4.67-1.836 1.388 1.388 0 0 1 .536.083 3.52 3.52 0 0 1 .364.626 4.78 4.78 0 0 0 1.545 1.964 4.57 4.57 0 0 0 2.63.628 3.125 3.125 0 0 1 .86.078 6.197 6.197 0 0 1 1.616 1.593 7.823 7.823 0 0 0 3.482 2.845 4.95 4.95 0 0 0 1.626.276 5.35 5.35 0 0 0 1.72-.297c.15-.05.58-.213 1.09-.425z"/><path class="cls-7" d="M26.143 18.93l-2.04-12.24a17.23 17.23 0 0 0-3.03-.28 10.37 10.37 0 0 0-3.847.654A16.717 16.717 0 0 1 10.97 8a23.387 23.387 0 0 1-3.24-.232l-.902 5.335a10.632 10.632 0 0 1 5.25-2.023 2.258 2.258 0 0 1 1.023.21c.31.164.497.504.77 1.046a3.834 3.834 0 0 0 1.21 1.587 3.63 3.63 0 0 0 2.077.46 2.96 2.96 0 0 1 1.315.188 6.816 6.816 0 0 1 1.933 1.853 6.944 6.944 0 0 0 3.03 2.53 3.968 3.968 0 0 0 1.303.22 4.408 4.408 0 0 0 1.405-.244z"/><path class="cls-8" d="M21 13.195a.933.933 0 0 1 .97-.775.892.892 0 0 1 .98.727.903.903 0 0 1-.97.853.863.863 0 0 1-.98-.805zM17 9.777a.933.933 0 0 1 .97-.775.892.892 0 0 1 .98.727.903.903 0 0 1-.97.852.863.863 0 0 1-.98-.805z"/></svg>