<svg id="Icons" xmlns="http://www.w3.org/2000/svg" viewBox="0 0 32 32"><defs><style>.cls-1{fill:none}.cls-2{fill:#6d6e71}.cls-3{fill:#d3eaf9}.cls-4{fill:#9bc29c}.cls-5{fill:#f8f8f8}</style></defs><title>map32</title><path class="cls-1" d="M0 0h32v32H0z"/><path class="cls-2" d="M1 1h30v30H1z"/><path class="cls-3" d="M2 2h28v28H2z"/><path class="cls-4" d="M30 30v-9.54c-.632.175-1.39.54-1.6.54h-1.258a2.48 2.48 0 0 1-1.813-.365c-.528-.463-.517-1.314-1.236-1.314-.965 0-1.04 1.48-2.006 1.48-.438 0-.762-.29-1.198-.29-.386 0-.89.263-.89.648v1.004c0 .848-1.013 1.016-1.013 1.865 0 .346.368.475.368.823 0 1.156-1.784 1.002-1.784 2.16 0 .38-.57.607.43.972v.057c0 .43-.618 1.206-.833 1.96zM12.367 29.62a4.267 4.267 0 0 1 .352-1.51 3.257 3.257 0 0 0 .212-1.114c0-1.094-2.09-.787-2.417-1.44-.814-1.626 1.388-2.044 1.388-3.343 0-.322-.166-.98-.67-1.03-.702-.072-.885.31-1.592.31a.81.81 0 0 1-.873-.72c0-.773.616-1.132.616-1.904 0-.503-.205-.786-.205-1.286a1.238 1.238 0 0 1 1.182-1.287c.644 0 .926.527 1.235 1.08a1.282 1.282 0 0 0 1.234.617c.977 0 1.594-1.22 1.594-1.955a.943.943 0 0 1 .875-.978c.692 0 .95.72 1.644.72 1.144 0 1.102-1.513 2.11-2.057 1.233-.668.874-2.108.718-2.88-.066-.34.58-1 .928-.978 1.44.104.822-1.078.822-1.646a.887.887 0 0 1 .046-.283c.223-.662 1.19-.873 1.19-1.67 0-.566-.465-.824-.465-1.388 0-.837 1.238-1.59 2.535-2.204A1.032 1.032 0 0 0 25.374 2H2v28h10.393a5.517 5.517 0 0 1-.026-.38z"/><path class="cls-5" d="M2 2v28h28V2zm27 27H3V3h26z"/></svg>