<svg id="Icons" xmlns="http://www.w3.org/2000/svg" viewBox="0 0 32 32"><defs><style>.cls-1{fill:none}.cls-2{fill:#e5d255}.cls-3{fill:#6d6e71}.cls-4{fill:#d3eaf9}.cls-5{fill:#9bc29c}.cls-6{fill:#f4eec8}</style></defs><title>layerTiles32</title><path class="cls-1" d="M0 0h32v32H0z"/><path class="cls-2" d="M31 28s-6-3-15 0-15 0-15 0L5 4s6 2 11 0 11 0 11 0z"/><path class="cls-3" d="M16 8h9v9h-9z"/><path class="cls-3" d="M8 16h9v9H8z"/><path class="cls-3" d="M16 16h9v9h-9z"/><path class="cls-4" d="M17 9h7v7h-7zM9 17h7v7H9z"/><path class="cls-5" d="M17 17h7v7h-7zM14.29 20.762c0 .412.376.658.376 1.053v.06c0 .47-.67 1.31-.902 2.125H16v-4.865c-.567.542-1.71.683-1.71 1.627z"/><path class="cls-6" d="M8 8h8v8H8z"/><path class="cls-3" d="M6 6h9v9H6z"/><path class="cls-4" d="M7 7h7v7H7z"/><path class="cls-5" d="M7 12.655c.02.002.04.007.063.007 1.06 0 1.727-1.322 1.727-2.12a1.02 1.02 0 0 1 .948-1.057c.752 0 1.03.783 1.783.783 1.24 0 1.195-1.64 2.287-2.232A2.075 2.075 0 0 0 14 7.898V7H7z"/></svg>