<svg xmlns="http://www.w3.org/2000/svg" viewBox="0 0 32 32"><defs><style>.cls-1{fill:none}.cls-2{fill:#e5d255}.cls-3{fill:#f4eec8}.cls-4{fill:#595959}.cls-5{fill:#bddbee}.cls-6{fill:#f0e498}</style></defs><title>markup32</title><g id="Icons"><path class="cls-1" d="M0 0h32v32H0z"/><path class="cls-2" d="M31 28s-6-3-15 0-15 0-15 0L5 4s6 2 11 0 11 0 11 0z"/><path class="cls-3" d="M10.497 11.775a28.05 28.05 0 0 1-3.34-.21.998.998 0 0 1-.865-1.157l.16-.96a.998.998 0 0 1 1.137-.823 22.24 22.24 0 0 0 3.336.262 15.645 15.645 0 0 0 5.817-1.032 11.67 11.67 0 0 1 4.33-.746 18.495 18.495 0 0 1 3.48.343.998.998 0 0 1 .798.818l.132.792a1 1 0 0 1-.986 1.165 1.222 1.222 0 0 1-.146-.01 19.342 19.342 0 0 0-2.818-.22 11.536 11.536 0 0 0-3.96.614 20.464 20.464 0 0 1-7.075 1.165z"/><path class="cls-4" d="M10.497 10.775a19.473 19.473 0 0 0 6.73-1.103 12.523 12.523 0 0 1 4.305-.674 20.356 20.356 0 0 1 2.964.23l-.132-.792a17.667 17.667 0 0 0-3.29-.327 10.68 10.68 0 0 0-3.96.673 16.612 16.612 0 0 1-6.188 1.104 23.28 23.28 0 0 1-3.488-.274l-.16.96a27.096 27.096 0 0 0 3.22.202z"/><path class="cls-3" d="M16.486 23.674a.998.998 0 0 1-1-1v-7.37a1 1 0 0 1 .714-.958 26.173 26.173 0 0 1 7.476-1.145c.57 0 1.112.023 1.63.06a1 1 0 0 1 .917.834l1.25 7.498a1 1 0 0 1-.987 1.164c-.042 0-.084-.004-.126-.008a20.968 20.968 0 0 0-2.684-.176 24.184 24.184 0 0 0-6.904 1.06 1.027 1.027 0 0 1-.286.042z"/><path class="cls-4" d="M26.486 21.756l-1.25-7.498a22.01 22.01 0 0 0-1.56-.057 25.132 25.132 0 0 0-7.19 1.105v7.37a25.2 25.2 0 0 1 7.19-1.103 22.125 22.125 0 0 1 2.81.184z"/><path class="cls-5" d="M17.486 16.06a23.792 23.792 0 0 1 6.19-.86q.362 0 .706.013l.903 5.418c-.543-.038-1.076-.058-1.61-.058a25.613 25.613 0 0 0-6.19.79z"/><path class="cls-3" d="M14 20.443a4.748 4.748 0 0 1-5 4.446 4.748 4.748 0 0 1-5-4.447A4.747 4.747 0 0 1 9 16a4.747 4.747 0 0 1 5 4.443z"/><path class="cls-4" d="M9 23.89a3.757 3.757 0 0 1-4-3.447A3.757 3.757 0 0 1 9 17a3.757 3.757 0 0 1 4 3.443 3.757 3.757 0 0 1-4 3.446z"/><path class="cls-6" d="M9 22.89a2.77 2.77 0 0 1-3-2.447A2.768 2.768 0 0 1 9 18a2.768 2.768 0 0 1 3 2.443 2.77 2.77 0 0 1-3 2.446z"/></g></svg>