<svg xmlns="http://www.w3.org/2000/svg" viewBox="0 0 32 32"><defs><style>.cls-1{fill:#e5d255;}.cls-2{fill:none;}.cls-3{fill:#ddeedb;}.cls-4{fill:#449443;}</style></defs><g id="Icons"><path class="cls-1" d="M31,28s-6-3-15,0S1,28,1,28L5,4s6,2,11,0S27,4,27,4Z"/><rect class="cls-2" width="32" height="32"/><rect class="cls-2" width="32" height="32"/><path class="cls-3" d="M15.501,25.8A9.3,9.3,0,1,1,24.8,16.50191,9.31007,9.31007,0,0,1,15.501,25.8Z"/><path class="cls-4" d="M15.50075,25A8.5,8.5,0,1,1,24,16.50151,8.50924,8.50924,0,0,1,15.50075,25Z"/><polygon class="cls-3" points="18.999 16.498 13 12 13 20.998 18.999 16.498"/></g></svg>