<svg xmlns="http://www.w3.org/2000/svg" id="uuid-8b7d8c9b-0f37-476f-a6da-ae0c1c4bd191" viewBox="0 0 32 32"><defs><style>.uuid-92b54dcf-0454-41ec-9b03-883c07af2c48{fill:#f8f8f8}</style></defs><path d="M16 14.4s-3.2-1.601-8 0c-4.799 1.6-8 0-8 0L2.133 1.6S5.334 2.666 8 1.6s5.867 0 5.867 0L16 14.4Z" style="fill:#e9d133"/><path d="M3.793 14.111a9.535 9.535 0 0 1-2.67-.363L2.94 2.833c.62.123 1.446.24 2.353.24 1.137 0 2.172-.183 3.078-.545.667-.267 1.453-.403 2.334-.403.923 0 1.757.15 2.28.272l1.76 10.56a11.897 11.897 0 0 0-2.538-.269c-1.484 0-3.006.257-4.524.764-1.313.438-2.622.66-3.891.66Z" class="uuid-92b54dcf-0454-41ec-9b03-883c07af2c48"/><path d="M3.793 13.111a9.156 9.156 0 0 1-1.53-.126l1.501-9.007c.52.063 1.03.096 1.53.096 1.264 0 2.425-.208 3.449-.617.55-.22 1.21-.332 1.963-.332.514 0 .999.053 1.408.12l1.418 8.509a13.204 13.204 0 0 0-1.324-.066c-1.592 0-3.221.275-4.841.816-1.21.403-2.413.607-3.574.607Z" style="fill:#cdebfb"/><circle cx="10" cy="5" r="2" class="uuid-92b54dcf-0454-41ec-9b03-883c07af2c48"/><circle cx="10" cy="5" r="1" style="fill:#ddc329"/><path d="M13.193 9.72C12.175 8.393 11.1 7.03 10.75 7c-.656-.055-1.703 2.088-2.25 1.924-.268-.08-.401-.632-1.5-2-.583-.727-.875-1-1.636.11-.38.554-1.707 1.535-2.447 2.03l-.653 3.921c.426.073.94.126 1.529.126 1.161 0 2.364-.204 3.574-.607 1.62-.541 3.249-.816 4.84-.816.447 0 .889.022 1.325.066l-.34-2.034Z" style="fill:#4fac5f"/></svg>
