<svg id="Icons" xmlns="http://www.w3.org/2000/svg" viewBox="0 0 32 32"><defs><style>.cls-1{fill:none;}.cls-2{fill:#6e6e6e;}.cls-3{fill:#f8f8f8;}.cls-4{fill:#828282;}.cls-5{fill:#a9a9a9;}.cls-6{fill:#959595;}.cls-7{fill:#ccc;}.cls-8{fill:#9e47d0;}</style></defs><rect class="cls-1" width="32" height="32"/><polygon class="cls-2" points="27 31 3 31 3 1 20.3 1 27 7.7 27 31"/><polygon class="cls-3" points="26 7.99 20.01 2 4 2 4 30 26 30 26 7.99"/><rect class="cls-4" x="6" y="11" width="18" height="16"/><rect class="cls-3" x="7" y="14" width="16" height="10"/><rect class="cls-2" x="19" y="2" width="1" height="7"/><rect class="cls-2" x="19" y="8" width="8" height="1"/><rect class="cls-5" x="7" y="12" width="16" height="2"/><rect class="cls-6" x="7" y="11" width="16" height="1"/><rect class="cls-7" x="7" y="16" width="16" height="2"/><rect class="cls-7" x="7" y="20" width="16" height="2"/><rect class="cls-7" x="7" y="24" width="16" height="2"/><rect class="cls-4" x="6" y="7" width="11" height="1"/><rect class="cls-4" x="6" y="4" width="11" height="1"/><rect class="cls-1" width="32" height="32"/><path class="cls-3" d="M25,13.65a3,3,0,0,0-.82-1.73L24,11.78V11H22a3,3,0,0,0-2.16.92A3,3,0,0,0,19,13.65l-5.68,5.68a1.28,1.28,0,0,0-.27,0,1.32,1.32,0,0,0-.72.21A3,3,0,0,0,13.65,25L19,30.35a2.94,2.94,0,0,0,.16.65H27V15.67Z"/><path class="cls-8" d="M29.92,20H30a2,2,0,0,1,1.1,3.67.3.3,0,0,1-.38,0l-.85-.84L28.2,21.12l-5.49-5.5a1,1,0,0,0-1.42,0L17.2,19.71a.29.29,0,0,1-.42,0l-1-1a.29.29,0,0,1,0-.42L20,14.08a2,2,0,1,1,4,0ZM20,29.92a2,2,0,1,0,4,0l4.24-4.25a.3.3,0,0,0,0-.43l-1-1a.3.3,0,0,0-.43,0l-4.12,4.12a1,1,0,0,1-1.42,0l-5.49-5.5-2.52-2.51a.3.3,0,0,0-.38,0A2,2,0,0,0,14,24h.08Zm2.35-5.45,2.12-2.12a.48.48,0,0,0,0-.7l-2.12-2.12a.48.48,0,0,0-.7,0l-2.12,2.12a.48.48,0,0,0,0,.7l2.12,2.12A.48.48,0,0,0,22.35,24.47Z"/></svg>