<svg id="Icons" xmlns="http://www.w3.org/2000/svg" viewBox="0 0 32 32"><defs><style>.cls-1{fill:none;}.cls-2{fill:#57a6d9;}.cls-3{fill:#bddbee;}.cls-4{fill:#f8f8f8;}.cls-5{fill:#9e47d0;}</style></defs><title>Mission32</title><rect class="cls-1" width="32" height="32"/><path class="cls-2" d="M21,6V4H11V6H1V28H31V6ZM12,6V5h8V6Z"/><rect class="cls-3" x="2" y="7" width="28" height="20"/><rect class="cls-4" x="2" y="7" width="28" height="3"/><rect class="cls-2" x="2" y="10" width="28" height="1"/><path class="cls-4" d="M30.62158,19.06445l-.29-.06152-5.334-5.334-.061-.292a2.9741,2.9741,0,0,0-.77246-1.4541,2.99933,2.99933,0,0,0-4.32861,0,2.97726,2.97726,0,0,0-.772,1.4541l-.06006.28711-5.5166,5.61426h-.41944a1.29947,1.29947,0,0,0-.71289.21289,3.00074,3.00074,0,0,0,1.02393,5.44434l.29.06152L16.67139,28H31V19.17993A2.93888,2.93888,0,0,0,30.62158,19.06445Z"/><path class="cls-5" d="M29.92487,20.0108c.02587-.001.049-.0108.07513-.0108a2.00017,2.00017,0,0,1,1.09656,3.67285A.29953.29953,0,0,1,30.72,23.634l-.84808-.84808-1.66761-1.6676-5.49719-5.4972a1,1,0,0,0-1.41418,0l-4.0882,4.0882a.3.3,0,0,1-.42431,0l-.98975-.98981a.29992.29992,0,0,1,0-.42425l4.21108-4.21108a2,2,0,1,1,3.99654,0Zm-9.92314,9.905a2,2,0,1,0,3.99654,0l4.2466-4.24666a.29994.29994,0,0,0,0-.42426l-.98974-.9898a.30012.30012,0,0,0-.42432,0l-4.12372,4.12378a1,1,0,0,1-1.41418,0l-5.49719-5.4972L13.28,20.366a.29938.29938,0,0,0-.37659-.03882A2.00017,2.00017,0,0,0,14,24c.02612,0,.04926-.00983.07513-.0108Zm2.35185-5.44094,2.12127-2.12133a.49989.49989,0,0,0,0-.7071l-2.12127-2.12133a.50007.50007,0,0,0-.70716,0l-2.12127,2.12133a.49989.49989,0,0,0,0,.7071l2.12127,2.12133A.50009.50009,0,0,0,22.35358,24.47485Z"/></svg>