<svg id="Icons" xmlns="http://www.w3.org/2000/svg" viewBox="0 0 16 16"><defs><style>.cls-1{fill:#57a6d9;}.cls-2{fill:#bddbee;}.cls-3{fill:#f8f8f8;}.cls-4{fill:none;}.cls-5{fill:#9e47d0;}</style></defs><title>Mission16</title><path class="cls-1" d="M10.901,3,10.9,1H4.101V3H0V14H15V3Zm-6,0V2h5.2V3Z"/><rect class="cls-2" x="1" y="4" width="13" height="9"/><rect class="cls-3" x="1" y="4" width="13" height="2"/><rect class="cls-4" width="16" height="16"/><rect class="cls-1" x="1" y="6" width="14" height="1"/><path class="cls-3" d="M12.95752,6.58691a1.97934,1.97934,0,0,0-.51465-.97168,1.99956,1.99956,0,0,0-2.88574,0,1.97516,1.97516,0,0,0-.51465.97168l-1.854,1.85352A1.13811,1.13811,0,0,0,6.862,9.203a1.13779,1.13779,0,0,0-.32782-.06433,1.31611,1.31611,0,0,0-.62939.18848A1.99981,1.99981,0,0,0,6.58594,12.957L7.62909,14H15V8.629Z"/><path class="cls-5" d="M14.96243,10.0054C14.97537,10.00491,14.98694,10,15,10a1.00009,1.00009,0,0,1,.54828,1.83643A.14977.14977,0,0,1,15.36,11.817l-.424-.424-.8338-.8338L11.35355,7.81058a.5.5,0,0,0-.7071,0L8.60236,9.85468a.15.15,0,0,1-.21216,0l-.49488-.49491a.15.15,0,0,1,0-.21213L10.00086,7.0421a1,1,0,1,1,1.99828,0Zm-4.96156,4.9525a1,1,0,1,0,1.99827,0l2.1233-2.12334a.15.15,0,0,0,0-.21212l-.49488-.49491a.15006.15006,0,0,0-.21215,0l-2.06186,2.06189a.5.5,0,0,1-.7071,0L7.89786,11.44083,6.64,10.183a.14969.14969,0,0,0-.18829-.01941A1.00009,1.00009,0,0,0,7,12c.01306,0,.02463-.00491.03757-.0054Zm1.17592-2.72047,1.06064-1.06067a.25.25,0,0,0,0-.35355L11.17679,9.76254a.25005.25005,0,0,0-.35358,0L9.76257,10.82321a.25.25,0,0,0,0,.35355l1.06064,1.06067A.25005.25005,0,0,0,11.17679,12.23743Z"/></svg>