<svg id="Icons" xmlns="http://www.w3.org/2000/svg" viewBox="0 0 16 16"><defs><style>.cls-1{fill:none;}.cls-2{fill:#6e6e6e;}.cls-3{fill:#f8f8f8;}.cls-4{fill:#828282;}.cls-5{fill:#959595;}.cls-6{fill:#a9a9a9;}.cls-7{fill:#ccc;}.cls-8{fill:#9e47d0;}</style></defs><rect class="cls-1" width="16" height="16"/><polygon class="cls-2" points="14 16 1 16 1 0 10.4 0 14 3.6 14 16"/><polygon class="cls-3" points="10.31 1 2 1 2 15 13 15 13 3.69 10.31 1"/><rect class="cls-4" x="3" y="6" width="9" height="8"/><rect class="cls-2" x="9" y="1" width="1" height="4"/><rect class="cls-2" x="9" y="4" width="5" height="1"/><rect class="cls-5" x="4" y="6" width="7" height="1"/><rect class="cls-4" x="3" y="2" width="5" height="1"/><rect class="cls-4" x="3" y="4" width="5" height="1"/><rect class="cls-3" x="4" y="7" width="7" height="6"/><rect class="cls-6" x="4" y="7" width="7" height="1"/><rect class="cls-7" x="4" y="11" width="7" height="1"/><rect class="cls-7" x="4" y="9" width="7" height="1"/><path class="cls-3" d="M13,6.59a1.92,1.92,0,0,0-.52-1,2,2,0,0,0-2.88,0,1.92,1.92,0,0,0-.52,1L7.19,8.44a1.16,1.16,0,0,0-.34.74,1.12,1.12,0,0,0-.32,0,1.25,1.25,0,0,0-.62.19A2,2,0,0,0,5,11a2,2,0,0,0,1.59,2L9,15.41a2,2,0,0,0,.24.59H14V7.63Z"/><path class="cls-8" d="M15,10h0a1,1,0,0,1,.55,1.84.15.15,0,0,1-.19,0l-.42-.43-.84-.83L11.35,7.81a.5.5,0,0,0-.7,0l-2.05,2a.15.15,0,0,1-.21,0L7.9,9.36a.15.15,0,0,1,0-.21L10,7a1,1,0,1,1,2,0Zm-5,5a1,1,0,1,0,2,0l2.12-2.13a.14.14,0,0,0,0-.21l-.49-.49a.14.14,0,0,0-.21,0l-2.07,2.06a.5.5,0,0,1-.7,0L7.9,11.44,6.64,10.18a.15.15,0,0,0-.19,0A1,1,0,0,0,7,12H7Zm1.18-2.72,1.06-1.06a.25.25,0,0,0,0-.36L11.18,9.76a.25.25,0,0,0-.36,0L9.76,10.82a.25.25,0,0,0,0,.36l1.06,1.06A.25.25,0,0,0,11.18,12.24Z"/></svg>