<svg xmlns="http://www.w3.org/2000/svg" viewBox="0 0 16 16"><defs><style>.cls-1,.cls-8{fill:#595959}.cls-2{fill:#d3eaf9}.cls-3{fill:#e0e0e0}.cls-4{fill:none}.cls-5,.cls-6{fill:#d3b490}.cls-10,.cls-6,.cls-8{fill-rule:evenodd}.cls-7{fill:#e9ded4}.cls-9{fill:#5b945a}.cls-10,.cls-12{fill:#f8f8f8}.cls-11{fill:#6e6e6e}</style></defs><title>MobileSceneLayerPackage16</title><g id="Icons"><circle class="cls-1" cx="8" cy="4" r="4"/><circle class="cls-2" cx="8" cy="4" r="3.125"/><path class="cls-1" d="M9.072 7.23a.346.346 0 0 1-.345-.3l-.005-.035a.844.844 0 0 1-.003-.086.64.64 0 0 1 .199-.393c.024-.025.053-.053.043-.178a.396.396 0 0 1-.099-.392l.004-.008a1.914 1.914 0 0 0-.207-.074.39.39 0 0 0-.084-.008 1.399 1.399 0 0 0-.16.014c-.054.005-.187.025-.191.025a2.537 2.537 0 0 1-.124.012.627.627 0 0 1-.392-.162.692.692 0 0 1-.215-.344.211.211 0 0 0-.046-.057s-.07-.064-.08-.076a.408.408 0 0 1-.05-.059.516.516 0 0 1-.072-.205.39.39 0 0 1-.004-.052.348.348 0 0 1 .11-.254.19.19 0 0 0 .024-.09.617.617 0 0 1 .016-.152.913.913 0 0 1 .065-.16.9.9 0 0 1 .423-.424l.063-.02a.457.457 0 0 1 .219-.28l.065-.064a.354.354 0 0 1-.046-.181 1.559 1.559 0 0 1 .01-.188.313.313 0 0 1 .135-.258.292.292 0 0 1 .182-.056c.02 0 .04.002.062.004a.376.376 0 0 1 .177-.325.436.436 0 0 0 .106-.08 1.178 1.178 0 0 1 .123-.127l-.063-.058a.35.35 0 0 1-.042-.45l.075-.162a.338.338 0 0 1 .047-.076.585.585 0 0 1 .304-.209.342.342 0 0 1 .078-.01.38.38 0 0 1 .114.02l.179.053a.347.347 0 0 1 .155-.104.403.403 0 0 1 .108-.015.343.343 0 0 1 .217.076 3.45 3.45 0 0 1 1.269 2.172.35.35 0 0 1-.08.28.353.353 0 0 1 .12.25 1.594 1.594 0 0 1-.08.362 1.432 1.432 0 0 1-.103.25.345.345 0 0 1-.175.164.359.359 0 0 1 .087.1.352.352 0 0 1 .013.32 2.605 2.605 0 0 1-.1.186 5.984 5.984 0 0 1-.16.236l-.052.076a1.813 1.813 0 0 0-.147.229 1.167 1.167 0 0 0-.06.176.624.624 0 0 1-.088.19 3.511 3.511 0 0 1-1.4.958.362.362 0 0 1-.12.02zm.518-3.6a.93.93 0 0 0 .172.076.36.36 0 0 1 .142-.103.383.383 0 0 1 .123-.024.365.365 0 0 1 .156.037.162.162 0 0 0 .044.012.206.206 0 0 0 .039-.012.425.425 0 0 1-.237-.103.351.351 0 0 1-.078.01.377.377 0 0 1-.093-.014.345.345 0 0 1-.24-.235 2.891 2.891 0 0 0-.076-.076.438.438 0 0 1-.071.028.356.356 0 0 1-.09.011.342.342 0 0 1-.21-.07.449.449 0 0 1-.058.02.353.353 0 0 1-.074.03.245.245 0 0 1-.029.063l-.005.01c.04-.004.081-.004.124-.004a1.088 1.088 0 0 1 .164.01.349.349 0 0 1 .297.334z"/><path class="cls-3" d="M9.067 6.85v-.028a.28.28 0 0 1 .099-.162.524.524 0 0 0 .143-.45.37.37 0 0 0-.121-.241l.006-.012a.49.49 0 0 0 .018-.057.383.383 0 0 0-.006-.21.294.294 0 0 0-.231-.206.443.443 0 0 0-.078-.02 1.33 1.33 0 0 1-.13-.03.604.604 0 0 0-.192-.026 1.742 1.742 0 0 0-.208.016l-.13.015-.048.01c-.037.004-.068.01-.09.01a.31.31 0 0 1-.17-.084.353.353 0 0 1-.102-.174.485.485 0 0 0-.134-.203l-.06-.057c-.017-.013-.02-.021-.022-.021a.165.165 0 0 1-.02-.064l-.001-.004a.495.495 0 0 0 .134-.344.238.238 0 0 1 .006-.067.838.838 0 0 1 .043-.103.624.624 0 0 1 .212-.234l.067-.022a.531.531 0 0 0 .09-.05.309.309 0 0 0 .105-.155c.016-.043.032-.06.115-.12a.51.51 0 0 0 .08-.067l.045-.05.026.014H8.51l.03.018a.386.386 0 0 0 .084.04.14.14 0 0 0 .04.009.304.304 0 0 0 .039.002.323.323 0 0 0 .062-.008l.023-.01a.185.185 0 0 0 .038-.017l.018-.01a.226.226 0 0 1 .084-.033 1.821 1.821 0 0 1 .202-.012l.032.002a.532.532 0 0 1 .08.006l-.001.017a.277.277 0 0 0 .002.043.255.255 0 0 0 .066.143 1.083 1.083 0 0 0 .496.232h.006a.208.208 0 0 0 .194-.094.331.331 0 0 0 .024-.054.783.783 0 0 0 .09.037.315.315 0 0 0 .095.017.622.622 0 0 0 .159-.035.28.28 0 0 1 .033-.011.197.197 0 0 0-.012.086.839.839 0 0 0 .035.16 1.039 1.039 0 0 0 .134.285.477.477 0 0 1 .02.053l.028.09.013.044c.016.059.033.112.049.157a.443.443 0 0 0 .034.076.21.21 0 0 0 .06.078.207.207 0 0 0 .115.049 1.543 1.543 0 0 1-.082.15c-.04.063-.094.14-.148.219l-.053.076a2.406 2.406 0 0 0-.178.285 1.605 1.605 0 0 0-.078.229.324.324 0 0 0-.013.049 3.107 3.107 0 0 1-1.258.86zm1.897-2.432a1.374 1.374 0 0 0-.32-.578.204.204 0 0 0-.036-.016.269.269 0 0 0 .056-.172.569.569 0 0 0-.055-.22.284.284 0 0 0-.245-.164.59.59 0 0 0-.08-.004h-.014a.282.282 0 0 0-.04-.06.212.212 0 0 0-.153-.085.188.188 0 0 0-.125.053.37.37 0 0 0-.074-.129 1.31 1.31 0 0 0-.115-.117.706.706 0 0 0-.117-.088.251.251 0 0 0-.072-.037.204.204 0 0 0-.049-.008.162.162 0 0 0-.092.031.169.169 0 0 0-.051.065.531.531 0 0 0-.048-.033.305.305 0 0 0-.168-.05.389.389 0 0 0-.22.073l-.007.006V2.86a.539.539 0 0 0-.035-.146.732.732 0 0 0 .218-.17.778.778 0 0 1 .088-.092l.03-.025a.447.447 0 0 0 .195.043.31.31 0 0 0 .32-.176.433.433 0 0 0 .037-.35.31.31 0 0 0-.142-.172l-.032-.02a.19.19 0 0 0-.16-.093.235.235 0 0 0-.143.053.286.286 0 0 0-.09.2v.038a.904.904 0 0 1-.07-.062.971.971 0 0 0 .044-.074l.065-.145.015-.023a.258.258 0 0 1 .095-.065l.122.035a.816.816 0 0 0 .243.051.19.19 0 0 0 .19-.135 3.131 3.131 0 0 1 1.143 1.955.282.282 0 0 0-.094.065.264.264 0 0 0-.058.218.216.216 0 0 0 .161.184l.027.01-.001.01a1.579 1.579 0 0 1-.064.248 1.19 1.19 0 0 1-.08.195zm-2.36-1.164a.047.047 0 0 1-.017-.002l-.059-.018a1.232 1.232 0 0 1 .008-.148v-.008a.835.835 0 0 0 .101.018l.043.002a.2.2 0 0 0 .035-.002l-.009.015a.15.15 0 0 0-.026.043.362.362 0 0 0-.017.037.247.247 0 0 1-.016.032.102.102 0 0 1-.022.027.048.048 0 0 1-.021.004z"/><path class="cls-4" d="M0 0h16v16H0z"/><path class="cls-5" d="M0 11h7v5H0z"/><path class="cls-6" d="M7 10H0l1.556-2h3.888L7 10z"/><path class="cls-7" d="M0 10h7v1H0z"/><path class="cls-8" d="M3.5 11.5L1 14h2v1h1v-1h2l-2.5-2.5z"/><path class="cls-7" d="M3 8h1v2H3z"/><path class="cls-9" d="M16 15l-1.001-1H8l-1 1v1h9v-1z"/><path class="cls-10" d="M8 8a3.967 3.967 0 0 0 2.62-1H8a.988.988 0 0 0-.973.867A3.969 3.969 0 0 0 8 8z"/><path class="cls-11" d="M8 8h3v7H8zm4 2h3v5h-3z"/><path class="cls-12" d="M9 9h1v6H9zm4 2h1v4h-1z"/><path class="cls-11" d="M13 8h1v2h-1z"/></g></svg>