<svg xmlns="http://www.w3.org/2000/svg" viewBox="0 0 32 32"><defs><style>.cls-1,.cls-12{fill:#595959}.cls-2{fill:#d3eaf9}.cls-3{fill:#6e6e6e}.cls-4{fill:#e0e0e0}.cls-5{fill:none}.cls-6{fill:#5b945a}.cls-7{fill:#9bc29c}.cls-10,.cls-8{fill:#d3b490}.cls-13,.cls-9{fill:#f8f8f8}.cls-10,.cls-12,.cls-9{fill-rule:evenodd}.cls-11{fill:#e9ded4}</style></defs><title>MobileSceneLayerPackage32</title><g id="Icons"><circle class="cls-1" cx="15.5" cy="9.5" r="8.5"/><path class="cls-2" d="M22.993 9.502A7.493 7.493 0 1 1 15.5 2.008a7.493 7.493 0 0 1 7.493 7.494z"/><path class="cls-3" d="M17.675 16.758a.313.313 0 0 1-.133-.037.322.322 0 0 1-.117-.17 2.235 2.235 0 0 1-.023-.184.836.836 0 0 1 .011-.254 1.269 1.269 0 0 1 .4-.687.63.63 0 0 0 .16-.572.259.259 0 0 0-.104-.18.554.554 0 0 1-.175-.565 1.198 1.198 0 0 1 .047-.138.292.292 0 0 0 .009-.223c-.006-.021-.023-.041-.103-.058a.832.832 0 0 0-.142-.034 2.93 2.93 0 0 1-.382-.097.963.963 0 0 0-.263-.03 2.952 2.952 0 0 0-.407.034l-.41.056a2.394 2.394 0 0 1-.307.03 1.271 1.271 0 0 1-.806-.342 1.438 1.438 0 0 1-.44-.711.551.551 0 0 0-.156-.213l-.131-.125a.766.766 0 0 1-.152-.172.984.984 0 0 1-.142-.416.873.873 0 0 1 .011-.242.53.53 0 0 1 .168-.284.552.552 0 0 0 .134-.365 1.202 1.202 0 0 1 .029-.3 1.68 1.68 0 0 1 .147-.377 1.91 1.91 0 0 1 .876-.877l.133-.047.088-.11a1.158 1.158 0 0 1 .504-.582.62.62 0 0 0 .112-.092l.057-.066a1.553 1.553 0 0 1 .11-.117.542.542 0 0 1-.156-.402 3.44 3.44 0 0 1 .027-.489 1.077 1.077 0 0 1 .067-.254.537.537 0 0 1 .499-.32c.017 0 .113.012.127.016a1.192 1.192 0 0 0 .223.048h.005a.988.988 0 0 0-.023-.068.584.584 0 0 1 .033-.56c-.023-.014-.044-.03-.067-.045a.549.549 0 0 1-.21-.405.532.532 0 0 1-.287-.664l.052-.113a.525.525 0 0 1 .373-.289c.022-.002.041-.002.06-.002a.525.525 0 0 1 .383.121.79.79 0 0 1 .236.358.534.534 0 0 1 .02.09.555.555 0 0 1 .212.304l.096-.09a1.257 1.257 0 0 1 .165-.135l.006-.005a3.642 3.642 0 0 1-.357-.31.592.592 0 0 1-.13-.636.885.885 0 0 1 .082-.134.96.96 0 0 0 .07-.118l.136-.3a1.257 1.257 0 0 1 .097-.168 1.098 1.098 0 0 1 .724-.414.817.817 0 0 1 .24.04s.35.104.396.12a.255.255 0 0 1 .085-.166.313.313 0 0 1 .17-.063.331.331 0 0 1 .14.041 7.578 7.578 0 0 1 3.292 5.569.215.215 0 0 1-.019.109c.036.03.004.074.013.123l.026.162c.01.145.016.234.016.324a7.618 7.618 0 0 1-.158 1.55.58.58 0 0 1-.41.316.435.435 0 0 1 .077.021.346.346 0 0 1 .14.107.33.33 0 0 1 .03.194 7.605 7.605 0 0 1-5.028 5.074zm.499-8.68a2.011 2.011 0 0 1 .455.045.565.565 0 0 1 .444.59 1.326 1.326 0 0 0 .663.394.523.523 0 0 1 .494-.36.575.575 0 0 1 .13.023h.015a.575.575 0 0 1 .203.074.624.624 0 0 0 .114.045l.059.002a.327.327 0 0 0 .144-.028c.098-.039.176-.068.29-.103a1.216 1.216 0 0 0-.083-.27.701.701 0 0 0-.198-.031H20.9a.62.62 0 0 1-.517-.213.533.533 0 0 1-.276.094.5.5 0 0 1-.465-.23.806.806 0 0 1-.128-.33s-.016-.026-.06-.079a2.376 2.376 0 0 0-.201-.205l-.047-.039a.562.562 0 0 1-.161.111.462.462 0 0 1-.233.051.542.542 0 0 1-.322-.101 1.827 1.827 0 0 0-.168-.124.46.46 0 0 0-.07-.005.29.29 0 0 0-.17.054l-.192-.093.107.199a.8.8 0 0 1-.299.27.645.645 0 0 1-.09.134c.012.014-.01.055-.036.102a.46.46 0 0 1-.047.072 1.054 1.054 0 0 1 .119-.018 4.385 4.385 0 0 1 .53-.03zm.72-2.746a.4.4 0 0 0 .162-.016l.054-.086a.414.414 0 0 0 .028-.345c-.03-.024-.07-.05-.108-.075l.002.038a.6.6 0 0 1-.154.484zm-8.528 9.658a.28.28 0 0 1-.171-.07A7.526 7.526 0 0 1 7.9 9.486a7.4 7.4 0 0 1 .074-.998.309.309 0 0 1 .176-.209.492.492 0 0 1 .286.104.945.945 0 0 1 .159.469.662.662 0 0 0 .142.351s.133.2.162.25a1.95 1.95 0 0 1 .167.336c.072.184.158.356.245.531l.049.104a4.92 4.92 0 0 1 .3.71 1.482 1.482 0 0 1 .05.688.935.935 0 0 0-.016.164c.012.034.065.079.181.159l.465.3a3.383 3.383 0 0 1 .875.696l.066.1a.559.559 0 0 1 .038.42.585.585 0 0 1-.26.318 1.85 1.85 0 0 0-.182.109c-.056.043-.056.05-.056.102.004.085.004.128.002.175a.826.826 0 0 1-.071.293.784.784 0 0 1-.14.219c-.006.004-.093.072-.1.076a.322.322 0 0 1-.146.037zM9.48 5.533a.297.297 0 0 1-.161-.058.31.31 0 0 1-.06-.32 7.61 7.61 0 0 1 2.723-2.401l.143-.022a1.567 1.567 0 0 0 .17-.088l.163-.105a1.747 1.747 0 0 1 .234-.113.84.84 0 0 1 .216-.055.654.654 0 0 1 .247.05.567.567 0 0 1 .333.546 1.076 1.076 0 0 1-.19.533c-.163.242-.41.584-.563.771a.535.535 0 0 1-.406.186l-.103-.012a1.197 1.197 0 0 1-.176-.04.886.886 0 0 0-.193-.052c-.002-.005-.004-.007-.006-.007-.01 0-.03.035-.063.123a.646.646 0 0 1-.616.476 6.17 6.17 0 0 0-.683-.029h-.017a.595.595 0 0 0-.396.246 1.144 1.144 0 0 1-.216.184 2.836 2.836 0 0 1-.168.107.364.364 0 0 1-.212.08zm4.854-1.492a.533.533 0 0 1-.259-.07.525.525 0 0 1-.261-.475 1.059 1.059 0 0 1 .383-.707 1.906 1.906 0 0 1 .309-.258l.115-.086a.862.862 0 0 0 .117-.097c.024-.045.09-.147.129-.201a.475.475 0 0 1 .098-.118.564.564 0 0 1 .143-.091l.198-.041a1.819 1.819 0 0 1 .194-.01 7.611 7.611 0 0 1 1.4.135.2.2 0 0 1 .118.068.486.486 0 0 1 .131.351.509.509 0 0 1-.208.383 1.698 1.698 0 0 0-.182.149 1.224 1.224 0 0 0-.175.232l-.093.148-.106.137a.597.597 0 0 1-.356.195 1.352 1.352 0 0 1-.18.012l-.498-.025a2.425 2.425 0 0 0-.754.297.533.533 0 0 1-.263.072z"/><path class="cls-4" d="M18.026 16.314a.41.41 0 0 1-.002-.064.647.647 0 0 1 .235-.383 1.245 1.245 0 0 0 .338-1.062.864.864 0 0 0-.285-.573.178.178 0 0 1 .014-.03.955.955 0 0 0 .041-.132.884.884 0 0 0-.015-.496.693.693 0 0 0-.545-.49 1.427 1.427 0 0 0-.183-.045 2.11 2.11 0 0 1-.31-.076 1.57 1.57 0 0 0-.454-.059 3.547 3.547 0 0 0-.49.04c-.101.01-.21.025-.31.038l-.112.02c-.089.01-.161.021-.212.021a.71.71 0 0 1-.402-.197.838.838 0 0 1-.244-.408 1.109 1.109 0 0 0-.317-.48l-.143-.135a.552.552 0 0 1-.05-.055.35.35 0 0 1-.05-.15v-.01a1.159 1.159 0 0 0 .318-.809.633.633 0 0 1 .012-.162 2.028 2.028 0 0 1 .103-.244 1.456 1.456 0 0 1 .501-.55l.158-.055a1.014 1.014 0 0 0 .213-.12.736.736 0 0 0 .25-.365c.037-.101.077-.146.271-.281a1.228 1.228 0 0 0 .192-.162l.104-.113c.005.001.05.027.06.03l-.007-.001.074.043a.964.964 0 0 0 .197.094.326.326 0 0 0 .095.021c.042.002.068.002.091.002a.635.635 0 0 0 .148-.02l.054-.017a.654.654 0 0 0 .09-.045l.042-.02a.505.505 0 0 1 .201-.082 4.327 4.327 0 0 1 .477-.027l.075.002a1.172 1.172 0 0 1 .19.018.239.239 0 0 0-.003.039.819.819 0 0 0 .005.103.587.587 0 0 0 .155.336 2.552 2.552 0 0 0 1.174.553h.014a.495.495 0 0 0 .46-.223.822.822 0 0 0 .057-.129 1.432 1.432 0 0 0 .211.086.689.689 0 0 0 .226.041 1.39 1.39 0 0 0 .377-.082l.077-.03a.495.495 0 0 0-.028.206 2.095 2.095 0 0 0 .082.379 2.477 2.477 0 0 0 .317.674 1.5 1.5 0 0 1 .048.12l.067.22.03.103c.037.139.078.264.115.371a1.684 1.684 0 0 0 .08.18.55.55 0 0 0 .145.185.51.51 0 0 0 .27.116 3.867 3.867 0 0 1-.194.355 13.33 13.33 0 0 1-.349.516l-.125.181a5.557 5.557 0 0 0-.421.676 3.75 3.75 0 0 0-.185.537c-.013.043-.023.08-.032.117a7.37 7.37 0 0 1-2.976 2.04 1.692 1.692 0 0 1-.01-.08zm-7.967-1.88a7.303 7.303 0 0 1-1.913-4.942v-.05c.022.038.187.285.212.327a1.392 1.392 0 0 1 .12.239c.081.21.178.404.274.596l.043.09a4.384 4.384 0 0 1 .268.632.875.875 0 0 1 .026.42 1.373 1.373 0 0 0-.022.266.642.642 0 0 0 .133.377 1.39 1.39 0 0 0 .324.273l.478.31a3.755 3.755 0 0 1 .675.503 1.926 1.926 0 0 0-.17.109.702.702 0 0 0-.312.606c.003.081.005.11.003.142a.223.223 0 0 1-.014.062l-.014.032zm12.453-3.87a3.275 3.275 0 0 0-.758-1.37.518.518 0 0 0-.084-.038.632.632 0 0 0 .132-.402 1.307 1.307 0 0 0-.13-.522.665.665 0 0 0-.58-.39 1.692 1.692 0 0 0-.188-.012l-.034.004a.644.644 0 0 0-.094-.147.499.499 0 0 0-.362-.197.447.447 0 0 0-.295.125.964.964 0 0 0-.175-.306 4.118 4.118 0 0 0-.273-.28 1.771 1.771 0 0 0-.276-.205.582.582 0 0 0-.17-.086.382.382 0 0 0-.116-.017.37.37 0 0 0-.218.07.379.379 0 0 0-.121.152c-.043-.033-.083-.058-.113-.078a.751.751 0 0 0-.4-.115.935.935 0 0 0-.518.17.113.113 0 0 0-.019.014V6.88a1.18 1.18 0 0 0-.082-.346 1.804 1.804 0 0 0 .517-.402 1.841 1.841 0 0 1 .207-.217l.072-.063a1.027 1.027 0 0 0 .46.104.731.731 0 0 0 .76-.418 1.025 1.025 0 0 0 .086-.826.736.736 0 0 0-.336-.406l-.076-.05a.455.455 0 0 0-.38-.22.545.545 0 0 0-.335.129.663.663 0 0 0-.217.47l.003.092a2.614 2.614 0 0 1-.166-.15 1.587 1.587 0 0 0 .105-.176l.152-.342a.568.568 0 0 0 .036-.054.638.638 0 0 1 .225-.154l.289.085a1.971 1.971 0 0 0 .574.12.449.449 0 0 0 .452-.319 7.408 7.408 0 0 1 2.702 4.625.585.585 0 0 0-.36.67.51.51 0 0 0 .381.436l.063.02a.192.192 0 0 1-.001.027 3.725 3.725 0 0 1-.152.586 2.876 2.876 0 0 1-.187.463zM16.93 7.81a.253.253 0 0 1-.04-.005s-.125-.037-.139-.043a3.203 3.203 0 0 1 .017-.35l.003-.02a1.877 1.877 0 0 0 .237.043c.008 0 .054.005.103.005.027 0 .057-.003.083-.005a.287.287 0 0 1-.022.034.423.423 0 0 0-.062.103.587.587 0 0 0-.04.088.781.781 0 0 1-.037.076.198.198 0 0 1-.053.06.088.088 0 0 1-.05.014zm-5.767-3.486a4.81 4.81 0 0 0-.69-.035.802.802 0 0 0-.18.02 7.255 7.255 0 0 1 1.472-1.145.367.367 0 0 0 .048.06.435.435 0 0 0 .322.137.691.691 0 0 0 .277-.068 2.137 2.137 0 0 0 .195-.105s.221-.145.232-.15a.789.789 0 0 1-.056.109c-.143.212-.349.498-.489.673l-.068-.017a1.364 1.364 0 0 0-.302-.072.717.717 0 0 0-.1-.008.665.665 0 0 0-.621.527.26.26 0 0 1-.04.074zm3.476-1.09a1.241 1.241 0 0 1 .229-.19l.048-.036a1.284 1.284 0 0 0 .104-.076 1.339 1.339 0 0 0 .16-.141.868.868 0 0 0 .152-.197.236.236 0 0 0 .029-.06l.027-.038a.4.4 0 0 1 .072-.043.228.228 0 0 0 .053-.031 1.3 1.3 0 0 0 .056-.043.97.97 0 0 1 .22-.026c.044 0 .092.004.149.008a2.935 2.935 0 0 1 .486.073 1 1 0 0 0-.1.09 1.816 1.816 0 0 0-.268.343l-.089.14a.982.982 0 0 1-.065.089c.01-.026-.015-.026-.05-.026l-.103-.002-.103-.006a1.578 1.578 0 0 0-.177-.011l-.103-.004a1.027 1.027 0 0 0-.211.017 2.447 2.447 0 0 0-.535.188.078.078 0 0 1 .019-.018z"/><path class="cls-5" d="M17 16h16v16H17z"/><path class="cls-6" d="M17 32h15l-2.344-7H19.344L17 32z"/><path class="cls-7" d="M18.52 31l1.623-5h8.714l1.623 5H18.52z"/><path class="cls-5" d="M0 0h32v32H0z"/><path class="cls-8" d="M0 22h15v10H0z"/><path class="cls-9" d="M13.88 17.842L12.8 16.4a.999.999 0 0 0-.8-.4h-1.97a8.463 8.463 0 0 0 3.85 1.84z"/><path class="cls-10" d="M15 21H0l3-3.999h9L15 21z"/><path class="cls-11" d="M0 21h15v1H0z"/><path class="cls-12" d="M7.5 24L4 27h2v3h3v-3h2l-3.5-3z"/><path class="cls-11" d="M7 17.001h1V21H7z"/><path class="cls-13" d="M21.974 15H20a1 1 0 0 0-.949.684l-.592 1.776A8.506 8.506 0 0 0 21.974 15z"/><path class="cls-3" d="M19 19h5v11h-5zm4-3h-3l-1 3h5l-1-3z"/><path class="cls-4" d="M20 19l.721-2h1.558L23 19h-3zm0 1h3v9h-3z"/><path class="cls-13" d="M20 20h1v9h-1z"/><path class="cls-3" d="M25 22h5v8h-5zm4-3h-3l-1 3h5l-1-3z"/><path class="cls-4" d="M26 22l.721-2h1.558L29 22h-3zm0 1h3v6h-3z"/><path class="cls-13" d="M26 23h1v6h-1z"/><path class="cls-3" d="M27 17h1v4h-1z"/></g></svg>