<svg id="Icons" xmlns="http://www.w3.org/2000/svg" viewBox="0 0 32 32">
  <path d="M18.207,22.726l1.161,3.103a58.65987,58.65987,0,0,0-5.671,3.922.05.05,0,0,1-.08-.048A12.07,12.07,0,0,1,18.207,22.726Zm6.972.418-.092.045,1.34,3.987a5.43488,5.43488,0,0,1,.234,2.915l-.284,1.459a.05.05,0,0,1-.08.03l-1.173-.905a4.128,4.128,0,0,1-1.57-2.197L19.438,17.503c-.244-.318-.342-.408-.463-.443l-1.458-.414-1.385-4.815a.113.113,0,0,0-.217,0l-1.44,4.815-1.457.414a.398.398,0,0,0-.264.243l-3.477,9.25a6.69905,6.69905,0,0,1-3.396,3.704l-1.648.788a.05.05,0,0,1-.068-.062l8.02-21.805a4.906,4.906,0,1,1,7.623,0L23.99,20.206a12.16206,12.16206,0,0,1,1.384-.085,13.09989,13.09989,0,0,1,5.074,1.225.05.05,0,0,1-.01.094A24.695,24.695,0,0,0,25.179,23.144ZM18.262,5.99605A2.266,2.266,0,1,0,15.995,8.261h.0021A2.26809,2.26809,0,0,0,18.262,5.99605Z" style="fill: #9957c7"/>
</svg>
