<svg xmlns="http://www.w3.org/2000/svg" viewBox="0 0 32 32">
  <g id="Icons">
    <path d="M13.03954,21.46973,14.1123,24.3369a54.19993,54.19993,0,0,0-5.24,3.62392.0462.0462,0,0,1-.07392-.04435A11.15269,11.15269,0,0,1,13.03954,21.46973Zm6.4421.38623-.085.04158,1.23815,3.684A5.02192,5.02192,0,0,1,20.851,28.275l-.26242,1.34811a.0462.0462,0,0,1-.07392.02772l-1.08385-.83622a3.81426,3.81426,0,0,1-1.45067-2.03L14.177,16.64369c-.22545-.29383-.316-.377-.42781-.40933L12.402,15.85182l-1.27973-4.449a.10441.10441,0,0,0-.20051,0L9.59119,15.85182l-1.34627.38254a.36773.36773,0,0,0-.24393.22453l-3.21274,8.547a6.18984,6.18984,0,0,1-3.13789,3.42249l-1.52274.72811a.0462.0462,0,0,1-.06283-.05729L7.47524,8.9514a4.53313,4.53313,0,1,1,7.04362,0L18.383,19.14125a11.23525,11.23525,0,0,1,1.27881-.07853,12.10426,12.10426,0,0,1,4.68836,1.13189.0462.0462,0,0,1-.00924.08686A22.81809,22.81809,0,0,0,19.48164,21.856ZM13.09036,6.01129A2.09378,2.09378,0,1,0,10.99562,8.1041h.00193A2.09571,2.09571,0,0,0,13.09036,6.01129Z" style="fill: #9957c7"/>
    <g>
      <g>
        <path d="M23.5,19H19a.99959.99959,0,0,0-.86816.50391l-1.74012,3.04522L18.436,28H23.5Z" style="fill: #f8f8f8"/>
        <polygon points="28 20 19 20 15 27 15 32 32 32 32 27 28 20" style="fill: #6e6e6e"/>
        <polygon points="30.848 27 27.42 21 19.58 21 16.152 27 30.848 27" style="fill: #efefef"/>
        <rect x="16" y="28" width="15" height="3" style="fill: #e0e0e0"/>
        <rect x="27" y="29" width="1" height="1" style="fill: #6e6e6e"/>
        <rect x="29" y="29" width="1" height="1" style="fill: #6e6e6e"/>
      </g>
      <g>
        <path d="M24.56055,23.56055l3-3A1.47618,1.47618,0,0,0,27.8974,20H19.1026a1.47618,1.47618,0,0,0,.33685.56055l3,3a1.49947,1.49947,0,0,0,2.1211,0Z" style="fill: #f8f8f8"/>
        <polygon points="26.854 19.854 26.146 19.146 24 21.293 24 12 23 12 23 21.293 20.854 19.146 20.146 19.854 23.5 23.207 26.854 19.854" style="fill: #6e6e6e"/>
      </g>
    </g>
  </g>
</svg>
