<svg id="Icons" xmlns="http://www.w3.org/2000/svg" viewBox="0 0 16 16">
  <path d="M9.007,10.99628l.50971,1.36241a23.92812,23.92812,0,0,0-2.43428,1.68955.02537.02537,0,0,1-.041-.02355A4.94979,4.94979,0,0,1,9.007,10.99628Zm3.76856,2.02339a2.51086,2.51086,0,0,1,.108,1.34655l-.144.73957-.01493.01768-.02289-.00341-.59523-.45892a2.51087,2.51087,0,0,1-.818-1.107L9.40371,8.213,8.65531,8C8.60844,7.85245,8,6,8,6L7.36049,8l-.74839.213L5.01588,12.77387a3.09622,3.09622,0,0,1-1.56241,1.7039l-.857.40987-.02624-.00387L2.564,14.858,6.29363,4.71649a2.27106,2.27106,0,1,1,3.42855,0L11.66872,9.938a5.31339,5.31339,0,0,1,3.04692.58832.02376.02376,0,0,1-.0054.04473,10.55841,10.55841,0,0,0-2.51531.7979Zm-3.45685-9.792A1.31077,1.31077,0,1,0,8.0079,4.53838,1.31214,1.31214,0,0,0,9.31867,3.22763Z" style="fill: #9957c7"/>
</svg>
