<svg xmlns="http://www.w3.org/2000/svg" viewBox="0 0 16 16">
  <g id="Icons">
    <path d="M6.47737,9.83553l.4678,1.25043A21.9607,21.9607,0,0,0,4.711,12.63662.02328.02328,0,0,1,4.6734,12.615,4.54292,4.54292,0,0,1,6.47737,9.83553ZM9.93615,11.6926a2.30447,2.30447,0,0,1,.09912,1.23587l-.1322.67877-.0137.01623-.021-.00313-.54631-.42119a2.3046,2.3046,0,0,1-.75072-1.016L6.8415,7.281l-.68687-.19547c-.043-.13543-.60145-1.8356-.60145-1.8356l-.58694,1.8356L4.27936,7.281l-1.465,4.186a2.84177,2.84177,0,0,1-1.434,1.56384L.59384,13.407l-.02408-.00354L.564,13.37983,3.98707,4.07194a2.08438,2.08438,0,1,1,3.14673,0L8.92034,8.8642a4.87669,4.87669,0,0,1,2.79646.53995.02181.02181,0,0,1-.005.04106,9.69067,9.69067,0,0,0-2.30855.73231ZM6.76345,2.70547a1.203,1.203,0,1,0-1.203,1.203A1.20428,1.20428,0,0,0,6.76345,2.70547Z" style="fill: #9957c7"/>
    <path d="M11.5,8H9a.99985.99985,0,0,0-.89453.55273l-.47791.95581L9.21252,14H11.5Z" style="fill: #f8f8f8"/>
    <g>
      <g>
        <polygon points="14 9 9 9 7 13 7 16 16 16 16 13 14 9" style="fill: #6e6e6e"/>
        <polygon points="14.882 13 13.382 10 9.618 10 8.118 13 14.882 13" style="fill: #efefef"/>
        <rect x="8" y="14" width="7" height="1" style="fill: #e0e0e0"/>
      </g>
      <path d="M14,9H9l-.69171,1.38336a1.456,1.456,0,0,0,.13116.17719l2,2a1.49947,1.49947,0,0,0,2.1211,0l2-2a1.456,1.456,0,0,0,.13116-.17719Z" style="fill: #f8f8f8"/>
    </g>
    <polygon points="13.854 9.854 13.146 9.146 12 10.293 12 6 11 6 11 10.293 9.854 9.146 9.146 9.854 11.5 12.207 13.854 9.854" style="fill: #6e6e6e"/>
  </g>
</svg>
