<svg xmlns="http://www.w3.org/2000/svg" viewBox="0 0 16 16">
  <path d="M2 0h13v15H2z" fill="#d9c44c"/>
  <path transform="rotate(90 9 7.5)" d="M2.5 2.5h13v10h-13z" fill="#f4eec8"/>
  <path fill="#6e6e6e" d="M1 2h2v1H1z"/>
  <path fill="#6e6e6e" d="M1 4h2v1H1z"/>
  <path fill="#6e6e6e" d="M1 6h2v1H1z"/>
  <path fill="#6e6e6e" d="M1 8h2v1H1z"/>
  <path fill="#6e6e6e" d="M1 10h2v1H1z"/>
  <path fill="#6e6e6e" d="M1 12h2v1H1z"/>
  <path fill="#6e6e6e" d="M8 11H6V4h2v1H7v5h1v1zm4 0h-2v-1h1V5h-1V4h2v7z"/>
</svg>