<svg id="Icons" xmlns="http://www.w3.org/2000/svg" viewBox="0 0 16 16"><defs><style>.cls-1{fill:#9bc29c}.cls-2{fill:#6db5e3;fill-rule:evenodd}.cls-3{fill:none}.cls-4{fill:#6e6e6e}.cls-5{fill:#e0e0e0}.cls-6{fill:#f8f8f8}</style></defs><title>orthomappingproject16</title><path class="cls-1" d="M4.058 11.16a6.73 6.73 0 0 1 2.51 1.756 5.835 5.835 0 0 0 1.886 1.657c.853.46 3.248 1.427 3.248 1.427s.95-3.28 1.28-4.102c.328-.82.72-1.23 1.05-2.05a13.542 13.542 0 0 0 .87-2.51c.03-.22.065-.423.098-.6a8.144 8.144 0 0 0-1.317-.794c-1.138-.524-2.8-.087-4.113-.524a17.17 17.17 0 0 1-3.062-1.575 4.696 4.696 0 0 0-2.45 1.575C2.57 6.906 2.834 7.433 2.047 8.307A16.447 16.447 0 0 1 .104 9.964a19.126 19.126 0 0 1 3.954 1.197z"/><path class="cls-2" d="M11.85 11.275a12.515 12.515 0 0 1-6.3-2.1 5.52 5.52 0 0 0-3.763-.606A20.82 20.82 0 0 1 .104 9.963a19.126 19.126 0 0 1 3.954 1.197 6.73 6.73 0 0 1 2.51 1.756 5.835 5.835 0 0 0 1.886 1.657c.853.46 3.248 1.427 3.248 1.427s.95-3.28 1.28-4.102a5.973 5.973 0 0 1 .33-.688c-.514.038-1.028.065-1.46.065z"/><path class="cls-3" d="M16 16H0V0h16v16z"/><path class="cls-4" d="M4.61 0L0 7h12.535l2.713-7H4.608z"/><path class="cls-5" d="M1.855 6l3.293-5h8.64L11.85 6H1.856z"/><path class="cls-4" d="M5.698 7h.81l4.105-7h-.81L5.698 7z"/><path class="cls-4" d="M13 4H3V3h10.5L13 4z"/><path class="cls-6" d="M9.5 14a1 1 0 0 1-.77-.36l-2.5-3.002a1 1 0 0 1-.23-.64V9a1 1 0 0 1 1-1h1a1 1 0 0 1 1-1h1a1 1 0 0 1 1 1h1a1 1 0 0 1 1 1v1a1 1 0 0 1-.23.64l-2.5 3a1 1 0 0 1-.77.36z"/><path class="cls-4" d="M7 9v.998L9.5 13l2.5-3V9h-1v1h-1V8H9v2H8V9H7z"/></svg>