<svg xmlns="http://www.w3.org/2000/svg" viewBox="0 0 16 16"><defs><style>.cls-1{fill:#57a6d9;}.cls-2{fill:#d3eaf9;}.cls-3{fill:none;}.cls-4{fill:#3b8fc4;}.cls-5{fill:#f8f8f8;}</style></defs><title>OrthoMappingTemplate16</title><g id="Icons"><path class="cls-1" d="M4.05759,11.1611a6.72891,6.72891,0,0,1,2.5098,1.7549,5.83474,5.83474,0,0,0,1.8867,1.6572c.8525.459,3.248,1.4268,3.248,1.4268s.9512-3.2812,1.2793-4.1016c.3282-.8193.7217-1.2295,1.0499-2.0498a13.54226,13.54226,0,0,0,.8701-2.5097c.0312-.2217.0654-.4239.09861-.6016a8.14418,8.14418,0,0,0-1.31741-.793c-1.1377-.5244-2.7998-.0869-4.1123-.5244a17.17094,17.17094,0,0,1-3.0625-1.5752,4.69563,4.69563,0,0,0-2.4492,1.5752C2.57029,6.9063,2.833,7.4326,2.04589,8.3066A16.44664,16.44664,0,0,1,.10449,9.9639,19.1261,19.1261,0,0,1,4.05759,11.1611Z"/><path class="cls-2" d="M11.05615,14.65137c-.77441-.32617-1.6997-.728-2.12793-.9585A4.81674,4.81674,0,0,1,7.34814,12.291a7.59875,7.59875,0,0,0-2.835-2.02A12.59369,12.59369,0,0,0,2.2959,9.46436q.29809-.27174.49267-.48829a4.76588,4.76588,0,0,0,.78321-1.21191A5.18749,5.18749,0,0,1,4.76514,6.12744,5.59423,5.59423,0,0,1,6.36475,4.93408,16.1758,16.1758,0,0,0,9.25342,6.36816a7.615,7.615,0,0,0,2.31933.27979,4.67646,4.67646,0,0,1,1.69141.20459,5.9164,5.9164,0,0,1,.646.35449A10.49307,10.49307,0,0,1,13.27051,9.064l-.168.41309a6.24123,6.24123,0,0,1-.459.8916,8.16737,8.16737,0,0,0-.59033,1.15821C11.83008,12.085,11.36963,13.59619,11.05615,14.65137Z"/><polygon class="cls-3" points="16 16 0 16 0 8 0 0 16 0 16 16"/><polygon class="cls-4" points="4.609 0 0 7 12.535 7 15.248 0 4.609 0"/><polygon class="cls-5" points="1.855 6 5.148 1 13.788 1 11.851 6 1.855 6"/><polygon class="cls-1" points="13.013 3 8.854 3 10.027 1 9.216 1 8.044 3 3.831 3 3.173 4 7.457 4 6.285 6 7.095 6 8.268 4 12.626 4 13.013 3"/><polygon class="cls-4" points="7 9 7 9.998 9.5 13 12 9.999 12 9 11 9 11 10 10 10 10 8 9 8 9 10 8 10 8 9 7 9"/></g></svg>