<svg id="Icons" xmlns="http://www.w3.org/2000/svg" viewBox="0 0 32 32"><defs><style>.cls-1{fill:#9bc29c}.cls-2{fill:#6db5e3}.cls-2,.cls-6,.cls-7{fill-rule:evenodd}.cls-3,.cls-7{fill:#6e6e6e}.cls-4{fill:#e0e0e0}.cls-5{fill:none}.cls-6{fill:#f8f8f8}</style></defs><title>OrthoMappingProject32</title><path class="cls-1" d="M9.155 22.78c2.688 1.376 3.78 2.095 4.78 3.345a11.102 11.102 0 0 0 3.595 3.156c1.625.876 6.188 2.72 6.188 2.72s1.812-6.25 2.437-7.813 1.375-2.343 2-3.906a25.72 25.72 0 0 0 1.656-4.78c.062-.42.127-.807.19-1.145a15.473 15.473 0 0 0-2.51-1.51c-2.168-1-5.334-.166-7.834-1a32.645 32.645 0 0 1-5.834-3s-1.832.166-4.666 3c-2.834 2.832-2.334 3.834-3.834 5.5A31.204 31.204 0 0 1 1.624 20.5a36.43 36.43 0 0 1 7.53 2.28z"/><path class="cls-2" d="M24 23c-3 0-7-1-12-4a10.517 10.517 0 0 0-7.17-1.155A39.25 39.25 0 0 1 1.624 20.5a36.43 36.43 0 0 1 7.53 2.28c2.69 1.376 3.782 2.095 4.782 3.345a11.102 11.102 0 0 0 3.594 3.156c1.625.876 6.188 2.72 6.188 2.72s1.812-6.25 2.437-7.813a11.3 11.3 0 0 1 .633-1.312c-.983.073-1.962.125-2.788.125z"/><path class="cls-3" d="M1 13L9.85 1H31l-5.95 12H1z"/><path class="cls-4" d="M2.98 12l7.375-10h19.033L24.43 12H2.98z"/><path class="cls-5" d="M0 0h32v32H0z"/><path class="cls-3" d="M28 7H6l1-1h21v1z"/><path class="cls-3" d="M13.326 12h.81L20 2h-.81l-5.864 10z"/><path class="cls-6" d="M20 27.22a.997.997 0 0 1-.707-.292l-5-5A1 1 0 0 1 14 21.22V19.91a1 1 0 0 1 .293-.707l.6-.6a1 1 0 0 1 1.416 0L18 20.29V16a1 1 0 0 1 1-1h2a1 1 0 0 1 1 1v4.29l1.69-1.69a1 1 0 0 1 1.415 0l.602.6a1 1 0 0 1 .293.708v1.313a1 1 0 0 1-.293.708l-5 5a.997.997 0 0 1-.707.293z"/><path class="cls-7" d="M15 21.22l5 5 5-5V19.91l-.602-.6L21 22.704V16h-2v6.705l-3.398-3.398-.602.6v1.314z"/></svg>