<svg xmlns="http://www.w3.org/2000/svg" viewBox="0 0 32 32"><defs><style>.cls-1{fill:#57a6d9;}.cls-2{fill:#d3eaf9;}.cls-3,.cls-6{fill:#3b8fc4;}.cls-4{fill:#f8f8f8;}.cls-5{fill:none;}.cls-6{fill-rule:evenodd;}</style></defs><title>OrthoMappingTemplate32</title><g id="Icons"><path class="cls-1" d="M9.15529,22.7813c2.6875,1.375,3.7812,2.0937,4.7812,3.3437a11.10239,11.10239,0,0,0,3.5938,3.1563c1.625.875,6.1875,2.7187,6.1875,2.7187s1.8125-6.25,2.4375-7.8125,1.375-2.3437,2-3.9062A25.72015,25.72015,0,0,0,29.81149,15.5c.0606-.4209.126-.8066.18851-1.1445a15.47331,15.47331,0,0,0-2.50981-1.5108c-2.1679-1-5.3339-.166-7.8339-1a32.64462,32.64462,0,0,1-5.834-3s-1.8321.166-4.666,3c-2.834,2.8321-2.334,3.834-3.834,5.5A31.20447,31.20447,0,0,1,1.624,20.501,36.42916,36.42916,0,0,1,9.15529,22.7813Z"/><path class="cls-2" d="M23.06982,30.65381c-1.42871-.59131-3.97021-1.66309-5.06543-2.25293a10.07137,10.07137,0,0,1-3.2871-2.90039c-1.16211-1.45313-2.457-2.25391-5.10645-3.60938A29.23778,29.23778,0,0,0,3.897,19.98926a20.43888,20.43888,0,0,0,2.16846-1.97559A8.23269,8.23269,0,0,0,7.418,15.91162a10.76909,10.76909,0,0,1,2.44531-3.35937A10.11265,10.11265,0,0,1,13.64258,9.915a31.38742,31.38742,0,0,0,5.69726,2.87842,13.62212,13.62212,0,0,0,4.14356.48584,9.38784,9.38784,0,0,1,3.58789.47363,13.19114,13.19114,0,0,1,1.83447,1.05713c-.02832.1748-.05664.35791-.084.54736a19.68388,19.68388,0,0,1-1.28028,3.77637l-.31494.77588a12.76275,12.76275,0,0,1-.93359,1.81885,14.61272,14.61272,0,0,0-1.06641,2.0874C24.74561,25.01953,23.62061,28.78369,23.06982,30.65381Z"/><polygon class="cls-3" points="1 13 9.851 1 31 1 25.051 13 1 13"/><polygon class="cls-4" points="2.98 12 10.355 2 29.388 2 24.431 12 2.98 12"/><rect class="cls-5" width="32" height="32"/><polygon class="cls-1" points="26.909 7 27.405 6 17.655 6 20 2 19.19 2 16.845 6 7.405 6 6.668 7 16.258 7 13.326 12 14.137 12 17.068 7 26.909 7"/><polygon class="cls-6" points="15 21.221 20 26.221 25 21.221 25 19.908 24.398 19.307 21 22.705 21 16 19 16 19 22.705 15.602 19.307 15 19.908 15 21.221"/></g></svg>