<svg id="Icons" xmlns="http://www.w3.org/2000/svg" viewBox="0 0 16 16"><defs><style>.cls-1{fill:#57a6d9}.cls-2{fill:#f8f8f8}.cls-3{fill:none}.cls-4{fill:#d3eaf9}</style></defs><title>PremiumContent16</title><path class="cls-1" d="M8.515 0L8.5.012 8.485 0S5.065 2.968 2 2.004v.858C2.108 5.328 2 12 8.5 15 15 12 14.892 5.328 15 2.862v-.858C11.935 2.968 8.515 0 8.515 0z"/><path class="cls-2" d="M8.5 13.888C3.305 11.222 3.11 5.856 3.016 3.243l-.002-.054c.092.004.186.006.28.006A9.6 9.6 0 0 0 8.5 1.25a9.6 9.6 0 0 0 5.205 1.946c.095 0 .19-.002.28-.007v.053c-.095 2.613-.29 7.98-5.485 10.645z"/><path class="cls-3" d="M0 0h16v16H0z"/><path class="cls-3" d="M0 0h16v16H0z"/><path class="cls-4" d="M9 2.763v9.663c3.267-2.21 3.803-5.777 3.943-8.272A10.244 10.244 0 0 1 9 2.764z"/></svg>