<svg id="Icons" xmlns="http://www.w3.org/2000/svg" viewBox="0 0 32 32"><defs><style>.cls-1{fill:#57a6d9}.cls-2,.cls-5{fill:#f8f8f8}.cls-3{fill:none}.cls-4{fill:#d3eaf9}.cls-5,.cls-8,.cls-9{fill-rule:evenodd}.cls-6,.cls-8{fill:#5b945a}.cls-7,.cls-9{fill:#ddeedb}.cls-10{fill:#9bc29c}</style></defs><title>PremiumContentUser32</title><path class="cls-1" d="M16.53.597L16.5.62l-.03-.023S9.365 6.76 3 4.76V6.54c.225 5.12 0 18.977 13.5 25.21C30 25.52 29.775 11.66 30 6.54V4.76C23.635 6.76 16.53.596 16.53.596z"/><path class="cls-2" d="M16.5 30.645C4.667 24.915 4.24 13.088 4.033 7.37L4 6.5v-.475a10.352 10.352 0 0 0 1.69.136c4.75 0 9.203-3.063 10.81-4.303 1.607 1.24 6.06 4.302 10.81 4.302A10.346 10.346 0 0 0 29 6.02v.52l-.033.83c-.207 5.717-.635 17.544-12.467 23.273z"/><path class="cls-3" d="M0 0h32v32H0z"/><path class="cls-4" d="M17 4.053v24.62c9.673-5.403 10.246-15.34 10.456-21.015h-.146c-4.156 0-8.01-2.067-10.31-3.605z"/><path class="cls-5" d="M3.095 8.916C3.35 14.2 4.368 23.16 12 29.046V29a3.003 3.003 0 0 0 3-3v-7a4.004 4.004 0 0 0-4-4h-.025A4.952 4.952 0 0 0 12 12a4.98 4.98 0 0 0-8.905-3.084z"/><circle class="cls-6" cx="7" cy="12" r="4"/><path class="cls-7" d="M10 12a3 3 0 1 1-2.998-3A3 3 0 0 1 10 12z"/><path class="cls-8" d="M11 16H3a3 3 0 0 0-3 3v7a2 2 0 0 0 2 2h1v3a1 1 0 0 0 1 1h6a1 1 0 0 0 1-1v-3h1a2 2 0 0 0 2-2v-7a3 3 0 0 0-3-3z"/><path class="cls-9" d="M11 17H3a2 2 0 0 0-2 2v7a1 1 0 0 0 1 1h2v4h6v-4h2a1 1 0 0 0 1-1v-7a2 2 0 0 0-2-2z"/><path class="cls-10" d="M3 20h1v7H3zM10 20h1v7h-1z"/></svg>