<svg id="Icons" xmlns="http://www.w3.org/2000/svg" viewBox="0 0 32 32"><defs><style>.cls-1{fill:#57a6d9}.cls-2{fill:#f8f8f8}.cls-3{fill:none}.cls-4{fill:#d3eaf9}</style></defs><title>PremiumContent32</title><path class="cls-1" d="M16.53.597L16.5.62l-.03-.023S9.365 6.76 3 4.76V6.54c.225 5.12 0 18.977 13.5 25.21C30 25.52 29.775 11.66 30 6.54V4.76C23.635 6.76 16.53.596 16.53.596z"/><path class="cls-2" d="M16.5 30.645C4.667 24.915 4.24 13.088 4.033 7.37L4 6.5v-.475a10.352 10.352 0 0 0 1.69.136c4.75 0 9.203-3.063 10.81-4.303 1.607 1.24 6.06 4.302 10.81 4.302A10.346 10.346 0 0 0 29 6.02v.52l-.033.83c-.207 5.717-.635 17.544-12.467 23.273z"/><path class="cls-3" d="M0 0h32v32H0z"/><path class="cls-4" d="M17 4.053v24.62c9.673-5.403 10.246-15.34 10.456-21.015h-.146c-4.156 0-8.01-2.067-10.31-3.605z"/></svg>