<svg id="Icons" xmlns="http://www.w3.org/2000/svg" viewBox="0 0 16 16"><defs><style>.cls-1{fill:#57a6d9}.cls-2{fill:#f8f8f8}.cls-3{fill:none}.cls-4{fill:#d3eaf9}.cls-5{fill:#5b945a}.cls-6{fill:#ddeedb}.cls-7{fill:#9bc29c}.cls-8{fill:#a67a47}.cls-9{fill:#f2d530}.cls-10{fill:#bda726}</style></defs><title>PremiumContentUserCredit16</title><path class="cls-1" d="M8.515 0L8.5.012 8.485 0S5.065 2.968 2 2.004v.858C2.108 5.328 2 12 8.5 15 15 12 14.892 5.328 15 2.862v-.858C11.935 2.968 8.515 0 8.515 0z"/><path class="cls-2" d="M8.5 13.888C3.305 11.222 3.11 5.856 3.016 3.243l-.002-.054c.092.004.186.006.28.006A9.6 9.6 0 0 0 8.5 1.25a9.6 9.6 0 0 0 5.205 1.946c.095 0 .19-.002.28-.007v.053c-.095 2.613-.29 7.98-5.485 10.645z"/><path class="cls-3" d="M0 0h16v16H0z"/><path class="cls-3" d="M0 0h16v16H0z"/><path class="cls-4" d="M9 2.763v9.663c3.267-2.21 3.803-5.777 3.943-8.272A10.244 10.244 0 0 1 9 2.764z"/><path class="cls-2" d="M12 6.1A5.906 5.906 0 0 0 6.1 12c0 .058.007.114.01.172a9.62 9.62 0 0 0 2.39 1.716 9.782 9.782 0 0 0 5.212-7.533A5.878 5.878 0 0 0 12 6.1z"/><path class="cls-2" d="M6.78 7.115A2.965 2.965 0 0 0 7 6a3.003 3.003 0 0 0-3-3 2.972 2.972 0 0 0-1.965.75c.12 2.913.63 8.557 6.465 11.25.11-.05.204-.11.31-.164A1.967 1.967 0 0 0 9 14v-4a2.997 2.997 0 0 0-2.22-2.885z"/><path class="cls-5" d="M6 8H2a2 2 0 0 0-2 2v4a1 1 0 0 0 1 1h1a1 1 0 0 0 1 1h2a1 1 0 0 0 1-1h1a1 1 0 0 0 1-1v-4a2 2 0 0 0-2-2z"/><circle class="cls-5" cx="4" cy="6" r="2"/><circle class="cls-6" cx="4" cy="6" r="1"/><path class="cls-6" d="M6 9H2a1 1 0 0 0-1 1v4h2v1h2v-1h2v-4a1 1 0 0 0-1-1z"/><path class="cls-7" d="M5 11h1v3H5zM2 11h1v3H2z"/><path class="cls-2" d="M14.45 7.68A4.843 4.843 0 0 0 12 7a4.882 4.882 0 0 0-3.964 7.755c.156.08.3.17.464.245a10.455 10.455 0 0 0 5.95-7.32z"/><path class="cls-8" d="M12 8a3.9 3.9 0 1 0 3.9 3.9A3.9 3.9 0 0 0 12 8z"/><path class="cls-9" d="M12 14.836a2.937 2.937 0 1 1 2.937-2.937A2.94 2.94 0 0 1 12 14.835z"/><path class="cls-2" d="M12 13.873a1.974 1.974 0 1 1 1.974-1.974A1.976 1.976 0 0 1 12 13.872z"/><path class="cls-2" d="M9.064 11.91a2.937 2.937 0 1 0 5.874 0z"/><path class="cls-10" d="M10.026 11.91a1.974 1.974 0 1 0 3.948 0z"/><path class="cls-9" d="M12 12.91a1.01 1.01 0 1 1 1.01-1.01A1.012 1.012 0 0 1 12 12.91z"/></svg>