<svg xmlns="http://www.w3.org/2000/svg" viewBox="0 0 32 32">
  <defs>
    <style>
      .cls-1 {
        fill: none;
      }

      .cls-2 {
        fill: #57a6d9;
      }

      .cls-3 {
        fill: #ddeedb;
      }

      .cls-4 {
        fill: #9bc29c;
      }

      .cls-5 {
        fill: #d3eaf9;
      }

      .cls-6 {
        fill: #f8f8f8;
      }
    </style>
  </defs>
  <g id="Icons">
    <rect class="cls-1" width="32" height="32"/>
    <rect class="cls-1" width="32" height="32"/>
    <rect class="cls-2" x="1" y="6" width="30" height="22"/>
    <path class="cls-3" d="M30,15.6016A19.73783,19.73783,0,0,0,7.96289,27H30Z"/>
    <path class="cls-4" d="M23.249,22.4043c-.10451-.0313-.23731-.0684-.35061-.1074a3.08408,3.08408,0,0,1,.1543-.2813,1.53684,1.53684,0,0,0,.1661-1.4883c-.3516-.7734-1.2247-.9277-1.9952-1.0644A4.30169,4.30169,0,0,1,20.209,19.207a1.31125,1.31125,0,0,0-1.26761-.9433,2.01287,2.01287,0,0,0-.9971.3105c.0323-.1914.0733-.4082.125-.6504.043-.2011.0762-.3633.0889-.4668a.9986.9986,0,0,0-.0918-.5527A19.94391,19.94391,0,0,0,7.96289,27h18.167c0-.0117.0058-.0234.0058-.0352a7.84344,7.84344,0,0,0-.7099-3.0664A3.08947,3.08947,0,0,0,23.249,22.4043Z"/>
    <path class="cls-5" d="M7.96289,27h17.1738a6.8315,6.8315,0,0,0-.6152-2.6758c-.6953-1.4726-3.7481-.4746-2.3242-2.8281.873-1.4395-2.5537-.6367-2.9268-1.9414-.2861-1.0039-1.9014.9336-2.14749.6445-.55661-.6543-.01171-2.4277.043-2.8652A19.96266,19.96266,0,0,0,7.96289,27Z"/>
    <rect class="cls-6" x="2" y="7" width="28" height="3"/>
    <rect class="cls-2" x="11" y="4" width="1" height="3"/>
    <rect class="cls-2" x="20" y="4" width="1" height="3"/>
    <rect class="cls-2" x="11" y="4" width="10" height="1"/>
  </g>
</svg>
