<svg xmlns="http://www.w3.org/2000/svg" viewBox="0 0 16 16">
  <defs>
    <style>
      .cls-1 {
        fill: none;
      }

      .cls-2 {
        fill: #57a6d9;
      }

      .cls-3 {
        fill: #f8f8f8;
      }

      .cls-4 {
        fill: #ddeedb;
      }

      .cls-5 {
        fill: #9bc29c;
      }

      .cls-6 {
        fill: #d3eaf9;
      }
    </style>
  </defs>
  <g id="Icons">
    <rect class="cls-1" width="16" height="16"/>
    <rect class="cls-2" y="3" width="15" height="11"/>
    <rect class="cls-3" x="1" y="4" width="13" height="2"/>
    <rect class="cls-1" width="16" height="16"/>
    <path class="cls-4" d="M14,7.8477A8.662,8.662,0,0,0,6.09569,13H14Z"/>
    <path class="cls-5" d="M6.09569,13h7.3731a.9631.9631,0,0,0,.0097-.1406,3.85193,3.85193,0,0,0-.31349-1.1055,1.62106,1.62106,0,0,0-.87011-.8086,1.16542,1.16542,0,0,0-.0908-.6582A1.55467,1.55467,0,0,0,10.91889,9.5c-.0468-.0078-.0966-.0156-.1445-.0234a1.11593,1.11593,0,0,0-.9365-.5098c-.00389-.0059-.0108-.0078-.0137-.0137A8.70539,8.70539,0,0,0,6.09569,13Z"/>
    <path class="cls-6" d="M6.09569,13h6.3926a2.822,2.822,0,0,0-.2285-.8223c-.30179-.6445-1.63479-.2109-1.0137-1.2343.37991-.6289-1.1143-.2793-1.2773-.8496-.125-.4375-.8301.4062-.9375.2812-.1612-.1895-.1094-.5859-.0499-.8926A8.68836,8.68836,0,0,0,6.09569,13Z"/>
    <rect class="cls-2" x="4" y="1" width="1" height="3"/>
    <rect class="cls-2" x="10" y="1" width="1" height="3"/>
    <rect class="cls-2" x="4" y="1" width="7" height="1"/>
  </g>
</svg>
