<svg id="Icons" xmlns="http://www.w3.org/2000/svg" viewBox="0 0 32 32">
  <defs>
    <style>
      .cls-1 {
        fill: none;
      }

      .cls-2 {
        fill: #6e6e6e;
      }

      .cls-3 {
        fill: #f8f8f8;
      }

      .cls-4 {
        fill: #828282;
      }

      .cls-5 {
        fill: #6db5e3;
      }

      .cls-6 {
        fill: #57a6d9;
      }

      .cls-7 {
        fill: #bddbee;
      }
    </style>
  </defs>
  <title>ProReport32</title>
  <rect class="cls-1" width="32" height="32"/>
  <polygon class="cls-2" points="28 31 4 31 4 1 21.3 1 28 7.699 28 31"/>
  <polygon class="cls-3" points="27 7.99 21.01 2 5 2 5 30 27 30 27 7.99"/>
  <rect class="cls-4" x="7" y="11" width="18" height="16"/>
  <rect class="cls-3" x="8" y="14" width="16" height="10"/>
  <rect class="cls-2" x="20" y="2" width="1" height="7"/>
  <rect class="cls-2" x="20" y="8" width="8" height="1"/>
  <rect class="cls-5" x="8" y="12" width="16" height="2"/>
  <rect class="cls-6" x="8" y="11" width="16" height="1"/>
  <rect class="cls-7" x="8" y="16" width="16" height="2"/>
  <rect class="cls-7" x="8" y="20" width="16" height="2"/>
  <rect class="cls-7" x="8" y="24" width="16" height="2"/>
  <rect class="cls-4" x="7" y="7" width="11" height="1"/>
  <rect class="cls-4" x="7" y="4" width="11" height="1"/>
</svg>
