<svg id="Icons" xmlns="http://www.w3.org/2000/svg" viewBox="0 0 16 16">
  <defs>
    <style>
      .cls-1 {
        fill: none;
      }

      .cls-2 {
        fill: #6e6e6e;
      }

      .cls-3 {
        fill: #f8f8f8;
      }

      .cls-4 {
        fill: #828282;
      }

      .cls-5 {
        fill: #57a6d9;
      }

      .cls-6 {
        fill: #6db5e3;
      }

      .cls-7 {
        fill: #bddbee;
      }
    </style>
  </defs>
  <title>ProReport16</title>
  <rect class="cls-1" width="16" height="16"/>
  <polygon class="cls-2" points="15 16 2 16 2 0 11.4 0 15 3.6 15 16"/>
  <polygon class="cls-3" points="11.31 1 3 1 3 15 14 15 14 3.689 11.31 1"/>
  <rect class="cls-4" x="4" y="6" width="9" height="8"/>
  <rect class="cls-2" x="10" y="1" width="1" height="4"/>
  <rect class="cls-2" x="10" y="4" width="5" height="1"/>
  <rect class="cls-5" x="5" y="6" width="7" height="1"/>
  <rect class="cls-4" x="4" y="2" width="5" height="1"/>
  <rect class="cls-4" x="4" y="4" width="5" height="1"/>
  <rect class="cls-3" x="5" y="7" width="7" height="6"/>
  <rect class="cls-6" x="5" y="7" width="7" height="1"/>
  <rect class="cls-7" x="5" y="11" width="7" height="1"/>
  <rect class="cls-7" x="5" y="9" width="7" height="1"/>
</svg>
