<svg xmlns="http://www.w3.org/2000/svg" viewBox="0 0 16 16"><title>QuickCaptureItemType16</title><g id="Icons"><rect width="16" height="16" style="fill:none"/><path d="M12,1C9.79092,1,8,1.84972,8,4.05882v7.30572a1.7692,1.7692,0,0,0,.51819,1.251L12,16.09736l3.48181-3.48181A1.7692,1.7692,0,0,0,16,11.36454V4.09737C16,1.88827,14.20908,1,12,1Zm0,7.09736a2.05714,2.05714,0,1,1,2.05714-2.05714A2.05712,2.05712,0,0,1,12,8.09736Z" style="fill:#db8d2f"/><path d="M6,3H-.2L.19691,4.4105A.89875.89875,0,0,0,1.01977,5H6Z" style="fill:#db8d2f"/><path d="M.77765,7,1.076,8.22068A1.022,1.022,0,0,0,2.06874,9H6V7Z" style="fill:#db8d2f"/><path d="M6,11.15918V11H1.75531l.29835,1.22068A1.022,1.022,0,0,0,3.0464,13H6.52679A3.515,3.515,0,0,1,6,11.15918Z" style="fill:#db8d2f"/></g></svg>