<svg xmlns="http://www.w3.org/2000/svg" viewBox="0 0 32 32"><title>QuickCaptureItemType32</title><g id="Icons"><path d="M22.5,2.11491c-4.142,0-7.5,1.59322-7.5,5.73528v13.667a3.31728,3.31728,0,0,0,.9716,2.34565L22.5,30.39127l6.5284-6.52839A3.31728,3.31728,0,0,0,30,21.51723V7.89129C30,3.74923,26.642,2.11491,22.5,2.11491Zm0,11.50613a3.11539,3.11539,0,1,1,3.11538-3.11538A3.11535,3.11535,0,0,1,22.5,13.621Z" style="fill:#db8d2f"/><path d="M13,9V6H1.79968l.41115,2.03919A1.19625,1.19625,0,0,0,3.43374,9Z" style="fill:#db8d2f"/><path d="M3,13l.49053,2.083a1.17411,1.17411,0,0,0,1.258.917H13V13Z" style="fill:#db8d2f"/><path d="M13.01333,21.01978V20H4.30111l.41108,1.94757a1.26434,1.26434,0,0,0,1.2229,1.039H13.357A5.8652,5.8652,0,0,1,13.01333,21.01978Z" style="fill:#db8d2f"/></g></svg>