<svg id="Icons" xmlns="http://www.w3.org/2000/svg" viewBox="0 0 16 16"><defs><style>.cls-1{fill:#6e6e6e}.cls-2{fill:#f8f8f8}.cls-3{fill:#e89d48}.cls-4{fill:#fbe2c3}.cls-5{fill:#68aa67}.cls-6{fill:#ddeedb}.cls-7{fill:#57a6d9}.cls-8{fill:#d3eaf9}.cls-9{fill:none}</style></defs><title>RasterProcessingTemplate16</title><rect class="cls-1" x="4" y="1" width="12" height="15" rx="2" ry="2"/><rect class="cls-2" x="5" y="2" width="10" height="13" rx="1" ry="1"/><path class="cls-3" d="M6 11h3v3H6z"/><path class="cls-4" d="M7 12h1v1H7z"/><path class="cls-5" d="M6 7h3v3H6z"/><path class="cls-6" d="M7 8h1v1H7z"/><path class="cls-7" d="M6 3h3v3H6z"/><path class="cls-8" d="M6.994 4h1v1h-1z"/><path class="cls-1" d="M10 4h4v1h-4zM10 12h4v1h-4zM10 8h4v1h-4z"/><path class="cls-9" d="M0 0h16v16H0z"/><path class="cls-1" d="M3 1V0H1v2H0v1h1v3h1V3h1V2H2V1h1z"/><path class="cls-2" d="M4 3v4h.75a1 1 0 0 0 .707-.293L6.164 6h.672l.707.707A1 1 0 0 0 8.25 7H9a1 1 0 0 0 1-1v-.75a1 1 0 0 0-.293-.707L9 3.836v-.672l.707-.707A1 1 0 0 0 10 1.75V1H6a2.003 2.003 0 0 0-2 2z"/><path class="cls-1" d="M9 1h-.75L6.5 2.75 4.75 1H4v.75L5.75 3.5 4 5.25V6h.75L6.5 4.25 8.25 6H9v-.75L7.25 3.5 9 1.75V1z"/></svg>