<svg id="Icons" xmlns="http://www.w3.org/2000/svg" viewBox="0 0 32 32"><defs><style>.cls-1{fill:#6e6e6e}.cls-2{fill:#f8f8f8}.cls-3{fill:#ccc;opacity:.8}.cls-4{fill:#57a6d9}.cls-5{fill:#d3eaf9}.cls-6{fill:#68aa67}.cls-7{fill:#ddeedb}.cls-8{fill:#e89d48}.cls-9{fill:#fbe2c3}.cls-10{fill:none}</style></defs><title>RasterProcessingTemplate32</title><path class="cls-1" d="M14.998 31A2.003 2.003 0 0 1 13 28.998V8.008A2.01 2.01 0 0 1 14.998 6h15A2.01 2.01 0 0 1 32 8.008v20.99A2.004 2.004 0 0 1 30 31z"/><path class="cls-2" d="M14.998 7H30a1 1 0 0 1 1 1v21a1 1 0 0 1-1 1H15a1 1 0 0 1-1-1V8A.998.998 0 0 1 14.998 7z"/><path class="cls-3" d="M15 8v21h15V8zm14 20H16V9h13z"/><path class="cls-1" d="M23 12h5v1h-5zM23 18h5v1h-5zM23 24h5v1h-5z"/><path class="cls-4" d="M22 15h-5v-5h5v5z"/><path class="cls-5" d="M18 11h3v3h-3z"/><path class="cls-6" d="M22 21h-5v-5h5v5z"/><path class="cls-7" d="M18 17h3v3h-3z"/><path class="cls-8" d="M22 27h-5v-5h5v5z"/><path class="cls-9" d="M18 23h3v3h-3z"/><path class="cls-10" d="M0 0h32v32H0z"/><path class="cls-1" d="M3.726 6.196H2L2.153 5H3.88l.254-1.7C4.402 1.373 5.268 0 7.4 0a2.208 2.208 0 0 1 .98.203L8.027 1.39a2.432 2.432 0 0 0-.864-.17c-1.372 0-1.558.998-1.76 2.37L5.202 5H7.13l-.153 1h-1.93l-.964 7h-1.32z"/><path class="cls-2" d="M14.998 6A2.01 2.01 0 0 0 13 8.008v5.572a.994.994 0 0 0 .806.42h1.76a1 1 0 0 0 .848-1.53L14.11 8.796 16.596 6z"/><path class="cls-1" d="M11.003 8.693L8.66 5h1.744l1.71 2.873L14.524 5h1.623l-3.283 3.693L15.566 13h-1.76l-2.052-3.453L8.78 13H7.12z"/></svg>