<?xml version="1.0" encoding="utf-8"?>
<!-- Generator: Adobe Illustrator 21.1.0, SVG Export Plug-In . SVG Version: 6.00 Build 0)  -->
<svg version="1.1" id="Icons" xmlns="http://www.w3.org/2000/svg" xmlns:xlink="http://www.w3.org/1999/xlink" x="0px" y="0px"
	 width="16px" height="16px" viewBox="0 0 16 16" style="enable-background:new 0 0 16 16;" xml:space="preserve">
<style type="text/css">
	.st0{fill:#6E6E6E;}
	.st1{fill:#F8F8F8;}
	.st2{fill:#D2EAFA;}
	.st3{fill:#A9A9A9;}
	.st4{fill:#9182BD;}
	.st5{fill:#C5BCDE;}
	.st6{fill-rule:evenodd;clip-rule:evenodd;fill:#F8F8F8;}
	.st7{fill:none;}
	.st8{fill:#828282;}
	.st9{fill:#6AB4E5;}
	.st10{fill:#DAC540;}
	.st11{fill-rule:evenodd;clip-rule:evenodd;fill:#DAC540;}
	.st12{fill-rule:evenodd;clip-rule:evenodd;fill:#6E6E6E;}
	.st13{fill:#B98C51;}
	.st14{fill:#F0E593;}
	.st15{fill:#53A5DB;}
	.st16{fill-rule:evenodd;clip-rule:evenodd;fill:#D2EAFA;}
	.st17{fill:#66AB64;}
	.st18{fill-rule:evenodd;clip-rule:evenodd;fill:#DDEEDA;}
	.st19{fill:#6E6F72;}
	.st20{fill-rule:evenodd;clip-rule:evenodd;fill:#53A5DB;}
	.st21{fill:#F4EFC6;}
	.st22{fill:#FF631E;}
	.st23{fill:#E12600;}
	.st24{fill:#BCDBEF;}
	.st25{fill:#DDEEDA;}
</style>
<g>
	<circle class="st0" cx="10.5" cy="5.5" r="5.5"/>
	<circle class="st2" cx="10.5" cy="5.5" r="4.5"/>
	<rect x="10" y="2" class="st0" width="1" height="4"/>
	<rect x="10" y="5" class="st0" width="3" height="1"/>
	<rect x="7" y="5" class="st3" width="1" height="1"/>
	<rect x="10" y="8" class="st3" width="1" height="1"/>
</g>
<path class="st1" d="M11.4003906,8H9.5996094C9.1177979,8,8.6901855,8.21875,8.3966064,8.5570068
	c-0.62677-0.9343872-1.6916504-1.5511475-2.8985596-1.5511475c-0.0949707,0-0.1846924,0.0184326-0.2772827,0.0269775
	C5.8849487,9.3244019,7.9951782,11,10.5,11c0.9011841,0,1.7492676-0.2208862,2.5-0.6050415V9.5996094
	C13,8.7177734,12.2822266,8,11.4003906,8z"/>
<rect x="7" y="10" class="st0" width="4" height="1"/>
<rect x="2.1616535" y="5.5127234" transform="matrix(0.7070014 -0.7072121 0.7072121 0.7070014 -4.643713 4.1292968)" class="st0" width="0.9998844" height="4.3124027"/>
<rect x="0.504705" y="12.8125753" transform="matrix(0.7069919 -0.7072217 0.7072217 0.7069919 -8.6350193 5.7830095)" class="st0" width="4.3137817" height="0.999849"/>
<circle class="st13" cx="5.4977708" cy="10.4961004" r="2.489975"/>
<path class="st15" d="M2.4003916,8h-1.8008C0.2675916,8,0,7.7314,0,7.4004002V5.5995998C0,5.2676001,0.2675916,5,0.5995916,5h1.8008
	C2.7313914,5,3,5.2676001,3,5.5995998v1.8008003C3,7.7314,2.7313914,8,2.4003916,8L2.4003916,8z"/>
<path class="st17" d="M11.4003916,12H9.5995913C9.2675915,12,9,11.7313995,9,11.3993998V9.5995998
	C9,9.2665997,9.2675915,9,9.5995913,9h1.8008003C11.731391,9,12,9.2665997,12,9.5995998v1.7997999
	C12,11.7313995,11.731391,12,11.4003916,12L11.4003916,12z"/>
<path class="st15" d="M2.4003916,16h-1.8008C0.2675916,16,0,15.7313995,0,15.3993998v-1.7997999
	C0,13.2686005,0.2675916,13,0.5995916,13h1.8008C2.7313914,13,3,13.2686005,3,13.5995998v1.7997999
	C3,15.7313995,2.7313914,16,2.4003916,16L2.4003916,16z"/>
<circle class="st14" cx="5.4980206" cy="10.4961004" r="1.5097749"/>
<rect x="1" y="6" class="st24" width="1" height="1"/>
<rect x="10" y="10" class="st25" width="1" height="1"/>
<rect x="1" y="14" class="st24" width="1" height="1"/>
</svg>
