<?xml version="1.0" encoding="utf-8"?>
<!-- Generator: Adobe Illustrator 21.1.0, SVG Export Plug-In . SVG Version: 6.00 Build 0)  -->
<svg version="1.1" id="Icons" xmlns="http://www.w3.org/2000/svg" xmlns:xlink="http://www.w3.org/1999/xlink" x="0px" y="0px"
	 width="32px" height="32px" viewBox="0 0 32 32" style="enable-background:new 0 0 32 32;" xml:space="preserve">
<style type="text/css">
	.st0{fill:#6E6E6E;}
	.st1{fill:#F8F8F8;}
	.st2{fill:#D2EAFA;}
	.st3{fill:#A9A9A9;}
	.st4{fill:#9182BD;}
	.st5{fill:#C5BCDE;}
	.st6{fill-rule:evenodd;clip-rule:evenodd;fill:#F8F8F8;}
	.st7{fill:none;}
	.st8{fill:#828282;}
	.st9{fill:#6AB4E5;}
	.st10{fill:#DAC540;}
	.st11{fill-rule:evenodd;clip-rule:evenodd;fill:#DAC540;}
	.st12{fill-rule:evenodd;clip-rule:evenodd;fill:#6E6E6E;}
	.st13{fill:#B98C51;}
	.st14{fill:#F0E593;}
	.st15{fill:#53A5DB;}
	.st16{fill-rule:evenodd;clip-rule:evenodd;fill:#D2EAFA;}
	.st17{fill:#66AB64;}
	.st18{fill-rule:evenodd;clip-rule:evenodd;fill:#DDEEDA;}
	.st19{fill:#6E6F72;}
	.st20{fill-rule:evenodd;clip-rule:evenodd;fill:#53A5DB;}
	.st21{fill:#F4EFC6;}
	.st22{fill:#FF631E;}
	.st23{fill:#E12600;}
	.st24{fill:#BCDBEF;}
	.st25{fill:#DDEEDA;}
</style>
<circle class="st0" cx="20.5" cy="10.5" r="9.5"/>
<circle class="st1" cx="20.5" cy="10.5" r="8.5"/>
<circle class="st2" cx="20.5" cy="10.5" r="7.5"/>
<rect x="20" y="16" class="st3" width="1" height="1"/>
<rect x="14" y="10" class="st3" width="1" height="1"/>
<rect x="20" y="4" class="st0" width="1" height="7"/>
<rect x="20" y="10" class="st0" width="5" height="1"/>
<g>
	<path class="st1" d="M20.5,20c1.3617554,0,2.6537476-0.291748,3.8247681-0.8079224
		C23.7566528,18.4718628,22.8866577,18,21.9003906,18h-2.8007812c-0.9868164,0-1.8560791,0.4718018-2.4217529,1.1933594
		C17.8481445,19.7088013,19.1392822,20,20.5,20z"/>
	<rect x="12.4999971" y="22" class="st12" width="6" height="1.0000001"/>
	
		<rect x="6.7963319" y="14.6932526" transform="matrix(0.7070677 -0.7071458 0.7071458 0.7070677 -10.5975771 10.4371033)" class="st12" width="1.005188" height="6.6334147"/>
	
		<rect x="3.9483936" y="25.567543" transform="matrix(0.7071066 -0.707107 0.707107 0.7071066 -16.2732315 12.7871599)" class="st12" width="6.7009029" height="0.939115"/>
	<path class="st15" d="M5.2004437,18H2.7995439C1.8063937,18,1,17.1951008,1,16.2004509v-2.4009008
		C1,12.8064003,1.8063937,12,2.7995439,12h2.4008999C6.1950936,12,7,12.8064003,7,13.7995501v2.4009008
		C7,17.1951008,6.1950936,18,5.2004437,18L5.2004437,18z"/>
	<path class="st24" d="M2.9329278,17C2.4185944,17,2,16.5813999,2,16.0670662v-2.1341324C2,13.4186001,2.4185944,13,2.9329278,13
		h2.1341331C5.5813942,13,6,13.4186001,6,13.9329338v2.1341324C6,16.5813999,5.5813942,17,5.0670609,17H2.9329278z"/>
	<path class="st17" d="M21.9005165,26h-2.8010483C17.9407921,26,17,25.0609493,17,23.9005241v-2.8010483
		C17,19.9407997,17.9407921,19,19.0994682,19h2.8010483C23.0609417,19,24,19.9407997,24,21.0994759v2.8010483
		C24,25.0609493,23.0609417,26,21.9005165,26L21.9005165,26z"/>
	<path class="st25" d="M19.1661587,25C18.523243,25,18,24.4767494,18,23.8338337v-2.6676674
		C18,20.5232506,18.523243,20,19.1661587,20h2.6676674C22.4767418,20,23,20.5232506,23,21.1661663v2.6676674
		C23,24.4767494,22.4767418,25,21.8338261,25H19.1661587z"/>
	<path class="st15" d="M5.2004437,32H2.7995439C1.8063937,32,1,31.1951008,1,30.2004509v-2.4009018
		C1,26.8064003,1.8063937,26,2.7995439,26h2.4008999C6.1950936,26,7,26.8064003,7,27.7995491v2.4009018
		C7,31.1951008,6.1950936,32,5.2004437,32L5.2004437,32z"/>
	<path class="st24" d="M2.9329278,31C2.4185944,31,2,30.5813999,2,30.0670662v-2.1341324C2,27.4186001,2.4185944,27,2.9329278,27
		h2.1341331C5.5813942,27,6,27.4186001,6,27.9329338v2.1341324C6,30.5813999,5.5813942,31,5.0670609,31H2.9329278z"/>
	<circle class="st13" cx="11.5" cy="22.5" r="3.5"/>
	<circle class="st14" cx="11.4999914" cy="22.4999962" r="2.5000043"/>
</g>
</svg>
