<svg id="Icons" xmlns="http://www.w3.org/2000/svg" viewBox="0 0 32 32"><defs><style>.cls-1{fill:#6e6e6e}.cls-2{fill:#a9a9a9}.cls-3{fill:none}.cls-4{fill:#3b8fc4}.cls-5{fill:#f4f4f4}.cls-6{fill:#e0e0e0}</style></defs><title>relationaldatabaseconnection32</title><path class="cls-1" d="M17 29v-7h-3v7H3v3h25v-3H17z"/><path class="cls-2" d="M15 24h1v7h-1z"/><path class="cls-3" d="M0 0h32v32H0z"/><path class="cls-4" d="M2 4.875v16.25C2 23.818 8.045 26 15.5 26S29 23.818 29 21.125V4.875z"/><path class="cls-5" d="M15.5 25C7.87 25 3 22.705 3 21.125V5.875h25v15.25C28 22.705 23.13 25 15.5 25z"/><path class="cls-6" d="M20 5.875v18.832c4.987-.662 8-2.34 8-3.582V5.875z"/><ellipse class="cls-4" cx="15.5" cy="4.875" rx="13.5" ry="4.875"/><ellipse class="cls-5" cx="15.5" cy="4.875" rx="12.5" ry="3.875"/><path class="cls-2" d="M3 30h25v1H3z"/></svg>