<svg xmlns="http://www.w3.org/2000/svg" viewBox="0 0 32 32"><defs><style>.cls-1{fill:#6e6e6e}.cls-2{fill:#f8f8f8}.cls-3{fill:#828282}.cls-4{fill:none}.cls-5{fill:#6db5e3}.cls-6{fill:#57a6d9}.cls-7{fill:#bddbee}</style></defs><title>reporttemplate32</title><g id="Icons"><path class="cls-1" d="M28 31H4V1h17.3L28 7.7V31z"/><path class="cls-2" d="M27 7.99L21.01 2H5v28h22V7.99z"/><path class="cls-3" d="M7 11h18v16H7z"/><path class="cls-2" d="M8 14h16v10H8z"/><path class="cls-1" d="M21 8V2h-1v7h8V8h-7z"/><path class="cls-4" d="M0 0h32v32H0z"/><path class="cls-5" d="M8 12h16v2H8z"/><path class="cls-6" d="M8 11h16v1H8z"/><path class="cls-7" d="M8 16h16v2H8zM8 20h16v2H8zM8 24h16v2H8z"/><path class="cls-3" d="M7 7h11v1H7zM7 4h11v1H7z"/></g></svg>