<svg xmlns="http://www.w3.org/2000/svg" viewBox="0 0 32 32"><defs><style>.cls-1{fill:none}.cls-2{fill:#6e6e6e}.cls-3{fill:#f4eec8}.cls-4{fill:#e5d255}.cls-5{fill:#f0e498}</style></defs><title>routelayer32</title><g id="Icons"><path class="cls-1" d="M0 0h32v32H0z"/><rect class="cls-2" x="4.393" y="4.393" width="23.214" height="23.214" rx="1" ry="1" transform="rotate(45 16 16)"/><rect class="cls-3" x="5.393" y="5.393" width="21.215" height="21.215" rx="1" ry="1" transform="rotate(135 16 16)"/><rect class="cls-4" x="6.393" y="6.393" width="19.215" height="19.215" rx="1" ry="1" transform="rotate(135 16 16)"/><path class="cls-5" d="M10 23a1 1 0 0 1-1-1v-9a2.002 2.002 0 0 1 2-2h6V9a1 1 0 0 1 1.6-.8l6 4.5a1 1 0 0 1 0 1.6l-6 4.5A1 1 0 0 1 17 18v-2h-3v6a1 1 0 0 1-1 1z"/><path class="cls-2" d="M24 13.5L18 9v3h-7a1 1 0 0 0-1 1v9h3v-7h5v3z"/></g></svg>