<svg id="Icons" xmlns="http://www.w3.org/2000/svg" viewBox="0 0 16 16"><defs><style>.cls-1{fill:#e5d255;}.cls-2{fill:#f4eec8;}.cls-3{fill:#5b945a;}.cls-4{fill:#ddeedb;}.cls-5{fill:#f8f8f8;}.cls-6{fill:#9bc29c;}</style></defs><path class="cls-1" d="M16,14.4004s-3.20021-1.6016-8,0c-4.79981,1.5996-8,0-8,0L2.13279,1.5996A9.76183,9.76183,0,0,0,8,1.5996a9.76176,9.76176,0,0,1,5.86719,0Z"/><path class="cls-2" d="M14,12V5a.99974.99974,0,0,0-1-1H6a1.00012,1.00012,0,0,0-.707.293l-4,4A.99928.99928,0,0,0,1,9v5.752a12.03679,12.03679,0,0,0,7-.35156,13.038,13.038,0,0,1,4.71289-.69922L13.707,12.707A.99928.99928,0,0,0,14,12Z"/><polygon class="cls-3" points="6.3 5 2 9.3 2 16 8.7 16 13 11.7 13 5 6.3 5"/><rect class="cls-4" x="3" y="10" width="2" height="2"/><rect class="cls-4" x="8" y="8" width="2" height="2"/><rect class="cls-4" x="3" y="13" width="2" height="2"/><rect class="cls-4" x="6" y="13" width="2" height="2"/><polygon class="cls-5" points="6.293 8 4.414 8 3.414 9 5.293 9 6.293 8"/><polygon class="cls-5" points="8.293 6 6.414 6 5.414 7 7.293 7 8.293 6"/><polygon class="cls-5" points="11.293 6 9.414 6 8.414 7 10.293 7 11.293 6"/><polygon class="cls-5" points="8 11 7 12 8.293 12 9.293 11 8 11"/><polygon class="cls-6" points="6 9.707 6 11.586 7 10.586 7 8.707 6 9.707"/><polygon class="cls-6" points="11 7.707 11 9.586 12 8.586 12 6.707 11 7.707"/><path class="cls-6" d="M12,10v1.58594l-1,1V11ZM9,13v1.58594l1-1V12Z"/></svg>