<svg id="Icons" xmlns="http://www.w3.org/2000/svg" viewBox="0 0 32 32"><defs><style>.cls-1{fill:#e5d255}.cls-2{fill:#fff}.cls-3{fill:#6d6e71}.cls-11,.cls-3,.cls-7,.cls-9{fill-rule:evenodd}.cls-4{fill:#68aa67}.cls-5{fill:#ddeedb}.cls-6{fill:none}.cls-7{fill:#f8f8f8}.cls-8,.cls-9{fill:#d3b490}.cls-10{fill:#e9ded4}.cls-11{fill:#595959}</style></defs><title>scenepackage32</title><path class="cls-1" d="M31 28s-6-3-15 0-15 0-15 0L5 4s6 2 11 0 11 0 11 0z"/><path class="cls-2" d="M28 10a2.002 2.002 0 0 0-2 2v3a2.002 2.002 0 0 0 2 2h1.167z"/><path class="cls-2" d="M26 7V6a1.98 1.98 0 0 0 1.257-.457L27 4a20.973 20.973 0 0 0-6-.884V4a2.002 2.002 0 0 0 2 2v1h-4a1 1 0 0 0-1 1v2a2.002 2.002 0 0 0-2 2v3a2.002 2.002 0 0 0 2 2h3a2.002 2.002 0 0 0 2-2v-3a2.002 2.002 0 0 0-2-2h7l-.5-3z"/><path class="cls-3" d="M29 8h-4V1.986h-1V8h-5v3h1V9h9v2h1V8h-1z"/><rect class="cls-4" x="17" y="11" width="5" height="5" rx="1" ry="1"/><path class="cls-5" d="M18 12h3v3h-3z"/><rect class="cls-4" x="27" y="11" width="5" height="5" rx="1" ry="1"/><path class="cls-5" d="M28 12h3v3h-3z"/><rect class="cls-4" x="22" width="5" height="5" rx="1" ry="1"/><path class="cls-5" d="M23 1h3v3h-3z"/><path class="cls-6" d="M0 0h32v32H0z"/><path class="cls-7" d="M15.8 20.4l-3-4a1 1 0 0 0-.8-.4H3L1 28s6 3 15 0v-7a.997.997 0 0 0-.2-.6z"/><path class="cls-8" d="M0 22h15v10H0z"/><path class="cls-9" d="M15 21H0l3-4h9l3 4z"/><path class="cls-10" d="M0 21h15v1H0z"/><path class="cls-10" d="M0 21h15v1H0z"/><path class="cls-11" d="M7.5 24L4 27h2v3h3v-3h2l-3.5-3z"/><path class="cls-10" d="M7 17h1v4H7z"/></svg>