<svg id="Icons" xmlns="http://www.w3.org/2000/svg" viewBox="0 0 32 32"><defs><style>.cls-1{fill:#e5d255;}.cls-2{fill:#f4eec8;}.cls-3{fill:#5b945a;}.cls-4{fill:#ddeedb;}.cls-5{fill:#f8f8f8;}.cls-6{fill:#9bc29c;}</style></defs><path class="cls-1" d="M31,27s-6-3-15,0S1,27,1,27L5,3s6,2,11,0S27,3,27,3Z"/><path class="cls-2" d="M26,24.7002V12a.99974.99974,0,0,0-1-1H12.2998a1.00014,1.00014,0,0,0-.707.293L5.293,17.59277a.99928.99928,0,0,0-.293.707v9.80426A23.59384,23.59384,0,0,0,16,27a24.20462,24.20462,0,0,1,9.38879-1.27454l.31824-.31823A.99928.99928,0,0,0,26,24.7002Z"/><polygon class="cls-3" points="12.3 12 6 18.3 6 31 18.7 31 25 24.7 25 12 12.3 12"/><rect class="cls-4" x="15" y="15" width="3" height="3"/><rect class="cls-4" x="19" y="15" width="3" height="3"/><rect class="cls-4" x="7" y="27" width="3" height="3"/><rect class="cls-4" x="7" y="23" width="3" height="3"/><rect class="cls-4" x="11" y="27" width="3" height="3"/><rect class="cls-4" x="15" y="27" width="3" height="3"/><rect class="cls-4" x="17" y="21" width="3" height="3"/><rect class="cls-4" x="11" y="23" width="3" height="3"/><rect class="cls-4" x="7" y="19" width="3" height="3"/><polygon class="cls-4" points="19.586 25 17 25 16 26 18.586 26 19.586 25"/><polygon class="cls-5" points="19 13 16.707 13 15.707 14 18 14 19 13"/><polygon class="cls-5" points="20.414 13 19.414 14 22.286 14 23.286 13 20.414 13"/><polygon class="cls-5" points="7.414 18 8.414 17 11.286 17 10.286 18 7.414 18"/><polygon class="cls-5" points="11.414 14 12.414 13 15.286 13 14.286 14 11.414 14"/><polygon class="cls-5" points="9.414 16 10.414 15 13.286 15 12.286 16 9.414 16"/><polygon class="cls-5" points="17 19 14.707 19 13.707 20 16 20 17 19"/><polygon class="cls-5" points="15 21 12.707 21 11.707 22 14 22 15 21"/><polygon class="cls-5" points="18.414 19 17.414 20 20.286 20 21.286 19 18.414 19"/><polygon class="cls-6" points="23 23 23 25.672 24 24.672 24 22 23 23"/><polygon class="cls-6" points="21 25 21 27.672 22 26.672 22 24 21 25"/><polygon class="cls-6" points="19 27 19 29.672 20 28.672 20 26 19 27"/><polygon class="cls-6" points="14 18.293 14 15.7 13 16.7 13 19.293 14 18.293"/><polygon class="cls-6" points="12 20.293 12 17.7 11 18.7 11 21.293 12 20.293"/><polygon class="cls-6" points="21 20.7 21 23.572 22 22.572 22 19.7 21 20.7"/><polygon class="cls-6" points="15 25.572 16 24.572 16 21.7 15 22.7 15 25.572"/><polygon class="cls-6" points="23 18.707 23 21.572 24 20.572 24 17.707 23 18.707"/><polygon class="cls-6" points="24 16.293 24 13.7 23 14.7 23 17.293 24 16.293"/></svg>