<svg id="Icons" xmlns="http://www.w3.org/2000/svg" viewBox="0 0 32 32"><defs><style>.cls-1{fill:none}.cls-2{fill:#e5d255}.cls-3{fill:#f4eec8}.cls-4{fill:#58595b}.cls-5{fill:#f8f8f8}.cls-6{fill:#6d6e71;fill-rule:evenodd}.cls-7{fill:#68aa67}.cls-8{fill:#ddeedb}</style></defs><title>sceneweblayerpoint32</title><path class="cls-1" d="M0 0h32v32H0z"/><path class="cls-2" d="M31 28s-6-3-15 0-15 0-15 0L5 4s6 2 11 0 11 0 11 0z"/><path class="cls-3" d="M15 13.8a2.8 2.8 0 1 1 2.8-2.8 2.803 2.803 0 0 1-2.8 2.8z"/><path class="cls-4" d="M16.8 11A1.8 1.8 0 1 1 15 9.2a1.8 1.8 0 0 1 1.8 1.8z"/><path class="cls-3" d="M9 23.8a2.8 2.8 0 1 1 2.8-2.8A2.803 2.803 0 0 1 9 23.8z"/><path class="cls-4" d="M10.8 21A1.8 1.8 0 1 1 9 19.2a1.8 1.8 0 0 1 1.8 1.8z"/><path class="cls-3" d="M22 21.8a2.8 2.8 0 1 1 2.8-2.8 2.803 2.803 0 0 1-2.8 2.8z"/><path class="cls-4" d="M23.8 19a1.8 1.8 0 1 1-1.8-1.8 1.8 1.8 0 0 1 1.8 1.8z"/><path class="cls-5" d="M28 10a2.002 2.002 0 0 0-2 2v3a2.002 2.002 0 0 0 2 2h1.167z"/><path class="cls-5" d="M26 7V6a1.98 1.98 0 0 0 1.257-.457L27 4a20.973 20.973 0 0 0-6-.884V4a2.002 2.002 0 0 0 2 2v1h-4a1 1 0 0 0-1 1v2a2.002 2.002 0 0 0-2 2v3a2.002 2.002 0 0 0 2 2h3a2.002 2.002 0 0 0 2-2v-3a2.002 2.002 0 0 0-2-2h7l-.5-3z"/><path class="cls-6" d="M29 8h-4V1.986h-1V8h-5v3h1V9h9v2h1V8h-1z"/><rect class="cls-7" x="17" y="11" width="5" height="5" rx="1" ry="1"/><path class="cls-8" d="M18 12h3v3h-3z"/><rect class="cls-7" x="27" y="11" width="5" height="5" rx="1" ry="1"/><path class="cls-8" d="M28 12h3v3h-3z"/><rect class="cls-7" x="22" width="5" height="5" rx="1" ry="1"/><path class="cls-8" d="M23 1h3v3h-3z"/></svg>