<svg id="Icons" xmlns="http://www.w3.org/2000/svg" viewBox="0 0 32 32"><defs><style>.cls-1{fill:none}.cls-2{fill:#e5d255}.cls-3{fill:#6d6e71}.cls-4{fill:#f8f8f8}.cls-5{fill:#e0e0e0}.cls-6{fill:#ccc}</style></defs><title>layer3d_32</title><path class="cls-1" d="M0 0h32v32H0z"/><path class="cls-2" d="M31 28s-6-3-15 0-15 0-15 0L5 4s6 2 11 0 11 0 11 0z"/><path class="cls-3" d="M7 15h9v17H7zM15 11H8l-1 4h9l-1-4z"/><path class="cls-4" d="M8 15l.78-3h5.44l.78 3H8z"/><path class="cls-5" d="M8 16h7v15H8z"/><path class="cls-3" d="M18 21h9v11h-9zM25.96 17h-7l-.998 4h9l-1-4z"/><path class="cls-4" d="M19 21l.78-3h5.44l.78 3h-7z"/><path class="cls-5" d="M19 22h7v9h-7z"/><path class="cls-6" d="M20 23h1v1h-1zM22 23h1v1h-1zM24 23h1v1h-1zM20 25h1v1h-1zM22 25h1v1h-1zM24 25h1v1h-1zM20 27h1v1h-1zM22 27h1v1h-1zM24 27h1v1h-1zM20 29h1v1h-1zM22 29h1v1h-1zM24 29h1v1h-1zM9 17h1v1H9zM11 17h1v1h-1zM13 17h1v1h-1zM9 19h1v1H9zM11 19h1v1h-1zM13 19h1v1h-1zM9.002 21h1v1h-1zM11 21h1v1h-1zM13 21h1v1h-1zM9.002 23h1v1h-1zM11.002 23h1v1h-1zM13.002 23h1v1h-1zM9.002 25h1v1h-1zM11.002 25h1v1h-1zM13.002 25h1v1h-1zM9.002 27h1v1h-1zM11.002 27h1v1h-1zM13.002 27h1v1h-1zM9 29h1v1H9zM11 29h1v1h-1zM13 29h1v1h-1z"/><path class="cls-4" d="M8 16h1v15H8zM19 22h1v9h-1z"/><path class="cls-3" d="M22 14h1v5h-1z"/></svg>