<svg id="Icons" xmlns="http://www.w3.org/2000/svg" viewBox="0 0 32 32">
  <defs>
    <style>
      .cls-1 {
        fill: #e5d255;
      }

      .cls-2 {
        fill: #f4eec8;
      }

      .cls-3 {
        fill: #6e6e6e;
      }

      .cls-4 {
        fill: #f8f8f8;
      }

      .cls-5 {
        fill: #e7e7e7;
      }

      .cls-6 {
        fill: #6db5e3;
      }

      .cls-7 {
        fill: #828282;
      }

      .cls-8 {
        fill: #9182bd;
      }

      .cls-9 {
        fill: #fff;
      }

      .cls-10 {
        fill: #6d6e71;
        fill-rule: evenodd;
      }

      .cls-11 {
        fill: #68aa67;
      }

      .cls-12 {
        fill: #ddeedb;
      }

      .cls-13 {
        fill: none;
      }
    </style>
  </defs>
  <title>I3SBuildingSceneLayer32</title>
  <path class="cls-1" d="M31,28s-6-3-15,0S1,28,1,28L5,4s6,2,11,0S27,4,27,4Z"/>
  <path class="cls-2" d="M16,28a25.60218,25.60218,0,0,1,6-1.25055V13a.99943.99943,0,0,0-1-1H18V11a.99943.99943,0,0,0-1-1H13V8a.99943.99943,0,0,0-1-1H11a.99943.99943,0,0,0-1,1v2H9a.99943.99943,0,0,0-1,1v2H5a.99943.99943,0,0,0-1,1V28.92694A23.13791,23.13791,0,0,0,16,28Z"/>
  <polygon class="cls-3" points="17 13 17 11 9 11 9 14 5 14 5 31 8 31 9 31 13 31 14 31 21 31 21 13 17 13"/>
  <rect class="cls-3" x="3" y="31" width="20" height="1"/>
  <rect class="cls-3" x="11" y="8" width="1" height="3"/>
  <polygon class="cls-4" points="16 14 16 12 10 12 10 15 6 15 6 31 9 31 10 31 12 31 13 31 20 31 20 14 16 14"/>
  <polygon class="cls-5" points="7 31 7 16 11 16 11 13 15 13 15 15 19 15 19 31 7 31"/>
  <rect class="cls-6" x="12" y="14" width="2" height="2"/>
  <rect class="cls-7" x="12" y="15" width="2" height="1"/>
  <rect class="cls-6" x="8" y="17" width="2" height="2"/>
  <rect class="cls-7" x="8" y="18" width="2" height="1"/>
  <rect class="cls-6" x="12" y="17" width="2" height="2"/>
  <rect class="cls-7" x="12" y="18" width="2" height="1"/>
  <rect class="cls-6" x="16" y="17" width="2" height="2"/>
  <rect class="cls-7" x="16" y="18" width="2" height="1"/>
  <rect class="cls-6" x="8" y="20" width="2" height="2"/>
  <rect class="cls-7" x="8" y="21" width="2" height="1"/>
  <rect class="cls-6" x="12" y="20" width="2" height="2"/>
  <rect class="cls-7" x="12" y="21" width="2" height="1"/>
  <rect class="cls-6" x="16" y="20" width="2" height="2"/>
  <rect class="cls-7" x="16" y="21" width="2" height="1"/>
  <rect class="cls-6" x="8" y="23" width="2" height="2"/>
  <rect class="cls-7" x="8" y="24" width="2" height="1"/>
  <rect class="cls-6" x="12" y="23" width="2" height="2"/>
  <rect class="cls-7" x="12" y="24" width="2" height="1"/>
  <rect class="cls-6" x="16" y="23" width="2" height="2"/>
  <rect class="cls-7" x="16" y="24" width="2" height="1"/>
  <rect class="cls-4" x="11" y="26" width="4" height="4.9995"/>
  <rect class="cls-8" x="12" y="27" width="2" height="4"/>
  <g>
    <g>
      <path class="cls-9" d="M28.0005,10a2.00229,2.00229,0,0,0-2,2v3a2.00229,2.00229,0,0,0,2,2h1.16669Z"/>
      <path class="cls-9" d="M26,7V6a1.98037,1.98037,0,0,0,1.25714-.45734L27,4a20.97346,20.97346,0,0,0-6-.88434V4a2.00229,2.00229,0,0,0,2,2V7H19a.99974.99974,0,0,0-1,1v2a2.00229,2.00229,0,0,0-2,2v3a2.00229,2.00229,0,0,0,2,2h3a2.00229,2.00229,0,0,0,2-2V12a2.00229,2.00229,0,0,0-2-2h7l-.5-3Z"/>
    </g>
    <polygon class="cls-10" points="29 8 25 8 25 2 24 2 24 8 24 8 20 8 19 8 19 11 20 11 20 9 24 9 25 9 29 9 29 11 30 11 30 8 29 8"/>
    <rect class="cls-11" x="17" y="11" width="5" height="5" rx="1" ry="1"/>
    <rect class="cls-12" x="18" y="12" width="3" height="3"/>
    <rect class="cls-11" x="27" y="11" width="5" height="5" rx="1" ry="1"/>
    <rect class="cls-12" x="28" y="12" width="3" height="3"/>
    <rect class="cls-11" x="22" width="5" height="5" rx="1" ry="1"/>
    <rect class="cls-12" x="23" y="1" width="3" height="3"/>
  </g>
  <rect class="cls-13" width="32" height="32"/>
</svg>
