<svg id="Icons" xmlns="http://www.w3.org/2000/svg" viewBox="0 0 16 16">
  <defs>
    <style>
      .cls-1 {
        fill: none;
      }

      .cls-2 {
        fill: #e5d255;
      }

      .cls-3 {
        fill: #f4eec8;
      }

      .cls-4 {
        fill: #6e6e6e;
      }

      .cls-5 {
        fill: #e7e7e7;
      }

      .cls-6 {
        fill: #57a6d9;
      }

      .cls-7 {
        fill: #7c6da8;
      }

      .cls-8 {
        fill: #f8f8f8;
      }

      .cls-10, .cls-8 {
        fill-rule: evenodd;
      }

      .cls-10, .cls-9 {
        fill: #6d6e71;
      }

      .cls-11 {
        fill: #68aa67;
      }

      .cls-12 {
        fill: #ddeedb;
      }
    </style>
  </defs>
  <title>I3SBuildingSceneLayer16</title>
  <rect class="cls-1" width="16" height="16"/>
  <path class="cls-2" d="M16,14.4004s-3.20021-1.6016-8,0c-4.79981,1.5996-8,0-8,0L2.13279,1.5996A9.76183,9.76183,0,0,0,8,1.5996a9.76176,9.76176,0,0,1,5.86719,0Z"/>
  <path class="cls-2" d="M16,14.4004s-3.20021-1.6016-8,0c-4.79981,1.5996-8,0-8,0L2.13279,1.5996A9.76183,9.76183,0,0,0,8,1.5996a9.76176,9.76176,0,0,1,5.86719,0Z"/>
  <path class="cls-3" d="M11,5H10A.99943.99943,0,0,0,9,4H7A.99943.99943,0,0,0,6,3H5A.99943.99943,0,0,0,4,4,.99943.99943,0,0,0,3,5V6H2a.98475.98475,0,0,0-.64178.2486L1,8.39856V14a.98328.98328,0,0,0-.8302.4751A11.41233,11.41233,0,0,0,8,14.40039a13.33827,13.33827,0,0,1,4-.70953V6A.99943.99943,0,0,0,11,5Z"/>
  <g>
    <polygon class="cls-4" points="4 5 4 7 2 7 2 15 11 15 11 6 9 6 9 7 9 5 4 5"/>
    <polygon class="cls-5" points="3 15 3 8 5 8 5 6 8 6 8 7 10 7 10 15 3 15"/>
    <rect class="cls-4" x="5" y="4" width="1" height="1"/>
    <rect class="cls-4" x="1" y="15" width="11" height="1"/>
    <rect class="cls-6" x="4.00049" y="9" width="0.99951" height="1"/>
    <rect class="cls-6" x="8.00049" y="9" width="0.99951" height="1"/>
    <rect class="cls-6" x="6.00049" y="9" width="0.99951" height="1"/>
    <rect class="cls-6" x="6.00049" y="7" width="0.99951" height="1"/>
    <rect class="cls-6" x="8.00049" y="11" width="0.99951" height="1"/>
    <rect class="cls-6" x="6.00049" y="11" width="0.99951" height="1"/>
    <rect class="cls-6" x="4.00049" y="11" width="0.99951" height="1"/>
    <rect class="cls-7" x="6" y="13" width="1" height="2"/>
  </g>
  <path class="cls-8" d="M13.86719,1.59961A11,11,0,0,0,10,1.15411V2.40039A1.58706,1.58706,0,0,0,10.119,3H10A.99974.99974,0,0,0,9,4V5.119A1.60126,1.60126,0,0,0,8,6.60059v1.7998A1.60166,1.60166,0,0,0,9.59961,10h1.80078A1.59086,1.59086,0,0,0,12.5,9.5564,1.59086,1.59086,0,0,0,13.59961,10h1.66724Z"/>
  <g>
    <rect class="cls-9" x="12" y="1" width="1" height="2.99951"/>
    <polygon class="cls-10" points="10 4 10 5 10 8 11 8 11 5 14 5 14 8 15 8 15 5 15 4 10 4"/>
  </g>
  <g>
    <path class="cls-11" d="M9.5996,6h1.80031A.60009.60009,0,0,1,12,6.60009V8.39991A.60009.60009,0,0,1,11.39991,9H9.60011A.60011.60011,0,0,1,9,8.39989V6.5996A.5996.5996,0,0,1,9.5996,6Z"/>
    <rect class="cls-12" x="10" y="7" width="1" height="1"/>
    <path class="cls-11" d="M13.5996,6h1.80031A.60009.60009,0,0,1,16,6.60009V8.39991A.60009.60009,0,0,1,15.39991,9H13.5996A.5996.5996,0,0,1,13,8.4004V6.5996A.5996.5996,0,0,1,13.5996,6Z"/>
    <rect class="cls-12" x="14" y="7" width="1" height="1"/>
    <path class="cls-11" d="M11.60011,0h1.7998A.60009.60009,0,0,1,14,.60009V2.39991A.60009.60009,0,0,1,13.39991,3h-1.7998A.60011.60011,0,0,1,11,2.39989V.60011A.60011.60011,0,0,1,11.60011,0Z"/>
    <rect class="cls-12" x="12" y="1" width="1" height="1"/>
  </g>
</svg>
