<svg id="Icons" xmlns="http://www.w3.org/2000/svg" viewBox="0 0 32 32"><defs><style>.cls-1{fill:none}.cls-2{fill:#e5d255}.cls-3{fill:#f4eec8}.cls-3,.cls-4,.cls-5,.cls-6{fill-rule:evenodd}.cls-4{fill:#6d6e71}.cls-5,.cls-7{fill:#f8f8f8}.cls-6{fill:#a7a9ac}.cls-8{fill:#68aa67}.cls-9{fill:#ddeedb}</style></defs><title>sceneweblayersmultipatch32</title><path class="cls-1" d="M0 0h32v32H0z"/><path class="cls-2" d="M31 28s-6-3-15 0-15 0-15 0L5 4s6 2 11 0 11 0 11 0z"/><path class="cls-3" d="M15.877 25.268a1.14 1.14 0 0 1-.296-.07 1.41 1.41 0 0 1-.203-.107l-.002.004-8.84-5.633A1.14 1.14 0 0 1 6 18.49V11.9a1.148 1.148 0 0 1 .556-.986.98.98 0 0 1 .115-.06c.237-.1 8.866-3.2 8.953-3.23a1.356 1.356 0 0 1 .394-.07 1.164 1.164 0 0 1 .378.063c2.638.952 8.753 3.162 8.912 3.227a1.13 1.13 0 0 1 .128.065 1.16 1.16 0 0 1 .565.99v6.59a1.143 1.143 0 0 1-.544.978l-8.838 5.63a1.35 1.35 0 0 1-.176.09.988.988 0 0 1-.182.058 1.55 1.55 0 0 1-.18.026.91.91 0 0 1-.08.003 1.07 1.07 0 0 1-.123-.007z"/><path class="cls-4" d="M24.893 11.768c-.123-.05-5.82-2.12-8.815-3.206a.162.162 0 0 0-.105 0v.003c-3 1.082-8.713 3.146-8.858 3.208a.15.15 0 0 0-.064.127v6.59a.152.152 0 0 0 .072.13l8.804 5.632.045.02.04.003a.345.345 0 0 0 .04-.005s.027-.01.034-.014l8.812-5.637a.15.15 0 0 0 .07-.13V11.9a.154.154 0 0 0-.073-.132z"/><path class="cls-5" d="M7.988 11.98c.272.14 7.95 4.108 8.02 4.143.068-.035 7.71-4.03 7.99-4.174l-7.973-2.92c-.048.02-7.73 2.84-8.037 2.95z"/><path class="cls-6" d="M7.508 18.324l8.198 5.246v-6.886l-8.198-4.286v5.926z"/><path class="cls-4" d="M16.31 16.684v6.886l8.2-5.246v-5.926c-.212.112-8.12 4.245-8.2 4.286z"/><path class="cls-7" d="M26 7V6a1.98 1.98 0 0 0 1.257-.457L27 4a20.973 20.973 0 0 0-6-.884V4a2.002 2.002 0 0 0 2 2v1h-4a1 1 0 0 0-1 1v2a2.002 2.002 0 0 0-2 2v3a2.002 2.002 0 0 0 2 2h3a2.002 2.002 0 0 0 2-2v-3a2.002 2.002 0 0 0-2-2h7l-.5-3z"/><path class="cls-7" d="M28 10a2.002 2.002 0 0 0-2 2v3a2.002 2.002 0 0 0 2 2h1.167z"/><path class="cls-4" d="M29 8h-4V1.986h-1V8h-5v3h1V9h9v2h1V8h-1z"/><rect class="cls-8" x="17" y="11" width="5" height="5" rx="1" ry="1"/><path class="cls-9" d="M18 12h3v3h-3z"/><rect class="cls-8" x="27" y="11" width="5" height="5" rx="1" ry="1"/><path class="cls-9" d="M28 12h3v3h-3z"/><rect class="cls-8" x="22" width="5" height="5" rx="1" ry="1"/><path class="cls-9" d="M23 1h3v3h-3z"/><path class="cls-1" d="M-1-1h17v18H-1z"/></svg>