<svg id="Icons" xmlns="http://www.w3.org/2000/svg" viewBox="0 0 32 32"><defs><style>.cls-1{fill:none}.cls-2{fill:#e5d255}.cls-3{fill:#f4eec8}.cls-4,.cls-6{fill:#6d6e71}.cls-5{fill:#f8f8f8}.cls-6{fill-rule:evenodd}.cls-7{fill:#68aa67}.cls-8{fill:#ddeedb}</style></defs><title>sceneweblayerline32</title><path class="cls-1" d="M0 0h32v32H0z"/><path class="cls-2" d="M31 28s-6-3-15 0-15 0-15 0L5 4s6 2 11 0 11 0 11 0z"/><rect class="cls-3" x="14" y="7" width="4" height="18" rx="1" ry="1"/><rect class="cls-3" x="15" y="10" width="9" height="4" rx="1" ry="1"/><rect class="cls-3" x="7" y="18" width="9" height="4" rx="1" ry="1"/><path class="cls-4" d="M15 8h2v16h-2z"/><path class="cls-4" d="M16 11h7v2h-7zM8 19h7v2H8z"/><path class="cls-5" d="M26 7V6a1.98 1.98 0 0 0 1.257-.457L27 4a20.973 20.973 0 0 0-6-.884V4a2.002 2.002 0 0 0 2 2v1h-4a1 1 0 0 0-1 1v2a2.002 2.002 0 0 0-2 2v3a2.002 2.002 0 0 0 2 2h3a2.002 2.002 0 0 0 2-2v-3a2.002 2.002 0 0 0-2-2h7l-.5-3z"/><path class="cls-5" d="M28 10a2.002 2.002 0 0 0-2 2v3a2.002 2.002 0 0 0 2 2h1.167z"/><path class="cls-6" d="M29 8h-4V1.986h-1V8h-5v3h1V9h9v2h1V8h-1z"/><rect class="cls-7" x="17" y="11" width="5" height="5" rx="1" ry="1"/><path class="cls-8" d="M18 12h3v3h-3z"/><rect class="cls-7" x="27" y="11" width="5" height="5" rx="1" ry="1"/><path class="cls-8" d="M28 12h3v3h-3z"/><rect class="cls-7" x="22" width="5" height="5" rx="1" ry="1"/><path class="cls-8" d="M23 1h3v3h-3z"/></svg>