<svg id="Icons" xmlns="http://www.w3.org/2000/svg" viewBox="0 0 32 32"><defs><style>.cls-1{fill:none}.cls-2{fill:#e5d255}.cls-3{fill:#6d6e71}.cls-4{fill:#e0e0e0}.cls-5{fill:#f8f8f8}.cls-6{fill:#808284}.cls-7{fill:#a7a9ac}</style></defs><title>sceneweblayersmesh32</title><path class="cls-1" d="M0 0h32v32H0z"/><path class="cls-2" d="M31 30s-6-3-15 0-15 0-15 0L5 6s6 2 11 0 11 0 11 0z"/><path class="cls-1" d="M0 0h32v32H0z"/><path class="cls-1" d="M0 0h32v32H0z"/><path class="cls-3" d="M23 14v-2h-1V9h-1v3h-1v2h-2v13h7V14h-2z"/><path class="cls-4" d="M19 15h5v12h-5z"/><path class="cls-5" d="M19 15h1v12h-1z"/><path class="cls-4" d="M21 13h1v1h-1z"/><path class="cls-6" d="M15 17h-1v-1h-1v-1H8v1H7v1H6v5h1v1h1v1h5v-1h1v-1h1v-5z"/><path class="cls-4" d="M9 23v-1H8v-1H7v-3h1v-1h1v-1h3v1h1v1h1v3h-1v1h-1v1H9z"/><path class="cls-6" d="M10 23h1v4h-1z"/><path class="cls-5" d="M15.868 6.046C10.894 7.96 5 6 5 6l-.402 2.412 2.91 4.265a1.202 1.202 0 0 0 .893.52c.034 0 .067.003.1.003a1.2 1.2 0 0 0 .866-.37z"/><path class="cls-6" d="M.31 0L8.5 12 20 0H.31z"/><path class="cls-7" d="M3.605 3L8 6.142V10L3.605 3z"/><path class="cls-5" d="M3 1l6.5 4L17 1H3z"/><path class="cls-3" d="M5 26h22v1H5z"/></svg>