<svg id="Icons" xmlns="http://www.w3.org/2000/svg" viewBox="0 0 32 32"><defs><style>.cls-1{fill:none}.cls-2{fill:#e5d255}.cls-3{fill:#f4eec8}.cls-12,.cls-4{fill:#6d6e71}.cls-5{fill:#f0e498}.cls-6{fill:#eeaa5a}.cls-7{fill:#bddbee}.cls-8{fill:#d3eaf9}.cls-9{fill:#58595b}.cls-10{fill:#f7cb93}.cls-11{fill:#f8f8f8}.cls-12{fill-rule:evenodd}.cls-13{fill:#68aa67}.cls-14{fill:#ddeedb}</style></defs><title>sceneweblayerpolygon32</title><path class="cls-1" d="M0 0h32v32H0z"/><path class="cls-2" d="M31 28s-6-3-15 0-15 0-15 0L5 4s6 2 11 0 11 0 11 0z"/><path class="cls-3" d="M8.11 27.533a18.584 18.584 0 0 1-3.983-.418 1.198 1.198 0 0 1-.927-1.37L6.255 7.42a1.195 1.195 0 0 1 1.183-1.004 1.145 1.145 0 0 1 .18.016 22.075 22.075 0 0 0 3.308.258A15.42 15.42 0 0 0 16.67 5.67a11.87 11.87 0 0 1 4.404-.76 18.726 18.726 0 0 1 3.516.348 1.203 1.203 0 0 1 .958.982l2.91 17.463a1.198 1.198 0 0 1-1.183 1.397 1.216 1.216 0 0 1-.168-.012 23.287 23.287 0 0 0-3.218-.22 26.76 26.76 0 0 0-8.458 1.423 23.15 23.15 0 0 1-7.32 1.243z"/><path class="cls-4" d="M8.11 26.332a17.515 17.515 0 0 1-3.726-.39L7.438 7.616a23.273 23.273 0 0 0 3.488.274 16.613 16.613 0 0 0 6.188-1.105 10.678 10.678 0 0 1 3.96-.674 17.856 17.856 0 0 1 3.29.325l2.91 17.465a24.338 24.338 0 0 0-3.385-.234 27.906 27.906 0 0 0-8.838 1.488 22.005 22.005 0 0 1-6.94 1.178z"/><path class="cls-5" d="M23.32 7.477a16.09 16.09 0 0 0-1.97-.155l-4.655 8.143 5.222 7.086a26.75 26.75 0 0 1 1.972-.083c.65 0 1.3.023 1.942.072z"/><path class="cls-6" d="M15.448 16h-8.19L5.76 24.97a16.78 16.78 0 0 0 2.35.163 20.806 20.806 0 0 0 6.56-1.117 30.17 30.17 0 0 1 5.726-1.3z"/><path class="cls-7" d="M15.41 15l4.35-7.613a8.432 8.432 0 0 0-2.2.51 17.803 17.803 0 0 1-6.634 1.19 23.696 23.696 0 0 1-2.494-.134L7.424 15z"/><circle class="cls-8" cx="12.5" cy="11.5" r="2"/><circle class="cls-9" cx="12.5" cy="11.5" r="1"/><circle class="cls-3" cx="21.5" cy="15.5" r="2"/><circle class="cls-9" cx="21.5" cy="15.5" r="1"/><circle class="cls-10" cx="11.5" cy="20.5" r="2"/><circle class="cls-9" cx="11.5" cy="20.5" r="1"/><path class="cls-1" d="M0 0h32v32H0z"/><path class="cls-11" d="M28 10a2.002 2.002 0 0 0-2 2v3a2.002 2.002 0 0 0 2 2h1.167z"/><path class="cls-11" d="M26 7V6a1.98 1.98 0 0 0 1.257-.457L27 4a20.973 20.973 0 0 0-6-.884V4a2.002 2.002 0 0 0 2 2v1h-4a1 1 0 0 0-1 1v2a2.002 2.002 0 0 0-2 2v3a2.002 2.002 0 0 0 2 2h3a2.002 2.002 0 0 0 2-2v-3a2.002 2.002 0 0 0-2-2h7l-.5-3z"/><path class="cls-12" d="M29 8h-4V1.986h-1V8h-5v3h1V9h9v2h1V8h-1z"/><rect class="cls-13" x="17" y="11" width="5" height="5" rx="1" ry="1"/><path class="cls-14" d="M18 12h3v3h-3z"/><rect class="cls-13" x="27" y="11" width="5" height="5" rx="1" ry="1"/><path class="cls-14" d="M28 12h3v3h-3z"/><rect class="cls-13" x="22" width="5" height="5" rx="1" ry="1"/><path class="cls-14" d="M23 1h3v3h-3z"/></svg>