<svg id="Icons" xmlns="http://www.w3.org/2000/svg" viewBox="0 0 32 32"><defs><style>.cls-1{fill:none}.cls-2{fill:#e5d255}.cls-3{fill:#f4eec8}.cls-4{fill:#58595b}.cls-5{fill:#f8f8f8}.cls-6{fill:#57a6d9}.cls-7{fill:#d3eaf9}</style></defs><title>sceneweblayerpointcloud32</title><path class="cls-1" d="M0 0h32v32H0z"/><path class="cls-2" d="M31 28s-6-3-15 0-15 0-15 0L5 4s6 2 11 0 11 0 11 0z"/><path class="cls-3" d="M15 16.8a2.8 2.8 0 1 1 2.8-2.8 2.803 2.803 0 0 1-2.8 2.8z"/><path class="cls-4" d="M16.8 14a1.8 1.8 0 1 1-1.8-1.8 1.8 1.8 0 0 1 1.8 1.8z"/><path class="cls-3" d="M9 24.8a2.8 2.8 0 1 1 2.8-2.8A2.803 2.803 0 0 1 9 24.8z"/><path class="cls-4" d="M10.8 22A1.8 1.8 0 1 1 9 20.2a1.8 1.8 0 0 1 1.8 1.8z"/><path class="cls-3" d="M22 22.8a2.8 2.8 0 1 1 2.8-2.8 2.803 2.803 0 0 1-2.8 2.8z"/><path class="cls-4" d="M23.8 20a1.8 1.8 0 1 1-1.8-1.8 1.8 1.8 0 0 1 1.8 1.8z"/><path class="cls-5" d="M19 9.315a3.69 3.69 0 0 0-1.62-3.07c.004-.06.006-.124.006-.186a4.174 4.174 0 0 0-.696-2.3c-.23.075-.462.15-.69.24C11 6 5 4 5 4l-1.495 8.97h11.96A3.606 3.606 0 0 0 19 9.316z"/><path class="cls-6" d="M16.295 6.81a3.328 3.328 0 0 0 .09-.75 3.052 3.052 0 0 0-2.982-3.12c-.047 0-.09.004-.136.007A3.64 3.64 0 0 0 9.762.03a3.554 3.554 0 0 0-2.94 1.595 2.86 2.86 0 0 0-1.124-.232 3.028 3.028 0 0 0-2.96 3.095c0 .103.007.207.016.308A3.59 3.59 0 0 0 0 8.344a3.55 3.55 0 0 0 3.466 3.627h11.997A2.602 2.602 0 0 0 18 9.316a2.65 2.65 0 0 0-1.705-2.506z"/><path class="cls-7" d="M3.466 10.97A2.554 2.554 0 0 1 1 8.345a2.6 2.6 0 0 1 1.968-2.572l.86-.187-.078-.876a2.548 2.548 0 0 1-.01-.222 2.033 2.033 0 0 1 1.958-2.095 1.865 1.865 0 0 1 .733.15l.758.323.46-.68a2.57 2.57 0 0 1 2.114-1.157 2.63 2.63 0 0 1 2.53 2.134l.185.836.863-.055a2.062 2.062 0 0 1 2.046 2.114 2.347 2.347 0 0 1-.066.525l-.198.86.83.303A1.65 1.65 0 0 1 17 9.315a1.604 1.604 0 0 1-1.54 1.656z"/></svg>