<svg id="Icons" xmlns="http://www.w3.org/2000/svg" viewBox="0 0 16 16"><defs><style>.cls-1,.cls-6{fill:none;}.cls-1{stroke:#ccc;stroke-miterlimit:10;stroke-width:0.5px;}.cls-2{fill:#7c6da8;}.cls-3{fill:#e6e2f0;}.cls-4{fill:#c5bddd;}.cls-5{fill:#f8f8f8;}</style></defs><title>item_type_16</title><rect class="cls-1" x="-513" y="-121" width="905" height="288"/><rect class="cls-2" y="2" width="16" height="12" rx="0.99655" ry="0.99655"/><rect class="cls-3" x="3" y="1" width="10" height="14" transform="translate(16) rotate(90)"/><rect class="cls-4" x="3.5" y="1.5" width="9" height="14" transform="translate(16.5 0.5) rotate(90)"/><path class="cls-2" d="M5,3V1h6V3h1V1a1.003,1.003,0,0,0-1-1H5.08331a1.003,1.003,0,0,0-1,1V3Z"/><circle class="cls-2" cx="9.5" cy="7.5" r="1.8"/><rect class="cls-2" y="7" width="14" height="1"/><rect class="cls-4" y="6" width="1" height="1"/><rect class="cls-4" y="8" width="1" height="1"/><rect class="cls-5" x="9" y="7" width="1" height="1"/><circle class="cls-2" cx="4.5" cy="13.5" r="1.8"/><rect class="cls-5" x="4" y="13" width="1" height="1"/><rect class="cls-6" width="16" height="16"/></svg>