<svg id="Icons" xmlns="http://www.w3.org/2000/svg" viewBox="0 0 32 32"><defs><style>.cls-1{fill:none}.cls-2{fill:#e5d255}.cls-3{fill:#6e6e6e}.cls-4{fill:#f8f8f8}.cls-5{fill:#6db5e3}.cls-6{fill:#828282}.cls-7{fill:#f4eec8}</style></defs><title>spatiotemporaltable32</title><path class="cls-1" d="M0 0h32v32H0z"/><path class="cls-1" d="M0 0h32v32H0z"/><path class="cls-2" d="M31 28s-6-3-15 0-15 0-15 0L5 4s6 2 11 0 11 0 11 0z"/><path class="cls-3" d="M6 8h20v16H6z"/><path class="cls-4" d="M7 9h18v14H7z"/><path class="cls-5" d="M7 9h18v2H7z"/><path class="cls-6" d="M7 17h18v1H7zM7 20h18v1H7zM7 14h18v1H7zM7 11h18v1H7z"/><path class="cls-6" d="M11 11.998h1V23h-1zM21 11.998h1V23h-1zM16 11.998h1V23h-1z"/><path class="cls-7" d="M27.71 8.26a2.842 2.842 0 0 1-.49.306 2.534 2.534 0 0 0-2.97-.332 2.807 2.807 0 0 1-.892-3.29 2.587 2.587 0 0 0 1.525-1.462 19.99 19.99 0 0 0-4.894-.333 2.73 2.73 0 0 0 .24.593 6.176 6.176 0 0 0 2.863 7.73 2.593 2.593 0 0 0 4.545.5 6.136 6.136 0 0 0 .653-.226z"/><circle class="cls-3" cx="22.5" cy="2.5" r="1.3"/><circle class="cls-3" cx="25.5" cy="10.5" r="1.3"/><path class="cls-3" d="M29.644 7.943a4.15 4.15 0 0 1-1.7 1.7 2.57 2.57 0 0 1 .147.772 4.898 4.898 0 0 0 2.325-2.324 2.57 2.57 0 0 1-.77-.147zM25.045 1.972a4.032 4.032 0 0 1 4.082 1.33 2.58 2.58 0 0 1 .717-.307 4.752 4.752 0 0 0-5.067-1.722 2.56 2.56 0 0 1 .268.7zM23.302 9.127a4.032 4.032 0 0 1-1.33-4.082 2.56 2.56 0 0 1-.7-.268A4.86 4.86 0 0 0 21.1 6a4.872 4.872 0 0 0 1.895 3.844 2.58 2.58 0 0 1 .307-.717z"/><circle class="cls-3" cx="30.5" cy="5.5" r="1.3"/><path class="cls-7" d="M23 8h2l-1 1-1-1z"/></svg>