<svg id="Icons" xmlns="http://www.w3.org/2000/svg" viewBox="0 0 32 32"><defs><style>.cls-1{fill:#e5d255}.cls-2{fill:none}.cls-3{fill:#f4eec8}.cls-4{fill:#6e6e6e}</style></defs><title>spatiotemporal32</title><path class="cls-1" d="M31 28s-6-3-15 0-15 0-15 0L5 4s6 2 11 0 11 0 11 0z"/><path class="cls-2" d="M0 0h32v32H0z"/><path class="cls-3" d="M16 25.8a9.8 9.8 0 1 1 9.8-9.8 9.81 9.81 0 0 1-9.8 9.8zm0-16.6a6.8 6.8 0 1 0 6.8 6.8A6.808 6.808 0 0 0 16 9.2z"/><path class="cls-4" d="M24.8 16A8.8 8.8 0 1 1 16 7.2a8.8 8.8 0 0 1 8.8 8.8zm-1 0a7.8 7.8 0 1 0-7.8 7.8 7.81 7.81 0 0 0 7.8-7.8z"/><circle class="cls-3" cx="11.5" cy="8.5" r="2.5"/><circle class="cls-4" cx="11.5" cy="8.5" r="1.5"/><circle class="cls-3" cx="12.5" cy="23.5" r="2.5"/><circle class="cls-4" cx="12.5" cy="23.5" r="1.5"/><circle class="cls-3" cx="24.5" cy="15.5" r="2.5"/><circle class="cls-4" cx="24.5" cy="15.5" r="1.5"/></svg>