<svg xmlns="http://www.w3.org/2000/svg" viewBox="0 0 32 32"><defs><style>.cls-1{fill:#6e6e6e}.cls-2{fill:#f8f8f8}.cls-3{fill:none}.cls-4{fill:#828282}.cls-5{fill:#6db5e3}</style></defs><title>statisticaldatacollection32</title><g id="Icons"><path class="cls-1" d="M1.998 30A2.003 2.003 0 0 1 0 27.998v-25A2 2 0 0 1 1.998 1h27A2.003 2.003 0 0 1 31 2.998v25A2.005 2.005 0 0 1 28.998 30z"/><path class="cls-2" d="M2 2h27a1 1 0 0 1 1 1v25a1 1 0 0 1-1 1H2a1 1 0 0 1-1-1V3a1 1 0 0 1 1-1z"/><path class="cls-3" d="M0 0h32v32H0z"/><path class="cls-4" d="M2 3v25h27V3zm26 24H3V4h25z"/><path class="cls-2" d="M3 4h25v23H3z"/><path class="cls-4" d="M28 8V7H3v1h5v3H3v1h5v3H3v1h5v3H3v1h5v3H3v1h5v3h1v-3h6v3h1v-3h6v3h1v-3h5v-1h-5v-3h5v-1h-5v-3h5v-1h-5v-3h5v-1h-5V8zM15 23H9v-3h6zm0-4H9v-3h6zm0-4H9v-3h6zm0-4H9V8h6zm7 12h-6v-3h6zm0-4h-6v-3h6zm0-4h-6v-3h6zm0-4h-6V8h6z"/><path class="cls-5" d="M3 4h25v3H3z"/></g></svg>