<svg id="Icons" xmlns="http://www.w3.org/2000/svg" viewBox="0 0 32 32"><defs><style>.cls-1{fill:#6e6e6e;}.cls-2{fill:#f8f8f8;}.cls-3{fill:#47a898;}.cls-4{fill:#fff;}.cls-5{fill:none;}.cls-6{fill:#fc0;}.cls-7{fill:#00dee7;}.cls-8{fill:#fff000;}</style></defs><path class="cls-1" d="M18.5,6.8C17.14,5.93,15,4,7,5.74V23.52c6.41-1.14,8.13-1.05,10.73,1.44,0,0,.5.52.77.77.27-.25.77-.77.77-.77,2.6-2.49,4.32-2.58,10.73-1.44V5.74C22,4,19.86,5.93,18.5,6.8Z"/><path class="cls-2" d="M18.45,24.27a7.35,7.35,0,0,0-5.75-2.45,29.27,29.27,0,0,0-4.7.51V6.55a25.46,25.46,0,0,1,4.63-.5,7.85,7.85,0,0,1,5,1.4L18.5,8l.83-.54a7.85,7.85,0,0,1,5-1.4,25.46,25.46,0,0,1,4.63.5V22.33a29.27,29.27,0,0,0-4.7-.51,7.35,7.35,0,0,0-5.73,2.42l-.07.08Z"/><path class="cls-2" d="M30,14.62V5.74c-4.66-1-7.32-.76-9-.23v8.17l5,4.69Z"/><path class="cls-3" d="M26,2c-2.21,0-4,.8-4,2.87v8.37L26,17l4-3.76V4.87C30,2.8,28.21,2,26,2Z"/><path class="cls-4" d="M26,9a2,2,0,1,1,2-2h0a2,2,0,0,1-2,2Z"/><path class="cls-1" d="M18.42,6.86A1.85,1.85,0,0,1,18,6.8V24.5h1V6.77A1.81,1.81,0,0,1,18.42,6.86Z"/><rect class="cls-5" x="7" y="2" width="24" height="24"/><path class="cls-2" d="M7,23.52c5.79-1,7.76-1.05,10,.79V14H7Z"/><rect class="cls-1" x="2" y="15" width="14" height="7"/><rect class="cls-1" x="2" y="23" width="14" height="6"/><rect class="cls-6" x="3" y="16" width="12" height="5"/><rect class="cls-7" x="3" y="24" width="4" height="4"/><rect class="cls-8" x="8" y="24" width="7" height="4"/></svg>