<svg id="icons" xmlns="http://www.w3.org/2000/svg" viewBox="0 0 16 16"><defs><style>.cls-1{fill:#6e6e6e;}.cls-2{fill:#f8f8f8;}.cls-3{fill:#47a898;}.cls-4{fill:#fff;}.cls-5{fill:none;}</style></defs><title>storymaps_16</title><path class="cls-1" d="M7.5,3.2c-.88489-.57879-2.26562-1.84063-7.5-.71v11.854c4.18158-.75666,5.3017-.69959,7,.965,0,0,.32471.3454.5.51239.17529-.167.5-.51239.5-.51239,1.6983-1.66455,2.81842-1.72162,7-.965V2.49005C9.76562,1.35938,8.38489,2.62122,7.5,3.2Z"/><path class="cls-2" d="M7.5,14.40332A5.02027,5.02027,0,0,0,3.71533,12.877,17.22335,17.22335,0,0,0,1,13.15625V3.31055a15.18591,15.18591,0,0,1,2.66943-.27539,4.68525,4.68525,0,0,1,3.09034.87207L7.5,4.39551l.74023-.48828a4.6863,4.6863,0,0,1,3.09034-.87207A15.18591,15.18591,0,0,1,14,3.31055v9.8457a17.22335,17.22335,0,0,0-2.71533-.2793A5.02027,5.02027,0,0,0,7.5,14.40332Z"/><path class="cls-2" d="M15,8.91156V2.49005c-3.15955-.68249-4.91016-.49182-6-.10724V7.91016L12.5,11.415Z"/><path class="cls-3" d="M12.5,0C11.1195,0,10,.53144,10,1.91508V7.49593L12.5,10,15,7.49593V1.91508C15,.53144,13.8805,0,12.5,0Z"/><path class="cls-4" d="M12.5,5A1.5,1.5,0,1,1,14,3.5v.00067A1.49939,1.49939,0,0,1,12.50056,5Z"/><path class="cls-1" d="M7.41669,3.243A2.6786,2.6786,0,0,1,7,3.20166V15H8V3.17865A2.67866,2.67866,0,0,1,7.41669,3.243Z"/><rect class="cls-5" width="16" height="16"/></svg>