<?xml version="1.0" encoding="UTF-8"?><svg id="Icons" xmlns="http://www.w3.org/2000/svg" viewBox="0 0 32 32"><path d="M30,5.73999V23.51996c-6.40997-1.13995-8.13-1.04999-10.72998,1.44,0,0-.5,.52002-.77002,.77002-.14001-.13-.34003-.33002-.5-.48999-.15002-.16003-.27002-.28003-.27002-.28003-2.59998-2.48999-4.32001-2.57996-10.72998-1.44V5.73999c8.03003-1.70001,10.14001,.19,11.5,1.06,1.35999-.87,3.46997-2.76001,11.5-1.06Z" style="fill:#6e6e6e;"/><path d="M30,5.73999V14.62l-1,.94v6.76996c-1.88-.31995-3.42999-.50995-4.70001-.50995-2.35999,0-3.85999,.63-5.72998,2.41998,0,.01001-.03003,.03998-.07001,.08002-.03003-.03003-.04999-.05005-.04999-.05005-.15002-.14996-.29999-.28998-.45001-.41998v1.39001c-.15002-.16003-.27002-.28003-.27002-.28003-2.59998-2.48999-4.32001-2.57996-10.72998-1.44V15h1V6.54999c1.75-.33002,3.29999-.5,4.63-.5,2.94,0,4.15002,.81,5.03998,1.40002l.83002,.53998,.83002-.53998c.42999-.28003,.92999-.62006,1.66998-.89001v-1.04999c1.67999-.53003,4.34003-.76001,9,.22998Z" style="fill:#f8f8f8;"/><path d="M26,2c-2.2088,0-4,.79716-4,2.87263V13.24389l4,3.75611,4-3.75611V4.87263c0-2.07546-1.7912-2.87263-4-2.87263Z" style="fill:#47a898;"/><path d="M26,9c-1.10457,0-2-.89543-2-2s.89543-2,2-2,2,.89543,2,2v.0009c-.00004,1.10412-.89514,1.99914-1.99926,1.9991-.00025,0-.00049,0-.00074,0Z" style="fill:#fff;"/><path d="M18.41669,6.86447c-.14819,0-.28241-.03113-.41669-.06198V24.5h1V6.76797c-.18134,.06024-.37433,.0965-.58331,.0965Z" style="fill:#6e6e6e;"/><polygon points="17 16 17 17 16 17 16 26 9 26 9 29 11 29 11 30 6 30 6 29 8 29 8 26 1 26 1 17 0 17 0 16 17 16" style="fill:#6e6e6e;"/><g><rect x="2" y="17" width="13" height="8" style="fill:#d3eaf9;"/><path d="M10.24172,19.04032c-.02874-.14435,.24811-.42231,.39634-.41162,.61569,.04274,.35178-.45438,.35178-.69385,0-.04276,.00705-.08177,.01958-.11917,.09501-.2785,.50815-.36724,.50815-.70292,0-.0423-.01104-.07728-.02135-.11277H2v8H6.20882c-.054-.50023,.66755-.69467,.66755-1.17344,0-.13574-.07112-.41211-.28609-.43352-.30076-.03048-.37898,.12988-.6819,.12988-.18672,0-.37353-.11922-.37353-.30253,0-.32556,.2639-.47679,.2639-.80183,0-.21112-.08793-.33034-.08793-.54145,0-.28654,.21384-.54096,.50593-.54096,.27523,0,.39576,.22129,.52768,.45436,.11025,.19565,.3013,.25979,.52768,.25979,.41863,0,.6819-.51426,.6819-.82319,0-.21117,.16015-.41108,.37407-.41108,.29747,0,.40659,.30309,.70464,.30309,.4886,0,.4707-.6377,.9012-.86703,.52773-.28063,.37407-.8868,.3078-1.21176Zm4.75828,3.99416c-.28034,.02132-.55948,.10949-.81251,.26982-.11724,.0743-.21441,.1379-.25622,.1379h-.53913c-.2823,0-.55263-.02459-.77466-.21698-.22533-.19459-.22045-.58481-.52825-.58481-.4126,0-.44517,.60724-.85779,.60724-.18727,0-.27466-.13099-.46146-.13099-.16501,0-.33004,.10372-.33004,.2657v.42277c0,.35657-.48372,.42766-.48372,.78526,0,.14538,.13194,.19991,.13194,.34637,0,.02447-.01208,.04138-.01626,.06322h4.92803l.00009-1.96552Z" style="fill:#9bc29c;"/></g></svg>