<?xml version="1.0" encoding="UTF-8"?><svg id="Icons" xmlns="http://www.w3.org/2000/svg" viewBox="0 0 16 16"><path d="M16,2.48999V12.46997c-4.17999-.76001-4.29999-.70001-6,.96002,0,0-.32001,.34998-.5,.51001-.17999-.16003-.5-.51001-.5-.51001-1.70001-1.66003-1.82001-1.72003-6-.96002V2.48999c5.22998-1.13,5.62,.13,6.5,.71002,.88-.58002,1.27002-1.84003,6.5-.71002Z" style="fill:#6e6e6e;"/><path d="M16,2.48999v5.91998l-1,1.01001v1.84998c-1.02002-.16998-1.76001-.26996-2.38-.26996-1.20001,0-1.89001,.39996-2.62,1.04999v1.38s-.32001,.34998-.5,.51001c-.17999-.16003-.5-.51001-.5-.51001-1.70001-1.66003-1.82001-1.72003-6-.96002v-4.46997h1V3.31c.97998-.17999,1.81-.27002,2.46997-.27002,1.25,0,1.60004,.28998,2.02002,.64001,.15002,.13,.29999,.25,.46002,.35999l.54999,.35999,.54999-.35999c.16003-.10999,.31-.22998,.46002-.35999,.15997-.14001,.29999-.26001,.48999-.35999v-.79004c0-.08997,.01001-.20001,.02002-.28998,.84998-.28003,2.25-.34003,4.97998,.25Z" style="fill:#f8f8f8;"/><polygon points="9 9 9 10 8 10 8 14 5 14 5 15 6 15 6 16 3 16 3 15 4 15 4 14 1 14 1 10 0 10 0 9 9 9" style="fill:#6e6e6e;"/><rect x="2" y="10" width="5" height="3" style="fill:#d3eaf9;"/><path d="M4.84724,10.79353c-.00977-.06069,.08652-.17913,.13777-.17494,.21449,.01925,.12309-.19255,.12309-.29297,0-.01842,.0014-.03518,.0063-.05109,.03098-.11033,.15409-.15349,.17053-.27453H2v3h1.60709c.03826-.0515,.06899-.10665,.06899-.17662,0-.05778-.02444-.17494-.09909-.18331-.10459-.01256-.13253,.05441-.23712,.05441-.06557,0-.13116-.05025-.13116-.12726,0-.13809,.09275-.2034,.09275-.34149,0-.08875-.03104-.13979-.03104-.22893,0-.12137,.07429-.22893,.17543-.22893,.0963,0,.13816,.09378,.1842,.1925,.03834,.08248,.10531,.10968,.18413,.10968,.14507,0,.23719-.21763,.23719-.34821,0-.09043,.05578-.17494,.13007-.17494,.10356,0,.14195,.12891,.24449,.12891,.17055,0,.16394-.27037,.3139-.3683,.18378-.11844,.13044-.37586,.10742-.51395Zm1.84363,1.36219c-.12087,0-.16903-.09187-.2584-.09187-.0703,0-.17966,.08313-.17966,.19548,0,.08537,.0437,.16919,.01031,.26179-.06933,.19224-.54119,.17441-.66072,.04777-.07847-.08242-.07673-.24858-.18415-.24858-.143,0-.15451,.25698-.29785,.25698-.06522,0-.09626-.05443-.16044-.05443-.0579,0-.11512,.04436-.11512,.11217v.17916c0,.08585-.0528,.13367-.09968,.18583h2.25484v-.89341c-.14793,.00361-.20573,.04913-.30913,.04913Z" style="fill:#9bc29c;"/><path d="M9.41669,3.24298c-.14819,0-.28241-.02075-.41669-.04132v4.92139h1V3.17865c-.18134,.04016-.37433,.06433-.58331,.06433Z" style="fill:#6e6e6e;"/><path d="M14,1c-1.1044,0-2,.42515-2,1.53207V6.99674l2,2.00326,2-2.00326V2.53207c0-1.10691-.8956-1.53207-2-1.53207Z" style="fill:#47a898;"/><rect x="13" y="2" width="2" height="2" rx=".75" ry=".75" style="fill:#f8f8f8;"/></svg>