<?xml version="1.0" encoding="UTF-8"?><svg id="Icons" xmlns="http://www.w3.org/2000/svg" viewBox="0 0 16 16"><defs><style>.cls-1{fill:#f8f8f8;}.cls-2{fill:#bddbee;}.cls-3{fill:#6e6e6e;}.cls-4{fill:#47a898;}</style></defs><path class="cls-3" d="M16,2.48999V12.46997c-4.17999-.76001-4.29999-.70001-6,.96002,0,0-.32001,.34998-.5,.51001-.17999-.16003-.5-.51001-.5-.51001-.39001-.38-.70001-.67999-1-.91003-.96997-.72998-1.78998-.62994-5-.04999V2.48999c5.22998-1.13,5.62,.13,6.5,.71002,.88-.58002,1.27002-1.84003,6.5-.71002Z"/><path class="cls-1" d="M15,3.31v7.95996c-1.02002-.16998-1.76001-.26996-2.38-.26996-1.46997,0-2.16998,.59998-3.12,1.51996-.52002-.5-.96997-.90997-1.5-1.16998v1.16998c-.96997-.72998-1.78998-.62994-5-.04999v-4.46997h1V3.31c.97998-.17999,1.81-.27002,2.46997-.27002,1.25,0,1.60004,.28998,2.02002,.64001,.15002,.13,.29999,.25,.46002,.35999l.54999,.35999,.54999-.35999c.16003-.10999,.31-.22998,.46002-.35999,.41998-.35004,.77002-.64001,2.02002-.64001,.65997,0,1.48999,.09003,2.46997,.27002Z"/><path class="cls-3" d="M9.41669,3.24298c-.14819,0-.28241-.02075-.41669-.04132V13.12305h1V3.17865c-.18134,.04016-.37433,.06433-.58331,.06433Z"/><path class="cls-1" d="M11.01782,2.2384c-.0094,.09314-.01782,.19904-.01782,.29382V6.99707c0,.26465,.10498,.51953,.29248,.70703l2,2.00293c.1875,.1875,.44189,.29297,.70752,.29297s.52002-.10547,.70752-.29297l1.29248-1.29437V2.49005c-2.72803-.58929-4.13239-.52673-4.98218-.25165Z"/><path class="cls-4" d="M14,1c-1.1044,0-2,.42515-2,1.53207V6.99674l2,2.00326,2-2.00326V2.53207c0-1.10691-.8956-1.53207-2-1.53207Z"/><rect class="cls-1" x="13" y="2" width="2" height="2" rx=".75" ry=".75"/><rect class="cls-3" y="9" width="7" height="7"/><rect class="cls-2" x="1" y="13" width="2" height="2"/><rect class="cls-2" x="4" y="10" width="2" height="2"/><rect class="cls-1" x="4" y="13" width="2" height="2"/><rect class="cls-1" x="1" y="10" width="2" height="2"/></svg>