<svg id="Icons" xmlns="http://www.w3.org/2000/svg" viewBox="0 0 16 16"><defs><style>.cls-1{fill:#6e6e6e;}.cls-2{fill:#f8f8f8;}.cls-3{fill:#47a898;}.cls-4{fill:#fc0;}.cls-5{fill:#00dee7;}.cls-6{fill:#fff000;}</style></defs><path class="cls-1" d="M9.5,3.2C8.62,2.62,8.23,1.36,3,2.49v10c4.18-.76,4.3-.7,6,1,0,0,.32.35.5.51.18-.16.5-.51.5-.51,1.7-1.66,1.82-1.72,6-1v-10C10.77,1.36,10.38,2.62,9.5,3.2Z"/><path class="cls-2" d="M9.5,12.52A4,4,0,0,0,6.38,11,15.21,15.21,0,0,0,4,11.27v-8A14.15,14.15,0,0,1,6.47,3a2.53,2.53,0,0,1,2,.64A5.19,5.19,0,0,0,9,4l.55.36L10.05,4a5.19,5.19,0,0,0,.46-.36,2.53,2.53,0,0,1,2-.64A14.15,14.15,0,0,1,15,3.31v8A15.21,15.21,0,0,0,12.62,11,4,4,0,0,0,9.5,12.52Z"/><path class="cls-1" d="M9.42,3.24A2.72,2.72,0,0,1,9,3.2v9.92h1V3.18A2.65,2.65,0,0,1,9.42,3.24Z"/><path class="cls-2" d="M16,2.49c-2.72-.59-4.12-.53-5-.26,0,.1,0,.2,0,.3V7a1,1,0,0,0,.29.7l2,2a1,1,0,0,0,1.42,0L16,8.41Z"/><path class="cls-3" d="M14,1c-1.1,0-2,.43-2,1.53V7l2,2,2-2V2.53C16,1.43,15.1,1,14,1Z"/><rect class="cls-2" x="13" y="2" width="2" height="2" rx="0.75"/><path class="cls-2" d="M3,6v6.47c4.18-.76,4.3-.7,6,1V6Z"/><rect class="cls-1" y="7" width="8" height="4"/><rect class="cls-1" y="12" width="8" height="4"/><rect class="cls-4" x="1" y="8" width="6" height="2"/><rect class="cls-5" x="1" y="13" width="2" height="2"/><rect class="cls-6" x="4" y="13" width="3" height="2"/></svg>