<svg xmlns="http://www.w3.org/2000/svg" viewBox="0 0 32 32"><defs><style>.cls-1{fill:#6e6e6e;}.cls-2{fill:#f8f8f8;}.cls-3{fill:#47a898;}.cls-4{fill:#fff;}</style></defs><title>storymaps_32</title><g id="icons"><path class="cls-1" d="M15.5,6.32236c-1.71078-1.119-4.38021-3.55857-14.5-1.3726V28.06751c8.08439-1.46287,10.25-1.35254,13.53333,1.8656,0,0,.62777.66777.96667.99062.3389-.32285.96667-.99062.96667-.99062C19.75005,26.715,21.91561,26.60464,30,28.06751V4.94976C19.88021,2.76379,17.21078,5.20335,15.5,6.32236Z"/><path class="cls-2" d="M15.26123,29.04785c-2.32861-2.28418-4.17334-3.083-7.07861-3.083A38.45665,38.45665,0,0,0,2,26.67383V5.76367a31.76757,31.76757,0,0,1,6.09424-.69336c3.77881,0,5.35107,1.06739,6.49853,1.84766L15.5,7.51758l.90771-.60059c1.14747-.77929,2.71924-1.84668,6.498-1.84668A31.76757,31.76757,0,0,1,29,5.76367V26.67383a38.45665,38.45665,0,0,0-6.18262-.709c-2.90527,0-4.75.79883-7.05078,3.05469-.01269.0127-.1206.12793-.2666.28027C15.36035,29.15332,15.26123,29.04785,15.26123,29.04785Z"/><path class="cls-2" d="M19,4.46973V15.40625L25,21.415l5-5.00733V4.9801C24.56689,3.80652,21.22,3.92554,19,4.46973Z"/><path class="cls-3" d="M25,0c-2.761,0-5,1.06288-5,3.83017V14.99186L25,20l5-5.00814V3.83017C30,1.06288,27.761,0,25,0Z"/><path class="cls-4" d="M25,10a3,3,0,1,1,3-3v.00135A2.99877,2.99877,0,0,1,25.00111,10Z"/><rect class="cls-1" x="15" y="7" width="1" height="23"/></g></svg>