<svg id="Icons" xmlns="http://www.w3.org/2000/svg" viewBox="0 0 32 32"><defs><style>.cls-1{fill:none}.cls-2{fill:#e5d255}.cls-3{fill:#f8f8f8}.cls-4{fill:#f4eec8}.cls-5{fill:#c7552e}.cls-6{fill:#e5a894}.cls-7{fill:#c96b4b}.cls-8{fill:#57a6d9}</style></defs><title>StreamLayer32</title><path class="cls-1" d="M0 0h32v32H0z"/><path class="cls-2" d="M31 28s-6-3-15 0-15 0-15 0L5 4s6 2 11 0 11 0 11 0z"/><path class="cls-3" d="M26.707 24.293l-4-4A1 1 0 0 0 21 21v2h-3a.97.97 0 0 0-.5.153A.97.97 0 0 0 17 23h-2a.97.97 0 0 0-.546.185.98.98 0 0 0-.454-.122h-2a.97.97 0 0 0-.5.153.97.97 0 0 0-.5-.153H9a.97.97 0 0 0-.5.153.97.97 0 0 0-.5-.153H6a1 1 0 0 0-1 1V26a1 1 0 0 0 1 1h2a.97.97 0 0 0 .5-.153A.97.97 0 0 0 9 27h2a.97.97 0 0 0 .5-.153.97.97 0 0 0 .5.153h2a.97.97 0 0 0 .5-.153.97.97 0 0 0 .5.153h2a.975.975 0 0 0 .5-.153.974.974 0 0 0 .5.152h2.056a22.917 22.917 0 0 1 5.614-.257l1.037-1.036a1 1 0 0 0 0-1.414z"/><path class="cls-4" d="M16 4a15.08 15.08 0 0 1-7 .786v11.618a1.004 1.004 0 0 0 .287.7l5.5 5.597a1 1 0 0 0 1.426 0l5.5-5.594a1.004 1.004 0 0 0 .287-.702V4.124a3.736 3.736 0 0 0-.14-.993A14.24 14.24 0 0 0 16 4z"/><path class="cls-5" d="M21 4.125C21 1.793 17.968 0 15.5 0S10 1.793 10 4.125v12.28L15.5 22l5.5-5.596z"/><path class="cls-6" d="M11 15.842V4.125C11 2.708 13.7 1 15.5 1S20 2.708 20 4.125v11.717l-4.5 4.195z"/><path class="cls-7" d="M16 2.418v15.684l3-2.67V4.125c0-.545-1.648-1.502-3-1.707z"/><circle class="cls-3" cx="15.5" cy="6.499" r="2.5"/><path class="cls-8" d="M26 25l-4-4v3h-4v2h4v3l4-4zM15 24h2v2h-2zM12 24.063h2V26h-2zM9 24.063h2V26H9zM6 24.063h2V26H6z"/></svg>