<svg xmlns="http://www.w3.org/2000/svg" viewBox="0 0 32 32"><defs><style>.cls-1{fill:#57a6d9}.cls-2{fill:#d3eaf9}.cls-3{fill:#f8f8f8}.cls-4{fill:#6e6e6e}.cls-5{fill:#efefef}.cls-6{fill:#c96b4b}.cls-7{fill:#a67a47}.cls-8{fill:#9bc29c}.cls-9{fill:none}</style></defs><title>webstyle32</title><g id="Icons"><path class="cls-1" d="M23.84 9.515a3.874 3.874 0 0 0 .12-.943 3.947 3.947 0 0 0-3.975-3.917c-.062 0-.122.007-.183.01a4.82 4.82 0 0 0-8.592-1.662 3.992 3.992 0 0 0-1.498-.29A3.917 3.917 0 0 0 5.765 6.6c0 .13.007.26.02.387A4.55 4.55 0 0 0 6.734 16h15.997a3.328 3.328 0 0 0 1.108-6.485z"/><path class="cls-2" d="M6.735 15a3.55 3.55 0 0 1-.75-7.033l.88-.182-.085-.892a3.05 3.05 0 0 1-.015-.293 2.92 2.92 0 0 1 2.947-2.888 2.987 2.987 0 0 1 1.123.22l.73.293.457-.638A3.83 3.83 0 0 1 15.128 2a3.765 3.765 0 0 1 3.7 2.893l.19.81.968-.048a2.95 2.95 0 0 1 2.975 2.917 2.845 2.845 0 0 1-.09.7l-.223.89.868.3A2.33 2.33 0 0 1 22.73 15z"/><path class="cls-3" d="M19.947 13.078A15.947 15.947 0 0 0 10.702 16h12.03a3.388 3.388 0 0 0 1.644-.44 2.76 2.76 0 0 0-.49-1.092c-.928-1.246-2.586-1.39-3.76-1.39z"/><path class="cls-4" d="M19.55 29.602c-3.85 0-7.384-1.243-9.457-3.324a5.9 5.9 0 0 1-1.867-4.21c.014-4.307 5.28-7.892 11.736-7.99h.17c1.514 0 2.45.313 2.953.987a3.083 3.083 0 0 1 .06 2.786c-.303 1.02-.274 1.25-.108 1.334a10.702 10.702 0 0 0 3.82.6c2.08.1 4.03.193 4.72 1.462a3.33 3.33 0 0 1-.09 3.405c-1.55 2.67-6.623 4.843-11.55 4.95z"/><path class="cls-5" d="M19.55 28.6c-3.59 0-6.86-1.13-8.748-3.028a4.925 4.925 0 0 1-1.576-3.5c.013-3.703 4.937-6.906 10.75-6.994h.163c1.13 0 1.854.196 2.144.585.31.414.154 1.05-.098 1.904-.265.892-.595 2 .395 2.507a11.268 11.268 0 0 0 4.242.71c1.7.08 3.454.165 3.876.94a2.344 2.344 0 0 1-.076 2.425c-1.368 2.355-6.17 4.352-10.707 4.448z"/><path class="cls-3" d="M29.794 20.093a16.296 16.296 0 0 0-2.918-.31c-.81-.038-1.623-.086-2.35-.194l-1.933 1.392-6.42 5.23a.97.97 0 0 0-.176.215 2.494 2.494 0 0 0-2.53 2.014 15.687 15.687 0 0 0 5.243 1.128.878.878 0 0 0 .136-.072l6.467-5.27z"/><path class="cls-4" d="M31.532 16.42a.547.547 0 0 0-.786-.08l-7.52 5.417-6.42 5.23 1.41 1.734 6.42-5.228 6.815-6.286a.543.543 0 0 0 .082-.787z"/><rect class="cls-6" x="14.113" y="23" width="3" height="3" rx="1.15" ry="1.15"/><path class="cls-7" d="M17.602 29.157l-1.44-1.738s-1.733-.073-1.74 1.44c-.008 1.495-1.81 2.463-1.81 2.463l.005.003h.002a3.764 3.764 0 0 0 3.353.065 2.94 2.94 0 0 0 1.63-2.233z"/><rect class="cls-8" x="16.113" y="17" width="3" height="3" rx="1.15" ry="1.15"/><rect class="cls-1" x="11.113" y="19" width="3" height="3" rx="1.15" ry="1.15"/><path class="cls-9" d="M0 0h32v32H0z"/></g></svg>