<svg id="Icons" xmlns="http://www.w3.org/2000/svg" viewBox="0 0 32 32"><rect x="1" y="1" width="28.95" height="28.95" style="fill:#ad6511"/><rect x="2.00017" y="2.00017" width="27" height="27" transform="translate(31.00034 0) rotate(90)" style="fill:#f0e498"/><path d="M2.00017,29.00017v-27h27v8.30769c-1.70533,1.45424-7.00923,2.586-8.26307,2.586a5.85625,5.85625,0,0,1-4.68018-2.36493,2.07852,2.07852,0,0,0-1.65606-.82347,2.11158,2.11158,0,0,0-.6105.09127A2.077,2.077,0,0,0,12.327,11.6749a6.57987,6.57987,0,0,1-2.61137,5.29778,2.07566,2.07566,0,0,0-.24339,3.12755,6.66732,6.66732,0,0,1,.88432,1.11351c1.02731,1.63273.44114,5.80483-.04868,7.78643Z" style="fill:#f2d530"/><path d="M2.00017,2.00017v15.7563a3.92671,3.92671,0,0,1,1.09132-.81118c2.09214-1.11946,7.03535-.63957,6.86625-5.8885s5.97905-4.81133,6.84051-3.172a4.75127,4.75127,0,0,0,5.84489,2.22469,3.82542,3.82542,0,0,0,3.7501-2.18226s2.60693-1.77319.53-5.927Z" style="fill:#ff9f33"/><path d="M8.51743,27.43322c1.3839-2.89151.3145-7.38649-5.39032-7.1758a2.98466,2.98466,0,0,1-1.12694-.37789v9.12064H7.45361A6.26357,6.26357,0,0,0,8.51743,27.43322Z" style="fill:#ff9f33"/><path d="M6.07567,13.55952c2.90547-1.76888,1.04645-4.19644,1.20719-5.58908.10015-.86733.47664-.69721,1.43853-2.4197.42784-.4703,1.4142-1.10692,3.66339-1.214,3.63462-.17316,4.41347,0,5.53851,1.03846A23.52389,23.52389,0,0,1,19.634,7.42c1.10907,1.815,8.15468,1.58976,5.34176-5.41985H2.00017V15.20645A3.74686,3.74686,0,0,1,3.876,14.20868,6.9491,6.9491,0,0,0,6.07567,13.55952Z" style="fill:#d17e21"/><path d="M6.11282,23.70645c-.38689-.78671-.84134-1.6-1.96195-1.64808-.66615-.02865-1.41572-.08949-2.1507-.08746v7.02926H5.1101A4.88481,4.88481,0,0,0,6.11282,23.70645Z" style="fill:#d17e21"/><rect width="32.00036" height="32.00036" style="fill:none"/><rect width="32.00036" height="32.00036" style="fill:none"/><path d="M2.00018,24.027v4.97314h.44409a1.5475,1.5475,0,0,0,.20508-.09979C3.658,28.2121,4.73163,26.71863,4.316,25.41266,4.03241,24.52136,2.77234,24.16431,2.00018,24.027Z" style="fill:#c7552e"/><path d="M23.03778,2.00018H17.753a4.532,4.532,0,0,1,2.146,1.42908c1.16162,1.62628,1.62628,2.20709,2.67169,1.51013,1.04547-.697.34851-1.97473.46466-2.90405C23.03662,2.02527,23.03662,2.01056,23.03778,2.00018Z" style="fill:#c7552e"/><path d="M29.95,11.53082,23.77734,8.10156a1.59717,1.59717,0,0,0-1.55371,0l-9.00049,5a1.59939,1.59939,0,0,0,0,2.79688L16.10614,17.5l-2.883,1.60156a1.59939,1.59939,0,0,0,0,2.79688L16.10614,23.5l-2.883,1.60156a1.59939,1.59939,0,0,0,0,2.79688L16.9162,29.95H29.95Z" style="fill:#f8f8f8"/><polygon points="23 9.5 14 14.5 23 19.5 32 14.5 23 9.5" style="fill:#68aa67"/><path d="M23.77734,26.89844a1.59717,1.59717,0,0,1-1.55371,0L17.75317,24.415l-3.753,2.085,9.00006,5.00006L32.00037,26.5l-3.75293-2.085Z" style="fill:#419ed9"/><path d="M23.77734,20.89844a1.59717,1.59717,0,0,1-1.55371,0L17.75317,18.415l-3.753,2.085,9.00006,5.00006L32.00037,20.5l-3.75293-2.085Z" style="fill:#9bc29c"/></svg>