<svg id="Icons" xmlns="http://www.w3.org/2000/svg" viewBox="0 0 16 16"><rect width="15" height="15" style="fill:#ad6511"/><rect x="1" y="1" width="13" height="13" transform="translate(15 0) rotate(90)" style="fill:#f0e498"/><path d="M1,14V1H14V5a9.66255,9.66255,0,0,1-3.97852,1.24512A2.81968,2.81968,0,0,1,7.76807,5.10645,1.00078,1.00078,0,0,0,6.9707,4.71a1.01647,1.01647,0,0,0-.29394.044,1,1,0,0,0-.70459.90429A3.16807,3.16807,0,0,1,4.71484,8.209a.99939.99939,0,0,0-.11718,1.50586,3.21027,3.21027,0,0,1,.42578.53614C5.51807,11.03711,5.23584,13.0459,5,14Z" style="fill:#f2d530"/><path d="M1,1V8.58636a1.89079,1.89079,0,0,1,.52545-.39056c1.00733-.539,3.38739-.30794,3.306-2.8352A1.94918,1.94918,0,0,1,8.125,3.83333a2.28765,2.28765,0,0,0,2.81421,1.07115,1.84186,1.84186,0,0,0,1.8056-1.05072S14,3,13,1Z" style="fill:#ff9f33"/><path d="M4.13794,13.24554c.66632-1.39221.15143-3.55645-2.59534-3.455A1.43682,1.43682,0,0,1,1,9.60858V14H3.62573A3.01589,3.01589,0,0,0,4.13794,13.24554Z" style="fill:#ff9f33"/><path d="M2.96228,6.56561c1.39893-.85168.50385-2.02051.58124-2.691.04822-.4176.22949-.33569.69263-1.165A2.44858,2.44858,0,0,1,6,2.125c1.75-.08337,2.125,0,2.66669.5a11.328,11.328,0,0,1,.82367.98456c.534.8739,3.92633.76544,2.572-2.60956H1V7.35858a1.804,1.804,0,0,1,.9032-.48041A3.34577,3.34577,0,0,0,2.96228,6.56561Z" style="fill:#d17e21"/><path d="M2.98016,11.45117c-.18628-.37878-.40509-.77038-.94464-.79352-.32074-.01379-.68164-.04309-1.03552-.04211V14H2.49738A2.35193,2.35193,0,0,0,2.98016,11.45117Z" style="fill:#d17e21"/><rect width="16" height="16" style="fill:none"/><rect width="16" height="16" style="fill:none"/><path d="M1,11.51361v2.48657h.22205a.77452.77452,0,0,0,.10253-.04989,1.75053,1.75053,0,0,0,.83335-1.74387C2.01611,11.76077,1.38608,11.58224,1,11.51361Z" style="fill:#c7552e"/><path d="M11.5188,1H8.8764a2.26583,2.26583,0,0,1,1.073.71454c.58081.81314.81314,1.10354,1.33585.75506s.17425-.98736.23233-1.452Z" style="fill:#c7552e"/><path d="M15,5.45721,12.13184,3.86426a1.30118,1.30118,0,0,0-1.26319-.001l-4.49951,2.5a1.30051,1.30051,0,0,0-.00049,2.27344L7.023,9l-.65381.36328a1.30051,1.30051,0,0,0-.00049,2.27344L7.023,12l-.65381.36328a1.30051,1.30051,0,0,0-.00049,2.27344L7.02277,15H15Z" style="fill:#f8f8f8"/><path d="M11.88867,13.69922a.80126.80126,0,0,1-.77734,0l-2.235-1.24164L7,13.5,11.5,16,16,13.5l-1.87634-1.04242Z" style="fill:#419ed9"/><path d="M11.88867,10.69922a.80126.80126,0,0,1-.77734,0l-2.235-1.24164L7,10.5,11.5,13,16,10.5,14.12366,9.45758Z" style="fill:#9bc29c"/><polygon points="11.5 5 7 7.5 11.5 10 16 7.5 11.5 5" style="fill:#68aa67"/></svg>