<svg id="Icons" xmlns="http://www.w3.org/2000/svg" viewBox="0 0 16 16"><defs><style>.cls-1{fill:#6e6e6e;}.cls-2{fill:#f8f8f8;}.cls-3{fill:none;}.cls-4{fill:#68a407;}</style></defs><title>ArcGISOnlineItemTypeSurvey123Addin16</title><polygon class="cls-1" points="16 16 3 16 3 0 12.4 0 16 3.6 16 16"/><polygon class="cls-2" points="12.31 1 4 1 4 15 15 15 15 3.69 12.31 1"/><polygon class="cls-1" points="12 4 12 1 11 1 11 4 11 5 12 5 16 5 16 4 12 4"/><rect class="cls-2" x="4" width="1" height="1"/><rect class="cls-2" x="3" y="6" width="1" height="1"/><polygon class="cls-1" points="6 2 4 2 4 0 2 0 2 2 0 2 0 4 2 4 2 6 4 6 4 4 6 4 6 2"/><rect class="cls-3" width="16" height="16"/><rect class="cls-2" x="3" y="7" width="7" height="9"/><path class="cls-4" d="M6.64613,15A1.35347,1.35347,0,0,0,7.9996,13.64653V11.98374a.54949.54949,0,0,1,.15756-.38514l.7893-.80318A.03125.03125,0,0,1,9,10.81732v4.73281A.4504.4504,0,0,1,8.55017,16H1.44989A.44989.44989,0,0,1,1,15.55011v-.64336a.19823.19823,0,0,1,.19823-.19823h.3523a.85827.85827,0,1,0,0-1.71654H1.03125A.03125.03125,0,0,1,1,12.96073v-.5696a.19823.19823,0,0,1,.19823-.19823h.3523a.85828.85828,0,1,0,0-1.71655H1.03125A.03125.03125,0,0,1,1,10.4451V9.87555a.19823.19823,0,0,1,.19823-.19823h.42061a.83406.83406,0,0,0,.83284-.78877A.84279.84279,0,0,0,1.61014,8H1.03173a.03124.03124,0,0,1-.03125-.03172l.00774-.51244a.44987.44987,0,0,1,.44887-.44308L7.35987,7.0003a.05729.05729,0,0,1,.04035.09808l-.54446.53679a1.13095,1.13095,0,0,1-.794.32561H3.0625A.0625.0625,0,0,0,3,8.02328v6.719A.25773.25773,0,0,0,3.25773,15Zm-5.3439-.80052a.30221.30221,0,0,0,.3019-.30187v-.09472a.30221.30221,0,0,0-.3019-.30187H.30191A.30221.30221,0,0,0,0,13.80289v.09472a.30221.30221,0,0,0,.30191.30187ZM5.86514,11.6611a.12265.12265,0,0,0,.17346,0L9.52979,8.17059a.11937.11937,0,0,0,0-.16882l-.64263-.64262a.03124.03124,0,0,0-.04419,0L5.97663,10.2249a.0349.0349,0,0,1-.04934,0l-1.189-1.189a.03125.03125,0,0,0-.04419,0L4.02956,9.7a.08866.08866,0,0,0,0,.12539Zm-4.56291.02275a.30221.30221,0,0,0,.3019-.30186v-.09468a.30221.30221,0,0,0-.3019-.30187H.30191A.30221.30221,0,0,0,0,11.28731V11.382a.30221.30221,0,0,0,.30191.30186Zm0-2.51557a.30221.30221,0,0,0,.3019-.30187V8.77169a.30221.30221,0,0,0-.3019-.30187H.30191A.30221.30221,0,0,0,0,8.77169v.09472a.30221.30221,0,0,0,.30191.30187Z"/></svg>