<svg id="Icons" xmlns="http://www.w3.org/2000/svg" viewBox="0 0 32 32"><defs><style>.cls-1{fill:none;}.cls-2{fill:#6e6e6e;}.cls-3{fill:#f8f8f8;}.cls-4{fill:#68a407;}</style></defs><title>ArcGISOnlineItemTypeSurvey123Addin32</title><rect class="cls-1" width="32" height="32"/><polygon class="cls-2" points="31 31 7 31 7 1 24.3 1 31 7.699 31 31"/><polygon class="cls-3" points="24.01 2 8 2 8 12 6 12 6 29 8 29 8 30 30 30 30 7.99 24.01 2"/><polygon class="cls-2" points="24 8 24 2 23 2 23 8 23 9 24 9 31 9 31 8 24 8"/><rect class="cls-3" x="7" y="1" width="1" height="11"/><polygon class="cls-2" points="12 5 7 5 7 0 5 0 5 5 0 5 0 7 5 7 5 12 7 12 7 7 12 7 12 5"/><rect class="cls-3" x="7" y="13" width="12" height="18"/><path class="cls-4" d="M13.29306,29A2.70694,2.70694,0,0,0,16,26.29306V24.4552a1.099,1.099,0,0,1,.32188-.77708l1.57143-1.57143A.0625.0625,0,0,1,18,22.15089V30.1003A.8997.8997,0,0,1,17.1003,31H2.89978A.89979.89979,0,0,1,2,30.10022v-.70376A.39646.39646,0,0,1,2.39646,29H4.00958A1.48616,1.48616,0,0,0,5.3,27.5,1.54315,1.54315,0,0,0,3.59042,26H2.0625A.0625.0625,0,0,1,2,25.9375v-1.541A.39646.39646,0,0,1,2.39646,24H3.99608A1.48587,1.48587,0,0,0,5.3,22.5,1.53972,1.53972,0,0,0,3.60392,21H2.0625A.0625.0625,0,0,1,2,20.9375v-1.541A.39646.39646,0,0,1,2.39646,19H3.98384A1.48577,1.48577,0,0,0,5.3,17.5,1.53667,1.53667,0,0,0,3.61616,16H2.0625A.0625.0625,0,0,1,2,15.9375V14.89974A.89974.89974,0,0,1,2.89974,14H16.21157a.11458.11458,0,0,1,.07862.19792L15.1536,15.27013a2.26191,2.26191,0,0,1-1.55213.61658H6.125a.125.125,0,0,0-.125.125V28.48453A.51547.51547,0,0,0,6.51547,29ZM1,27.5a.5.5,0,0,1,.5-.5h2A.5.5,0,0,1,3.5,28h-2A.5.5,0,0,1,1,27.5Zm7.69074-7.19623a.17731.17731,0,0,1,0-.25078l1.32914-1.32829a.0625.0625,0,0,1,.08838,0l2.37792,2.3781a.06979.06979,0,0,0,.09869,0l5.7327-5.73151a.06251.06251,0,0,1,.08839,0l1.28525,1.28525a.23873.23873,0,0,1,0,.33763L12.70887,23.9752a.24532.24532,0,0,1-.34692,0ZM1.5,23A.5.5,0,0,1,1.5,22h2A.5.5,0,0,1,3.5,23Zm0-5A.5.5,0,0,1,1.5,17h2A.5.5,0,0,1,3.5,18Z"/></svg>