<svg id="Icons" xmlns="http://www.w3.org/2000/svg" viewBox="0 0 32 32"><defs><style>.cls-1{fill:none}.cls-2{fill:#e5d255}.cls-3{fill:#6e6e6e}.cls-4{fill:#f8f8f8}.cls-5{fill:#6db5e3}.cls-6{fill:#828282}</style></defs><title>tablelayer32</title><path class="cls-1" d="M0 0h32v32H0z"/><path class="cls-2" d="M31 28s-6-3-15 0-15 0-15 0L5 4s6 2 11 0 11 0 11 0z"/><path class="cls-3" d="M6 8h20v16H6z"/><path class="cls-4" d="M7 9h18v14H7z"/><path class="cls-5" d="M7 9h18v2H7z"/><path class="cls-6" d="M7 17h18v1H7zM7 20h18v1H7zM7 14h18v1H7zM7 11h18v1H7z"/><path class="cls-6" d="M11 11.998h1V23h-1zM21 11.998h1V23h-1zM16 11.998h1V23h-1z"/></svg>