<svg xmlns="http://www.w3.org/2000/svg" viewBox="0 0 32 32"><defs><style>.cls-1{fill:none}.cls-2{fill:#6e6e6e}.cls-3{fill:#f8f8f8}.cls-4{fill:#7c6da8}.cls-5{fill:#68aa67}</style></defs><title>taskfile32</title><g id="Icons"><path class="cls-1" d="M0 0h32v32H0z"/><path class="cls-2" d="M28 31H4V1h17.3L28 7.7V31z"/><path class="cls-3" d="M27 7.99L21.01 2H5v28h22V7.99z"/><path class="cls-2" d="M21 8V2h-1v7h8V8h-7z"/><path class="cls-4" d="M0 10h19v16H0z"/><path class="cls-3" d="M1 11h17v14H1z"/><path class="cls-4" d="M11 17h5v1h-5zM8 21h8v1H8zM2 12h15v2H2z"/><path class="cls-5" d="M9.69 16.783l-.884-.884-3.936 3.935-1.587-1.587-.884.884 1.586 1.587.884.882.884-.883 3.936-3.937z"/></g></svg>