<svg id="Icons" xmlns="http://www.w3.org/2000/svg" viewBox="0 0 16 16"><defs><style>.cls-1{fill:#e5d255;}.cls-2{fill:#6e6e6e;}.cls-3{fill:#f4eec8;}.cls-4{fill:#9bc29c;}.cls-5{fill:#6db5e3;}.cls-6{fill:#d3eaf9;}.cls-7{fill:none;}</style></defs><title>TiledImageryLayer16</title><path class="cls-1" d="M16,14.4s-3.2-1.6-8,0-8,0-8,0L2.13,1.6A9.74,9.74,0,0,0,8,1.6a9.74,9.74,0,0,1,5.87,0Z"/><polygon class="cls-2" points="11.11 7.5 10.25 6.91 7.45 9.11 4.66 6.97 3.79 7.57 1 9.5 3.87 11.93 4.65 12.59 7.5 15 10.34 12.59 11.13 11.93 14 9.5 11.11 7.5"/><polygon class="cls-3" points="8.27 9.74 10.31 11.31 12.36 9.58 10.29 8.15 8.27 9.74"/><polygon class="cls-2" points="4 4.56 7.5 2 11 4.5 7.46 7 4 4.56"/><polygon class="cls-4" points="5.71 4.55 7.51 3.23 9.27 4.5 7.46 5.78 5.71 4.55"/><polygon class="cls-5" points="6.64 9.75 4.63 8.21 2.64 9.58 4.68 11.3 6.64 9.75"/><polygon class="cls-6" points="7.46 10.38 5.46 11.96 7.5 13.69 9.53 11.97 7.46 10.38"/><rect class="cls-7" width="16" height="16"/></svg>