<svg id="Icons" xmlns="http://www.w3.org/2000/svg" viewBox="0 0 32 32"><defs><style>.cls-1{fill:#e5d255;}.cls-2{fill:#6e6e6e;}.cls-3{fill:#9bc29c;}.cls-4{fill:#f4eec8;}.cls-5{fill:#d3eaf9;}.cls-6{fill:#6db5e3;}.cls-7{fill:none;}</style></defs><title>TiledImageryLayer32</title><path class="cls-1" d="M31,28s-6-3-15,0S1,28,1,28L5,4s6,2,11,0S27,4,27,4Z"/><polygon class="cls-2" points="10 10 16 5 22 10 15.99 15 10 10"/><polygon class="cls-3" points="11.56 10 16 6.3 20.44 10 15.99 13.7 11.56 10"/><polygon class="cls-2" points="22.21 13.69 21.39 13.06 15.99 17.3 10.61 13.02 9.78 13.64 4 17.94 15.95 28 28 18.06 22.21 13.69"/><polygon class="cls-4" points="16.8 17.94 21.77 21.9 26.39 18.09 21.4 14.33 16.8 17.94"/><polygon class="cls-5" points="15.99 18.58 10.98 22.51 15.95 26.7 20.98 22.55 15.99 18.58"/><polygon class="cls-6" points="15.18 17.94 10.59 14.28 5.61 17.99 10.2 21.86 15.18 17.94"/><rect class="cls-7" width="32" height="32"/></svg>