<svg xmlns="http://www.w3.org/2000/svg" viewBox="0 0 32 32"><defs><style>.cls-1{fill:#6e6e6e}.cls-2{fill:#9bc29c}.cls-3{fill:#d3eaf9}.cls-4{fill:none}.cls-5,.cls-7{fill:#d3b490}.cls-6{fill:#f8f8f8}.cls-6,.cls-7,.cls-8,.cls-9{fill-rule:evenodd}.cls-8{fill:#595959}.cls-9{fill:#e9ded4}</style></defs><title>mappackagedtiledtpkfile32</title><g id="Icons"><path class="cls-1" d="M14 1h8v8h-8zM0 0h8v8H0z"/><path class="cls-2" d="M1 1h6v6H1zM15 2h6v6h-6z"/><path class="cls-1" d="M23 1h8v8h-8zM5 10h8v8H5zM14 10h8v8h-8zM23 10h8v8h-8zM14 19h8v8h-8zM23 19h8v8h-8z"/><path class="cls-3" d="M24 2h6v6h-6z"/><path class="cls-2" d="M6 11h6v6H6z"/><path class="cls-3" d="M15 11h6v6h-6z"/><path class="cls-2" d="M15 15.848c.02 0 .035.004.055.004.908 0 1.48-1.132 1.48-1.815a.877.877 0 0 1 .812-.907c.644 0 .884.67 1.53.67 1.06 0 1.02-1.406 1.957-1.91a1.657 1.657 0 0 0 .166-.12V11h-6z"/><path class="cls-3" d="M24 11h6v6h-6zM15 20h6v6h-6z"/><path class="cls-2" d="M24 20h6v6h-6zM19.535 23.224c0 .354.32.565.32.903v.052c0 .402-.573 1.12-.772 1.82H21v-4.17c-.486.465-1.465.585-1.465 1.394zM25.195 2.63c.276-.132.425-.63.508-.63H24v1.274a11.102 11.102 0 0 1 1.195-.645z"/><path class="cls-4" d="M0 0h32v32H0z"/><path class="cls-5" d="M0 22h15v10H0z"/><path class="cls-6" d="M12.8 16.4a1 1 0 0 0-.8-.4H5v2h8v-1.333z"/><path class="cls-7" d="M15 21H0l3-4h9l3 4z"/><path class="cls-8" d="M7.5 24L4 27h2v3h3v-3h2l-3.5-3z"/><path class="cls-9" d="M8 21v-4H7v4H0v1h15v-1H8z"/><path class="cls-6" d="M14 19.666L15 21v6h1v-5a.977.977 0 0 0-.148-.492c.013-.02.03-.038.042-.06A1 1 0 0 0 15.8 20.4L14.75 19H14z"/></g></svg>