<svg id="Icons" xmlns="http://www.w3.org/2000/svg" viewBox="0 0 32 32"><defs><style>.cls-1{fill:#6e6e6e}.cls-2{fill:none}.cls-3{fill:#d3b490}</style></defs><title>webtools32</title><path class="cls-1" d="M13.653 7.59a3.46 3.46 0 0 1-.992-1.672 11.873 11.873 0 0 0-.368-1.88 8.624 8.624 0 0 1 3.716-1.99 26.148 26.148 0 0 1 4.336-.558l-.3-.334A21.64 21.64 0 0 0 12.42.742a11.964 11.964 0 0 0-5.864 2.572c-.424.372-1.267 1.446-1.21 1.965a1.702 1.702 0 0 1-.424 1.4c-.454.42-1.377 1.068-1.377 1.068a3.932 3.932 0 0 0-1.542.11A11.875 11.875 0 0 0 .257 9.145s-.35.51-.234.793A9.97 9.97 0 0 0 .8 11.343a5.826 5.826 0 0 0 1.34 1.453 1.485 1.485 0 0 0 .908.12 3.713 3.713 0 0 0 1.024-.558 20.626 20.626 0 0 0 1.508-1.95 3.185 3.185 0 0 1 2.062-1.545 14.024 14.024 0 0 1 3.266.957s-.228-.183 1.19-1.283a4.647 4.647 0 0 1 1.555-.95z"/><path class="cls-2" d="M0 0h32v32H0z"/><path class="cls-3" d="M31.684 27.08c-.302-.415-4.175-4.755-6.002-6.685a335.36 335.36 0 0 0-7.106-7.215c-1.268-1.244-2.973-3.227-4.023-4.477a6.523 6.523 0 0 0-1.397.893c-1.42 1.1-1.19 1.283-1.19 1.283l-.138-.056c2.174 2.516 6.966 8.102 7.892 9.5 1.2 1.813 5.566 7.08 6.154 7.856.695.924 1.692 2.28 2.49 2.55.664.22 1.172.226 2.232-.79 1.92-1.842 1.39-2.447 1.088-2.86z"/></svg>