<svg id="Icons" xmlns="http://www.w3.org/2000/svg" viewBox="0 0 32 32"><defs><style>.cls-1{fill:#a7a9ac}.cls-2{fill:#f8f8f8}.cls-3{fill:#6d6e71}.cls-4{fill:none}.cls-5{fill:#d3b490}</style></defs><title>tools_32</title><path class="cls-1" d="M4.54 25.157L20.086 11.82a5.63 5.63 0 0 0 .935-1.38 6.455 6.455 0 0 0 .012-1.685s.532.487 1.24 1.157a1.723 1.723 0 0 1 2.35 2.332c.807.86 1.348 1.55 1.024 1.564-.875.037-1.25-.136-1.724-.11a2.323 2.323 0 0 0-1.098.612L9.356 29.974a3.406 3.406 0 0 1-4.817-4.817z"/><path class="cls-2" d="M6.225 26.378a1.352 1.352 0 1 0 1.91 0 1.354 1.354 0 0 0-1.91 0z"/><path class="cls-3" d="M21.94 11.815a5.303 5.303 0 0 0 7.353 1.348 7.897 7.897 0 0 0 2.705-5.03.186.186 0 0 0-.04-.146.163.163 0 0 0-.06-.05.205.205 0 0 0-.228.018l-4.21 3.22a.45.45 0 0 1-.547.015L24.94 9.743a.376.376 0 0 1-.09-.085.508.508 0 0 1-.057-.098l-.943-2.372a.46.46 0 0 1 .152-.53l4.213-3.22a.202.202 0 0 0 .076-.214.157.157 0 0 0-.03-.075.207.207 0 0 0-.13-.076 7.893 7.893 0 0 0-5.568 1.294 5.3 5.3 0 0 0-.62 7.447zM13.653 7.59a3.46 3.46 0 0 1-.992-1.672 11.873 11.873 0 0 0-.368-1.88 8.624 8.624 0 0 1 3.716-1.99 26.156 26.156 0 0 1 4.336-.558l-.3-.334A21.64 21.64 0 0 0 12.42.742a11.963 11.963 0 0 0-5.864 2.572c-.424.37-1.267 1.446-1.21 1.965a1.702 1.702 0 0 1-.424 1.4c-.454.42-1.377 1.068-1.377 1.068a3.932 3.932 0 0 0-1.542.11 11.873 11.873 0 0 0-1.748 1.29s-.35.508-.234.79A9.97 9.97 0 0 0 .8 11.345a5.825 5.825 0 0 0 1.34 1.453 1.485 1.485 0 0 0 .908.12 3.712 3.712 0 0 0 1.024-.558 20.626 20.626 0 0 0 1.508-1.95 3.185 3.185 0 0 1 2.062-1.545 14.023 14.023 0 0 1 3.266.957s-.228-.183 1.19-1.283a4.647 4.647 0 0 1 1.555-.95z"/><path class="cls-4" d="M0 0h32v32H0z"/><path class="cls-2" d="M15.056 16.137a160.47 160.47 0 0 1 3.035 3.68l3.952-4.594a305.903 305.903 0 0 0-2.738-2.73z"/><path class="cls-5" d="M31.684 27.078c-.302-.414-4.175-4.754-6.002-6.684a335.583 335.583 0 0 0-7.106-7.214c-1.268-1.244-2.973-3.227-4.023-4.477a6.525 6.525 0 0 0-1.397.893c-1.42 1.1-1.19 1.283-1.19 1.283l-.138-.056c2.174 2.516 6.966 8.102 7.892 9.498 1.2 1.815 5.566 7.08 6.154 7.858.695.923 1.692 2.28 2.49 2.548.664.22 1.172.227 2.232-.79 1.92-1.84 1.39-2.446 1.088-2.86z"/></svg>