<?xml version="1.0" encoding="utf-8"?>
<!-- Generator: Adobe Illustrator 22.1.0, SVG Export Plug-In . SVG Version: 6.00 Build 0)  -->
<svg version="1.1" id="Layer_1" xmlns="http://www.w3.org/2000/svg" xmlns:xlink="http://www.w3.org/1999/xlink" x="0px" y="0px"
	 viewBox="0 0 16.3 16.1" style="enable-background:new 0 0 16.3 16.1;" xml:space="preserve">
<style type="text/css">
	.st0{fill:url(#SVGID_1_);}
	.st1{fill:url(#SVGID_2_);filter:url(#Adobe_OpacityMaskFilter);}
	.st2{fill:url(#SVGID_3_);}
	.st3{mask:url(#mask_1_);}
	.st4{fill:url(#SVGID_4_);}
	.st5{fill:url(#SVGID_5_);filter:url(#Adobe_OpacityMaskFilter_1_);}
	.st6{mask:url(#mask-2_1_);}
	.st7{fill:url(#SVGID_6_);}
	.st8{fill:#FFFFFF;}
</style>
<title>Light-Blue_32</title>
<g id="hexagons">
	
		<radialGradient id="SVGID_1_" cx="-85.7711" cy="51.7032" r="25.1616" gradientTransform="matrix(0.5412 0 0 -0.5362 58.3286 39.5337)" gradientUnits="userSpaceOnUse">
		<stop  offset="3.600000e-04" style="stop-color:#3CCCFF"/>
		<stop  offset="0.5152" style="stop-color:#03A5EB"/>
	</radialGradient>
	<path class="st0" d="M1.1,4.2V13L7.9,16C8,16,8.2,16,8.3,16l5.7-2.5c0.7-0.3,1.1-0.9,1.1-1.7V3L8.3,0.1C8.2,0,8,0,7.9,0.1L2.2,2.5
		C1.5,2.8,1.1,3.5,1.1,4.2z"/>
	<defs>
		<filter id="Adobe_OpacityMaskFilter" filterUnits="userSpaceOnUse" x="1.1" y="0" width="7" height="16">
			<feColorMatrix  type="matrix" values="1 0 0 0 0  0 1 0 0 0  0 0 1 0 0  0 0 0 1 0"/>
		</filter>
	</defs>
	<mask maskUnits="userSpaceOnUse" x="1.1" y="0" width="7" height="16" id="mask_1_">
		
			<linearGradient id="SVGID_2_" gradientUnits="userSpaceOnUse" x1="9.7222" y1="33.0272" x2="2.3367" y2="20.2351" gradientTransform="matrix(1 0 0 -1 0 34)">
			<stop  offset="0" style="stop-color:#E63A00"/>
			<stop  offset="3.093000e-02" style="stop-color:#E63A00;stop-opacity:0.8834"/>
			<stop  offset="9.894000e-02" style="stop-color:#E63A00;stop-opacity:0.6517"/>
			<stop  offset="0.1678" style="stop-color:#E63A00;stop-opacity:0.4521"/>
			<stop  offset="0.2362" style="stop-color:#E63A00;stop-opacity:0.289"/>
			<stop  offset="0.3039" style="stop-color:#E63A00;stop-opacity:0.1625"/>
			<stop  offset="0.3709" style="stop-color:#E63A00;stop-opacity:7.227000e-02"/>
			<stop  offset="0.4368" style="stop-color:#E63A00;stop-opacity:1.813000e-02"/>
			<stop  offset="0.5004" style="stop-color:#E63A00;stop-opacity:0"/>
		</linearGradient>
		<path class="st1" d="M7.9,0.1L2.1,2.6C1.5,2.8,1.1,3.5,1.1,4.2V13L7.9,16c0.1,0,0.1,0,0.2,0V0C8,0,7.9,0,7.9,0.1z"/>
		
			<linearGradient id="SVGID_3_" gradientUnits="userSpaceOnUse" x1="1.0898" y1="25.9698" x2="8.0898" y2="25.9698" gradientTransform="matrix(1 0 0 -1 0 34)">
			<stop  offset="0.7217" style="stop-color:#FFFFFF"/>
			<stop  offset="0.9996" style="stop-color:#333333"/>
		</linearGradient>
		<path class="st2" d="M7.9,0.1L2.1,2.6C1.5,2.8,1.1,3.5,1.1,4.2V13L7.9,16c0.1,0,0.1,0,0.2,0V0C8,0,7.9,0,7.9,0.1z"/>
	</mask>
	<g class="st3">
		
			<linearGradient id="SVGID_4_" gradientUnits="userSpaceOnUse" x1="9.7274" y1="33.0241" x2="2.3428" y2="20.2335" gradientTransform="matrix(1 0 0 -1 0 34)">
			<stop  offset="4.390000e-03" style="stop-color:#4DD0FF"/>
			<stop  offset="5.912000e-02" style="stop-color:#4DD0FF;stop-opacity:0.797"/>
			<stop  offset="0.1231" style="stop-color:#4DD0FF;stop-opacity:0.5881"/>
			<stop  offset="0.188" style="stop-color:#4DD0FF;stop-opacity:0.4079"/>
			<stop  offset="0.2523" style="stop-color:#4DD0FF;stop-opacity:0.2609"/>
			<stop  offset="0.3162" style="stop-color:#4DD0FF;stop-opacity:0.1467"/>
			<stop  offset="0.3792" style="stop-color:#4DD0FF;stop-opacity:6.520000e-02"/>
			<stop  offset="0.4413" style="stop-color:#4DD0FF;stop-opacity:1.636000e-02"/>
			<stop  offset="0.5011" style="stop-color:#4DD0FF;stop-opacity:0"/>
		</linearGradient>
		<path class="st4" d="M8.1,0C8,0,7.9,0,7.9,0.1L2.2,2.5C1.5,2.8,1.1,3.5,1.1,4.2V13L7.9,16c0.1,0,0.1,0,0.2,0V0z"/>
	</g>
	<defs>
		<filter id="Adobe_OpacityMaskFilter_1_" filterUnits="userSpaceOnUse" x="4.2" y="0" width="7.8" height="16">
			<feColorMatrix  type="matrix" values="1 0 0 0 0  0 1 0 0 0  0 0 1 0 0  0 0 0 1 0"/>
		</filter>
	</defs>
	<mask maskUnits="userSpaceOnUse" x="4.2" y="0" width="7.8" height="16" id="mask-2_1_">
		
			<linearGradient id="SVGID_5_" gradientUnits="userSpaceOnUse" x1="4.1798" y1="25.9703" x2="11.9997" y2="25.9703" gradientTransform="matrix(1 0 0 -1 0 34)">
			<stop  offset="0" style="stop-color:#808080"/>
			<stop  offset="5.020000e-02" style="stop-color:#989898"/>
			<stop  offset="0.1419" style="stop-color:#BDBDBD"/>
			<stop  offset="0.2337" style="stop-color:#DADADA"/>
			<stop  offset="0.3244" style="stop-color:#EEEEEE"/>
			<stop  offset="0.4138" style="stop-color:#FBFBFB"/>
			<stop  offset="0.5" style="stop-color:#FFFFFF"/>
			<stop  offset="0.5637" style="stop-color:#FBFBFB"/>
			<stop  offset="0.6297" style="stop-color:#EEEEEE"/>
			<stop  offset="0.6967" style="stop-color:#DADADA"/>
			<stop  offset="0.7646" style="stop-color:#BDBDBD"/>
			<stop  offset="0.8331" style="stop-color:#979797"/>
			<stop  offset="0.902" style="stop-color:#696969"/>
			<stop  offset="0.9701" style="stop-color:#343434"/>
			<stop  offset="1" style="stop-color:#1A1A1A"/>
		</linearGradient>
		<path class="st5" d="M8.5,15.8l3-3.4c0.3-0.3,0.4-0.7,0.4-1.2V1.7L8.3,0.1C8.2,0,8,0,7.9,0.1L4.2,1.7v9.6c0,0.4,0.2,0.8,0.4,1.2
			l3,3.4C7.9,16.1,8.2,16.1,8.5,15.8C8.5,15.9,8.5,15.9,8.5,15.8z"/>
	</mask>
	<g class="st6">
		
			<linearGradient id="SVGID_6_" gradientUnits="userSpaceOnUse" x1="8.0898" y1="33.9699" x2="8.0898" y2="17.9699" gradientTransform="matrix(1 0 0 -1 0 34)">
			<stop  offset="1.980000e-03" style="stop-color:#0094CF;stop-opacity:0"/>
			<stop  offset="7.708000e-02" style="stop-color:#0094CF;stop-opacity:2.015000e-02"/>
			<stop  offset="0.1549" style="stop-color:#0094CF;stop-opacity:8.027000e-02"/>
			<stop  offset="0.234" style="stop-color:#0094CF;stop-opacity:0.1805"/>
			<stop  offset="0.314" style="stop-color:#0094CF;stop-opacity:0.3209"/>
			<stop  offset="0.3946" style="stop-color:#0095CF;stop-opacity:0.5018"/>
			<stop  offset="0.4748" style="stop-color:#0095CF;stop-opacity:0.7199"/>
			<stop  offset="0.5012" style="stop-color:#0095CF;stop-opacity:0.8"/>
			<stop  offset="0.6083" style="stop-color:#0095CF;stop-opacity:0.7799"/>
			<stop  offset="0.7194" style="stop-color:#0095CF;stop-opacity:0.7198"/>
			<stop  offset="0.8322" style="stop-color:#0095CF;stop-opacity:0.6197"/>
			<stop  offset="0.9455" style="stop-color:#0094CF;stop-opacity:0.4805"/>
			<stop  offset="1" style="stop-color:#0094CF;stop-opacity:0.4"/>
		</linearGradient>
		<path class="st7" d="M7.7,15.8c0.2,0.2,0.6,0.3,0.8,0c0,0,0,0,0,0l3-3.4c0.3-0.3,0.4-0.7,0.4-1.2V1.7L8.3,0.1C8.2,0,8,0,7.9,0.1
			L4.2,1.7v9.6c0,0.4,0.2,0.8,0.4,1.2L7.7,15.8z"/>
	</g>
</g>
<g id="logos">
	<path class="st8" d="M13.1,7h-1c-0.3,0-0.5,0.2-0.5,0.5l0,0v1.8c0,0.1-0.1,0.2-0.2,0.2h-0.8V4.3l-2.3-1C8,3.2,7.8,3.3,7.6,3.6
		c0,0.1,0,0.1,0,0.2v7c0,0.1-0.1,0.2-0.3,0.2H6.6V6.2h0L5.1,5.5L3.6,6.2h0V9H3.1v1.5h1c0.3,0,0.5-0.2,0.5-0.5c0,0,0,0,0,0V6.7
		l0.5-0.2l0.5,0.2V12c0,0.3,0.2,0.5,0.5,0.5c0,0,0,0,0,0h2c0.3,0,0.5-0.2,0.5-0.5V4.5l1,0.4v5.5c0,0.3,0.2,0.5,0.5,0.5h2
		c0.3,0,0.5-0.2,0.5-0.5c0,0,0,0,0,0V8h0.5V7z"/>
</g>
</svg>
