<?xml version="1.0" encoding="utf-8"?>
<!-- Generator: Adobe Illustrator 22.1.0, SVG Export Plug-In . SVG Version: 6.00 Build 0)  -->
<svg version="1.1" id="Layer_1" xmlns="http://www.w3.org/2000/svg" xmlns:xlink="http://www.w3.org/1999/xlink" x="0px" y="0px"
	 viewBox="0 0 32 32" style="enable-background:new 0 0 32 32;" xml:space="preserve">
<style type="text/css">
	.st0{fill:url(#SVGID_1_);}
	.st1{fill:url(#SVGID_2_);filter:url(#Adobe_OpacityMaskFilter);}
	.st2{fill:url(#SVGID_3_);}
	.st3{mask:url(#mask_1_);}
	.st4{fill:url(#SVGID_4_);}
	.st5{fill:url(#SVGID_5_);filter:url(#Adobe_OpacityMaskFilter_1_);}
	.st6{mask:url(#mask-2_1_);}
	.st7{fill:url(#SVGID_6_);}
	.st8{fill:#FFFFFF;}
</style>
<title>Light-Blue_32</title>
<g id="hexagons">
	
		<radialGradient id="SVGID_1_" cx="-71.1563" cy="36.8407" r="25.1616" gradientTransform="matrix(1.0825 0 0 -1.0725 100.6573 63.0684)" gradientUnits="userSpaceOnUse">
		<stop  offset="3.600000e-04" style="stop-color:#3CCCFF"/>
		<stop  offset="0.5152" style="stop-color:#03A5EB"/>
	</radialGradient>
	<path class="st0" d="M2,8.4V26l13.5,5.9c0.3,0.1,0.6,0.1,0.9,0L27.8,27c1.3-0.6,2.2-1.9,2.2-3.3V6L16.5,0.1c-0.3-0.1-0.6-0.1-0.9,0
		L4.2,5C2.9,5.6,2,6.9,2,8.4z"/>
	<defs>
		<filter id="Adobe_OpacityMaskFilter" filterUnits="userSpaceOnUse" x="2" y="0" width="14" height="32">
			<feColorMatrix  type="matrix" values="1 0 0 0 0  0 1 0 0 0  0 0 1 0 0  0 0 0 1 0"/>
		</filter>
	</defs>
	<mask maskUnits="userSpaceOnUse" x="2" y="0" width="14" height="32" id="mask_1_">
		
			<linearGradient id="SVGID_2_" gradientUnits="userSpaceOnUse" x1="19.265" y1="32.115" x2="4.4938" y2="6.5305" gradientTransform="matrix(1 0 0 -1 0 34)">
			<stop  offset="0" style="stop-color:#E63A00"/>
			<stop  offset="3.093000e-02" style="stop-color:#E63A00;stop-opacity:0.8834"/>
			<stop  offset="9.894000e-02" style="stop-color:#E63A00;stop-opacity:0.6517"/>
			<stop  offset="0.1678" style="stop-color:#E63A00;stop-opacity:0.4521"/>
			<stop  offset="0.2362" style="stop-color:#E63A00;stop-opacity:0.289"/>
			<stop  offset="0.3039" style="stop-color:#E63A00;stop-opacity:0.1625"/>
			<stop  offset="0.3709" style="stop-color:#E63A00;stop-opacity:7.227000e-02"/>
			<stop  offset="0.4368" style="stop-color:#E63A00;stop-opacity:1.813000e-02"/>
			<stop  offset="0.5004" style="stop-color:#E63A00;stop-opacity:0"/>
		</linearGradient>
		<path class="st1" d="M15.5,0.1l-11.4,5C2.8,5.6,2,6.9,2,8.3V26l13.5,5.9C15.7,32,15.8,32,16,32V0C15.8,0,15.7,0,15.5,0.1z"/>
		
			<linearGradient id="SVGID_3_" gradientUnits="userSpaceOnUse" x1="2" y1="18" x2="16" y2="18" gradientTransform="matrix(1 0 0 -1 0 34)">
			<stop  offset="0.7217" style="stop-color:#FFFFFF"/>
			<stop  offset="0.9996" style="stop-color:#333333"/>
		</linearGradient>
		<path class="st2" d="M15.5,0.1l-11.4,5C2.8,5.6,2,6.9,2,8.3V26l13.5,5.9C15.7,32,15.8,32,16,32V0C15.8,0,15.7,0,15.5,0.1z"/>
	</mask>
	<g class="st3">
		
			<linearGradient id="SVGID_4_" gradientUnits="userSpaceOnUse" x1="19.2755" y1="32.1089" x2="4.5061" y2="6.5274" gradientTransform="matrix(1 0 0 -1 0 34)">
			<stop  offset="4.390000e-03" style="stop-color:#4DD0FF"/>
			<stop  offset="5.912000e-02" style="stop-color:#4DD0FF;stop-opacity:0.797"/>
			<stop  offset="0.1231" style="stop-color:#4DD0FF;stop-opacity:0.5881"/>
			<stop  offset="0.188" style="stop-color:#4DD0FF;stop-opacity:0.4079"/>
			<stop  offset="0.2523" style="stop-color:#4DD0FF;stop-opacity:0.2609"/>
			<stop  offset="0.3162" style="stop-color:#4DD0FF;stop-opacity:0.1467"/>
			<stop  offset="0.3792" style="stop-color:#4DD0FF;stop-opacity:6.520000e-02"/>
			<stop  offset="0.4413" style="stop-color:#4DD0FF;stop-opacity:1.636000e-02"/>
			<stop  offset="0.5011" style="stop-color:#4DD0FF;stop-opacity:0"/>
		</linearGradient>
		<path class="st4" d="M16,0c-0.2,0-0.3,0-0.5,0.1L4.2,5C2.9,5.6,2,6.9,2,8.3V26l13.5,5.9C15.7,32,15.8,32,16,32V0z"/>
	</g>
	<defs>
		<filter id="Adobe_OpacityMaskFilter_1_" filterUnits="userSpaceOnUse" x="8.2" y="0" width="15.6" height="32">
			<feColorMatrix  type="matrix" values="1 0 0 0 0  0 1 0 0 0  0 0 1 0 0  0 0 0 1 0"/>
		</filter>
	</defs>
	<mask maskUnits="userSpaceOnUse" x="8.2" y="0" width="15.6" height="32" id="mask-2_1_">
		
			<linearGradient id="SVGID_5_" gradientUnits="userSpaceOnUse" x1="8.1802" y1="18.001" x2="23.8198" y2="18.001" gradientTransform="matrix(1 0 0 -1 0 34)">
			<stop  offset="0" style="stop-color:#808080"/>
			<stop  offset="5.020000e-02" style="stop-color:#989898"/>
			<stop  offset="0.1419" style="stop-color:#BDBDBD"/>
			<stop  offset="0.2337" style="stop-color:#DADADA"/>
			<stop  offset="0.3244" style="stop-color:#EEEEEE"/>
			<stop  offset="0.4138" style="stop-color:#FBFBFB"/>
			<stop  offset="0.5" style="stop-color:#FFFFFF"/>
			<stop  offset="0.5637" style="stop-color:#FBFBFB"/>
			<stop  offset="0.6297" style="stop-color:#EEEEEE"/>
			<stop  offset="0.6967" style="stop-color:#DADADA"/>
			<stop  offset="0.7646" style="stop-color:#BDBDBD"/>
			<stop  offset="0.8331" style="stop-color:#979797"/>
			<stop  offset="0.902" style="stop-color:#696969"/>
			<stop  offset="0.9701" style="stop-color:#343434"/>
			<stop  offset="1" style="stop-color:#1A1A1A"/>
		</linearGradient>
		<path class="st5" d="M16.9,31.6l6.1-6.9c0.6-0.6,0.9-1.5,0.9-2.3V3.3l-7.4-3.2c-0.3-0.1-0.6-0.1-0.9,0L8.2,3.3v19.1
			c0,0.9,0.3,1.7,0.9,2.3l6.1,6.9C15.6,32.1,16.3,32.1,16.9,31.6C16.8,31.7,16.8,31.6,16.9,31.6z"/>
	</mask>
	<g class="st6">
		
			<linearGradient id="SVGID_6_" gradientUnits="userSpaceOnUse" x1="16" y1="34.0005" x2="16" y2="2" gradientTransform="matrix(1 0 0 -1 0 34)">
			<stop  offset="1.980000e-03" style="stop-color:#0094CF;stop-opacity:0"/>
			<stop  offset="7.708000e-02" style="stop-color:#0094CF;stop-opacity:2.015000e-02"/>
			<stop  offset="0.1549" style="stop-color:#0094CF;stop-opacity:8.027000e-02"/>
			<stop  offset="0.234" style="stop-color:#0094CF;stop-opacity:0.1805"/>
			<stop  offset="0.314" style="stop-color:#0094CF;stop-opacity:0.3209"/>
			<stop  offset="0.3946" style="stop-color:#0095CF;stop-opacity:0.5018"/>
			<stop  offset="0.4748" style="stop-color:#0095CF;stop-opacity:0.7199"/>
			<stop  offset="0.5012" style="stop-color:#0095CF;stop-opacity:0.8"/>
			<stop  offset="0.6083" style="stop-color:#0095CF;stop-opacity:0.7799"/>
			<stop  offset="0.7194" style="stop-color:#0095CF;stop-opacity:0.7198"/>
			<stop  offset="0.8322" style="stop-color:#0095CF;stop-opacity:0.6197"/>
			<stop  offset="0.9455" style="stop-color:#0094CF;stop-opacity:0.4805"/>
			<stop  offset="1" style="stop-color:#0094CF;stop-opacity:0.4"/>
		</linearGradient>
		<path class="st7" d="M15.1,31.6c0.4,0.5,1.1,0.5,1.6,0.1c0,0,0.1-0.1,0.1-0.1l6.1-6.9c0.6-0.6,0.9-1.5,0.9-2.3V3.3l-7.4-3.2
			c-0.3-0.1-0.6-0.1-0.9,0L8.2,3.3v19.1c0,0.9,0.3,1.7,0.9,2.3L15.1,31.6z"/>
	</g>
</g>
<g id="logos">
	<path class="st8" d="M26,14h-2c-0.5,0-1,0.4-1,1l0,0v3.5c0,0.3-0.2,0.5-0.5,0.5H21V8.6l-4.6-2c-0.5-0.2-1.1,0-1.3,0.5
		C15,7.3,15,7.4,15,7.5v14c0,0.3-0.2,0.5-0.5,0.5H13v-9.5h0L10,11l-3,1.5h0V18H6v3h2c0.6,0,1-0.4,1-1c0,0,0,0,0,0v-6.5l1-0.5l1,0.5
		V24c0,0.6,0.5,1,1,1c0,0,0,0,0,0h4c0.6,0,1-0.4,1-1V9.1l2,0.9V21c0,0.6,0.4,1,1,1h4c0.6,0,1-0.4,1-1c0,0,0,0,0,0v-5h1V14z"/>
</g>
</svg>
