<svg id="Icons" xmlns="http://www.w3.org/2000/svg" viewBox="0 0 32 32"><defs><style>.cls-1{fill:#e5d255;}.cls-2{fill:#f4eec8;}.cls-3{fill:#f8f8f8;}.cls-4{fill:#5cbfbc;}</style></defs><path class="cls-1" d="M31,27s-6-3-15,0S1,27,1,27L5,3s6,2,11,0S27,3,27,3Z"/><path class="cls-2" d="M16,26.917a24.60713,24.60713,0,0,1,8.40405-1.3211L23,24.19215V19.08252A3.01017,3.01017,0,0,0,25.85206,15.129a2.92384,2.92384,0,0,0-1.89849-1.89849A3.01017,3.01017,0,0,0,20,16.08252c0,.07031.00293.1416.00879.21338l-.27637.27637A2.50064,2.50064,0,0,0,19,18.34049V22.5a.5.5,0,0,1-.5.5H13V16h4.04242a2.50015,2.50015,0,0,0,1.768-.7324l2.1255-2.12576a1.49957,1.49957,0,0,0,0-2.12058l-.70741-.7075a1.49932,1.49932,0,0,0-2.1211,0L16.42188,12H10.49973A1.49973,1.49973,0,0,0,9,13.49973V17H7.1001a1.56034,1.56034,0,0,0-1.09766.44287l-.6001.6001a1.33881,1.33881,0,0,0,0,1.91357l.6001.6001A1.55774,1.55774,0,0,0,7.1001,21H9v2.74681l-.26416.26418A2.99976,2.99976,0,0,0,6.237,28.16776a22.86715,22.86715,0,0,0,5.59906-.23153,2.95373,2.95373,0,0,0,.162-.82294L12.11133,27h1.6626a3.012,3.012,0,0,0-.43177.64556A26.79417,26.79417,0,0,0,16,26.917Z"/><path class="cls-3" d="M16,27a24.58722,24.58722,0,0,1,8.51416-1.32L23,24.13477V18.999a3,3,0,1,0-3-3c0,.07032.00293.1416.00879.21338l-.27637.27637A2.51809,2.51809,0,0,0,19,18.25684V22.5a.50034.50034,0,0,1-.5.5H13V16h4.06787a2.518,2.518,0,0,0,1.74462-.73242l2.1255-2.12549a1.5,1.5,0,0,0,.00049-2.12109l-.70752-.70752a1.5,1.5,0,0,0-2.12158,0L16.42334,12H10.5A1.50164,1.50164,0,0,0,9,13.5V17H7.1001a1.56034,1.56034,0,0,0-1.09766.44287l-.6001.6001a1.34054,1.34054,0,0,0,0,1.91455l.6001.59912A1.55774,1.55774,0,0,0,7.1001,21H9v2.74707l-.26416.26416A3.00366,3.00366,0,0,0,6,26.99951a2.96851,2.96851,0,0,0,.28369,1.25415,22.86026,22.86026,0,0,0,5.5221-.22943,2.95618,2.95618,0,0,0,.19226-.91095L12.11133,27h1.61621a2.93956,2.93956,0,0,0-.46942.74811A26.7841,26.7841,0,0,0,16,27Z"/><path class="cls-4" d="M22,18.46368v6.07923l1.83368,1.8714A.55985.55985,0,0,1,24,26.79675l-.00072.84925a.33734.33734,0,0,1-.34687.354l-.81525.00071a.5626.5626,0,0,1-.38245-.16451L20.56012,26H17v1.23756a1.9082,1.9082,0,0,1,.93864,2.15532,1.96269,1.96269,0,0,1-1.47622,1.4023A1.98817,1.98817,0,0,1,14,28.90707a1.92061,1.92061,0,0,1,1-1.66951V26H11.697l-.72473.72473A1.99533,1.99533,0,1,1,9,24.99951c.05042,0,.09766.01117.14716.01483L10,24.1615V20H7.1a.55464.55464,0,0,1-.39039-.15015l-.6-.6a.33977.33977,0,0,1,0-.49976l.6-.6A.55485.55485,0,0,1,7.1,18H10V13.5a.5.5,0,0,1,.5-.5h6.33748l1.979-1.97959a.5.5,0,0,1,.7072,0l.70744.70743a.5.5,0,0,1,0,.70709l-2.12561,2.12567A1.50062,1.50062,0,0,1,17.04463,15H12v9h6.5A1.5,1.5,0,0,0,20,22.5V18.25659a1.5,1.5,0,0,1,.43933-1.06067l.64691-.64691A1.97979,1.97979,0,0,1,21,15.999a2.02655,2.02655,0,1,1,1.527,1.93769Z"/></svg>