<svg id="Icons" xmlns="http://www.w3.org/2000/svg" viewBox="0 0 16 16"><defs><style>.cls-1{fill:#e5d255;}.cls-2{fill:#f8f8f8;}.cls-3{fill:#5cbfbc;}</style></defs><path class="cls-1" d="M16,14.4004s-3.20021-1.6016-8,0c-4.79981,1.5996-8,0-8,0L2.13279,1.5996A9.76183,9.76183,0,0,0,8,1.5996a9.76176,9.76176,0,0,1,5.86719,0Z"/><path class="cls-2" d="M14.2005,13.86694a1.23476,1.23476,0,0,0,.04364-.22046,1.25661,1.25661,0,0,0-.37109-.89453l-.873-.873V9.93652a2.0001,2.0001,0,1,0-1.044-3.86132,1.23132,1.23132,0,0,0,.13379-.55079,1.2637,1.2637,0,0,0-.36621-.90527l-.334-.33691a1.26607,1.26607,0,0,0-1.78613-.00489L8.874,5H5.75A1.75213,1.75213,0,0,0,4,6.75V8H3.26465A1.26616,1.26616,0,0,0,2,9.26465v.4707A1.26616,1.26616,0,0,0,3.26465,11H4v.26855a1.99948,1.99948,0,1,0,2.50879,3.043c-.00586.06153-.00879.125-.00879.18848a1.973,1.973,0,0,0,.03046.301A14.27168,14.27168,0,0,0,8,14.40039,12.421,12.421,0,0,1,14.2005,13.86694ZM7,8H9.69824a1.00037,1.00037,0,0,0,.70508-.291l.14453-.14257a1.94641,1.94641,0,0,0-.0459.34863A1.76351,1.76351,0,0,0,10,9.14258V11H7Z"/><path class="cls-3" d="M11.9928,12.28569c.00061-.01251.0072-.02307.0072-.0357V9.24644l.2912-.28864A.95635.95635,0,0,0,12.5,9a1,1,0,1,0-1-1,.97016.97016,0,0,0,.05615.27832l-.3341.33112A.75016.75016,0,0,0,11,9.14213v2.1767A.6812.6812,0,0,1,10.31885,12H6V7H9.698L10,6.70065l1.012-1.00293a.26472.26472,0,0,0,.00165-.37439l-.33124-.33423a.26476.26476,0,0,0-.37439-.00165L9.28638,6H5.75A.75.75,0,0,0,5,6.75V9H3.26471A.26473.26473,0,0,0,3,9.26469v.47052A.26474.26474,0,0,0,3.26471,10H5v2a1,1,0,1,0,1,1H8v.65326A.98559.98559,0,0,0,7.5,14.5a1,1,0,0,0,2,0,.98559.98559,0,0,0-.5-.84675V13h2.25c.01263,0,.02319-.00659.03571-.0072l1.17352,1.17353a.26473.26473,0,0,0,.37439.00006l.33276-.33277a.26478.26478,0,0,0,0-.37439Z"/></svg>