<svg id="Icons" xmlns="http://www.w3.org/2000/svg" viewBox="0 0 32 32"><defs><style>.cls-1{fill:none}.cls-2{fill:#e5d255}.cls-3{fill:#6d6e71}.cls-4{fill:#ddeedb}.cls-5{fill:#f4eec8}.cls-6{fill:#f8f8f8}</style></defs><title>PlatformVectorTile32</title><path class="cls-1" d="M0 0h32v32H0z"/><path class="cls-2" d="M31 28s-6-3-15 0-15 0-15 0L5 4s6 2 11 0 11 0 11 0z"/><path class="cls-3" d="M16 8h9v9h-9z"/><path class="cls-3" d="M8 16h9v9H8z"/><path class="cls-3" d="M16 16h9v9h-9z"/><path class="cls-4" d="M17 9h7v7h-7zM9 17h7v7H9zM17 17h7v7h-7z"/><path class="cls-5" d="M8 8h8v8H8z"/><path class="cls-3" d="M6 6h9v9H6z"/><path class="cls-4" d="M7 7h7v7H7z"/><path class="cls-3" d="M12 16h1v3h-1zM10 11h1v3h-1zM17 12h3v1h-3zM11 10h3v1h-3zM20 14h1v4h-1zM13.2 20.98l-.2-.88 6-1 .2.88-6 1z"/><path class="cls-3" d="M9 9h3v3H9z"/><path class="cls-6" d="M10 10h1v1h-1z"/><path class="cls-3" d="M19 11h3v3h-3z"/><path class="cls-6" d="M20 12h1v1h-1z"/><path class="cls-3" d="M19 18h3v3h-3z"/><path class="cls-6" d="M20 19h1v1h-1z"/><path class="cls-3" d="M11 19h3v3h-3z"/><path class="cls-6" d="M12 20h1v1h-1z"/></svg>