<svg xmlns="http://www.w3.org/2000/svg" viewBox="0 0 32 32"><defs><style>.cls-1{fill:none}.cls-2{fill:#5b945a}.cls-3{fill:#9bc29c}.cls-4{fill:#6e6e6e}.cls-5{fill:#f8f8f8}.cls-6{fill:#e0e0e0}.cls-7{fill:#ccc}</style></defs><title>webscenelocal32</title><g id="Icons"><path class="cls-1" d="M0 0h32v32H0z"/><path class="cls-2" d="M0 32h32l-5-14H5L0 32z"/><path class="cls-3" d="M1.42 31l4.286-12h20.588l4.287 12H1.42z"/><path class="cls-4" d="M6 4h9v26H6zM14 0H7L6 4h9l-1-4z"/><path class="cls-5" d="M7 4l.78-3h5.44L14 4H7z"/><path class="cls-6" d="M7 5h7v24H7z"/><path class="cls-4" d="M17 10h9v17h-9zM24.962 6h-7l-1 4h9l-1-4z"/><path class="cls-5" d="M17.962 10l.78-3h5.44l.78 3h-7z"/><path class="cls-6" d="M18 11h7v15h-7z"/><path class="cls-7" d="M19 12h1v1h-1zM21 12h1v1h-1zM23 12h1v1h-1zM19 14h1v1h-1zM21 14h1v1h-1zM23 14h1v1h-1zM19 16h1v1h-1zM21 16h1v1h-1zM23 16h1v1h-1zM19 18h1v1h-1zM21 18h1v1h-1zM23 18h1v1h-1zM19 20h1v1h-1zM21 20h1v1h-1zM23 20h1v1h-1zM19 22h1v1h-1zM21 22h1v1h-1zM23 22h1v1h-1zM19 24h1v1h-1zM21 24h1v1h-1zM23 24h1v1h-1zM8 7h1v1H8zM10 7h1v1h-1zM12 7h1v1h-1zM8 9h1v1H8zM10 9h1v1h-1zM12 9h1v1h-1zM8 11h1v1H8zM10 11h1v1h-1zM12 11h1v1h-1zM8 13h1v1H8zM10 13h1v1h-1zM12 13h1v1h-1zM8 15h1v1H8zM10 15h1v1h-1zM12 15h1v1h-1zM8 17h1v1H8zM10 17h1v1h-1zM12 17h1v1h-1zM8 19h1v1H8zM10 19h1v1h-1zM12 19h1v1h-1zM8 21h1v1H8zM10 21h1v1h-1zM12 21h1v1h-1zM8 23h1v1H8zM10 23h1v1h-1zM12 23h1v1h-1zM8 25h1v1H8zM10 25h1v1h-1zM12 25h1v1h-1zM8 27h1v1H8zM10 27h1v1h-1zM12 27h1v1h-1z"/><path class="cls-5" d="M7 5h1v24H7zM18 11h1v15h-1z"/><path class="cls-4" d="M21 3h1v5h-1z"/></g></svg>