<svg id="Icons" xmlns="http://www.w3.org/2000/svg" viewBox="0 0 32 32"><defs><style>.cls-1{fill:#e5d255}.cls-2{fill:#f4eec8}.cls-3{fill:#f8f8f8}.cls-4{fill:#6e6e6e}.cls-4,.cls-5{fill-rule:evenodd}.cls-5{fill:#ccc}.cls-6{fill:#c7552e}.cls-7{fill:#e5a894}.cls-8{fill:#c96b4b}</style></defs><title>WFSOGCOptions32</title><path class="cls-1" d="M31 28s-6-3-15 0-15 0-15 0L5 4s6 2 11 0 11 0 11 0z"/><path class="cls-2" d="M5 4L2.45 19.305 5.786 22.7a1 1 0 0 0 1.426 0l5.5-5.595a.998.998 0 0 0 .287-.7V4.754A20.31 20.31 0 0 1 5 4z"/><path class="cls-3" d="M30.094 21.754q-.088-.24-.197-.474L31 19.86v-1.588l-1.343-1.344a1 1 0 0 0-1.322-.082l-1.615 1.256a6.263 6.263 0 0 0-.474-.196l-.254-2.03A1 1 0 0 0 25 15h-2a1 1 0 0 0-.992.876l-.254 2.03q-.242.09-.475.197l-1.615-1.256a1 1 0 0 0-1.32.082l-1.417 1.414a1 1 0 0 0-.082 1.32l1.256 1.615q-.107.232-.197.474l-2.03.254A1 1 0 0 0 15 23v2a1 1 0 0 0 .876.992l.062.008H28a3 3 0 0 0 3-3v-1.133zM23.998 25a1 1 0 1 1 1-1 1 1 0 0 1-1 1z"/><path class="cls-4" d="M31.998 25L32 23l-2.67-.334a5.5 5.5 0 0 0-.617-1.49l1.65-2.125-1.414-1.415-2.126 1.652a5.445 5.445 0 0 0-1.49-.617L25 16h-2l-.334 2.67a5.458 5.458 0 0 0-1.492.617l-2.123-1.65-1.415 1.414 1.652 2.124a5.458 5.458 0 0 0-.617 1.492L16 23v2l2.67.334a5.47 5.47 0 0 0 .617 1.492l-1.65 2.122 1.412 1.415 2.124-1.65a5.43 5.43 0 0 0 1.492.617l.332 2.668L25 32l.334-2.67a5.43 5.43 0 0 0 1.492-.618l2.12 1.65 1.417-1.413-1.65-2.125a5.45 5.45 0 0 0 .617-1.49zm-8 1a2 2 0 1 1 2-2 2 2 0 0 1-2 2z"/><path class="cls-5" d="M24.117 31h-.236l-.222-1.792a1.003 1.003 0 0 0-.748-.847 4.403 4.403 0 0 1-1.223-.505.99.99 0 0 0-.513-.143 1.004 1.004 0 0 0-.617.21l-1.426 1.11-.16-.164 1.106-1.426a1.003 1.003 0 0 0 .068-1.13 4.43 4.43 0 0 1-.503-1.217.997.997 0 0 0-.847-.75L17 24.118l.002-.24 1.79-.222a.997.997 0 0 0 .85-.75 4.482 4.482 0 0 1 .502-1.218 1 1 0 0 0-.068-1.13l-1.11-1.426.165-.166 1.43 1.11a.998.998 0 0 0 1.13.067 4.383 4.383 0 0 1 1.22-.504 1 1 0 0 0 .748-.846l.223-1.792h.237l.225 1.792a1 1 0 0 0 .746.847 4.358 4.358 0 0 1 1.22.505 1 1 0 0 0 1.13-.066l1.43-1.112.165.166-1.11 1.427a1 1 0 0 0-.07 1.13 4.533 4.533 0 0 1 .506 1.217.997.997 0 0 0 .845.75l1.795.225-.002.238-1.793.224a.997.997 0 0 0-.846.75 4.432 4.432 0 0 1-.507 1.217 1.003 1.003 0 0 0 .07 1.13l1.108 1.425-.165.166-1.424-1.107a1.004 1.004 0 0 0-.616-.21.984.984 0 0 0-.512.142 4.477 4.477 0 0 1-1.222.506.998.998 0 0 0-.748.848L24.117 31zm-.12-10a3 3 0 1 0 3 3 3.005 3.005 0 0 0-3-3z"/><path class="cls-6" d="M12 4.125C12 1.793 8.968 0 6.5 0S1 1.793 1 4.125v12.28L6.5 22l5.5-5.596z"/><path class="cls-7" d="M2 15.842V4.125C2 2.708 4.7 1 6.5 1S11 2.708 11 4.125v11.717l-4.5 4.195z"/><path class="cls-8" d="M7 2.418v15.684l3-2.67V4.125c0-.545-1.65-1.502-3-1.707z"/><circle class="cls-3" cx="6.5" cy="6.499" r="2.5"/></svg>