<svg id="Icons" xmlns="http://www.w3.org/2000/svg" viewBox="0 0 16 16"><defs><style>.cls-1{fill:none}.cls-2{fill:#e5d255}.cls-3,.cls-7{fill:#f8f8f8}.cls-4{fill:#c7552e}.cls-5{fill:#e5a894}.cls-6{fill:#c96b4b}.cls-7,.cls-8,.cls-9{fill-rule:evenodd}.cls-8{fill:#6d6e71}.cls-9{fill:#ccc}</style></defs><title>WFSOGCOptions16_1</title><path class="cls-1" d="M0 0h16v16H0z"/><path class="cls-2" d="M16 14.4s-3.2-1.6-8 0-8 0-8 0L2.133 1.6A9.762 9.762 0 0 0 8 1.6a9.762 9.762 0 0 1 5.867 0z"/><path class="cls-3" d="M2.133 1.6L.855 9.27l1.438 1.437a1 1 0 0 0 1.414 0l3-3A1 1 0 0 0 7 7V3a4.022 4.022 0 0 0-.148-1.07 10.604 10.604 0 0 1-4.72-.33z"/><path class="cls-4" d="M6 3a2.893 2.893 0 0 0-3-3 2.893 2.893 0 0 0-3 3v4l3 3 3-3z"/><path class="cls-5" d="M1 6.586V3a1.893 1.893 0 0 1 2-2 1.893 1.893 0 0 1 2 2v3.586l-2 2z"/><path class="cls-6" d="M3 2v5.172l1-1V3a.902.902 0 0 0-1-1z"/><circle class="cls-3" cx="3" cy="3" r="1.25"/><path class="cls-7" d="M15.99 14.396l.008-.01-.845-5.066-.073-.01.06-.076-.506-3.03a.914.914 0 0 0-.493-.166.923.923 0 0 0-.566.194l-.884.688-.14-1.11a.924.924 0 0 0-.915-.81h-1.27a.924.924 0 0 0-.916.81l-.14 1.11-.884-.687a.92.92 0 0 0-1.22.076l-.897.897a.922.922 0 0 0-.078 1.22l.69.884-1.113.14a.924.924 0 0 0-.81.915v1.27a.924.924 0 0 0 .81.916l1.11.14-.688.883a.923.923 0 0 0 .077 1.22l.048.048A14.312 14.312 0 0 0 8 14.4c4.728-1.577 7.897-.05 7.99-.004z"/><path class="cls-8" d="M16 11.67v-1.26l-1.605-.21a3.422 3.422 0 0 0-.39-.94l1.042-1.337-.892-.892-1.34 1.04a3.422 3.422 0 0 0-.937-.387L11.668 6h-1.26l-.21 1.683a3.5 3.5 0 0 0-.94.386L7.923 7.03l-.892.893 1.04 1.335a3.486 3.486 0 0 0-.387.94L6 10.41v1.26l1.683.212a3.474 3.474 0 0 0 .386.937l-1.04 1.338.89.89 1.338-1.04a3.296 3.296 0 0 0 .94.39l.21 1.605h1.26l.21-1.606a3.262 3.262 0 0 0 .94-.39l1.335 1.04.894-.89-1.04-1.337a3.387 3.387 0 0 0 .388-.937z"/><path class="cls-9" d="M11.074 15.442h-.15l-.14-1.137a.635.635 0 0 0-.475-.537 2.79 2.79 0 0 1-.778-.322.618.618 0 0 0-.326-.092.63.63 0 0 0-.392.136l-.904.703-.103-.105.703-.902a.637.637 0 0 0 .044-.718 2.836 2.836 0 0 1-.32-.774.635.635 0 0 0-.54-.476l-1.136-.142v-.152l1.137-.14a.633.633 0 0 0 .538-.478 2.837 2.837 0 0 1 .32-.772.634.634 0 0 0-.043-.716l-.705-.906.105-.105.907.705a.633.633 0 0 0 .718.042 2.79 2.79 0 0 1 .774-.322.633.633 0 0 0 .473-.537l.14-1.135h.15l.144 1.135a.632.632 0 0 0 .473.537 2.79 2.79 0 0 1 .774.322.635.635 0 0 0 .72-.042l.904-.705.105.105-.705.906a.634.634 0 0 0-.043.714 2.897 2.897 0 0 1 .322.774.633.633 0 0 0 .536.477l1.14.14-.002.153-1.137.142a.635.635 0 0 0-.536.476 2.84 2.84 0 0 1-.322.774.637.637 0 0 0 .043.716l.705.903-.105.106-.904-.703a.63.63 0 0 0-.392-.135.613.613 0 0 0-.324.09 2.864 2.864 0 0 1-.777.323.633.633 0 0 0-.473.537l-.143 1.137z"/><path class="cls-8" d="M11 9.096A1.904 1.904 0 1 0 12.9 11 1.907 1.907 0 0 0 11 9.096z"/><path class="cls-7" d="M11 12.27A1.27 1.27 0 1 1 12.27 11 1.27 1.27 0 0 1 11 12.27z"/></svg>