<svg id="Icons" xmlns="http://www.w3.org/2000/svg" viewBox="0 0 16 16"><defs><style>.cls-1{fill:none}.cls-2{fill:#49b0f2}.cls-3{fill:#005f96}.cls-4{fill:#d3eaf9}</style></defs><path class="cls-1" d="M0 0h16v16H0z"/><path class="cls-1" d="M0 0h16v16H0z"/><path class="cls-1" d="M0 0h16v16H0z"/><path class="cls-2" d="M2 3.33h1V7.5H2zM8.95 4.34L7.1 2.5 8.95.66 8.39.11 6 2.5l2.4 2.4.55-.56z"/><circle class="cls-3" cx="2.5" cy="2.5" r="2.3"/><circle class="cls-4" cx="2.5" cy="2.5" r="1.3"/><path class="cls-2" d="M3.78 12a.78.78 0 01-.78-.78V8H2v3.5A1.5 1.5 0 003.5 13H7v-1z"/><path class="cls-3" transform="rotate(90 2.5 8)" d="M.5 5.5h4v5h-4z"/><path class="cls-4" transform="rotate(90 2.5 8)" d="M1.5 6.5h2v3h-2z"/><path class="cls-3" transform="rotate(45 8.5 12.5)" d="M6.03 10.03h4.95v4.95H6.03z"/><path class="cls-4" transform="rotate(135 8.5 12.5)" d="M7.03 11.03h2.95v2.95H7.03z"/><path class="cls-2" d="M6.67 2v1h7.55a.78.78 0 01.78.78v7.44a.78.78 0 01-.78.78H13v1h1.5a1.5 1.5 0 001.5-1.5v-8A1.5 1.5 0 0014.5 2z"/></svg>