<svg id="Icons" xmlns="http://www.w3.org/2000/svg" viewBox="0 0 32 32"><defs><style>.cls-2{fill:#49b0f2}.cls-3{fill:#005f96}.cls-4{fill:#d3eaf9}</style></defs><path fill="none" d="M0 0h32v32H0z"/><path class="cls-2" d="M6 9h1v6H6zM8 25a1 1 0 01-1-1v-7H6v7.6A1.4 1.4 0 007.4 26H15v-1zM15.22 5v1H28a1 1 0 011 1v17a1 1 0 01-1 1h-3v1h3.6a1.4 1.4 0 001.4-1.4V6.4A1.4 1.4 0 0028.6 5z"/><path class="cls-2" d="M18.3 8.38L15.4 5.5l2.88-2.88-.7-.7L14 5.5l3.59 3.59.7-.71z"/><path class="cls-3" transform="rotate(90 6.5 17)" d="M3.5 12.5h6v9h-6z"/><path class="cls-4" transform="rotate(90 6.5 17)" d="M4.5 13.5h4v7h-4z"/><circle class="cls-3" cx="6.5" cy="5.5" r="4.35"/><circle class="cls-4" cx="6.5" cy="5.5" r="3.5"/><path class="cls-3" transform="rotate(45 16.5 25.5)" d="M12.66 21.66h7.68v7.68h-7.68z"/><path class="cls-4" transform="rotate(135 16.5 25.5)" d="M13.58 22.58h5.84v5.84h-5.84z"/></svg>