<?xml version="1.0" encoding="UTF-8"?>
<svg width="20px" height="20px" viewBox="0 0 20 20" version="1.1" xmlns="http://www.w3.org/2000/svg" xmlns:xlink="http://www.w3.org/1999/xlink">
    <!-- Generator: Sketch 59.1 (86144) - https://sketch.com -->
    <title>widget-layerlist</title>
    <desc>Created with Sketch.</desc>
    <g stroke="none" stroke-width="1" fill="none" fill-rule="evenodd">
        <g transform="translate(-240.000000, -1179.000000)" fill="#000000" fill-rule="nonzero">
            <path d="M259.324091,1194.04078 C259.562803,1193.93867 259.845791,1194.03492 259.956162,1194.25577 C260.066533,1194.47663 259.962493,1194.73844 259.72378,1194.84055 L259.72378,1194.84055 L250.00012,1199 L240.276461,1194.84055 C240.037748,1194.73844 239.933708,1194.47663 240.044079,1194.25577 C240.15445,1194.03492 240.437438,1193.93867 240.67615,1194.04078 L240.67615,1194.04078 L250.00012,1198.02926 Z M250.00012,1198.02926 L249.800276,1198.11474 L250.199965,1198.11474 L250.00012,1198.02926 Z M259.324091,1189.04078 C259.562803,1188.93867 259.845791,1189.03492 259.956162,1189.25577 C260.066533,1189.47663 259.962493,1189.73844 259.72378,1189.84055 L259.72378,1189.84055 L250.00012,1194 L240.276461,1189.84055 C240.037748,1189.73844 239.933708,1189.47663 240.044079,1189.25577 C240.15445,1189.03492 240.437438,1188.93867 240.67615,1189.04078 L240.67615,1189.04078 L250.000121,1193.02926 Z M250.225615,1179.05419 L259.74943,1183.94182 C260.095223,1184.11928 260.080135,1184.59747 259.72378,1184.75475 L250.199965,1188.95803 C250.073183,1189.01399 249.927058,1189.01399 249.800276,1188.95803 L240.276461,1184.75475 C239.920106,1184.59747 239.905018,1184.11928 240.250811,1183.94182 L249.774626,1179.05419 C249.915426,1178.98194 250.084815,1178.98194 250.225615,1179.05419 Z M250.000121,1179.97062 L241.541583,1184.31154 L250.000121,1188.04467 L258.458658,1184.31154 L250.000121,1179.97062 Z"></path>
        </g>
    </g>
</svg>