<svg xmlns="http://www.w3.org/2000/svg" width="135" height="16"><path fill="none" stroke="#FFF" stroke-miterlimit="10" stroke-width="1.2" d="M1.56 2.077h12v12h-12z"/><path fill="#FFF" d="M3.874 7.446l3.168 3.167-1.01 1.01-3.168-3.167z"/><path fill="#FFF" d="M12.487 5.173L6.13 11.53l-1.018-1.018 6.357-6.357z"/><path fill="none" stroke="#FFF" stroke-miterlimit="10" stroke-width="1.2" d="M16.602 2.077h12v12h-12z"/><path fill="#EEE" stroke="#FFF" stroke-miterlimit="10" stroke-width="1.2" d="M31.635 2.119h12v12h-12z"/><path fill="none" stroke="#FFF" stroke-miterlimit="10" stroke-width="1.2" d="M46.486 2.119h12v12h-12z"/><path fill="#FFF" d="M48.8 7.487l3.168 3.168-1.01 1.01-3.168-3.168z"/><path fill="#FFF" d="M57.412 5.213l-6.356 6.357-1.018-1.017 6.357-6.357z"/><path fill="none" stroke="#FFF" stroke-miterlimit="10" stroke-width="1.2" d="M61.504 2.119h12v12h-12z"/><path fill="#EEE" stroke="#FFF" stroke-miterlimit="10" stroke-width="1.2" d="M76.537 2.119h12v12h-12z"/><path fill="none" stroke="#E0E0E0" stroke-miterlimit="10" stroke-width="1.2" d="M91.458 2.119h12v12h-12z"/><path fill="#E0E0E0" d="M93.771 7.486l3.168 3.168-1.01 1.01-3.168-3.167z"/><path fill="#E0E0E0" d="M102.385 5.215l-6.357 6.357-1.018-1.018 6.358-6.357z"/><path fill="none" stroke="#E0E0E0" stroke-miterlimit="10" stroke-width="1.2" d="M106.5 2.119h12v12h-12z"/><path fill="#D0D0D0" stroke="E0E0E0" stroke-miterlimit="10" stroke-width="1.2" d="M121.533 2.119h12v12h-12z"/></svg>