<svg xmlns="http://www.w3.org/2000/svg" width="32" height="32"><path fill="#808284" d="M13 20H7a2 2 0 00-2 2v6a1 1 0 001 1h1v1a1 1 0 001 1h4a1 1 0 001-1v-1h1a1 1 0 001-1v-6a2 2 0 00-2-2z"/><path fill="#E6E7E8" d="M13 21H7c-.551 0-1 .448-1 1v6h2v2h4v-2h2v-6c0-.552-.449-1-1-1z"/><circle cx="10" cy="17" r="3" fill="#808284"/><circle cx="10" cy="17" r="2" fill="#E6E7E8"/><path fill="#939598" d="M7 23h1v5H7zm5 0h1v5h-1z"/><path fill="#808284" d="M24 20h-6a2 2 0 00-2 2v6a1 1 0 001 1h1v1a1 1 0 001 1h4a1 1 0 001-1v-1h1a1 1 0 001-1v-6a2 2 0 00-2-2z"/><path fill="#E6E7E8" d="M24 21h-6c-.551 0-1 .448-1 1v6h2v2h4v-2h2v-6c0-.552-.449-1-1-1z"/><circle cx="21" cy="17" r="3" fill="#808284"/><circle cx="21" cy="17" r="2" fill="#E6E7E8"/><path fill="#939598" d="M18 23h1v5h-1zm5 0h1v5h-1z"/><path fill="#808284" d="M14.788 13.46c-.581-.463-5.686-4.635-5.891-8.14-.06-1.004.274-1.904.963-2.6.93-.941 1.929-1.418 2.966-1.418 1.144 0 2.046.573 2.669 1.157.618-.579 1.515-1.143 2.656-1.143 1.033 0 2.031.469 2.969 1.394a3.477 3.477 0 011.056 2.788c-.24 3.561-5.412 7.541-6.001 7.983l-.701.526-.686-.547z"/><path fill="#E6E7E8" d="M15.318 12.796c-2-1.594-5.423-4.97-5.572-7.525-.047-.768.195-1.425.718-1.953.765-.773 1.559-1.166 2.362-1.166.729 0 1.431.312 2.088.928l.581.545.581-.545c.647-.605 1.345-.913 2.075-.913.801 0 1.6.387 2.372 1.149a2.62 2.62 0 01.805 2.125c-.175 2.583-3.643 5.843-5.664 7.361l-.174.131-.172-.137z"/></svg>