<svg xmlns="http://www.w3.org/2000/svg" width="32" height="32"><path fill="#808284" d="M9 6H4c-1.105 0-2 .894-2 2v4a1 1 0 001 1h1v1a1 1 0 001 1h3a1 1 0 001-1v-1h1a1 1 0 001-1V8a2 2 0 00-2-2z"/><path fill="#E6E7E8" d="M9 7H4c-.551 0-1 .448-1 1v4h2v2h3v-2h2V8c0-.552-.449-1-1-1z"/><path fill="#939598" d="M4 9h1v3H4zm4 0h1v3H8z"/><circle cx="6.5" cy="3.5" r="2.35" fill="#808284"/><circle cx="6.5" cy="3.5" r="1.75" fill="#E6E7E8"/><path fill="#FFF" d="M11 12V8c0-.711-.373-1.33-.931-1.686A3.988 3.988 0 0010 7c0 .749.22 1.442.579 2.043A2.994 2.994 0 008 12v3a1 1 0 001-1v-1h1a1 1 0 001-1z"/><path fill="#808284" d="M17 10h-6c-1.105 0-2 .894-2 2v6a1 1 0 001 1h1v1a1 1 0 001 1h4a1 1 0 001-1v-1h1a1 1 0 001-1v-6a2 2 0 00-2-2z"/><path fill="#E6E7E8" d="M17 11h-6c-.551 0-1 .448-1 1v6h2v2h4v-2h2v-6c0-.552-.449-1-1-1z"/><circle cx="14" cy="7" r="3" fill="#808284"/><circle cx="14" cy="7" r="2" fill="#E6E7E8"/><path fill="#939598" d="M11 13h1v5h-1zm5 0h1v5h-1z"/><path fill="#FFF" d="M16 19v2a1 1 0 001-1v-1h1a1 1 0 001-1v-2.858c-1.721.447-3 2-3 3.858z"/><circle cx="24" cy="11" r="4" fill="#808284"/><circle cx="24" cy="11" r="3" fill="#E6E7E8"/><path fill="#808284" d="M28 16h-8a3 3 0 00-3 3v8a2 2 0 002 2h1v2a1 1 0 001 1h6a1 1 0 001-1v-2h1a2 2 0 002-2v-8a3 3 0 00-3-3z"/><path fill="#E6E7E8" d="M28 17h-8a2 2 0 00-2 2v8a1 1 0 001 1h2v3h6v-3h2a1 1 0 001-1v-8a2 2 0 00-2-2z"/><path fill="#939598" d="M20 20h1v8h-1zm7 0h1v8h-1z"/></svg>