<svg xmlns="http://www.w3.org/2000/svg" width="32" height="32"><circle cx="16.064" cy="5" r="5" fill="#808284"/><path fill="#E6E7E8" d="M20.064 5c0 2.207-1.792 4-3.997 4a4.003 4.003 0 01-4.003-4 4 4 0 018 0z"/><path fill="#808284" d="M22 11H10a3 3 0 00-3 3v12a2 2 0 002 2h1v3a1 1 0 001 1h10a1 1 0 001-1v-3h1a2 2 0 002-2V14a3 3 0 00-3-3z"/><path fill="#E6E7E8" d="M22 12H10a2 2 0 00-2 2v12a1 1 0 001 1h2v4h10v-4h2a1 1 0 001-1V14a2 2 0 00-2-2z"/><path fill="#939598" d="M10 15h1v12h-1zm11 0h1v12h-1z"/></svg>