<svg xmlns="http://www.w3.org/2000/svg" width="32" height="32"><path fill="#808284" d="M7 3h5v11H7z"/><path fill="#CCC" d="M8 4h3v10H8z"/><path fill="#808284" d="M2 16h28v15H2z"/><path fill="#FFF" d="M29 16L16.5 4 3 16v15h26z"/><path fill="#808284" d="M16.5 5L4.207 16H1L16.5 1.5 31 16h-3.207zM0 31h32v1H0z"/><g fill="#939598"><path d="M9 22H6a2 2 0 00-2 2v4a1 1 0 001 1 1 1 0 001 1h3a1 1 0 001-1 1 1 0 001-1v-4a2 2 0 00-2-2zm.596-2.5A2.1 2.1 0 017.5 21.6a2.1 2.1 0 010-4.2 2.1 2.1 0 012.096 2.1zM26 22h-3a2 2 0 00-2 2v4a1 1 0 001 1 1 1 0 001 1h3a1 1 0 001-1 1 1 0 001-1v-4a2 2 0 00-2-2zm.596-2.5a2.1 2.1 0 01-2.096 2.1 2.1 2.1 0 010-4.2 2.1 2.1 0 012.096 2.1zM18 20h-4a2 2 0 00-2 2v6a1 1 0 001 1v1a1 1 0 001 1h4a1 1 0 001-1v-1a1 1 0 001-1v-6a2 2 0 00-2-2z"/><circle cx="16" cy="17" r="2.5"/></g></svg>