<svg xmlns="http://www.w3.org/2000/svg" width="32" height="32"><path fill="#808284" d="M30.876 20.869a1.866 1.866 0 01-1.344 2.271L6.935 28.937a1.865 1.865 0 01-2.27-1.343L.955 13.131a1.864 1.864 0 011.343-2.271l22.598-5.797a1.866 1.866 0 012.271 1.343l3.709 14.463z"/><path fill="#FFF" d="M6.703 28.032a.934.934 0 01-1.136-.671l-3.71-14.462a.936.936 0 01.673-1.136l22.597-5.795a.934.934 0 011.136.671l3.71 14.462a.936.936 0 01-.673 1.137L6.703 28.032z"/><path fill="#E6E7E8" d="M28.227 20.992L7.046 26.427 3.603 13.01l21.182-5.435z"/><path fill="#808284" d="M2.322 14.705l24.403-6.26 1.39 5.423-24.402 6.26zm20.981 3.215l2.78-.713.712 2.779-2.779.713z"/></svg>