<?xml version="1.0" encoding="UTF-8"?>
<svg width="20px" height="20px" viewBox="0 0 20 20" version="1.1" xmlns="http://www.w3.org/2000/svg" xmlns:xlink="http://www.w3.org/1999/xlink">
    <!-- Generator: Sketch 59.1 (86144) - https://sketch.com -->
    <title>widget-controller</title>
    <desc>Created with Sketch.</desc>
    <g stroke="none" stroke-width="1" fill="none" fill-rule="evenodd">
        <g transform="translate(-400.000000, -1139.000000)" fill="#000000" fill-rule="nonzero">
            <path d="M418,1139 C419.104569,1139 420,1139.89543 420,1141 L420,1157 C420,1158.10457 419.104569,1159 418,1159 L402,1159 C400.895431,1159 400,1158.10457 400,1157 L400,1141 C400,1139.89543 400.895431,1139 402,1139 L418,1139 Z M418,1140 L402,1140 C401.447715,1140 401,1140.44772 401,1141 L401,1157 C401,1157.55228 401.447715,1158 402,1158 L418,1158 C418.552285,1158 419,1157.55228 419,1157 L419,1141 C419,1140.44772 418.552285,1140 418,1140 Z M408,1150 C408.552285,1150 409,1150.44772 409,1151 L409,1155 C409,1155.55228 408.552285,1156 408,1156 L404,1156 C403.447715,1156 403,1155.55228 403,1155 L403,1151 C403,1150.44772 403.447715,1150 404,1150 L408,1150 Z M414,1150 C415.656854,1150 417,1151.34315 417,1153 C417,1154.65685 415.656854,1156 414,1156 C412.343146,1156 411,1154.65685 411,1153 C411,1151.34315 412.343146,1150 414,1150 Z M408,1151 L404,1151 L404,1155 L408,1155 L408,1151 Z M414,1151 C412.895431,1151 412,1151.89543 412,1153 C412,1154.10457 412.895431,1155 414,1155 C415.104569,1155 416,1154.10457 416,1153 C416,1151.89543 415.104569,1151 414,1151 Z M408,1142 C408.552285,1142 409,1142.44772 409,1143 L409,1147 C409,1147.55228 408.552285,1148 408,1148 L404,1148 C403.447715,1148 403,1147.55228 403,1147 L403,1143 C403,1142.44772 403.447715,1142 404,1142 L408,1142 Z M416,1142 C416.552285,1142 417,1142.44772 417,1143 L417,1147 C417,1147.55228 416.552285,1148 416,1148 L412,1148 C411.447715,1148 411,1147.55228 411,1147 L411,1143 C411,1142.44772 411.447715,1142 412,1142 L416,1142 Z M408,1143 L404,1143 L404,1147 L408,1147 L408,1143 Z M416,1143 L412,1143 L412,1147 L416,1147 L416,1143 Z"></path>
        </g>
    </g>
</svg>