<svg id="hexagons" xmlns="http://www.w3.org/2000/svg" xmlns:xlink="http://www.w3.org/1999/xlink" viewBox="0 0 48 48"><defs><style>.cls-1{fill:url(#linear-gradient);}.cls-2{fill:url(#linear-gradient-2);}.cls-3{fill:url(#linear-gradient-3);}.Graphic-Style-3{fill:url(#radial-gradient);}.cls-4{mask:url(#mask);}.Graphic-Style{fill:url(#linear-gradient-4);}.cls-5{mask:url(#mask-2);}.Graphic-Style-2{fill:url(#linear-gradient-5);}</style><linearGradient id="linear-gradient" x1="28.89389" y1="2.83639" x2="6.74165" y2="41.20519" gradientUnits="userSpaceOnUse"><stop offset="0" stop-color="#e63a00"/><stop offset="0.03093" stop-color="#e63a00" stop-opacity="0.88336"/><stop offset="0.09894" stop-color="#e63a00" stop-opacity="0.6517"/><stop offset="0.1678" stop-color="#e63a00" stop-opacity="0.45209"/><stop offset="0.23618" stop-color="#e63a00" stop-opacity="0.28904"/><stop offset="0.30392" stop-color="#e63a00" stop-opacity="0.16252"/><stop offset="0.3709" stop-color="#e63a00" stop-opacity="0.07227"/><stop offset="0.43681" stop-color="#e63a00" stop-opacity="0.01813"/><stop offset="0.50036" stop-color="#e63a00" stop-opacity="0"/></linearGradient><linearGradient id="linear-gradient-2" x1="2.99998" y1="24.00444" x2="24" y2="24.00444" gradientUnits="userSpaceOnUse"><stop offset="0.72165" stop-color="#fff"/><stop offset="0.99962" stop-color="#333"/></linearGradient><linearGradient id="linear-gradient-3" x1="12.27027" y1="24.00295" x2="35.72973" y2="24.00295" gradientUnits="userSpaceOnUse"><stop offset="0" stop-color="gray"/><stop offset="0.0502" stop-color="#989898"/><stop offset="0.14189" stop-color="#bdbdbd"/><stop offset="0.23367" stop-color="#dadada"/><stop offset="0.32445" stop-color="#eee"/><stop offset="0.41379" stop-color="#fbfbfb"/><stop offset="0.5" stop-color="#fff"/><stop offset="0.56365" stop-color="#fbfbfb"/><stop offset="0.62966" stop-color="#eee"/><stop offset="0.69674" stop-color="#dadada"/><stop offset="0.76458" stop-color="#bdbdbd"/><stop offset="0.83306" stop-color="#979797"/><stop offset="0.902" stop-color="#696969"/><stop offset="0.97009" stop-color="#343434"/><stop offset="1" stop-color="#1a1a1a"/></linearGradient><radialGradient id="radial-gradient" cx="-3.98639" cy="32.94929" r="37.73993" gradientTransform="translate(39.76118 0.00596) scale(1.0825 1.07257)" gradientUnits="userSpaceOnUse"><stop offset="0" stop-color="#858dff"/><stop offset="0.51514" stop-color="#5864fa"/></radialGradient><mask id="mask" x="2.99998" y="0.0109" width="21.00002" height="47.98709" maskUnits="userSpaceOnUse"><path class="cls-1" d="M23.31725.15247,6.17319,7.58777A5.24717,5.24717,0,0,0,3,12.396v26.6489l20.31727,8.81149A1.71575,1.71575,0,0,0,24,47.998V.0109A1.71575,1.71575,0,0,0,23.31725.15247Z"/><path class="cls-2" d="M23.31725.15247,6.17319,7.58777A5.24717,5.24717,0,0,0,3,12.396v26.6489l20.31727,8.81149A1.71575,1.71575,0,0,0,24,47.998V.0109A1.71575,1.71575,0,0,0,23.31725.15247Z"/></mask><linearGradient id="linear-gradient-4" x1="28.90974" y1="2.84554" x2="6.75751" y2="41.21434" gradientUnits="userSpaceOnUse"><stop offset="0.00475" stop-color="#8087ff"/><stop offset="0.05952" stop-color="#8087ff" stop-opacity="0.79702"/><stop offset="0.12357" stop-color="#8087ff" stop-opacity="0.58812"/><stop offset="0.18847" stop-color="#8087ff" stop-opacity="0.40794"/><stop offset="0.25289" stop-color="#8087ff" stop-opacity="0.26085"/><stop offset="0.31675" stop-color="#8087ff" stop-opacity="0.14665"/><stop offset="0.37988" stop-color="#8087ff" stop-opacity="0.0652"/><stop offset="0.44198" stop-color="#8087ff" stop-opacity="0.01636"/><stop offset="0.50186" stop-color="#8087ff" stop-opacity="0"/></linearGradient><mask id="mask-2" x="12.27027" y="0.00939" width="23.45946" height="47.9886" maskUnits="userSpaceOnUse"><path class="cls-3" d="M25.27928,47.42428l9.13313-10.30252A5.22084,5.22084,0,0,0,35.72973,33.658V4.94349l-11.047-4.791a1.71714,1.71714,0,0,0-1.3655,0l-11.047,4.791V33.658a5.22084,5.22084,0,0,0,1.31732,3.46379l9.13313,10.30252A1.71917,1.71917,0,0,0,25.27928,47.42428Z"/></mask><linearGradient id="linear-gradient-5" x1="24" y1="0.00939" x2="24" y2="47.99799" gradientUnits="userSpaceOnUse"><stop offset="0.00038" stop-color="#4551e0" stop-opacity="0"/><stop offset="0.0727" stop-color="#4551e0" stop-opacity="0.01861"/><stop offset="0.14767" stop-color="#4551e0" stop-opacity="0.07416"/><stop offset="0.22388" stop-color="#4551e0" stop-opacity="0.16679"/><stop offset="0.30094" stop-color="#4551e0" stop-opacity="0.2966"/><stop offset="0.37866" stop-color="#4551e0" stop-opacity="0.46375"/><stop offset="0.45584" stop-color="#4551e0" stop-opacity="0.66526"/><stop offset="0.50118" stop-color="#4551e0" stop-opacity="0.8"/><stop offset="0.60399" stop-color="#4551e0" stop-opacity="0.78139"/><stop offset="0.71055" stop-color="#4551e0" stop-opacity="0.72587"/><stop offset="0.81882" stop-color="#4551e0" stop-opacity="0.63336"/><stop offset="0.92754" stop-color="#4551e0" stop-opacity="0.50472"/><stop offset="0.99962" stop-color="#4551e0" stop-opacity="0.4"/></linearGradient></defs><title>Blue-Purple_48</title><path class="Graphic-Style-3" d="M3,12.54819V39.04494l20.32146,8.8133a1.705,1.705,0,0,0,1.35293.00182l17.03732-7.389A5.46125,5.46125,0,0,0,45,35.46071V8.964L24.67856.15065A1.71857,1.71857,0,0,0,23.32.15126L6.28739,7.53823A5.4599,5.4599,0,0,0,3,12.54819Z"/><g class="cls-4"><path class="Graphic-Style" d="M24,.0109a1.70121,1.70121,0,0,0-.68.14036L6.28739,7.53823A5.436,5.436,0,0,0,3,12.5186V39.04494l20.32146,8.8133A1.69394,1.69394,0,0,0,24,47.998Z"/></g><g class="cls-5"><path class="Graphic-Style-2" d="M22.72072,47.42427a1.71313,1.71313,0,0,0,2.55856,0l9.13313-10.30251A5.22084,5.22084,0,0,0,35.72973,33.658V4.94349L24.67856.15065A1.70039,1.70039,0,0,0,23.32.15126L12.27027,4.94349V33.658a5.22084,5.22084,0,0,0,1.31732,3.46379Z"/></g></svg>