<?xml version="1.0" encoding="UTF-8"?>
<svg width="16px" height="16px" viewBox="0 0 16 16" version="1.1" xmlns="http://www.w3.org/2000/svg" xmlns:xlink="http://www.w3.org/1999/xlink">
    <g stroke="none" stroke-width="1" fill="none" fill-rule="evenodd">
        <g transform="translate(-249.000000, -397.000000)" fill="#000000">
            <g transform="translate(249.000000, 397.000000)">
                <path d="M1.5,11 C2.32842712,11 3,11.6715729 3,12.5 C3,13.3284271 2.32842712,14 1.5,14 C0.671572875,14 1.01453063e-16,13.3284271 0,12.5 C-1.01453063e-16,11.6715729 0.671572875,11 1.5,11 Z M15.5,12 C15.7761424,12 16,12.2238576 16,12.5 C16,12.7761424 15.7761424,13 15.5,13 L5.5,13 C5.22385763,13 5,12.7761424 5,12.5 C5,12.2238576 5.22385763,12 5.5,12 L15.5,12 Z M3,6 L3,9 L0,9 L0,6 L3,6 Z M15.5,7 C15.7761424,7 16,7.22385763 16,7.5 C16,7.77614237 15.7761424,8 15.5,8 L5.5,8 C5.22385763,8 5,7.77614237 5,7.5 C5,7.22385763 5.22385763,7 5.5,7 L15.5,7 Z M1.5,1 L3,4 L0,4 L1.5,1 Z M15.5,2 C15.7761424,2 16,2.22385763 16,2.5 C16,2.77614237 15.7761424,3 15.5,3 L5.5,3 C5.22385763,3 5,2.77614237 5,2.5 C5,2.22385763 5.22385763,2 5.5,2 L15.5,2 Z"></path>
            </g>
        </g>
    </g>
</svg>