<?xml version="1.0" encoding="UTF-8"?>
<svg width="20px" height="20px" viewBox="0 0 20 20" version="1.1" xmlns="http://www.w3.org/2000/svg" xmlns:xlink="http://www.w3.org/1999/xlink">
    <!-- Generator: Sketch 59.1 (86144) - https://sketch.com -->
    <title>widget-sidebar</title>
    <desc>Created with Sketch.</desc>
    <g stroke="none" stroke-width="1" fill="none" fill-rule="evenodd">
        <g transform="translate(-40.000000, -1219.000000)" fill="#000000" fill-rule="nonzero">
            <path d="M58,1219 C59.1045695,1219 60,1219.89543 60,1221 L60,1237 C60,1238.10457 59.1045695,1239 58,1239 L42,1239 C40.8954305,1239 40,1238.10457 40,1237 L40,1221 C40,1219.89543 40.8954305,1219 42,1219 L58,1219 Z M41,1221 L41,1237 C41,1237.55228 41.4477153,1238 42,1238 L46,1238 L46,1221 L41,1221 Z M47,1238 L58,1238 C58.5522847,1238 59,1237.55228 59,1237 L59,1221 L47,1221 L47,1238 Z"></path>
        </g>
    </g>
</svg>