<?xml version="1.0" encoding="UTF-8"?>
<svg width="400px" height="220px" viewBox="0 0 400 220" version="1.1" xmlns="http://www.w3.org/2000/svg" xmlns:xlink="http://www.w3.org/1999/xlink">
    <title>Image-S1</title>
    <defs>
        <path d="M4.6316098,9.05337752 C4.2105366,4.85435257 5,2.75484009 7,2.75484009 C9,2.75484009 9.79592804,3.60481569 9.38778412,5.3047669 C9.79592804,2.30158895 10.6666667,0.799999979 12,0.799999979 C13.3333333,0.799999979 14.2017527,1.86666665 14.605258,4 C14.893695,2.30883402 15.7890216,1.46325104 17.291238,1.46325104 C18.7934543,1.46325104 19.7022166,3.0244898 20.0175248,6.14696733 C20.8959542,5.33344828 21.8745511,4.92668875 22.9533154,4.92668875 C24.0320797,4.92668875 24.8186131,5.637011 25.3129158,7.05765548 L25.3129158,18.5601183 C22.5461112,24.0617996 18.9768919,26.6165239 14.605258,26.2242911 C8.047807,25.6359419 1.22608278,19.7675865 1.22608278,18.1916246 C1.22608278,16.6156626 0.790838361,13.2855713 1.22608278,12.405653 C1.51624572,11.8190408 2.6514214,10.7016157 4.6316098,9.05337752 Z"></path>
        <filter x="-28.8%" y="-19.6%" width="157.7%" height="155.0%" filterUnits="objectBoundingBox">
            <feOffset dx="0" dy="2" in="SourceAlpha" result="shadowOffsetOuter1"></feOffset>
            <feGaussianBlur stdDeviation="2" in="shadowOffsetOuter1" result="shadowBlurOuter1"></feGaussianBlur>
            <feColorMatrix values="0 0 0 0 0   0 0 0 0 0   0 0 0 0 0  0 0 0 0.2 0" type="matrix" in="shadowBlurOuter1"></feColorMatrix>
        </filter>
        <path d="M74.1856176,38.8713907 C73.5190196,39.1823138 72.719102,38.9102561 72.4124669,38.2624997 L69.5060996,32.121769 L66.1597776,34.7387049 C65.9331342,34.9200767 65.6531631,35.0237177 65.333196,35.0237177 C64.5999382,35.0237177 64,34.4407369 64,33.7282049 L64,14.2955128 C64,13.5829808 64.5999382,13 65.333196,13 C65.6531631,13 65.9597982,13.1165962 66.1864415,13.297968 L66.1997734,13.2850128 L81.5181958,25.7737563 C82.0914701,26.2401409 82.1581298,27.056314 81.6915112,27.6004293 C81.4915318,27.8336216 81.2115607,27.9890832 80.9315895,28.0409037 L76.7186901,28.8441216 L79.6517213,34.9718972 C79.9983523,35.6196536 79.6783852,36.3840061 79.0117872,36.6819741 L74.1856176,38.8713907 Z"></path>
        <filter x="-41.7%" y="-21.2%" width="183.3%" height="157.7%" filterUnits="objectBoundingBox">
            <feMorphology radius="0.5" operator="dilate" in="SourceAlpha" result="shadowSpreadOuter1"></feMorphology>
            <feOffset dx="0" dy="2" in="shadowSpreadOuter1" result="shadowOffsetOuter1"></feOffset>
            <feGaussianBlur stdDeviation="2" in="shadowOffsetOuter1" result="shadowBlurOuter1"></feGaussianBlur>
            <feComposite in="shadowBlurOuter1" in2="SourceAlpha" operator="out" result="shadowBlurOuter1"></feComposite>
            <feColorMatrix values="0 0 0 0 0   0 0 0 0 0   0 0 0 0 0  0 0 0 0.2 0" type="matrix" in="shadowBlurOuter1"></feColorMatrix>
        </filter>
    </defs>
    <g stroke="none" stroke-width="1" fill="none" fill-rule="evenodd">
        <g transform="translate(-552.000000, -273.000000)">
            <g transform="translate(522.000000, 243.000000)">
                <g transform="translate(30.000000, 30.000000)">
                    <rect fill="#181818" x="0" y="0" width="400" height="220"></rect>
                    <rect fill="#FFFFFF" x="110" y="30" width="290" height="190"></rect>
                    <g transform="translate(20.000000, 20.000000)">
                        <rect fill="#282828" x="0" y="0" width="80" height="200"></rect>
                        <rect fill="#6A6A6A" x="79" y="0" width="1" height="200"></rect>
                        <g transform="translate(6.000000, 26.000000)">
                            <rect fill="#8B8B8B" x="0" y="0" width="31" height="24"></rect>
                            <rect fill="#444444" x="37" y="0" width="31" height="24"></rect>
                            <rect fill="#444444" x="0" y="30" width="31" height="24"></rect>
                            <rect fill="#444444" x="37" y="30" width="31" height="24"></rect>
                            <rect fill="#444444" x="0" y="60" width="31" height="24"></rect>
                            <rect fill="#444444" x="37" y="60" width="31" height="24"></rect>
                            <rect fill="#444444" x="0" y="90" width="31" height="24"></rect>
                            <rect fill="#444444" x="37" y="90" width="31" height="24"></rect>
                            <rect fill="#444444" x="0" y="120" width="31" height="24"></rect>
                        </g>
                        <rect fill="#444444" x="6" y="10" width="26" height="4" rx="2"></rect>
                    </g>
                    <g transform="translate(0.000000, 20.000000)">
                        <rect fill="#444444" x="0" y="0" width="20" height="200"></rect>
                        <rect fill="#5E5E5E" x="0" y="0" width="20" height="20"></rect>
                        <rect fill="#00AABB" x="0" y="0" width="2" height="20"></rect>
                        <g transform="translate(5.000000, 5.000000)">
                            <circle fill="#E3E3E3" cx="5" cy="5" r="5"></circle>
                            <circle fill="#6A6A6A" cx="5" cy="25" r="5"></circle>
                            <circle fill="#6A6A6A" cx="5" cy="45" r="5"></circle>
                            <circle fill="#6A6A6A" cx="5" cy="65" r="5"></circle>
                        </g>
                    </g>
                    <g>
                        <rect fill="#444444" x="0" y="0" width="400" height="20"></rect>
                        <rect fill="#6A6A6A" x="0" y="19" width="400" height="1"></rect>
                        <path d="M12,6 C13.1045695,6 14,6.8954305 14,8 L14,12 C14,13.1045695 13.1045695,14 12,14 L8,14 C6.8954305,14 6,13.1045695 6,12 L6,8 C6,6.8954305 6.8954305,6 8,6 L12,6 Z M79,9 C79.5522847,9 80,9.44771525 80,10 C80,10.5522847 79.5522847,11 79,11 L21,11 C20.4477153,11 20,10.5522847 20,10 C20,9.44771525 20.4477153,9 21,9 L79,9 Z" fill="#6A6A6A"></path>
                        <path d="M250,6 C251.104569,6 252,6.8954305 252,8 L252,12 C252,13.1045695 251.104569,14 250,14 L246,14 C244.895431,14 244,13.1045695 244,12 L244,8 C244,6.8954305 244.895431,6 246,6 L250,6 Z M268,6 C269.104569,6 270,6.8954305 270,8 L270,12 C270,13.1045695 269.104569,14 268,14 L264,14 C262.895431,14 262,13.1045695 262,12 L262,8 C262,6.8954305 262.895431,6 264,6 L268,6 Z M286,6 C287.104569,6 288,6.8954305 288,8 L288,12 C288,13.1045695 287.104569,14 286,14 L282,14 C280.895431,14 280,13.1045695 280,12 L280,8 C280,6.8954305 280.895431,6 282,6 L286,6 Z M304,6 C305.104569,6 306,6.8954305 306,8 L306,12 C306,13.1045695 305.104569,14 304,14 L300,14 C298.895431,14 298,13.1045695 298,12 L298,8 C298,6.8954305 298.895431,6 300,6 L304,6 Z M322,6 C323.104569,6 324,6.8954305 324,8 L324,12 C324,13.1045695 323.104569,14 322,14 L318,14 C316.895431,14 316,13.1045695 316,12 L316,8 C316,6.8954305 316.895431,6 318,6 L322,6 Z M340,6 C341.104569,6 342,6.8954305 342,8 L342,12 C342,13.1045695 341.104569,14 340,14 L336,14 C334.895431,14 334,13.1045695 334,12 L334,8 C334,6.8954305 334.895431,6 336,6 L340,6 Z M370,6 C371.104569,6 372,6.8954305 372,8 L372,12 C372,13.1045695 371.104569,14 370,14 L354,14 C352.895431,14 352,13.1045695 352,12 L352,8 C352,6.8954305 352.895431,6 354,6 L370,6 Z M386,6 C388.209139,6 390,7.790861 390,10 C390,12.209139 388.209139,14 386,14 C383.790861,14 382,12.209139 382,10 C382,7.790861 383.790861,6 386,6 Z" fill="#6A6A6A"></path>
                    </g>
                    <g transform="translate(38.000000, 43.000000)">
                        <rect fill-opacity="0.2" fill="#00D8ED" x="88" y="0" width="100" height="100"></rect>
                        <rect fill="#8B8B8B" x="122" y="38" width="31" height="24"></rect>
                        <path d="M4.11642268,16.5137431 C71.7116432,32.697816 113.638237,42.8429397 129.907625,46.9520546 L130.392784,47.0747257 L136.272,48.665 L131.084421,43.5695222 L131.78521,42.8561543 L138.333057,49.2885492 L138.967162,49.9114735 L138.105528,50.1299021 L129.20819,52.3854235 L128.962458,51.4160857 L136.008,49.629 L130.13956,48.0420996 C114.40216,44.0584494 72.9956694,34.0356987 5.92391076,17.974799 L3.88357732,17.4862569 L4.11642268,16.5137431 Z" fill="#5F5FFF" fill-rule="nonzero"></path>
                        <circle stroke="#5F5FFF" fill="#D8D8D8" cx="4" cy="17" r="3.5"></circle>
                        <g transform="translate(148.000000, 62.500000) rotate(-30.000000) translate(-148.000000, -62.500000) translate(135.000000, 49.000000)">
                            <g>
                                <use fill="black" fill-opacity="1" filter="url(#filter-2)" xlink:href="#path-1"></use>
                                <use fill="#FFFFFF" fill-rule="evenodd" xlink:href="#path-1"></use>
                            </g>
                            <path d="M12,0 C13.2239697,0 14.256855,0.778492103 14.7274153,1.92298679 C15.2860665,1.24656388 16.1577329,0.799999979 17.291238,0.799999979 C19.382476,0.799999979 20.582476,2.29381047 20.582476,3.97381048 L20.5817103,4.7975228 C21.1532809,4.29932762 21.9101132,4 22.75,4 C24.57,4 26,5.40555557 26,7.19444443 L26,16.7777778 C26,22.4 20.93,27 14.82,27 C11.18,27 7.32657112,25.4037123 5.29422353,23.9803446 C3.26187594,22.5569768 2.61461915,21.9589801 1.52361935,20.7260646 C0.432619541,19.4931492 0,17.8 0,16.3944444 L0,13.9666667 C0,12.5611111 0.650000013,11.1555556 1.81999998,10.1333333 L3.76999998,8.34444443 C3.83905375,8.27657107 3.91727755,8.22672429 3.99980044,8.19490409 L4,5.05555558 C4,3.34444446 5.32000002,2 7,2 C7.79322033,2 8.50618576,2.29971742 9.03784893,2.79623366 C9.26229365,1.19317242 10.484712,0 12,0 Z M12,1.33333332 C11.04,1.33333332 10.2,2.26666668 10.2,3.33333332 L10.2,7.33333332 C10.2,7.64907611 10.0504597,7.88174099 9.81039952,7.96574979 C9.70777898,8.05865654 9.56676471,8.11111112 9.40000002,8.11111112 C9.04000005,8.11111112 8.80000001,7.86666667 8.80000001,7.5 L8.80000001,5.05555558 C8.80000001,4.07777779 7.96000002,3.22222225 7,3.22222225 C6.03999998,3.22222225 5.19999999,4.07777779 5.19999999,5.05555558 L5.19999999,12.3888889 C5.19999999,12.7555556 4.95999998,13 4.59999998,13 C4.23999998,13 4,12.7555555 4,12.3888889 L4,9.823 L2.59999998,11.0277778 C1.68999999,11.7944444 1.29999999,12.8166667 1.29999999,13.9666667 L1.29999999,16.3944444 C1.29999999,17.5444444 1.54433363,18.8038989 2.38848291,19.8131791 C3.2326322,20.8224592 3.57022165,21.3126109 5.84641823,22.8906772 C8.12261482,24.4687436 11.44,25.7222222 14.69,25.7222222 C20.15,25.7222222 24.57,21.7611111 24.57,16.7777778 L24.57,7.19444443 C24.57,6.1722222 23.66,5.27777777 22.62,5.27777777 C21.58,5.27777777 20.8,6.17222223 20.8,7.19444443 L20.8,8.47222223 C20.8,8.85555557 20.54,9.11111114 20.15,9.1111111 C20.0236932,9.11111109 19.9110218,9.08430646 19.8164017,9.03503773 C19.5506581,8.97200811 19.3824759,8.75473834 19.382476,8.45337751 L19.382476,3.97381048 C19.382476,3.01381047 18.7662253,2 17.291238,2 C15.8162506,2 15.2,3.04000001 15.2,4.00000002 L15.2,7.39999999 C15.2,7.75999999 14.96,8 14.6,8 L14.4982477,7.99304073 C14.4666254,7.99764332 14.433843,8 14.4,8 C14.04,8 13.8,7.73333332 13.8,7.33333332 L13.8,3.33333332 C13.8,2.26666664 12.96,1.33333332 12,1.33333332 Z" fill="#5F5FFF" fill-rule="nonzero"></path>
                        </g>
                    </g>
                    <g transform="translate(259.000000, 40.000000)">
                        <g transform="translate(0.000000, 30.000000)">
                            <path d="M60,0 L65,6 L120,6 L120,148 L0,148 L0,6 L55,6 L60,0 Z" fill="#444444"></path>
                            <rect stroke="#00D8ED" stroke-width="2" fill="#181818" x="10" y="16" width="45" height="34"></rect>
                            <rect fill="#181818" x="65" y="16" width="45" height="34"></rect>
                            <rect fill="#181818" x="10" y="60" width="45" height="34"></rect>
                            <rect fill="#181818" x="65" y="60" width="45" height="34"></rect>
                            <rect fill="#181818" x="10" y="104" width="45" height="34"></rect>
                        </g>
                        <g transform="translate(47.000000, 0.000000)">
                            <circle fill="#444444" cx="13" cy="13" r="13"></circle>
                            <path d="M10,12 C10.5522847,12 11,12.4477153 11,13 L11,18 C11,18.5522847 10.5522847,19 10,19 L8,19 C7.44771525,19 7,18.5522847 7,18 L7,13 C7,12.4477153 7.44771525,12 8,12 L10,12 Z M18,12 C18.5522847,12 19,12.4477153 19,13 L19,18 C19,18.5522847 18.5522847,19 18,19 L13,19 C12.4477153,19 12,18.5522847 12,18 L12,13 C12,12.4477153 12.4477153,12 13,12 L18,12 Z M10,13 L8,13 L8,18 L10,18 L10,13 Z M18,13 L13,13 L13,18 L18,18 L18,13 Z M18,7 C18.5522847,7 19,7.44771525 19,8 L19,10 C19,10.5522847 18.5522847,11 18,11 L8,11 C7.44771525,11 7,10.5522847 7,10 L7,8 C7,7.44771525 7.44771525,7 8,7 L18,7 Z M18,8 L8,8 L8,10 L18,10 L18,8 Z" fill="#FFFFFF" fill-rule="nonzero"></path>
                        </g>
                        <g fill-rule="nonzero">
                            <use fill="black" fill-opacity="1" filter="url(#filter-4)" xlink:href="#path-3"></use>
                            <use stroke="#5F5FFF" stroke-width="1" fill="#FFFFFF" xlink:href="#path-3"></use>
                        </g>
                    </g>
                </g>
            </g>
        </g>
    </g>
</svg>