<svg xmlns="http://www.w3.org/2000/svg" xmlns:xlink="http://www.w3.org/1999/xlink" width="16px" height="16px" viewBox="0 0 16 16" version="1.1">
    <g stroke="none" stroke-width="1" fill="none" fill-rule="evenodd">
        <g transform="translate(-204.000000, -183.000000)" fill="#363636" fill-rule="nonzero">
            <g transform="translate(188.000000, 131.000000)">
                <g transform="translate(16.000000, 52.000000)">
                    <path d="M7.68198052,6.31801948 C9.3196639,7.95570287 9.43118991,10.5416189 8.01655855,12.3084513 L10.863961,15.1568542 L10.1568542,15.863961 L7.30924012,13.0159268 C5.54238864,14.4312231 2.95594661,14.3199076 1.31801948,12.6819805 C-0.439339828,10.9246212 -0.439339828,8.0753788 1.31801948,6.31801948 C3.0753788,4.56066017 5.9246212,4.56066017 7.68198052,6.31801948 Z M2.02512627,7.02512627 C0.658291245,8.39196129 0.658291245,10.6080387 2.02512627,11.9748737 C3.39196129,13.3417088 5.60803871,13.3417088 6.97487373,11.9748737 C8.34170876,10.6080387 8.34170876,8.39196129 6.97487373,7.02512627 C5.60803871,5.65829124 3.39196129,5.65829124 2.02512627,7.02512627 Z M16,0 L16,11 L9.5,11 L9.5,10 L12.599,10 L10,5.15339336 L10,1 L6,1 L6,3.5 L5,3.5 L5,0 L16,0 Z M15,5.954 L12.637,7.83 L13.801,10 L15,10 L15,5.954 Z M15,1 L11.019,1 L11.0193501,4.81322619 L12.074,6.78 L15,4.457 L15,1 Z"/>
                </g>
            </g>
        </g>
    </g>
</svg>