<?xml version="1.0" encoding="UTF-8"?>
<svg width="162px" height="120px" viewBox="0 0 162 120" version="1.1" xmlns="http://www.w3.org/2000/svg" xmlns:xlink="http://www.w3.org/1999/xlink">
    <!-- Generator: Sketch 55.2 (78181) - https://sketchapp.com -->
    <title>widget loading</title>
    <desc>Created with Sketch.</desc>
    <g stroke="none" stroke-width="1" fill="none" fill-rule="evenodd">
        <g transform="translate(-392.000000, -617.000000)" fill="#F4F5F8" fill-rule="nonzero">
            <g transform="translate(392.000000, 617.000000)">
                <path d="M2,0 L36,0 C37.1045695,-2.02906125e-16 38,0.8954305 38,2 L38,118 C38,119.104569 37.1045695,120 36,120 L2,120 C0.8954305,120 1.3527075e-16,119.104569 0,118 L0,2 C-1.3527075e-16,0.8954305 0.8954305,2.02906125e-16 2,0 Z"></path>
                <path d="M50,0 L106,0 C107.104569,-2.02906125e-16 108,0.8954305 108,2 L108,31.4177215 C108,32.522291 107.104569,33.4177215 106,33.4177215 L50,33.4177215 C48.8954305,33.4177215 48,32.522291 48,31.4177215 L48,2 C48,0.8954305 48.8954305,-1.57345071e-15 50,0 Z"></path>
                <path d="M50,50.1265823 L160,50.1265823 C161.104569,50.1265823 162,51.0220128 162,52.1265823 L162,63.3164557 C162,64.4210252 161.104569,65.3164557 160,65.3164557 L50,65.3164557 C48.8954305,65.3164557 48,64.4210252 48,63.3164557 L48,52.1265823 C48,51.0220128 48.8954305,50.1265823 50,50.1265823 Z"></path>
                <path d="M50,78.9873418 L160,78.9873418 C161.104569,78.9873418 162,79.8827723 162,80.9873418 L162,92.1772152 C162,93.2817847 161.104569,94.1772152 160,94.1772152 L50,94.1772152 C48.8954305,94.1772152 48,93.2817847 48,92.1772152 L48,80.9873418 C48,79.8827723 48.8954305,78.9873418 50,78.9873418 Z"></path>
                <path d="M50,104.810127 L114,104.810127 C115.104569,104.810127 116,105.705557 116,106.810127 L116,118 C116,119.104569 115.104569,120 114,120 L50,120 C48.8954305,120 48,119.104569 48,118 L48,106.810127 C48,105.705557 48.8954305,104.810127 50,104.810127 Z"></path>
            </g>
        </g>
    </g>
</svg>