<?xml version="1.0" encoding="UTF-8"?>
<svg width="20px" height="20px" viewBox="0 0 20 20" version="1.1" xmlns="http://www.w3.org/2000/svg" xmlns:xlink="http://www.w3.org/1999/xlink">
    <!-- Generator: Sketch 59.1 (86144) - https://sketch.com -->
    <title>widget-text</title>
    <desc>Created with Sketch.</desc>
    <g stroke="none" stroke-width="1" fill="none" fill-rule="evenodd">
        <g transform="translate(-160.000000, -1139.000000)" fill="#000000" fill-rule="nonzero">
            <path d="M178,1139 C179.104569,1139 180,1139.89543 180,1141 L180,1157 C180,1158.10457 179.104569,1159 178,1159 L162,1159 C160.895431,1159 160,1158.10457 160,1157 L160,1141 C160,1139.89543 160.895431,1139 162,1139 L178,1139 Z M178,1140 L162,1140 C161.447715,1140 161,1140.44772 161,1141 L161,1157 C161,1157.55228 161.447715,1158 162,1158 L178,1158 C178.552285,1158 179,1157.55228 179,1157 L179,1141 C179,1140.44772 178.552285,1140 178,1140 Z M174,1144 C174.512836,1144 174.935507,1144.38604 174.993272,1144.88338 L175,1145 L175,1146.5 C175,1146.77614 174.776142,1147 174.5,1147 C174.223858,1147 174,1146.77614 174,1146.5 L174,1145 L170.5,1145 L170.5,1153 L171.5,1153 C171.776142,1153 172,1153.22386 172,1153.5 C172,1153.77614 171.776142,1154 171.5,1154 L168.5,1154 C168.223858,1154 168,1153.77614 168,1153.5 C168,1153.22386 168.223858,1153 168.5,1153 L169.5,1153 L169.5,1145 L166,1145 L166,1146.5 C166,1146.77614 165.776142,1147 165.5,1147 C165.223858,1147 165,1146.77614 165,1146.5 L165,1145 C165,1144.44772 165.447715,1144 166,1144 L174,1144 Z"></path>
        </g>
    </g>
</svg>