<?xml version="1.0" encoding="UTF-8"?>
<svg width="20px" height="20px" viewBox="0 0 20 20" version="1.1" xmlns="http://www.w3.org/2000/svg" xmlns:xlink="http://www.w3.org/1999/xlink">
    <!-- Generator: Sketch 59.1 (86144) - https://sketch.com -->
    <title>icon-legend</title>
    <desc>Created with Sketch.</desc>
    <g stroke="none" stroke-width="1" fill="none" fill-rule="evenodd">
        <g transform="translate(-200.000000, -1179.000000)">
            <g transform="translate(200.000000, 1179.000000)">
                <path d="M19.3181818,15 C19.6947396,15 20,15.2238576 20,15.5 C20,15.7761424 19.6947396,16 19.3181818,16 L5.68181818,16 C5.3052604,16 5,15.7761424 5,15.5 C5,15.2238576 5.3052604,15 5.68181818,15 L19.3181818,15 Z M19.3181818,9 C19.6947396,9 20,9.22385763 20,9.5 C20,9.77614237 19.6947396,10 19.3181818,10 L5.68181818,10 C5.3052604,10 5,9.77614237 5,9.5 C5,9.22385763 5.3052604,9 5.68181818,9 L19.3181818,9 Z M19.3181818,3 C19.6947396,3 20,3.22385763 20,3.5 C20,3.77614237 19.6947396,4 19.3181818,4 L5.68181818,4 C5.3052604,4 5,3.77614237 5,3.5 C5,3.22385763 5.3052604,3 5.68181818,3 L19.3181818,3 Z M1.5,14 C2.32842712,14 3,14.6715729 3,15.5 C3,16.3284271 2.32842712,17 1.5,17 C0.671572875,17 0,16.3284271 0,15.5 C0,14.6715729 0.671572875,14 1.5,14 Z M3,8 L3,11 L0,11 L0,8 L3,8 Z M1.5,2 L3,5 L0,5 L1.5,2 Z" fill="#000000" fill-rule="nonzero"></path>
                <rect x="0" y="0" width="20" height="20"></rect>
            </g>
        </g>
    </g>
</svg>