<svg xmlns="http://www.w3.org/2000/svg" width="16" height="16"><path fill="#6F6F6F" d="M14.804 12.919L11.738 9.85a.668.668 0 00-.944 0l-.017.017-.1.1-.966-.965.077-.076c1.728-2.163 1.616-5.311-.387-7.314A5.507 5.507 0 001.613 9.4c1.992 1.99 5.116 2.115 7.278.416l.11-.11.971.971-.134.135a.665.665 0 00.013.924l3.067 3.067a.665.665 0 00.944 0l.942-.942a.666.666 0 000-.943zM2.265 8.735a4.577 4.577 0 010-6.472 4.576 4.576 0 016.47 6.472 4.575 4.575 0 01-6.47 0zm11.125 5.48l-2.948-2.947.825-.828 2.948 2.95-.825.825z"/></svg>