<?xml version="1.0" encoding="UTF-8"?>
<svg width="12" height="12" viewBox="0 0 12 12" version="1.1" xmlns="http://www.w3.org/2000/svg" xmlns:xlink="http://www.w3.org/1999/xlink">
<g id="arrow-down-double">
<path id="Union" fill-rule="evenodd" clip-rule="evenodd" d="M1.16123 1.98059L5.47079 6.52098C5.76342 6.82634 6.23658 6.82634 6.52921 6.52098L10.8388 1.98059C11.0537 1.75627 11.0537 1.39257 10.8388 1.16824C10.6238 0.943919 10.2752 0.943919 10.0603 1.16824L6 5.4485L1.93974 1.16824C1.72476 0.943919 1.37621 0.943919 1.16123 1.16824C0.946256 1.39257 0.946256 1.75627 1.16123 1.98059ZM1.16123 5.98059L5.47079 10.521C5.76342 10.8263 6.23658 10.8263 6.52921 10.521L10.8388 5.98059C11.0537 5.75627 11.0537 5.39257 10.8388 5.16824C10.6238 4.94392 10.2752 4.94392 10.0603 5.16824L6 9.44851L1.93974 5.16824C1.72476 4.94392 1.37621 4.94392 1.16123 5.16824C0.946256 5.39257 0.946256 5.75627 1.16123 5.98059Z" fill="black"/>
</g>
</svg>
