<?xml version="1.0" encoding="UTF-8"?>
<svg width="16px" height="16px" viewBox="0 0 16 16" version="1.1" xmlns="http://www.w3.org/2000/svg" xmlns:xlink="http://www.w3.org/1999/xlink">
    <g stroke="none" stroke-width="1" fill="none" fill-rule="evenodd">
        <g transform="translate(-425.000000, -888.000000)" fill="#FFFFFF" fill-rule="nonzero">
            <path d="M433,890 L426,890 L426,902 C426,902.552285 426.447715,903 427,903 L439,903 C439.552285,903 440,902.552285 440,902 L440,890 L434,890 L434,903 L433,903 L433,890 Z M427,888 L439,888 C440.104569,888 441,888.895431 441,890 L441,902 C441,903.104569 440.104569,904 439,904 L427,904 C425.895431,904 425,903.104569 425,902 L425,890 C425,888.895431 425.895431,888 427,888 Z M430.160189,896.5 L431.859246,898.185951 C432.046918,898.372176 432.046918,898.674106 431.859246,898.860331 C431.671573,899.046556 431.367295,899.046556 431.179623,898.860331 L429.140754,896.83719 C428.953082,896.650965 428.953082,896.349035 429.140754,896.16281 L431.179623,894.139669 C431.367295,893.953444 431.671573,893.953444 431.859246,894.139669 C432.046918,894.325894 432.046918,894.627824 431.859246,894.814049 L430.160189,896.5 Z"></path>
        </g>
    </g>
</svg>