<?xml version="1.0" encoding="UTF-8"?>
<svg width="20px" height="20px" viewBox="0 0 20 20" version="1.1" xmlns="http://www.w3.org/2000/svg" xmlns:xlink="http://www.w3.org/1999/xlink">
    <!-- Generator: Sketch 59.1 (86144) - https://sketch.com -->
    <title>widget-map</title>
    <desc>Created with Sketch.</desc>
    <g stroke="none" stroke-width="1" fill="none" fill-rule="evenodd">
        <g transform="translate(-80.000000, -1139.000000)">
            <g transform="translate(80.000000, 1139.000000)">
                <path d="M20,1 L20,16 L13,19 L7,16 L-1.42108547e-14,19 L-1.42108547e-14,4 L7,1 L13,4 L20,1 Z M19,2.5 L13.5,4.791 L13.5,17.791 L19,15.5 L19,2.5 Z M7.499,2.249 L7.499,15.249 L12.5,17.749 L12.5,4.749 L7.499,2.249 Z M6.499,2.208 L1,4.5 L1,17.5 L6.499,15.208 L6.499,2.208 Z M7,2 L6.998,2 L7.002,2 L7,2 Z" fill="#000000" fill-rule="nonzero"></path>
                <rect x="0" y="0" width="20" height="20"></rect>
            </g>
        </g>
    </g>
</svg>